G04 EAGLE Gerber X2 export*
%TF.Part,Single*%
%TF.FileFunction,Copper,L1,Top,Mixed*%
%TF.FilePolarity,Positive*%
%TF.GenerationSoftware,Autodesk,EAGLE,9.1.0*%
%TF.CreationDate,2018-08-15T13:35:39Z*%
G75*
%MOMM*%
%FSLAX34Y34*%
%LPD*%
%AMOC8*
5,1,8,0,0,1.08239X$1,22.5*%
G01*
%ADD10R,1.600000X2.600000*%
%ADD11R,1.050000X1.080000*%
%ADD12R,1.600000X1.300000*%
%ADD13R,2.200000X0.600000*%
%ADD14R,1.650000X1.650000*%
%ADD15C,1.650000*%
%ADD16P,1.429621X8X112.500000*%
%ADD17R,2.600000X1.500000*%
%ADD18R,1.300000X1.600000*%
%ADD19C,1.320800*%
%ADD20C,0.406400*%

G36*
X240402Y16258D02*
X240402Y16258D01*
X240411Y16257D01*
X240605Y16278D01*
X240794Y16297D01*
X240803Y16299D01*
X240812Y16300D01*
X240996Y16359D01*
X241179Y16415D01*
X241187Y16419D01*
X241196Y16422D01*
X241364Y16515D01*
X241533Y16607D01*
X241540Y16612D01*
X241548Y16617D01*
X241695Y16741D01*
X241842Y16864D01*
X241848Y16871D01*
X241855Y16877D01*
X241975Y17029D01*
X242095Y17178D01*
X242099Y17186D01*
X242104Y17193D01*
X242192Y17364D01*
X242280Y17535D01*
X242283Y17544D01*
X242287Y17552D01*
X242339Y17738D01*
X242392Y17922D01*
X242392Y17931D01*
X242395Y17940D01*
X242409Y18133D01*
X242425Y18324D01*
X242424Y18332D01*
X242424Y18341D01*
X242400Y18534D01*
X242378Y18723D01*
X242375Y18732D01*
X242374Y18741D01*
X242313Y18923D01*
X242253Y19106D01*
X242248Y19114D01*
X242246Y19122D01*
X242150Y19289D01*
X242055Y19457D01*
X242049Y19464D01*
X242045Y19471D01*
X241830Y19724D01*
X240306Y21248D01*
X240285Y21265D01*
X240268Y21286D01*
X240130Y21393D01*
X239994Y21503D01*
X239971Y21516D01*
X239950Y21532D01*
X239793Y21610D01*
X239639Y21692D01*
X239613Y21700D01*
X239589Y21712D01*
X239420Y21757D01*
X239253Y21807D01*
X239226Y21809D01*
X239200Y21816D01*
X238870Y21843D01*
X233477Y21843D01*
X225043Y30277D01*
X225043Y42012D01*
X225041Y42030D01*
X225043Y42048D01*
X225022Y42230D01*
X225003Y42413D01*
X224998Y42430D01*
X224996Y42447D01*
X224939Y42622D01*
X224885Y42798D01*
X224877Y42813D01*
X224871Y42830D01*
X224781Y42990D01*
X224693Y43152D01*
X224682Y43165D01*
X224673Y43181D01*
X224553Y43320D01*
X224436Y43461D01*
X224422Y43472D01*
X224410Y43486D01*
X224265Y43598D01*
X224122Y43713D01*
X224106Y43721D01*
X224092Y43732D01*
X223927Y43814D01*
X223765Y43899D01*
X223748Y43904D01*
X223732Y43912D01*
X223553Y43959D01*
X223378Y44010D01*
X223360Y44012D01*
X223343Y44016D01*
X223012Y44043D01*
X221106Y44043D01*
X221088Y44041D01*
X221070Y44043D01*
X220888Y44022D01*
X220705Y44003D01*
X220688Y43998D01*
X220671Y43996D01*
X220496Y43939D01*
X220320Y43885D01*
X220305Y43877D01*
X220288Y43871D01*
X220128Y43781D01*
X219966Y43693D01*
X219953Y43682D01*
X219937Y43673D01*
X219798Y43553D01*
X219657Y43436D01*
X219646Y43422D01*
X219632Y43410D01*
X219520Y43265D01*
X219405Y43122D01*
X219397Y43106D01*
X219386Y43092D01*
X219304Y42927D01*
X219219Y42765D01*
X219214Y42748D01*
X219206Y42732D01*
X219159Y42553D01*
X219108Y42378D01*
X219106Y42360D01*
X219102Y42343D01*
X219075Y42012D01*
X219075Y40468D01*
X218143Y39536D01*
X218131Y39522D01*
X218118Y39511D01*
X218004Y39367D01*
X217888Y39225D01*
X217879Y39209D01*
X217868Y39195D01*
X217785Y39031D01*
X217699Y38869D01*
X217694Y38852D01*
X217686Y38836D01*
X217636Y38659D01*
X217584Y38483D01*
X217583Y38465D01*
X217578Y38448D01*
X217564Y38265D01*
X217548Y38082D01*
X217550Y38064D01*
X217548Y38047D01*
X217571Y37865D01*
X217591Y37682D01*
X217597Y37665D01*
X217599Y37647D01*
X217657Y37473D01*
X217713Y37298D01*
X217721Y37282D01*
X217727Y37266D01*
X217819Y37107D01*
X217907Y36946D01*
X217919Y36932D01*
X217928Y36917D01*
X218143Y36664D01*
X219075Y35732D01*
X219075Y21468D01*
X218182Y20575D01*
X200918Y20575D01*
X200025Y21468D01*
X200025Y23012D01*
X200023Y23030D01*
X200025Y23048D01*
X200004Y23230D01*
X199985Y23413D01*
X199980Y23430D01*
X199978Y23447D01*
X199921Y23622D01*
X199867Y23798D01*
X199859Y23813D01*
X199853Y23830D01*
X199763Y23990D01*
X199675Y24152D01*
X199664Y24165D01*
X199655Y24181D01*
X199535Y24320D01*
X199418Y24461D01*
X199404Y24472D01*
X199392Y24486D01*
X199247Y24598D01*
X199104Y24713D01*
X199088Y24721D01*
X199074Y24732D01*
X198909Y24814D01*
X198747Y24899D01*
X198730Y24904D01*
X198714Y24912D01*
X198638Y24932D01*
X193293Y30277D01*
X193293Y48485D01*
X193291Y48512D01*
X193293Y48539D01*
X193271Y48713D01*
X193253Y48886D01*
X193246Y48911D01*
X193242Y48938D01*
X193187Y49104D01*
X193135Y49271D01*
X193122Y49294D01*
X193114Y49320D01*
X193027Y49471D01*
X192943Y49625D01*
X192926Y49645D01*
X192913Y49669D01*
X192698Y49922D01*
X189622Y52998D01*
X189601Y53015D01*
X189583Y53036D01*
X189446Y53143D01*
X189310Y53253D01*
X189287Y53266D01*
X189265Y53282D01*
X189108Y53360D01*
X188954Y53442D01*
X188929Y53450D01*
X188905Y53462D01*
X188735Y53507D01*
X188569Y53557D01*
X188542Y53559D01*
X188516Y53566D01*
X188185Y53593D01*
X154715Y53593D01*
X154688Y53591D01*
X154661Y53593D01*
X154487Y53571D01*
X154314Y53553D01*
X154289Y53546D01*
X154262Y53542D01*
X154096Y53487D01*
X153929Y53435D01*
X153906Y53422D01*
X153880Y53414D01*
X153729Y53327D01*
X153575Y53243D01*
X153555Y53226D01*
X153531Y53213D01*
X153278Y52998D01*
X150202Y49922D01*
X150185Y49901D01*
X150164Y49883D01*
X150057Y49746D01*
X149947Y49610D01*
X149934Y49587D01*
X149918Y49565D01*
X149840Y49408D01*
X149758Y49254D01*
X149750Y49229D01*
X149738Y49205D01*
X149693Y49035D01*
X149643Y48869D01*
X149641Y48842D01*
X149634Y48816D01*
X149607Y48485D01*
X149607Y48233D01*
X149609Y48210D01*
X149607Y48188D01*
X149629Y48010D01*
X149647Y47832D01*
X149653Y47811D01*
X149656Y47788D01*
X149712Y47618D01*
X149765Y47447D01*
X149775Y47427D01*
X149782Y47406D01*
X149871Y47250D01*
X149957Y47093D01*
X149971Y47076D01*
X149982Y47057D01*
X150100Y46921D01*
X150214Y46784D01*
X150232Y46770D01*
X150246Y46753D01*
X150388Y46644D01*
X150528Y46532D01*
X150548Y46521D01*
X150566Y46508D01*
X150772Y46402D01*
X153537Y43637D01*
X155025Y40044D01*
X155025Y36156D01*
X153537Y32563D01*
X150787Y29813D01*
X147194Y28325D01*
X143306Y28325D01*
X139713Y29813D01*
X136963Y32563D01*
X135475Y36156D01*
X135475Y40044D01*
X136963Y43637D01*
X139713Y46387D01*
X140907Y46881D01*
X141239Y47019D01*
X141259Y47029D01*
X141280Y47036D01*
X141436Y47124D01*
X141594Y47209D01*
X141611Y47223D01*
X141631Y47234D01*
X141766Y47351D01*
X141905Y47465D01*
X141919Y47483D01*
X141936Y47497D01*
X142045Y47639D01*
X142158Y47778D01*
X142169Y47798D01*
X142182Y47815D01*
X142262Y47976D01*
X142345Y48135D01*
X142352Y48156D01*
X142362Y48176D01*
X142408Y48350D01*
X142458Y48521D01*
X142460Y48543D01*
X142466Y48565D01*
X142493Y48895D01*
X142493Y52273D01*
X150927Y60707D01*
X191973Y60707D01*
X197551Y55129D01*
X197564Y55118D01*
X197576Y55105D01*
X197720Y54991D01*
X197862Y54874D01*
X197878Y54866D01*
X197892Y54855D01*
X198056Y54772D01*
X198218Y54686D01*
X198235Y54681D01*
X198251Y54673D01*
X198428Y54623D01*
X198604Y54571D01*
X198621Y54569D01*
X198639Y54565D01*
X198822Y54551D01*
X199005Y54535D01*
X199022Y54537D01*
X199040Y54535D01*
X199222Y54558D01*
X199405Y54578D01*
X199422Y54583D01*
X199440Y54586D01*
X199613Y54644D01*
X199789Y54699D01*
X199804Y54708D01*
X199821Y54714D01*
X199981Y54806D01*
X200141Y54894D01*
X200155Y54906D01*
X200170Y54915D01*
X200423Y55129D01*
X200918Y55625D01*
X218182Y55625D01*
X219075Y54732D01*
X219075Y53188D01*
X219077Y53170D01*
X219075Y53152D01*
X219096Y52970D01*
X219115Y52787D01*
X219120Y52770D01*
X219122Y52753D01*
X219179Y52578D01*
X219233Y52402D01*
X219241Y52387D01*
X219247Y52370D01*
X219337Y52209D01*
X219425Y52048D01*
X219436Y52035D01*
X219445Y52019D01*
X219565Y51880D01*
X219682Y51739D01*
X219696Y51728D01*
X219708Y51714D01*
X219853Y51602D01*
X219996Y51487D01*
X220012Y51479D01*
X220026Y51468D01*
X220191Y51386D01*
X220353Y51301D01*
X220370Y51296D01*
X220386Y51288D01*
X220565Y51241D01*
X220740Y51190D01*
X220758Y51188D01*
X220775Y51184D01*
X221106Y51157D01*
X226923Y51157D01*
X232157Y45923D01*
X232157Y34065D01*
X232159Y34038D01*
X232157Y34011D01*
X232179Y33837D01*
X232197Y33664D01*
X232204Y33639D01*
X232208Y33612D01*
X232263Y33446D01*
X232315Y33279D01*
X232328Y33256D01*
X232336Y33230D01*
X232423Y33079D01*
X232507Y32925D01*
X232524Y32905D01*
X232537Y32881D01*
X232752Y32628D01*
X235828Y29552D01*
X235849Y29535D01*
X235867Y29514D01*
X236004Y29407D01*
X236140Y29297D01*
X236163Y29284D01*
X236185Y29268D01*
X236342Y29190D01*
X236496Y29108D01*
X236521Y29100D01*
X236545Y29088D01*
X236715Y29043D01*
X236881Y28993D01*
X236908Y28991D01*
X236934Y28984D01*
X237265Y28957D01*
X238870Y28957D01*
X238896Y28959D01*
X238923Y28957D01*
X239097Y28979D01*
X239270Y28997D01*
X239296Y29004D01*
X239322Y29008D01*
X239488Y29064D01*
X239655Y29115D01*
X239679Y29128D01*
X239704Y29136D01*
X239856Y29223D01*
X240009Y29307D01*
X240030Y29324D01*
X240053Y29337D01*
X240306Y29552D01*
X244283Y33529D01*
X251017Y33529D01*
X255779Y28767D01*
X255779Y22033D01*
X253470Y19724D01*
X253464Y19717D01*
X253458Y19712D01*
X253337Y19562D01*
X253215Y19413D01*
X253211Y19405D01*
X253205Y19398D01*
X253117Y19228D01*
X253026Y19057D01*
X253024Y19048D01*
X253020Y19041D01*
X252967Y18856D01*
X252912Y18671D01*
X252911Y18662D01*
X252908Y18654D01*
X252893Y18463D01*
X252875Y18270D01*
X252876Y18261D01*
X252875Y18252D01*
X252898Y18063D01*
X252919Y17870D01*
X252921Y17861D01*
X252922Y17853D01*
X252982Y17671D01*
X253040Y17486D01*
X253044Y17478D01*
X253047Y17470D01*
X253142Y17301D01*
X253235Y17134D01*
X253241Y17127D01*
X253245Y17119D01*
X253371Y16973D01*
X253495Y16827D01*
X253502Y16821D01*
X253508Y16814D01*
X253660Y16697D01*
X253811Y16577D01*
X253819Y16573D01*
X253826Y16568D01*
X253998Y16482D01*
X254170Y16395D01*
X254179Y16392D01*
X254187Y16388D01*
X254373Y16338D01*
X254558Y16287D01*
X254567Y16286D01*
X254576Y16284D01*
X254906Y16257D01*
X264385Y16257D01*
X264412Y16259D01*
X264439Y16257D01*
X264613Y16279D01*
X264786Y16297D01*
X264811Y16304D01*
X264838Y16308D01*
X265004Y16363D01*
X265171Y16415D01*
X265194Y16428D01*
X265220Y16436D01*
X265371Y16523D01*
X265525Y16607D01*
X265545Y16624D01*
X265569Y16637D01*
X265822Y16852D01*
X268898Y19928D01*
X268915Y19949D01*
X268936Y19967D01*
X269043Y20104D01*
X269153Y20240D01*
X269166Y20263D01*
X269182Y20285D01*
X269260Y20442D01*
X269342Y20596D01*
X269350Y20621D01*
X269362Y20645D01*
X269407Y20815D01*
X269457Y20981D01*
X269459Y21008D01*
X269466Y21034D01*
X269493Y21365D01*
X269493Y156435D01*
X269493Y156442D01*
X269493Y156446D01*
X269491Y156465D01*
X269493Y156489D01*
X269471Y156663D01*
X269453Y156836D01*
X269446Y156861D01*
X269442Y156888D01*
X269387Y157054D01*
X269335Y157221D01*
X269322Y157244D01*
X269314Y157270D01*
X269227Y157421D01*
X269143Y157575D01*
X269126Y157595D01*
X269113Y157619D01*
X268898Y157872D01*
X265822Y160948D01*
X265801Y160965D01*
X265783Y160986D01*
X265646Y161093D01*
X265510Y161203D01*
X265487Y161216D01*
X265465Y161232D01*
X265308Y161310D01*
X265154Y161392D01*
X265129Y161400D01*
X265105Y161412D01*
X264935Y161457D01*
X264769Y161507D01*
X264742Y161509D01*
X264716Y161516D01*
X264385Y161543D01*
X259167Y161543D01*
X259158Y161542D01*
X259148Y161543D01*
X258958Y161522D01*
X258766Y161503D01*
X258757Y161501D01*
X258748Y161500D01*
X258566Y161442D01*
X258381Y161385D01*
X258373Y161381D01*
X258364Y161378D01*
X258197Y161285D01*
X258027Y161193D01*
X258020Y161188D01*
X258012Y161183D01*
X257865Y161058D01*
X257718Y160936D01*
X257712Y160928D01*
X257705Y160922D01*
X257586Y160772D01*
X257466Y160622D01*
X257461Y160614D01*
X257456Y160606D01*
X257368Y160434D01*
X257280Y160265D01*
X257278Y160256D01*
X257273Y160247D01*
X257222Y160062D01*
X257169Y159878D01*
X257168Y159868D01*
X257166Y159859D01*
X257151Y159666D01*
X257136Y159476D01*
X257137Y159467D01*
X257136Y159458D01*
X257161Y159267D01*
X257175Y159146D01*
X257175Y131368D01*
X256282Y130475D01*
X239018Y130475D01*
X238125Y131368D01*
X238125Y140462D01*
X238123Y140480D01*
X238125Y140498D01*
X238104Y140680D01*
X238085Y140863D01*
X238080Y140880D01*
X238078Y140897D01*
X238021Y141072D01*
X237967Y141248D01*
X237959Y141263D01*
X237953Y141280D01*
X237863Y141439D01*
X237775Y141602D01*
X237764Y141615D01*
X237755Y141631D01*
X237635Y141770D01*
X237518Y141911D01*
X237504Y141922D01*
X237492Y141936D01*
X237347Y142048D01*
X237204Y142163D01*
X237188Y142171D01*
X237174Y142182D01*
X237009Y142264D01*
X236847Y142349D01*
X236830Y142354D01*
X236814Y142362D01*
X236635Y142409D01*
X236460Y142460D01*
X236442Y142462D01*
X236425Y142466D01*
X236094Y142493D01*
X214756Y142493D01*
X214738Y142491D01*
X214720Y142493D01*
X214538Y142472D01*
X214355Y142453D01*
X214338Y142448D01*
X214321Y142446D01*
X214146Y142389D01*
X213970Y142335D01*
X213955Y142327D01*
X213938Y142321D01*
X213778Y142231D01*
X213616Y142143D01*
X213603Y142132D01*
X213587Y142123D01*
X213448Y142003D01*
X213307Y141886D01*
X213296Y141872D01*
X213282Y141860D01*
X213170Y141715D01*
X213055Y141572D01*
X213047Y141556D01*
X213036Y141542D01*
X212954Y141377D01*
X212869Y141215D01*
X212864Y141198D01*
X212856Y141182D01*
X212809Y141003D01*
X212758Y140828D01*
X212756Y140810D01*
X212752Y140793D01*
X212725Y140462D01*
X212725Y135768D01*
X211832Y134875D01*
X194568Y134875D01*
X193675Y135768D01*
X193675Y140462D01*
X193673Y140480D01*
X193675Y140498D01*
X193654Y140680D01*
X193635Y140863D01*
X193630Y140880D01*
X193628Y140897D01*
X193571Y141072D01*
X193517Y141248D01*
X193509Y141263D01*
X193503Y141280D01*
X193413Y141439D01*
X193325Y141602D01*
X193314Y141615D01*
X193305Y141631D01*
X193185Y141770D01*
X193068Y141911D01*
X193054Y141922D01*
X193042Y141936D01*
X192897Y142048D01*
X192754Y142163D01*
X192738Y142171D01*
X192724Y142182D01*
X192559Y142264D01*
X192397Y142349D01*
X192380Y142354D01*
X192364Y142362D01*
X192185Y142409D01*
X192010Y142460D01*
X191992Y142462D01*
X191975Y142466D01*
X191644Y142493D01*
X179141Y142493D01*
X179114Y142491D01*
X179088Y142493D01*
X178914Y142471D01*
X178740Y142453D01*
X178715Y142446D01*
X178688Y142442D01*
X178523Y142387D01*
X178355Y142335D01*
X178332Y142322D01*
X178307Y142314D01*
X178155Y142227D01*
X178001Y142143D01*
X177981Y142126D01*
X177958Y142113D01*
X177705Y141898D01*
X176943Y141136D01*
X176931Y141123D01*
X176918Y141111D01*
X176804Y140967D01*
X176688Y140825D01*
X176679Y140809D01*
X176668Y140795D01*
X176585Y140632D01*
X176499Y140469D01*
X176494Y140452D01*
X176486Y140436D01*
X176437Y140260D01*
X176384Y140083D01*
X176383Y140065D01*
X176378Y140048D01*
X176364Y139865D01*
X176348Y139682D01*
X176350Y139665D01*
X176348Y139647D01*
X176371Y139465D01*
X176391Y139282D01*
X176397Y139265D01*
X176399Y139247D01*
X176457Y139073D01*
X176513Y138898D01*
X176521Y138883D01*
X176527Y138866D01*
X176619Y138706D01*
X176707Y138546D01*
X176719Y138532D01*
X176728Y138517D01*
X176943Y138264D01*
X178225Y136982D01*
X178225Y129718D01*
X176943Y128436D01*
X176931Y128423D01*
X176918Y128411D01*
X176804Y128267D01*
X176688Y128125D01*
X176679Y128109D01*
X176668Y128095D01*
X176585Y127931D01*
X176499Y127769D01*
X176494Y127752D01*
X176486Y127736D01*
X176436Y127559D01*
X176384Y127383D01*
X176383Y127365D01*
X176378Y127348D01*
X176364Y127165D01*
X176348Y126982D01*
X176350Y126964D01*
X176348Y126947D01*
X176371Y126765D01*
X176391Y126582D01*
X176397Y126565D01*
X176399Y126547D01*
X176457Y126374D01*
X176513Y126198D01*
X176521Y126182D01*
X176527Y126166D01*
X176618Y126007D01*
X176707Y125846D01*
X176719Y125832D01*
X176728Y125817D01*
X176943Y125564D01*
X177705Y124802D01*
X177725Y124785D01*
X177743Y124764D01*
X177881Y124657D01*
X178016Y124547D01*
X178040Y124534D01*
X178061Y124518D01*
X178218Y124440D01*
X178372Y124358D01*
X178397Y124350D01*
X178421Y124338D01*
X178591Y124293D01*
X178758Y124243D01*
X178784Y124241D01*
X178810Y124234D01*
X179141Y124207D01*
X185609Y124207D01*
X185636Y124209D01*
X185662Y124207D01*
X185836Y124229D01*
X186010Y124247D01*
X186035Y124254D01*
X186062Y124258D01*
X186227Y124313D01*
X186395Y124365D01*
X186418Y124378D01*
X186443Y124386D01*
X186595Y124473D01*
X186749Y124557D01*
X186769Y124574D01*
X186792Y124587D01*
X187045Y124802D01*
X188218Y125975D01*
X205482Y125975D01*
X206375Y125082D01*
X206375Y110818D01*
X205511Y109955D01*
X205459Y109891D01*
X205400Y109834D01*
X205332Y109736D01*
X205256Y109643D01*
X205217Y109571D01*
X205171Y109503D01*
X205123Y109393D01*
X205067Y109288D01*
X205044Y109209D01*
X205011Y109133D01*
X204987Y109016D01*
X204953Y108902D01*
X204945Y108820D01*
X204928Y108739D01*
X204927Y108620D01*
X204916Y108501D01*
X204925Y108419D01*
X204924Y108337D01*
X204947Y108219D01*
X204960Y108100D01*
X204984Y108022D01*
X205000Y107941D01*
X205045Y107831D01*
X205081Y107717D01*
X205121Y107645D01*
X205152Y107569D01*
X205218Y107469D01*
X205276Y107364D01*
X205329Y107301D01*
X205374Y107233D01*
X205459Y107149D01*
X205536Y107057D01*
X205601Y107006D01*
X205659Y106948D01*
X205784Y106861D01*
X205852Y106808D01*
X205889Y106789D01*
X205932Y106759D01*
X206410Y106483D01*
X206883Y106010D01*
X207218Y105431D01*
X207391Y104785D01*
X207391Y101199D01*
X198068Y101199D01*
X198050Y101197D01*
X198033Y101199D01*
X197850Y101178D01*
X197668Y101159D01*
X197651Y101154D01*
X197633Y101152D01*
X197458Y101095D01*
X197283Y101041D01*
X197267Y101033D01*
X197250Y101027D01*
X197090Y100937D01*
X196929Y100849D01*
X196915Y100838D01*
X196899Y100829D01*
X196847Y100784D01*
X196742Y100869D01*
X196726Y100877D01*
X196712Y100888D01*
X196547Y100970D01*
X196384Y101055D01*
X196367Y101060D01*
X196351Y101068D01*
X196173Y101115D01*
X195998Y101166D01*
X195980Y101168D01*
X195963Y101172D01*
X195632Y101199D01*
X186309Y101199D01*
X186309Y104785D01*
X186482Y105431D01*
X186817Y106010D01*
X187290Y106483D01*
X187768Y106759D01*
X187835Y106807D01*
X187907Y106847D01*
X187998Y106924D01*
X188095Y106994D01*
X188151Y107054D01*
X188214Y107107D01*
X188288Y107201D01*
X188370Y107289D01*
X188413Y107359D01*
X188464Y107423D01*
X188518Y107530D01*
X188580Y107632D01*
X188609Y107709D01*
X188646Y107782D01*
X188678Y107897D01*
X188719Y108010D01*
X188732Y108091D01*
X188754Y108170D01*
X188763Y108290D01*
X188781Y108408D01*
X188777Y108490D01*
X188783Y108572D01*
X188768Y108691D01*
X188763Y108810D01*
X188743Y108890D01*
X188733Y108971D01*
X188695Y109085D01*
X188666Y109201D01*
X188631Y109275D01*
X188605Y109353D01*
X188545Y109456D01*
X188494Y109565D01*
X188445Y109631D01*
X188404Y109702D01*
X188305Y109818D01*
X188253Y109887D01*
X188223Y109915D01*
X188189Y109955D01*
X187325Y110818D01*
X187325Y115062D01*
X187323Y115080D01*
X187325Y115098D01*
X187304Y115280D01*
X187285Y115463D01*
X187280Y115480D01*
X187278Y115497D01*
X187221Y115672D01*
X187167Y115848D01*
X187159Y115863D01*
X187153Y115880D01*
X187063Y116040D01*
X186975Y116202D01*
X186964Y116215D01*
X186955Y116231D01*
X186835Y116370D01*
X186718Y116511D01*
X186704Y116522D01*
X186692Y116536D01*
X186547Y116648D01*
X186404Y116763D01*
X186388Y116771D01*
X186374Y116782D01*
X186209Y116864D01*
X186047Y116949D01*
X186030Y116954D01*
X186014Y116962D01*
X185835Y117009D01*
X185660Y117060D01*
X185642Y117062D01*
X185625Y117066D01*
X185294Y117093D01*
X179141Y117093D01*
X179114Y117091D01*
X179088Y117093D01*
X178914Y117071D01*
X178740Y117053D01*
X178715Y117046D01*
X178688Y117042D01*
X178523Y116987D01*
X178355Y116935D01*
X178332Y116922D01*
X178307Y116914D01*
X178155Y116827D01*
X178001Y116743D01*
X177981Y116726D01*
X177958Y116713D01*
X177705Y116498D01*
X177332Y116125D01*
X154068Y116125D01*
X153175Y117018D01*
X153175Y124282D01*
X154457Y125564D01*
X154469Y125578D01*
X154482Y125589D01*
X154596Y125733D01*
X154712Y125875D01*
X154721Y125891D01*
X154732Y125905D01*
X154815Y126069D01*
X154901Y126231D01*
X154906Y126248D01*
X154914Y126264D01*
X154963Y126440D01*
X155016Y126617D01*
X155017Y126635D01*
X155022Y126652D01*
X155036Y126835D01*
X155052Y127018D01*
X155050Y127036D01*
X155052Y127053D01*
X155029Y127235D01*
X155009Y127418D01*
X155003Y127435D01*
X155001Y127453D01*
X154943Y127627D01*
X154887Y127802D01*
X154879Y127818D01*
X154873Y127834D01*
X154781Y127993D01*
X154693Y128154D01*
X154681Y128168D01*
X154672Y128183D01*
X154457Y128436D01*
X153175Y129718D01*
X153175Y136982D01*
X154457Y138264D01*
X154469Y138278D01*
X154482Y138289D01*
X154596Y138433D01*
X154712Y138575D01*
X154721Y138591D01*
X154732Y138605D01*
X154815Y138769D01*
X154901Y138931D01*
X154906Y138948D01*
X154914Y138964D01*
X154964Y139141D01*
X155016Y139317D01*
X155017Y139335D01*
X155022Y139352D01*
X155036Y139535D01*
X155052Y139718D01*
X155050Y139736D01*
X155052Y139753D01*
X155029Y139935D01*
X155009Y140118D01*
X155003Y140135D01*
X155001Y140153D01*
X154943Y140327D01*
X154887Y140502D01*
X154879Y140518D01*
X154873Y140534D01*
X154781Y140693D01*
X154693Y140854D01*
X154681Y140868D01*
X154672Y140883D01*
X154457Y141136D01*
X153175Y142418D01*
X153175Y149682D01*
X154457Y150964D01*
X154469Y150977D01*
X154482Y150989D01*
X154596Y151133D01*
X154712Y151275D01*
X154721Y151291D01*
X154732Y151305D01*
X154815Y151469D01*
X154901Y151631D01*
X154906Y151648D01*
X154914Y151664D01*
X154964Y151841D01*
X155016Y152017D01*
X155017Y152035D01*
X155022Y152052D01*
X155036Y152235D01*
X155052Y152418D01*
X155050Y152436D01*
X155052Y152453D01*
X155029Y152635D01*
X155009Y152818D01*
X155003Y152835D01*
X155001Y152853D01*
X154943Y153026D01*
X154887Y153202D01*
X154879Y153218D01*
X154873Y153234D01*
X154782Y153393D01*
X154693Y153554D01*
X154681Y153568D01*
X154672Y153583D01*
X154457Y153836D01*
X153695Y154598D01*
X153675Y154615D01*
X153657Y154636D01*
X153519Y154743D01*
X153384Y154853D01*
X153360Y154866D01*
X153339Y154882D01*
X153182Y154960D01*
X153028Y155042D01*
X153003Y155050D01*
X152979Y155062D01*
X152809Y155107D01*
X152642Y155157D01*
X152616Y155159D01*
X152590Y155166D01*
X152259Y155193D01*
X150927Y155193D01*
X144893Y161227D01*
X144893Y168844D01*
X144891Y168862D01*
X144893Y168880D01*
X144872Y169062D01*
X144853Y169245D01*
X144848Y169262D01*
X144846Y169279D01*
X144789Y169454D01*
X144735Y169630D01*
X144727Y169645D01*
X144721Y169662D01*
X144631Y169822D01*
X144543Y169984D01*
X144532Y169997D01*
X144523Y170013D01*
X144403Y170152D01*
X144286Y170293D01*
X144272Y170304D01*
X144260Y170318D01*
X144115Y170430D01*
X143972Y170545D01*
X143956Y170553D01*
X143942Y170564D01*
X143777Y170646D01*
X143615Y170731D01*
X143598Y170736D01*
X143582Y170744D01*
X143403Y170791D01*
X143228Y170842D01*
X143210Y170844D01*
X143193Y170848D01*
X142862Y170875D01*
X142568Y170875D01*
X141705Y171739D01*
X141641Y171791D01*
X141584Y171850D01*
X141486Y171918D01*
X141393Y171994D01*
X141321Y172033D01*
X141253Y172079D01*
X141143Y172127D01*
X141038Y172183D01*
X140959Y172206D01*
X140883Y172239D01*
X140766Y172263D01*
X140652Y172297D01*
X140570Y172305D01*
X140489Y172322D01*
X140370Y172323D01*
X140251Y172334D01*
X140169Y172325D01*
X140087Y172326D01*
X139969Y172303D01*
X139850Y172290D01*
X139772Y172266D01*
X139691Y172250D01*
X139581Y172205D01*
X139467Y172169D01*
X139395Y172129D01*
X139319Y172098D01*
X139219Y172032D01*
X139114Y171974D01*
X139051Y171921D01*
X138983Y171876D01*
X138899Y171791D01*
X138807Y171714D01*
X138756Y171649D01*
X138698Y171591D01*
X138611Y171466D01*
X138558Y171398D01*
X138539Y171361D01*
X138509Y171318D01*
X138233Y170840D01*
X137760Y170367D01*
X137181Y170032D01*
X136535Y169859D01*
X133574Y169859D01*
X133574Y177207D01*
X133572Y177225D01*
X133574Y177242D01*
X133553Y177425D01*
X133534Y177607D01*
X133529Y177624D01*
X133527Y177642D01*
X133476Y177798D01*
X133490Y177852D01*
X133541Y178027D01*
X133543Y178045D01*
X133547Y178062D01*
X133574Y178393D01*
X133574Y185741D01*
X136535Y185741D01*
X137181Y185568D01*
X137760Y185233D01*
X138233Y184760D01*
X138509Y184282D01*
X138557Y184215D01*
X138597Y184143D01*
X138674Y184052D01*
X138744Y183955D01*
X138804Y183899D01*
X138857Y183836D01*
X138951Y183762D01*
X139039Y183680D01*
X139109Y183637D01*
X139173Y183586D01*
X139280Y183532D01*
X139382Y183470D01*
X139459Y183441D01*
X139532Y183404D01*
X139647Y183372D01*
X139760Y183331D01*
X139841Y183318D01*
X139920Y183296D01*
X140040Y183287D01*
X140158Y183269D01*
X140240Y183273D01*
X140322Y183267D01*
X140441Y183282D01*
X140560Y183287D01*
X140640Y183307D01*
X140721Y183317D01*
X140835Y183355D01*
X140951Y183384D01*
X141025Y183419D01*
X141103Y183445D01*
X141206Y183505D01*
X141315Y183556D01*
X141381Y183605D01*
X141452Y183646D01*
X141568Y183745D01*
X141637Y183797D01*
X141665Y183827D01*
X141705Y183861D01*
X142568Y184725D01*
X154332Y184725D01*
X155225Y183832D01*
X155225Y183388D01*
X155227Y183370D01*
X155225Y183352D01*
X155246Y183170D01*
X155265Y182987D01*
X155270Y182970D01*
X155272Y182953D01*
X155329Y182778D01*
X155383Y182602D01*
X155391Y182587D01*
X155397Y182570D01*
X155487Y182410D01*
X155575Y182248D01*
X155586Y182235D01*
X155595Y182219D01*
X155715Y182080D01*
X155832Y181939D01*
X155846Y181928D01*
X155858Y181914D01*
X156003Y181802D01*
X156146Y181687D01*
X156162Y181679D01*
X156176Y181668D01*
X156341Y181586D01*
X156503Y181501D01*
X156520Y181496D01*
X156536Y181488D01*
X156715Y181441D01*
X156890Y181390D01*
X156908Y181388D01*
X156925Y181384D01*
X157256Y181357D01*
X217373Y181357D01*
X229478Y169252D01*
X229499Y169235D01*
X229517Y169214D01*
X229654Y169107D01*
X229790Y168997D01*
X229813Y168984D01*
X229835Y168968D01*
X229992Y168889D01*
X230146Y168808D01*
X230171Y168800D01*
X230195Y168788D01*
X230365Y168743D01*
X230531Y168693D01*
X230558Y168691D01*
X230584Y168684D01*
X230915Y168657D01*
X240280Y168657D01*
X240417Y168670D01*
X240554Y168675D01*
X240617Y168690D01*
X240681Y168697D01*
X240812Y168737D01*
X240946Y168769D01*
X241004Y168796D01*
X241066Y168815D01*
X241187Y168880D01*
X241311Y168938D01*
X241363Y168976D01*
X241420Y169007D01*
X241525Y169094D01*
X241636Y169176D01*
X241680Y169223D01*
X241729Y169264D01*
X241815Y169371D01*
X241908Y169473D01*
X241941Y169528D01*
X241982Y169578D01*
X242045Y169700D01*
X242116Y169818D01*
X242137Y169878D01*
X242167Y169935D01*
X242205Y170067D01*
X242251Y170197D01*
X242261Y170260D01*
X242278Y170322D01*
X242290Y170459D01*
X242309Y170595D01*
X242306Y170659D01*
X242311Y170724D01*
X242295Y170860D01*
X242288Y170997D01*
X242272Y171060D01*
X242264Y171123D01*
X242222Y171254D01*
X242188Y171387D01*
X242160Y171445D01*
X242140Y171506D01*
X242072Y171626D01*
X242012Y171749D01*
X241973Y171801D01*
X241942Y171857D01*
X241852Y171961D01*
X241769Y172070D01*
X241721Y172113D01*
X241678Y172161D01*
X241570Y172246D01*
X241467Y172337D01*
X241411Y172369D01*
X241360Y172408D01*
X241237Y172469D01*
X241118Y172538D01*
X241049Y172563D01*
X241000Y172588D01*
X240923Y172608D01*
X240806Y172650D01*
X237944Y173417D01*
X232210Y176728D01*
X227528Y181410D01*
X224217Y187144D01*
X222503Y193539D01*
X222503Y200161D01*
X224217Y206556D01*
X227528Y212290D01*
X232210Y216972D01*
X237944Y220283D01*
X239858Y220796D01*
X239986Y220844D01*
X240118Y220885D01*
X240175Y220916D01*
X240235Y220938D01*
X240351Y221011D01*
X240472Y221077D01*
X240521Y221118D01*
X240576Y221152D01*
X240676Y221246D01*
X240781Y221334D01*
X240822Y221384D01*
X240868Y221429D01*
X240948Y221541D01*
X241034Y221648D01*
X241063Y221705D01*
X241100Y221758D01*
X241156Y221884D01*
X241219Y222005D01*
X241237Y222067D01*
X241263Y222126D01*
X241293Y222260D01*
X241331Y222392D01*
X241336Y222456D01*
X241350Y222519D01*
X241352Y222657D01*
X241363Y222794D01*
X241356Y222857D01*
X241357Y222922D01*
X241332Y223057D01*
X241316Y223193D01*
X241296Y223255D01*
X241285Y223318D01*
X241234Y223445D01*
X241192Y223576D01*
X241160Y223632D01*
X241136Y223692D01*
X241061Y223807D01*
X240994Y223927D01*
X240952Y223976D01*
X240917Y224029D01*
X240820Y224128D01*
X240731Y224232D01*
X240680Y224271D01*
X240635Y224317D01*
X240521Y224394D01*
X240412Y224478D01*
X240355Y224507D01*
X240302Y224543D01*
X240175Y224596D01*
X240052Y224658D01*
X239990Y224674D01*
X239930Y224699D01*
X239796Y224726D01*
X239663Y224762D01*
X239589Y224768D01*
X239536Y224779D01*
X239456Y224779D01*
X239332Y224789D01*
X174116Y224789D01*
X174065Y224784D01*
X174014Y224787D01*
X173865Y224764D01*
X173716Y224749D01*
X173667Y224734D01*
X173616Y224727D01*
X173475Y224675D01*
X173331Y224631D01*
X173286Y224607D01*
X173238Y224589D01*
X173109Y224511D01*
X172977Y224439D01*
X172937Y224407D01*
X172894Y224380D01*
X172783Y224278D01*
X172667Y224182D01*
X172635Y224142D01*
X172598Y224107D01*
X172509Y223985D01*
X172415Y223868D01*
X172391Y223823D01*
X172361Y223781D01*
X172299Y223644D01*
X172229Y223511D01*
X172215Y223462D01*
X172194Y223415D01*
X172160Y223268D01*
X172118Y223124D01*
X172114Y223073D01*
X172102Y223023D01*
X172097Y222872D01*
X172085Y222722D01*
X172091Y222672D01*
X172090Y222621D01*
X172115Y222472D01*
X172132Y222323D01*
X172148Y222274D01*
X172156Y222224D01*
X172210Y222083D01*
X172257Y221940D01*
X172282Y221895D01*
X172300Y221848D01*
X172420Y221650D01*
X172455Y221589D01*
X172464Y221579D01*
X172473Y221564D01*
X172921Y220947D01*
X173575Y219664D01*
X174020Y218295D01*
X174245Y216874D01*
X174245Y211581D01*
X165100Y211581D01*
X155955Y211581D01*
X155955Y216874D01*
X156180Y218295D01*
X156625Y219664D01*
X157279Y220947D01*
X157727Y221564D01*
X157753Y221608D01*
X157785Y221648D01*
X157854Y221782D01*
X157930Y221912D01*
X157947Y221960D01*
X157971Y222005D01*
X158012Y222150D01*
X158061Y222292D01*
X158068Y222343D01*
X158082Y222392D01*
X158094Y222542D01*
X158114Y222692D01*
X158111Y222743D01*
X158115Y222794D01*
X158097Y222943D01*
X158087Y223093D01*
X158074Y223143D01*
X158068Y223193D01*
X158021Y223337D01*
X157982Y223482D01*
X157959Y223528D01*
X157943Y223576D01*
X157869Y223707D01*
X157802Y223842D01*
X157770Y223882D01*
X157745Y223927D01*
X157647Y224041D01*
X157554Y224159D01*
X157515Y224193D01*
X157482Y224232D01*
X157363Y224324D01*
X157249Y224422D01*
X157204Y224447D01*
X157164Y224478D01*
X157029Y224545D01*
X156898Y224619D01*
X156849Y224635D01*
X156803Y224658D01*
X156658Y224697D01*
X156515Y224743D01*
X156464Y224749D01*
X156415Y224762D01*
X156184Y224781D01*
X156115Y224789D01*
X156101Y224788D01*
X156084Y224789D01*
X148716Y224789D01*
X148665Y224784D01*
X148614Y224787D01*
X148465Y224764D01*
X148316Y224749D01*
X148267Y224734D01*
X148216Y224727D01*
X148074Y224675D01*
X147931Y224631D01*
X147886Y224607D01*
X147838Y224589D01*
X147709Y224511D01*
X147577Y224439D01*
X147537Y224407D01*
X147494Y224380D01*
X147383Y224278D01*
X147267Y224182D01*
X147235Y224142D01*
X147198Y224107D01*
X147109Y223985D01*
X147015Y223868D01*
X146992Y223823D01*
X146961Y223781D01*
X146899Y223644D01*
X146830Y223511D01*
X146815Y223462D01*
X146794Y223415D01*
X146760Y223268D01*
X146718Y223124D01*
X146714Y223073D01*
X146702Y223023D01*
X146698Y222873D01*
X146685Y222722D01*
X146691Y222672D01*
X146690Y222621D01*
X146715Y222472D01*
X146732Y222323D01*
X146748Y222274D01*
X146756Y222224D01*
X146810Y222083D01*
X146857Y221940D01*
X146882Y221895D01*
X146900Y221848D01*
X147020Y221650D01*
X147055Y221589D01*
X147064Y221579D01*
X147073Y221564D01*
X147521Y220947D01*
X148175Y219664D01*
X148620Y218295D01*
X148845Y216874D01*
X148845Y211581D01*
X139700Y211581D01*
X130555Y211581D01*
X130555Y216874D01*
X130780Y218295D01*
X131225Y219664D01*
X131879Y220947D01*
X132327Y221564D01*
X132353Y221608D01*
X132385Y221648D01*
X132454Y221782D01*
X132530Y221912D01*
X132547Y221960D01*
X132570Y222005D01*
X132612Y222150D01*
X132661Y222292D01*
X132668Y222343D01*
X132682Y222392D01*
X132694Y222543D01*
X132714Y222692D01*
X132711Y222743D01*
X132715Y222794D01*
X132697Y222943D01*
X132687Y223093D01*
X132674Y223143D01*
X132668Y223193D01*
X132621Y223337D01*
X132582Y223482D01*
X132559Y223528D01*
X132543Y223576D01*
X132469Y223707D01*
X132402Y223842D01*
X132370Y223882D01*
X132345Y223927D01*
X132247Y224041D01*
X132154Y224160D01*
X132115Y224193D01*
X132082Y224232D01*
X131963Y224324D01*
X131849Y224422D01*
X131804Y224447D01*
X131764Y224478D01*
X131629Y224545D01*
X131498Y224619D01*
X131449Y224635D01*
X131403Y224658D01*
X131258Y224697D01*
X131115Y224743D01*
X131064Y224749D01*
X131015Y224762D01*
X130784Y224781D01*
X130715Y224789D01*
X130701Y224788D01*
X130684Y224789D01*
X122064Y224789D01*
X122056Y224788D01*
X122047Y224789D01*
X121854Y224768D01*
X121664Y224749D01*
X121655Y224747D01*
X121646Y224746D01*
X121463Y224688D01*
X121279Y224631D01*
X121271Y224627D01*
X121262Y224624D01*
X121093Y224531D01*
X120925Y224439D01*
X120918Y224434D01*
X120910Y224429D01*
X120762Y224304D01*
X120616Y224182D01*
X120610Y224175D01*
X120603Y224169D01*
X120483Y224017D01*
X120363Y223868D01*
X120359Y223860D01*
X120354Y223853D01*
X120266Y223680D01*
X120178Y223511D01*
X120175Y223502D01*
X120171Y223494D01*
X120120Y223309D01*
X120066Y223124D01*
X120066Y223115D01*
X120063Y223106D01*
X120049Y222914D01*
X120033Y222722D01*
X120034Y222714D01*
X120034Y222705D01*
X120058Y222513D01*
X120080Y222323D01*
X120083Y222314D01*
X120084Y222305D01*
X120145Y222123D01*
X120205Y221940D01*
X120210Y221932D01*
X120212Y221924D01*
X120309Y221756D01*
X120403Y221589D01*
X120409Y221582D01*
X120413Y221575D01*
X120628Y221322D01*
X121191Y220759D01*
X122429Y217771D01*
X122429Y201329D01*
X121191Y198341D01*
X118905Y196055D01*
X115987Y194846D01*
X115917Y194817D01*
X112683Y194817D01*
X109695Y196055D01*
X107409Y198341D01*
X106171Y201329D01*
X106171Y203962D01*
X106169Y203980D01*
X106171Y203998D01*
X106150Y204180D01*
X106131Y204363D01*
X106126Y204380D01*
X106124Y204397D01*
X106067Y204572D01*
X106013Y204748D01*
X106005Y204763D01*
X105999Y204780D01*
X105909Y204940D01*
X105821Y205102D01*
X105810Y205115D01*
X105801Y205131D01*
X105681Y205270D01*
X105564Y205411D01*
X105550Y205422D01*
X105538Y205436D01*
X105393Y205548D01*
X105250Y205663D01*
X105234Y205671D01*
X105220Y205682D01*
X105055Y205764D01*
X104893Y205849D01*
X104876Y205854D01*
X104860Y205862D01*
X104681Y205909D01*
X104506Y205960D01*
X104488Y205962D01*
X104471Y205966D01*
X104140Y205993D01*
X53115Y205993D01*
X53088Y205991D01*
X53061Y205993D01*
X52887Y205971D01*
X52714Y205953D01*
X52688Y205946D01*
X52662Y205942D01*
X52496Y205887D01*
X52329Y205835D01*
X52305Y205822D01*
X52280Y205814D01*
X52129Y205727D01*
X51975Y205643D01*
X51955Y205626D01*
X51931Y205613D01*
X51678Y205398D01*
X50310Y204030D01*
X50223Y203923D01*
X50129Y203823D01*
X50095Y203768D01*
X50055Y203718D01*
X49990Y203597D01*
X49918Y203480D01*
X49896Y203419D01*
X49866Y203362D01*
X49827Y203231D01*
X49779Y203102D01*
X49770Y203038D01*
X49751Y202977D01*
X49739Y202840D01*
X49718Y202704D01*
X49721Y202640D01*
X49715Y202576D01*
X49730Y202439D01*
X49736Y202302D01*
X49751Y202239D01*
X49758Y202175D01*
X49800Y202044D01*
X49833Y201911D01*
X49860Y201853D01*
X49880Y201792D01*
X49946Y201671D01*
X50005Y201547D01*
X50043Y201495D01*
X50075Y201439D01*
X50163Y201335D01*
X50246Y201224D01*
X50293Y201181D01*
X50335Y201132D01*
X50443Y201047D01*
X50545Y200955D01*
X50601Y200922D01*
X50651Y200883D01*
X50773Y200820D01*
X50892Y200750D01*
X50953Y200729D01*
X51010Y200700D01*
X51142Y200663D01*
X51272Y200618D01*
X51336Y200609D01*
X51398Y200592D01*
X51535Y200582D01*
X51671Y200564D01*
X51735Y200568D01*
X51799Y200563D01*
X51936Y200580D01*
X52073Y200589D01*
X52135Y200605D01*
X52199Y200613D01*
X52329Y200657D01*
X52462Y200692D01*
X52529Y200724D01*
X52580Y200741D01*
X52650Y200781D01*
X52762Y200834D01*
X52819Y200868D01*
X53465Y201041D01*
X57051Y201041D01*
X57051Y191718D01*
X57052Y191700D01*
X57051Y191683D01*
X57072Y191500D01*
X57091Y191318D01*
X57096Y191301D01*
X57098Y191283D01*
X57155Y191108D01*
X57209Y190933D01*
X57217Y190917D01*
X57223Y190900D01*
X57313Y190740D01*
X57400Y190579D01*
X57412Y190565D01*
X57421Y190549D01*
X57466Y190497D01*
X57381Y190392D01*
X57373Y190376D01*
X57362Y190362D01*
X57280Y190197D01*
X57195Y190034D01*
X57190Y190017D01*
X57182Y190001D01*
X57134Y189823D01*
X57084Y189648D01*
X57082Y189630D01*
X57078Y189613D01*
X57051Y189282D01*
X57051Y179959D01*
X53465Y179959D01*
X52819Y180132D01*
X52762Y180166D01*
X52636Y180222D01*
X52515Y180287D01*
X52453Y180305D01*
X52395Y180331D01*
X52261Y180362D01*
X52129Y180401D01*
X52065Y180407D01*
X52002Y180422D01*
X51865Y180425D01*
X51728Y180438D01*
X51664Y180431D01*
X51600Y180433D01*
X51465Y180409D01*
X51328Y180394D01*
X51266Y180375D01*
X51203Y180364D01*
X51075Y180314D01*
X50944Y180273D01*
X50888Y180242D01*
X50828Y180218D01*
X50712Y180144D01*
X50592Y180078D01*
X50543Y180036D01*
X50488Y180002D01*
X50389Y179906D01*
X50285Y179818D01*
X50245Y179767D01*
X50199Y179722D01*
X50120Y179609D01*
X50035Y179502D01*
X50006Y179444D01*
X49969Y179391D01*
X49915Y179265D01*
X49853Y179143D01*
X49836Y179081D01*
X49810Y179022D01*
X49782Y178887D01*
X49745Y178755D01*
X49740Y178691D01*
X49727Y178628D01*
X49725Y178490D01*
X49715Y178353D01*
X49723Y178289D01*
X49723Y178225D01*
X49749Y178090D01*
X49766Y177954D01*
X49786Y177893D01*
X49798Y177830D01*
X49850Y177702D01*
X49894Y177572D01*
X49926Y177516D01*
X49950Y177457D01*
X50026Y177342D01*
X50095Y177223D01*
X50143Y177167D01*
X50173Y177121D01*
X50229Y177065D01*
X50310Y176970D01*
X51678Y175602D01*
X54357Y172923D01*
X54357Y166806D01*
X54359Y166788D01*
X54357Y166770D01*
X54378Y166588D01*
X54397Y166405D01*
X54402Y166388D01*
X54404Y166371D01*
X54461Y166196D01*
X54515Y166020D01*
X54523Y166005D01*
X54529Y165988D01*
X54619Y165828D01*
X54707Y165666D01*
X54718Y165653D01*
X54727Y165637D01*
X54847Y165498D01*
X54964Y165357D01*
X54978Y165346D01*
X54990Y165332D01*
X55135Y165220D01*
X55278Y165105D01*
X55294Y165097D01*
X55308Y165086D01*
X55473Y165004D01*
X55635Y164919D01*
X55652Y164914D01*
X55668Y164906D01*
X55847Y164859D01*
X56022Y164808D01*
X56040Y164806D01*
X56057Y164802D01*
X56388Y164775D01*
X64432Y164775D01*
X65325Y163882D01*
X65325Y161338D01*
X65327Y161320D01*
X65325Y161302D01*
X65346Y161120D01*
X65365Y160937D01*
X65370Y160920D01*
X65372Y160903D01*
X65429Y160728D01*
X65483Y160552D01*
X65491Y160537D01*
X65497Y160520D01*
X65587Y160360D01*
X65675Y160198D01*
X65686Y160185D01*
X65695Y160169D01*
X65815Y160030D01*
X65932Y159889D01*
X65946Y159878D01*
X65958Y159864D01*
X66103Y159752D01*
X66246Y159637D01*
X66262Y159629D01*
X66276Y159618D01*
X66441Y159536D01*
X66603Y159451D01*
X66620Y159446D01*
X66636Y159438D01*
X66815Y159391D01*
X66990Y159340D01*
X67008Y159338D01*
X67025Y159334D01*
X67356Y159307D01*
X80673Y159307D01*
X89778Y150202D01*
X89799Y150185D01*
X89817Y150164D01*
X89954Y150057D01*
X90090Y149947D01*
X90113Y149934D01*
X90135Y149918D01*
X90292Y149840D01*
X90446Y149758D01*
X90471Y149750D01*
X90495Y149738D01*
X90665Y149693D01*
X90831Y149643D01*
X90858Y149641D01*
X90884Y149634D01*
X91215Y149607D01*
X100259Y149607D01*
X100286Y149609D01*
X100313Y149607D01*
X100486Y149629D01*
X100660Y149647D01*
X100685Y149655D01*
X100712Y149658D01*
X100878Y149714D01*
X101045Y149765D01*
X101068Y149778D01*
X101094Y149786D01*
X101245Y149874D01*
X101399Y149957D01*
X101419Y149974D01*
X101443Y149987D01*
X101696Y150202D01*
X101849Y150355D01*
X101901Y150419D01*
X101960Y150476D01*
X102028Y150574D01*
X102104Y150667D01*
X102142Y150739D01*
X102189Y150807D01*
X102236Y150917D01*
X102293Y151023D01*
X102316Y151101D01*
X102348Y151177D01*
X102373Y151294D01*
X102407Y151408D01*
X102415Y151490D01*
X102432Y151570D01*
X102433Y151690D01*
X102444Y151809D01*
X102435Y151891D01*
X102436Y151973D01*
X102413Y152091D01*
X102400Y152210D01*
X102375Y152288D01*
X102360Y152369D01*
X102315Y152479D01*
X102279Y152594D01*
X102239Y152665D01*
X102208Y152741D01*
X102142Y152841D01*
X102084Y152946D01*
X102031Y153008D01*
X101985Y153077D01*
X101901Y153161D01*
X101823Y153253D01*
X101759Y153304D01*
X101701Y153362D01*
X101576Y153448D01*
X101507Y153502D01*
X101471Y153521D01*
X101428Y153551D01*
X101140Y153717D01*
X100667Y154190D01*
X100332Y154769D01*
X100159Y155415D01*
X100159Y156719D01*
X113700Y156719D01*
X127241Y156719D01*
X127241Y155415D01*
X127068Y154769D01*
X126733Y154190D01*
X126260Y153717D01*
X125972Y153551D01*
X125905Y153503D01*
X125833Y153463D01*
X125742Y153386D01*
X125645Y153316D01*
X125589Y153256D01*
X125526Y153202D01*
X125452Y153109D01*
X125371Y153021D01*
X125328Y152951D01*
X125277Y152886D01*
X125223Y152780D01*
X125160Y152678D01*
X125131Y152601D01*
X125094Y152528D01*
X125062Y152412D01*
X125021Y152300D01*
X125008Y152219D01*
X124986Y152140D01*
X124978Y152020D01*
X124959Y151902D01*
X124963Y151820D01*
X124957Y151738D01*
X124972Y151619D01*
X124977Y151500D01*
X124997Y151420D01*
X125007Y151339D01*
X125045Y151225D01*
X125074Y151109D01*
X125109Y151035D01*
X125136Y150957D01*
X125195Y150853D01*
X125246Y150745D01*
X125295Y150679D01*
X125337Y150608D01*
X125435Y150492D01*
X125487Y150422D01*
X125517Y150395D01*
X125551Y150355D01*
X126225Y149682D01*
X126225Y142418D01*
X124943Y141136D01*
X124931Y141123D01*
X124918Y141111D01*
X124804Y140967D01*
X124688Y140825D01*
X124679Y140809D01*
X124668Y140795D01*
X124585Y140631D01*
X124499Y140469D01*
X124494Y140452D01*
X124486Y140436D01*
X124436Y140259D01*
X124384Y140083D01*
X124383Y140065D01*
X124378Y140048D01*
X124364Y139865D01*
X124348Y139682D01*
X124350Y139664D01*
X124348Y139647D01*
X124371Y139465D01*
X124391Y139282D01*
X124397Y139265D01*
X124399Y139247D01*
X124457Y139074D01*
X124513Y138898D01*
X124521Y138882D01*
X124527Y138866D01*
X124618Y138707D01*
X124707Y138546D01*
X124719Y138532D01*
X124728Y138517D01*
X124943Y138264D01*
X125705Y137502D01*
X125725Y137485D01*
X125743Y137464D01*
X125881Y137357D01*
X126016Y137247D01*
X126040Y137234D01*
X126061Y137218D01*
X126218Y137140D01*
X126372Y137058D01*
X126397Y137050D01*
X126421Y137038D01*
X126591Y136993D01*
X126758Y136943D01*
X126784Y136941D01*
X126810Y136934D01*
X127141Y136907D01*
X128473Y136907D01*
X136907Y128473D01*
X136907Y49727D01*
X134228Y47048D01*
X130164Y42984D01*
X130150Y42967D01*
X130133Y42952D01*
X130023Y42811D01*
X129909Y42673D01*
X129899Y42653D01*
X129885Y42635D01*
X129804Y42475D01*
X129721Y42317D01*
X129714Y42296D01*
X129704Y42276D01*
X129657Y42102D01*
X129606Y41931D01*
X129604Y41909D01*
X129598Y41887D01*
X129586Y41709D01*
X129569Y41530D01*
X129572Y41508D01*
X129570Y41486D01*
X129593Y41309D01*
X129613Y41130D01*
X129619Y41109D01*
X129622Y41086D01*
X129724Y40771D01*
X130025Y40044D01*
X130025Y36156D01*
X128537Y32563D01*
X125787Y29813D01*
X122194Y28325D01*
X118306Y28325D01*
X114713Y29813D01*
X111963Y32563D01*
X110475Y36156D01*
X110475Y40044D01*
X111963Y43637D01*
X114713Y46387D01*
X118306Y47875D01*
X122194Y47875D01*
X122921Y47574D01*
X122942Y47567D01*
X122962Y47557D01*
X123135Y47509D01*
X123306Y47457D01*
X123328Y47455D01*
X123350Y47449D01*
X123530Y47436D01*
X123707Y47419D01*
X123729Y47422D01*
X123751Y47420D01*
X123929Y47442D01*
X124107Y47461D01*
X124129Y47468D01*
X124151Y47470D01*
X124320Y47527D01*
X124492Y47581D01*
X124511Y47591D01*
X124532Y47599D01*
X124688Y47688D01*
X124845Y47774D01*
X124862Y47788D01*
X124881Y47800D01*
X125134Y48014D01*
X129198Y52078D01*
X129215Y52099D01*
X129236Y52117D01*
X129342Y52254D01*
X129453Y52390D01*
X129466Y52414D01*
X129482Y52435D01*
X129560Y52591D01*
X129642Y52746D01*
X129650Y52771D01*
X129662Y52795D01*
X129707Y52964D01*
X129757Y53131D01*
X129759Y53158D01*
X129766Y53184D01*
X129793Y53515D01*
X129793Y115683D01*
X129792Y115692D01*
X129793Y115701D01*
X129772Y115893D01*
X129753Y116084D01*
X129751Y116092D01*
X129750Y116101D01*
X129692Y116283D01*
X129635Y116469D01*
X129631Y116477D01*
X129628Y116485D01*
X129535Y116653D01*
X129443Y116823D01*
X129438Y116829D01*
X129433Y116837D01*
X129308Y116985D01*
X129186Y117132D01*
X129179Y117137D01*
X129173Y117144D01*
X129021Y117264D01*
X128872Y117384D01*
X128864Y117388D01*
X128857Y117394D01*
X128685Y117481D01*
X128515Y117570D01*
X128506Y117572D01*
X128498Y117576D01*
X128312Y117628D01*
X128128Y117681D01*
X128119Y117682D01*
X128110Y117684D01*
X127918Y117698D01*
X127726Y117714D01*
X127718Y117713D01*
X127709Y117714D01*
X127516Y117689D01*
X127327Y117667D01*
X127318Y117664D01*
X127309Y117663D01*
X127126Y117602D01*
X126944Y117542D01*
X126936Y117538D01*
X126928Y117535D01*
X126762Y117440D01*
X126593Y117344D01*
X126586Y117339D01*
X126579Y117334D01*
X126326Y117119D01*
X125332Y116125D01*
X102068Y116125D01*
X101695Y116498D01*
X101675Y116515D01*
X101657Y116536D01*
X101519Y116643D01*
X101384Y116753D01*
X101360Y116766D01*
X101339Y116782D01*
X101182Y116860D01*
X101028Y116942D01*
X101003Y116950D01*
X100979Y116962D01*
X100809Y117007D01*
X100642Y117057D01*
X100616Y117059D01*
X100590Y117066D01*
X100259Y117093D01*
X91215Y117093D01*
X91188Y117091D01*
X91161Y117093D01*
X90987Y117071D01*
X90814Y117053D01*
X90789Y117046D01*
X90762Y117042D01*
X90596Y116987D01*
X90429Y116935D01*
X90405Y116922D01*
X90380Y116914D01*
X90229Y116827D01*
X90075Y116743D01*
X90055Y116726D01*
X90031Y116713D01*
X89778Y116498D01*
X83152Y109872D01*
X80473Y107193D01*
X67356Y107193D01*
X67338Y107191D01*
X67320Y107193D01*
X67138Y107172D01*
X66955Y107153D01*
X66938Y107148D01*
X66921Y107146D01*
X66746Y107089D01*
X66570Y107035D01*
X66555Y107027D01*
X66538Y107021D01*
X66377Y106931D01*
X66216Y106843D01*
X66203Y106832D01*
X66187Y106823D01*
X66048Y106703D01*
X65907Y106586D01*
X65896Y106572D01*
X65882Y106560D01*
X65770Y106415D01*
X65655Y106272D01*
X65647Y106256D01*
X65636Y106242D01*
X65554Y106077D01*
X65469Y105915D01*
X65464Y105898D01*
X65456Y105882D01*
X65409Y105703D01*
X65358Y105528D01*
X65356Y105510D01*
X65352Y105493D01*
X65325Y105162D01*
X65325Y102618D01*
X64432Y101725D01*
X56388Y101725D01*
X56370Y101723D01*
X56352Y101725D01*
X56170Y101704D01*
X55987Y101685D01*
X55970Y101680D01*
X55953Y101678D01*
X55778Y101621D01*
X55602Y101567D01*
X55587Y101559D01*
X55570Y101553D01*
X55410Y101463D01*
X55248Y101375D01*
X55235Y101364D01*
X55219Y101355D01*
X55080Y101235D01*
X54939Y101118D01*
X54928Y101104D01*
X54914Y101092D01*
X54802Y100947D01*
X54687Y100804D01*
X54679Y100788D01*
X54668Y100774D01*
X54586Y100609D01*
X54501Y100447D01*
X54496Y100430D01*
X54488Y100414D01*
X54441Y100235D01*
X54390Y100060D01*
X54388Y100042D01*
X54384Y100025D01*
X54357Y99694D01*
X54357Y66150D01*
X54359Y66124D01*
X54357Y66097D01*
X54379Y65923D01*
X54397Y65750D01*
X54404Y65724D01*
X54408Y65697D01*
X54463Y65532D01*
X54515Y65365D01*
X54528Y65341D01*
X54536Y65316D01*
X54623Y65164D01*
X54707Y65011D01*
X54724Y64990D01*
X54737Y64967D01*
X54952Y64714D01*
X68835Y50831D01*
X68835Y25937D01*
X68837Y25910D01*
X68835Y25883D01*
X68857Y25709D01*
X68875Y25536D01*
X68882Y25511D01*
X68886Y25484D01*
X68941Y25318D01*
X68993Y25151D01*
X69006Y25128D01*
X69014Y25102D01*
X69101Y24951D01*
X69185Y24797D01*
X69202Y24777D01*
X69215Y24753D01*
X69430Y24500D01*
X70728Y23202D01*
X70749Y23185D01*
X70767Y23164D01*
X70904Y23057D01*
X71040Y22947D01*
X71063Y22934D01*
X71085Y22918D01*
X71242Y22840D01*
X71396Y22758D01*
X71421Y22750D01*
X71445Y22738D01*
X71615Y22693D01*
X71781Y22643D01*
X71808Y22641D01*
X71834Y22634D01*
X72165Y22607D01*
X162785Y22607D01*
X162812Y22609D01*
X162839Y22607D01*
X163013Y22629D01*
X163186Y22647D01*
X163211Y22654D01*
X163238Y22658D01*
X163404Y22714D01*
X163571Y22765D01*
X163594Y22777D01*
X163620Y22786D01*
X163771Y22873D01*
X163925Y22957D01*
X163945Y22974D01*
X163969Y22987D01*
X164222Y23202D01*
X166098Y25078D01*
X166115Y25099D01*
X166136Y25116D01*
X166243Y25254D01*
X166353Y25390D01*
X166366Y25413D01*
X166382Y25435D01*
X166460Y25591D01*
X166542Y25745D01*
X166550Y25771D01*
X166562Y25795D01*
X166607Y25964D01*
X166657Y26131D01*
X166659Y26158D01*
X166666Y26184D01*
X166693Y26515D01*
X166693Y27636D01*
X166691Y27658D01*
X166693Y27680D01*
X166671Y27858D01*
X166653Y28037D01*
X166647Y28058D01*
X166644Y28080D01*
X166588Y28250D01*
X166535Y28421D01*
X166525Y28441D01*
X166518Y28462D01*
X166429Y28618D01*
X166343Y28775D01*
X166329Y28793D01*
X166318Y28812D01*
X166201Y28947D01*
X166086Y29085D01*
X166068Y29099D01*
X166054Y29116D01*
X165912Y29225D01*
X165772Y29337D01*
X165752Y29347D01*
X165734Y29361D01*
X165439Y29513D01*
X164713Y29813D01*
X161963Y32563D01*
X160475Y36156D01*
X160475Y40044D01*
X161963Y43637D01*
X164713Y46387D01*
X168306Y47875D01*
X172194Y47875D01*
X175787Y46387D01*
X178537Y43637D01*
X180025Y40044D01*
X180025Y36156D01*
X178537Y32563D01*
X175787Y29813D01*
X175061Y29513D01*
X175041Y29502D01*
X175020Y29495D01*
X174864Y29407D01*
X174706Y29322D01*
X174689Y29308D01*
X174669Y29297D01*
X174534Y29180D01*
X174395Y29066D01*
X174381Y29049D01*
X174364Y29034D01*
X174255Y28893D01*
X174142Y28753D01*
X174131Y28734D01*
X174118Y28716D01*
X174038Y28555D01*
X173955Y28397D01*
X173948Y28375D01*
X173938Y28355D01*
X173892Y28182D01*
X173842Y28010D01*
X173840Y27988D01*
X173834Y27967D01*
X173807Y27636D01*
X173807Y26515D01*
X173809Y26488D01*
X173807Y26461D01*
X173829Y26287D01*
X173847Y26114D01*
X173854Y26089D01*
X173858Y26062D01*
X173913Y25896D01*
X173965Y25729D01*
X173978Y25706D01*
X173986Y25680D01*
X174073Y25529D01*
X174157Y25375D01*
X174174Y25355D01*
X174187Y25331D01*
X174402Y25078D01*
X182628Y16852D01*
X182649Y16835D01*
X182667Y16814D01*
X182804Y16707D01*
X182940Y16597D01*
X182963Y16584D01*
X182985Y16568D01*
X183142Y16490D01*
X183296Y16408D01*
X183321Y16400D01*
X183345Y16388D01*
X183515Y16343D01*
X183681Y16293D01*
X183708Y16291D01*
X183734Y16284D01*
X184065Y16257D01*
X240394Y16257D01*
X240402Y16258D01*
G37*
G36*
X12364Y44403D02*
X12364Y44403D01*
X12501Y44410D01*
X12564Y44426D01*
X12627Y44434D01*
X12758Y44476D01*
X12891Y44510D01*
X12949Y44538D01*
X13010Y44558D01*
X13130Y44626D01*
X13253Y44686D01*
X13305Y44725D01*
X13361Y44756D01*
X13465Y44846D01*
X13574Y44929D01*
X13617Y44977D01*
X13665Y45019D01*
X13750Y45128D01*
X13841Y45231D01*
X13873Y45287D01*
X13912Y45338D01*
X13973Y45460D01*
X14042Y45579D01*
X14067Y45649D01*
X14092Y45698D01*
X14112Y45775D01*
X14154Y45892D01*
X14667Y47806D01*
X17978Y53540D01*
X22660Y58222D01*
X28394Y61533D01*
X34789Y63247D01*
X41411Y63247D01*
X44686Y62369D01*
X44767Y62356D01*
X44846Y62333D01*
X44966Y62323D01*
X45084Y62304D01*
X45166Y62307D01*
X45248Y62300D01*
X45366Y62314D01*
X45486Y62318D01*
X45566Y62337D01*
X45647Y62347D01*
X45761Y62384D01*
X45878Y62412D01*
X45952Y62446D01*
X46030Y62472D01*
X46135Y62531D01*
X46243Y62581D01*
X46309Y62629D01*
X46381Y62670D01*
X46471Y62748D01*
X46568Y62819D01*
X46623Y62879D01*
X46686Y62933D01*
X46759Y63027D01*
X46840Y63116D01*
X46882Y63186D01*
X46932Y63251D01*
X46986Y63358D01*
X47047Y63461D01*
X47075Y63538D01*
X47112Y63612D01*
X47143Y63727D01*
X47183Y63840D01*
X47195Y63921D01*
X47216Y64000D01*
X47229Y64153D01*
X47241Y64238D01*
X47239Y64279D01*
X47243Y64331D01*
X47243Y99694D01*
X47241Y99712D01*
X47243Y99730D01*
X47222Y99912D01*
X47203Y100095D01*
X47198Y100112D01*
X47196Y100129D01*
X47139Y100304D01*
X47085Y100480D01*
X47077Y100495D01*
X47071Y100512D01*
X46981Y100672D01*
X46893Y100834D01*
X46882Y100847D01*
X46873Y100863D01*
X46753Y101002D01*
X46636Y101143D01*
X46622Y101154D01*
X46610Y101168D01*
X46465Y101280D01*
X46322Y101395D01*
X46306Y101403D01*
X46292Y101414D01*
X46127Y101496D01*
X45965Y101581D01*
X45948Y101586D01*
X45932Y101594D01*
X45753Y101641D01*
X45578Y101692D01*
X45560Y101694D01*
X45543Y101698D01*
X45212Y101725D01*
X37168Y101725D01*
X36275Y102618D01*
X36275Y112765D01*
X36273Y112791D01*
X36275Y112818D01*
X36253Y112992D01*
X36235Y113166D01*
X36228Y113191D01*
X36224Y113218D01*
X36169Y113383D01*
X36117Y113550D01*
X36104Y113574D01*
X36096Y113599D01*
X36009Y113751D01*
X35925Y113904D01*
X35908Y113925D01*
X35895Y113948D01*
X35680Y114201D01*
X31467Y118415D01*
X28286Y123924D01*
X26639Y130069D01*
X26639Y136431D01*
X28286Y142576D01*
X31467Y148085D01*
X35680Y152299D01*
X35697Y152319D01*
X35718Y152337D01*
X35824Y152475D01*
X35935Y152610D01*
X35948Y152634D01*
X35964Y152655D01*
X36042Y152812D01*
X36124Y152966D01*
X36132Y152991D01*
X36144Y153016D01*
X36189Y153185D01*
X36239Y153352D01*
X36241Y153378D01*
X36248Y153404D01*
X36275Y153735D01*
X36275Y163882D01*
X37168Y164775D01*
X45212Y164775D01*
X45230Y164777D01*
X45248Y164775D01*
X45430Y164796D01*
X45613Y164815D01*
X45630Y164820D01*
X45647Y164822D01*
X45822Y164879D01*
X45998Y164933D01*
X46013Y164941D01*
X46030Y164947D01*
X46190Y165037D01*
X46352Y165125D01*
X46365Y165136D01*
X46381Y165145D01*
X46520Y165265D01*
X46661Y165382D01*
X46672Y165396D01*
X46686Y165408D01*
X46798Y165553D01*
X46913Y165696D01*
X46921Y165712D01*
X46932Y165726D01*
X47014Y165891D01*
X47099Y166053D01*
X47104Y166070D01*
X47112Y166086D01*
X47159Y166265D01*
X47210Y166440D01*
X47212Y166458D01*
X47216Y166475D01*
X47243Y166806D01*
X47243Y169135D01*
X47241Y169162D01*
X47243Y169189D01*
X47221Y169363D01*
X47203Y169536D01*
X47196Y169562D01*
X47192Y169588D01*
X47136Y169754D01*
X47085Y169921D01*
X47072Y169945D01*
X47064Y169970D01*
X46977Y170121D01*
X46893Y170275D01*
X46876Y170295D01*
X46863Y170319D01*
X46648Y170572D01*
X37627Y179593D01*
X37585Y179730D01*
X37577Y179745D01*
X37571Y179762D01*
X37481Y179922D01*
X37393Y180084D01*
X37382Y180097D01*
X37373Y180113D01*
X37253Y180252D01*
X37136Y180393D01*
X37122Y180404D01*
X37110Y180418D01*
X36965Y180530D01*
X36822Y180645D01*
X36806Y180653D01*
X36792Y180664D01*
X36627Y180746D01*
X36465Y180831D01*
X36448Y180836D01*
X36432Y180844D01*
X36253Y180891D01*
X36078Y180942D01*
X36060Y180944D01*
X36043Y180948D01*
X35712Y180975D01*
X34168Y180975D01*
X33275Y181868D01*
X33275Y199132D01*
X34168Y200025D01*
X35712Y200025D01*
X35730Y200027D01*
X35748Y200025D01*
X35930Y200046D01*
X36113Y200065D01*
X36130Y200070D01*
X36147Y200072D01*
X36322Y200129D01*
X36498Y200183D01*
X36513Y200191D01*
X36530Y200197D01*
X36690Y200287D01*
X36852Y200375D01*
X36865Y200386D01*
X36881Y200395D01*
X37020Y200515D01*
X37161Y200632D01*
X37172Y200646D01*
X37186Y200658D01*
X37298Y200803D01*
X37413Y200946D01*
X37421Y200962D01*
X37432Y200976D01*
X37514Y201141D01*
X37599Y201303D01*
X37604Y201320D01*
X37612Y201336D01*
X37632Y201412D01*
X40422Y204202D01*
X46648Y210428D01*
X49327Y213107D01*
X104140Y213107D01*
X104158Y213109D01*
X104176Y213107D01*
X104358Y213128D01*
X104541Y213147D01*
X104558Y213152D01*
X104575Y213154D01*
X104750Y213211D01*
X104926Y213265D01*
X104941Y213273D01*
X104958Y213279D01*
X105118Y213369D01*
X105280Y213457D01*
X105293Y213468D01*
X105309Y213477D01*
X105448Y213597D01*
X105589Y213714D01*
X105600Y213728D01*
X105614Y213740D01*
X105726Y213885D01*
X105841Y214028D01*
X105849Y214044D01*
X105860Y214058D01*
X105942Y214223D01*
X106027Y214385D01*
X106032Y214402D01*
X106040Y214418D01*
X106087Y214597D01*
X106138Y214772D01*
X106140Y214790D01*
X106144Y214807D01*
X106171Y215138D01*
X106171Y217771D01*
X107409Y220759D01*
X107972Y221322D01*
X107978Y221329D01*
X107984Y221334D01*
X108104Y221483D01*
X108227Y221633D01*
X108231Y221641D01*
X108237Y221648D01*
X108325Y221817D01*
X108416Y221989D01*
X108418Y221998D01*
X108422Y222005D01*
X108475Y222189D01*
X108530Y222375D01*
X108531Y222384D01*
X108534Y222392D01*
X108549Y222583D01*
X108567Y222776D01*
X108566Y222785D01*
X108567Y222794D01*
X108545Y222982D01*
X108523Y223176D01*
X108521Y223185D01*
X108520Y223193D01*
X108460Y223376D01*
X108402Y223560D01*
X108398Y223568D01*
X108395Y223576D01*
X108300Y223745D01*
X108207Y223912D01*
X108201Y223919D01*
X108197Y223927D01*
X108070Y224073D01*
X107947Y224219D01*
X107940Y224225D01*
X107934Y224232D01*
X107781Y224350D01*
X107631Y224469D01*
X107623Y224473D01*
X107616Y224478D01*
X107442Y224565D01*
X107272Y224651D01*
X107263Y224654D01*
X107255Y224658D01*
X107066Y224708D01*
X106884Y224759D01*
X106875Y224760D01*
X106866Y224762D01*
X106536Y224789D01*
X12192Y224789D01*
X12174Y224787D01*
X12156Y224789D01*
X11974Y224768D01*
X11791Y224749D01*
X11774Y224744D01*
X11757Y224742D01*
X11582Y224685D01*
X11406Y224631D01*
X11391Y224623D01*
X11374Y224617D01*
X11214Y224527D01*
X11052Y224439D01*
X11039Y224428D01*
X11023Y224419D01*
X10884Y224299D01*
X10743Y224182D01*
X10732Y224168D01*
X10718Y224156D01*
X10606Y224011D01*
X10491Y223868D01*
X10483Y223852D01*
X10472Y223838D01*
X10390Y223673D01*
X10305Y223511D01*
X10300Y223494D01*
X10292Y223478D01*
X10245Y223299D01*
X10194Y223124D01*
X10192Y223106D01*
X10188Y223089D01*
X10161Y222758D01*
X10161Y46418D01*
X10174Y46281D01*
X10179Y46144D01*
X10194Y46081D01*
X10201Y46017D01*
X10241Y45886D01*
X10273Y45752D01*
X10300Y45694D01*
X10319Y45632D01*
X10384Y45511D01*
X10442Y45387D01*
X10480Y45335D01*
X10511Y45278D01*
X10598Y45173D01*
X10680Y45062D01*
X10727Y45018D01*
X10768Y44969D01*
X10875Y44883D01*
X10977Y44790D01*
X11032Y44757D01*
X11082Y44716D01*
X11204Y44653D01*
X11322Y44582D01*
X11382Y44560D01*
X11439Y44531D01*
X11571Y44493D01*
X11701Y44447D01*
X11764Y44437D01*
X11826Y44419D01*
X11963Y44408D01*
X12099Y44388D01*
X12163Y44392D01*
X12228Y44387D01*
X12364Y44403D01*
G37*
G36*
X236112Y149609D02*
X236112Y149609D01*
X236130Y149607D01*
X236312Y149628D01*
X236495Y149647D01*
X236512Y149652D01*
X236529Y149654D01*
X236704Y149711D01*
X236880Y149765D01*
X236895Y149773D01*
X236912Y149779D01*
X237072Y149869D01*
X237234Y149957D01*
X237247Y149968D01*
X237263Y149977D01*
X237402Y150097D01*
X237543Y150214D01*
X237554Y150228D01*
X237568Y150240D01*
X237680Y150385D01*
X237795Y150528D01*
X237803Y150544D01*
X237814Y150558D01*
X237896Y150723D01*
X237981Y150885D01*
X237986Y150902D01*
X237994Y150918D01*
X238041Y151097D01*
X238092Y151272D01*
X238094Y151290D01*
X238098Y151307D01*
X238125Y151638D01*
X238125Y159120D01*
X238128Y159128D01*
X238129Y159137D01*
X238131Y159146D01*
X238147Y159338D01*
X238164Y159529D01*
X238163Y159538D01*
X238164Y159548D01*
X238142Y159737D01*
X238121Y159929D01*
X238118Y159938D01*
X238117Y159947D01*
X238058Y160129D01*
X238000Y160313D01*
X237995Y160321D01*
X237992Y160330D01*
X237898Y160497D01*
X237805Y160666D01*
X237799Y160673D01*
X237794Y160681D01*
X237669Y160826D01*
X237545Y160973D01*
X237537Y160978D01*
X237531Y160986D01*
X237380Y161103D01*
X237229Y161222D01*
X237220Y161227D01*
X237213Y161232D01*
X237040Y161318D01*
X236870Y161405D01*
X236861Y161407D01*
X236853Y161412D01*
X236665Y161462D01*
X236482Y161513D01*
X236473Y161514D01*
X236464Y161516D01*
X236133Y161543D01*
X227127Y161543D01*
X215022Y173648D01*
X215001Y173665D01*
X214983Y173686D01*
X214846Y173793D01*
X214710Y173903D01*
X214687Y173916D01*
X214665Y173932D01*
X214508Y174010D01*
X214354Y174092D01*
X214329Y174100D01*
X214305Y174112D01*
X214135Y174157D01*
X213969Y174207D01*
X213942Y174209D01*
X213916Y174216D01*
X213585Y174243D01*
X157256Y174243D01*
X157238Y174241D01*
X157220Y174243D01*
X157038Y174222D01*
X156855Y174203D01*
X156838Y174198D01*
X156821Y174196D01*
X156646Y174139D01*
X156470Y174085D01*
X156455Y174077D01*
X156438Y174071D01*
X156278Y173981D01*
X156116Y173893D01*
X156103Y173882D01*
X156087Y173873D01*
X155948Y173753D01*
X155807Y173636D01*
X155796Y173622D01*
X155782Y173610D01*
X155670Y173465D01*
X155555Y173322D01*
X155547Y173306D01*
X155536Y173292D01*
X155454Y173127D01*
X155369Y172965D01*
X155364Y172948D01*
X155356Y172932D01*
X155309Y172753D01*
X155258Y172578D01*
X155256Y172560D01*
X155252Y172543D01*
X155225Y172212D01*
X155225Y171768D01*
X154332Y170875D01*
X154038Y170875D01*
X154020Y170873D01*
X154002Y170875D01*
X153820Y170854D01*
X153637Y170835D01*
X153620Y170830D01*
X153603Y170828D01*
X153428Y170771D01*
X153252Y170717D01*
X153237Y170709D01*
X153220Y170703D01*
X153060Y170613D01*
X152898Y170525D01*
X152885Y170514D01*
X152869Y170505D01*
X152730Y170385D01*
X152589Y170268D01*
X152578Y170254D01*
X152564Y170242D01*
X152452Y170097D01*
X152337Y169954D01*
X152329Y169938D01*
X152318Y169924D01*
X152236Y169759D01*
X152151Y169597D01*
X152146Y169580D01*
X152138Y169564D01*
X152091Y169385D01*
X152040Y169210D01*
X152038Y169192D01*
X152034Y169175D01*
X152007Y168844D01*
X152007Y165306D01*
X152009Y165288D01*
X152007Y165270D01*
X152028Y165088D01*
X152047Y164905D01*
X152052Y164888D01*
X152054Y164871D01*
X152111Y164696D01*
X152165Y164520D01*
X152173Y164505D01*
X152179Y164488D01*
X152269Y164328D01*
X152357Y164166D01*
X152368Y164153D01*
X152377Y164137D01*
X152497Y163998D01*
X152614Y163857D01*
X152628Y163846D01*
X152640Y163832D01*
X152785Y163720D01*
X152928Y163605D01*
X152944Y163597D01*
X152958Y163586D01*
X153123Y163504D01*
X153285Y163419D01*
X153302Y163414D01*
X153318Y163406D01*
X153497Y163359D01*
X153672Y163308D01*
X153690Y163306D01*
X153707Y163302D01*
X154038Y163275D01*
X177332Y163275D01*
X177705Y162902D01*
X177725Y162885D01*
X177743Y162864D01*
X177881Y162757D01*
X178016Y162647D01*
X178040Y162634D01*
X178061Y162618D01*
X178218Y162540D01*
X178372Y162458D01*
X178397Y162450D01*
X178421Y162438D01*
X178591Y162393D01*
X178758Y162343D01*
X178784Y162341D01*
X178810Y162334D01*
X179141Y162307D01*
X191644Y162307D01*
X191662Y162309D01*
X191680Y162307D01*
X191862Y162328D01*
X192045Y162347D01*
X192062Y162352D01*
X192079Y162354D01*
X192254Y162411D01*
X192430Y162465D01*
X192445Y162473D01*
X192462Y162479D01*
X192622Y162569D01*
X192784Y162657D01*
X192797Y162668D01*
X192813Y162677D01*
X192952Y162797D01*
X193093Y162914D01*
X193104Y162928D01*
X193118Y162940D01*
X193230Y163085D01*
X193345Y163228D01*
X193353Y163244D01*
X193364Y163258D01*
X193446Y163423D01*
X193531Y163585D01*
X193536Y163602D01*
X193544Y163618D01*
X193591Y163797D01*
X193642Y163972D01*
X193644Y163990D01*
X193648Y164007D01*
X193675Y164338D01*
X193675Y169032D01*
X194568Y169925D01*
X211832Y169925D01*
X212725Y169032D01*
X212725Y154768D01*
X211793Y153836D01*
X211781Y153822D01*
X211768Y153811D01*
X211654Y153667D01*
X211538Y153525D01*
X211529Y153509D01*
X211518Y153495D01*
X211435Y153331D01*
X211349Y153169D01*
X211344Y153152D01*
X211336Y153136D01*
X211286Y152959D01*
X211234Y152783D01*
X211233Y152765D01*
X211228Y152748D01*
X211214Y152565D01*
X211198Y152382D01*
X211200Y152364D01*
X211198Y152347D01*
X211221Y152165D01*
X211241Y151982D01*
X211247Y151965D01*
X211249Y151947D01*
X211307Y151774D01*
X211363Y151598D01*
X211371Y151582D01*
X211377Y151566D01*
X211469Y151406D01*
X211557Y151246D01*
X211569Y151232D01*
X211578Y151217D01*
X211793Y150964D01*
X212555Y150202D01*
X212575Y150185D01*
X212593Y150164D01*
X212731Y150058D01*
X212866Y149947D01*
X212890Y149934D01*
X212911Y149918D01*
X213067Y149840D01*
X213222Y149758D01*
X213247Y149750D01*
X213271Y149738D01*
X213441Y149693D01*
X213608Y149643D01*
X213634Y149641D01*
X213660Y149634D01*
X213991Y149607D01*
X236094Y149607D01*
X236112Y149609D01*
G37*
G36*
X174364Y10162D02*
X174364Y10162D01*
X174373Y10161D01*
X174565Y10182D01*
X174756Y10201D01*
X174765Y10203D01*
X174773Y10204D01*
X174956Y10262D01*
X175141Y10319D01*
X175149Y10323D01*
X175157Y10326D01*
X175326Y10419D01*
X175495Y10511D01*
X175502Y10516D01*
X175510Y10521D01*
X175657Y10645D01*
X175804Y10768D01*
X175810Y10775D01*
X175817Y10781D01*
X175935Y10931D01*
X176057Y11082D01*
X176061Y11090D01*
X176066Y11097D01*
X176154Y11270D01*
X176242Y11439D01*
X176245Y11448D01*
X176249Y11456D01*
X176301Y11642D01*
X176353Y11826D01*
X176354Y11835D01*
X176357Y11844D01*
X176371Y12037D01*
X176386Y12228D01*
X176385Y12236D01*
X176386Y12245D01*
X176362Y12438D01*
X176339Y12627D01*
X176337Y12636D01*
X176336Y12645D01*
X176274Y12828D01*
X176215Y13010D01*
X176210Y13018D01*
X176207Y13026D01*
X176111Y13193D01*
X176017Y13361D01*
X176011Y13368D01*
X176006Y13375D01*
X175792Y13628D01*
X171686Y17734D01*
X171672Y17745D01*
X171661Y17759D01*
X171518Y17872D01*
X171375Y17989D01*
X171359Y17997D01*
X171345Y18008D01*
X171182Y18091D01*
X171019Y18177D01*
X171002Y18183D01*
X170986Y18191D01*
X170809Y18240D01*
X170633Y18292D01*
X170615Y18294D01*
X170598Y18299D01*
X170415Y18312D01*
X170232Y18329D01*
X170214Y18327D01*
X170197Y18328D01*
X170014Y18305D01*
X169832Y18285D01*
X169815Y18280D01*
X169797Y18278D01*
X169622Y18219D01*
X169448Y18164D01*
X169432Y18155D01*
X169416Y18149D01*
X169257Y18058D01*
X169096Y17969D01*
X169082Y17957D01*
X169067Y17948D01*
X168814Y17734D01*
X166573Y15493D01*
X68377Y15493D01*
X64400Y19470D01*
X61153Y22717D01*
X61139Y22729D01*
X61127Y22742D01*
X60984Y22856D01*
X60841Y22972D01*
X60825Y22981D01*
X60811Y22992D01*
X60647Y23075D01*
X60486Y23161D01*
X60468Y23166D01*
X60453Y23174D01*
X60275Y23223D01*
X60100Y23276D01*
X60082Y23277D01*
X60065Y23282D01*
X59882Y23296D01*
X59699Y23312D01*
X59681Y23310D01*
X59663Y23312D01*
X59481Y23289D01*
X59298Y23269D01*
X59281Y23263D01*
X59264Y23261D01*
X59090Y23203D01*
X58915Y23147D01*
X58899Y23139D01*
X58882Y23133D01*
X58722Y23041D01*
X58562Y22952D01*
X58549Y22941D01*
X58533Y22932D01*
X58280Y22717D01*
X53540Y17978D01*
X47806Y14667D01*
X45892Y14154D01*
X45764Y14106D01*
X45632Y14065D01*
X45575Y14034D01*
X45515Y14012D01*
X45399Y13939D01*
X45278Y13873D01*
X45229Y13832D01*
X45174Y13798D01*
X45074Y13704D01*
X44969Y13616D01*
X44928Y13566D01*
X44882Y13521D01*
X44802Y13409D01*
X44716Y13302D01*
X44687Y13245D01*
X44650Y13192D01*
X44594Y13066D01*
X44531Y12945D01*
X44513Y12883D01*
X44487Y12824D01*
X44457Y12690D01*
X44419Y12558D01*
X44414Y12494D01*
X44400Y12431D01*
X44398Y12293D01*
X44387Y12156D01*
X44394Y12093D01*
X44393Y12028D01*
X44418Y11893D01*
X44434Y11757D01*
X44454Y11695D01*
X44465Y11632D01*
X44516Y11505D01*
X44558Y11374D01*
X44590Y11318D01*
X44614Y11258D01*
X44689Y11143D01*
X44756Y11023D01*
X44798Y10974D01*
X44833Y10921D01*
X44930Y10822D01*
X45019Y10718D01*
X45070Y10679D01*
X45115Y10633D01*
X45229Y10556D01*
X45338Y10472D01*
X45395Y10443D01*
X45448Y10407D01*
X45575Y10354D01*
X45698Y10292D01*
X45760Y10276D01*
X45820Y10251D01*
X45954Y10224D01*
X46087Y10188D01*
X46161Y10182D01*
X46214Y10171D01*
X46294Y10171D01*
X46418Y10161D01*
X174355Y10161D01*
X174364Y10162D01*
G37*
G36*
X76712Y114309D02*
X76712Y114309D01*
X76739Y114307D01*
X76913Y114329D01*
X77086Y114347D01*
X77112Y114354D01*
X77138Y114358D01*
X77304Y114414D01*
X77471Y114465D01*
X77495Y114478D01*
X77520Y114486D01*
X77671Y114573D01*
X77825Y114657D01*
X77845Y114674D01*
X77869Y114687D01*
X78122Y114902D01*
X84748Y121528D01*
X87427Y124207D01*
X100259Y124207D01*
X100286Y124209D01*
X100312Y124207D01*
X100486Y124229D01*
X100660Y124247D01*
X100685Y124254D01*
X100712Y124258D01*
X100877Y124313D01*
X101045Y124365D01*
X101068Y124378D01*
X101093Y124386D01*
X101245Y124473D01*
X101399Y124557D01*
X101419Y124574D01*
X101442Y124587D01*
X101695Y124802D01*
X102457Y125564D01*
X102469Y125578D01*
X102482Y125589D01*
X102596Y125733D01*
X102712Y125875D01*
X102721Y125891D01*
X102732Y125905D01*
X102815Y126069D01*
X102901Y126231D01*
X102906Y126248D01*
X102914Y126264D01*
X102963Y126440D01*
X103016Y126617D01*
X103017Y126635D01*
X103022Y126652D01*
X103036Y126835D01*
X103052Y127018D01*
X103050Y127036D01*
X103052Y127053D01*
X103029Y127235D01*
X103009Y127418D01*
X103003Y127435D01*
X103001Y127453D01*
X102943Y127627D01*
X102887Y127802D01*
X102879Y127818D01*
X102873Y127834D01*
X102781Y127993D01*
X102693Y128154D01*
X102681Y128168D01*
X102672Y128183D01*
X102457Y128436D01*
X101175Y129718D01*
X101175Y136982D01*
X102457Y138264D01*
X102469Y138278D01*
X102482Y138289D01*
X102596Y138433D01*
X102712Y138575D01*
X102721Y138591D01*
X102732Y138605D01*
X102815Y138769D01*
X102901Y138931D01*
X102906Y138948D01*
X102914Y138964D01*
X102964Y139141D01*
X103016Y139317D01*
X103017Y139335D01*
X103022Y139352D01*
X103036Y139535D01*
X103052Y139718D01*
X103050Y139736D01*
X103052Y139753D01*
X103029Y139935D01*
X103009Y140118D01*
X103003Y140135D01*
X103001Y140153D01*
X102943Y140326D01*
X102887Y140502D01*
X102879Y140518D01*
X102873Y140534D01*
X102781Y140694D01*
X102693Y140854D01*
X102681Y140868D01*
X102672Y140883D01*
X102457Y141136D01*
X101695Y141898D01*
X101675Y141915D01*
X101657Y141936D01*
X101519Y142043D01*
X101384Y142153D01*
X101360Y142166D01*
X101339Y142182D01*
X101182Y142260D01*
X101028Y142342D01*
X101003Y142350D01*
X100979Y142362D01*
X100809Y142407D01*
X100642Y142457D01*
X100616Y142459D01*
X100590Y142466D01*
X100259Y142493D01*
X87427Y142493D01*
X78322Y151598D01*
X78301Y151615D01*
X78283Y151636D01*
X78146Y151743D01*
X78010Y151853D01*
X77987Y151866D01*
X77965Y151882D01*
X77808Y151960D01*
X77654Y152042D01*
X77629Y152050D01*
X77605Y152062D01*
X77435Y152107D01*
X77269Y152157D01*
X77242Y152159D01*
X77216Y152166D01*
X76885Y152193D01*
X70929Y152193D01*
X70920Y152192D01*
X70911Y152193D01*
X70719Y152172D01*
X70528Y152153D01*
X70520Y152151D01*
X70511Y152150D01*
X70328Y152092D01*
X70143Y152035D01*
X70136Y152031D01*
X70127Y152028D01*
X69958Y151935D01*
X69789Y151843D01*
X69783Y151838D01*
X69775Y151833D01*
X69627Y151708D01*
X69480Y151586D01*
X69475Y151579D01*
X69468Y151573D01*
X69348Y151421D01*
X69228Y151272D01*
X69224Y151264D01*
X69218Y151257D01*
X69130Y151084D01*
X69042Y150915D01*
X69040Y150906D01*
X69036Y150898D01*
X68984Y150713D01*
X68931Y150528D01*
X68930Y150519D01*
X68928Y150510D01*
X68914Y150318D01*
X68898Y150126D01*
X68899Y150118D01*
X68898Y150109D01*
X68923Y149917D01*
X68945Y149727D01*
X68948Y149718D01*
X68949Y149709D01*
X69010Y149527D01*
X69070Y149344D01*
X69074Y149336D01*
X69077Y149328D01*
X69173Y149160D01*
X69268Y148993D01*
X69274Y148986D01*
X69278Y148979D01*
X69493Y148726D01*
X70133Y148085D01*
X73314Y142576D01*
X74961Y136431D01*
X74961Y130069D01*
X73314Y123924D01*
X70133Y118415D01*
X69493Y117774D01*
X69487Y117767D01*
X69480Y117762D01*
X69360Y117613D01*
X69238Y117463D01*
X69233Y117455D01*
X69228Y117448D01*
X69140Y117279D01*
X69049Y117107D01*
X69046Y117098D01*
X69042Y117091D01*
X68989Y116907D01*
X68934Y116721D01*
X68933Y116712D01*
X68931Y116704D01*
X68915Y116511D01*
X68898Y116320D01*
X68899Y116311D01*
X68898Y116302D01*
X68920Y116113D01*
X68941Y115920D01*
X68944Y115911D01*
X68945Y115903D01*
X69005Y115720D01*
X69063Y115536D01*
X69067Y115528D01*
X69070Y115520D01*
X69165Y115350D01*
X69258Y115184D01*
X69263Y115177D01*
X69268Y115169D01*
X69394Y115023D01*
X69518Y114877D01*
X69525Y114871D01*
X69531Y114864D01*
X69684Y114746D01*
X69834Y114627D01*
X69842Y114623D01*
X69849Y114618D01*
X70023Y114531D01*
X70193Y114445D01*
X70201Y114442D01*
X70210Y114438D01*
X70398Y114388D01*
X70581Y114337D01*
X70590Y114336D01*
X70598Y114334D01*
X70929Y114307D01*
X76685Y114307D01*
X76712Y114309D01*
G37*
G36*
X273525Y164173D02*
X273525Y164173D01*
X273533Y164172D01*
X273724Y164194D01*
X273918Y164215D01*
X273925Y164218D01*
X273933Y164219D01*
X274116Y164278D01*
X274301Y164337D01*
X274308Y164341D01*
X274316Y164343D01*
X274485Y164438D01*
X274654Y164532D01*
X274660Y164537D01*
X274667Y164541D01*
X274814Y164667D01*
X274961Y164792D01*
X274966Y164799D01*
X274972Y164804D01*
X275090Y164956D01*
X275210Y165108D01*
X275214Y165115D01*
X275219Y165122D01*
X275305Y165295D01*
X275393Y165467D01*
X275395Y165475D01*
X275398Y165482D01*
X275448Y165666D01*
X275501Y165855D01*
X275501Y165863D01*
X275503Y165871D01*
X275531Y166201D01*
X275550Y188383D01*
X275536Y188520D01*
X275531Y188658D01*
X275516Y188720D01*
X275510Y188783D01*
X275470Y188916D01*
X275438Y189050D01*
X275411Y189108D01*
X275392Y189168D01*
X275327Y189290D01*
X275269Y189415D01*
X275231Y189467D01*
X275201Y189523D01*
X275113Y189629D01*
X275031Y189740D01*
X274984Y189783D01*
X274943Y189832D01*
X274836Y189919D01*
X274734Y190012D01*
X274679Y190045D01*
X274630Y190085D01*
X274507Y190149D01*
X274389Y190220D01*
X274329Y190241D01*
X274273Y190271D01*
X274140Y190309D01*
X274010Y190355D01*
X273947Y190365D01*
X273886Y190382D01*
X273748Y190394D01*
X273611Y190414D01*
X273548Y190410D01*
X273485Y190415D01*
X273347Y190399D01*
X273209Y190392D01*
X273148Y190376D01*
X273085Y190369D01*
X272953Y190326D01*
X272819Y190292D01*
X272762Y190264D01*
X272702Y190244D01*
X272581Y190177D01*
X272457Y190116D01*
X272406Y190078D01*
X272351Y190047D01*
X272246Y189956D01*
X272136Y189873D01*
X272094Y189825D01*
X272046Y189784D01*
X271961Y189675D01*
X271870Y189571D01*
X271838Y189516D01*
X271799Y189466D01*
X271737Y189342D01*
X271668Y189223D01*
X271644Y189154D01*
X271619Y189106D01*
X271599Y189028D01*
X271556Y188910D01*
X271083Y187144D01*
X267772Y181410D01*
X263090Y176728D01*
X257356Y173417D01*
X254494Y172650D01*
X254366Y172602D01*
X254234Y172561D01*
X254177Y172531D01*
X254117Y172508D01*
X254001Y172435D01*
X253880Y172369D01*
X253831Y172328D01*
X253776Y172294D01*
X253676Y172200D01*
X253571Y172112D01*
X253530Y172061D01*
X253484Y172017D01*
X253405Y171905D01*
X253318Y171798D01*
X253289Y171741D01*
X253252Y171688D01*
X253196Y171562D01*
X253133Y171441D01*
X253115Y171379D01*
X253089Y171320D01*
X253060Y171186D01*
X253022Y171054D01*
X253016Y170990D01*
X253002Y170927D01*
X253000Y170789D01*
X252989Y170652D01*
X252996Y170589D01*
X252995Y170524D01*
X253020Y170389D01*
X253036Y170253D01*
X253056Y170191D01*
X253067Y170128D01*
X253118Y170000D01*
X253160Y169870D01*
X253192Y169814D01*
X253216Y169754D01*
X253291Y169639D01*
X253358Y169519D01*
X253400Y169470D01*
X253436Y169416D01*
X253532Y169318D01*
X253622Y169214D01*
X253672Y169175D01*
X253717Y169129D01*
X253831Y169052D01*
X253940Y168968D01*
X253997Y168939D01*
X254051Y168903D01*
X254177Y168850D01*
X254300Y168788D01*
X254362Y168772D01*
X254422Y168747D01*
X254556Y168720D01*
X254689Y168684D01*
X254763Y168678D01*
X254816Y168667D01*
X254896Y168667D01*
X255020Y168657D01*
X268173Y168657D01*
X272063Y164767D01*
X272069Y164762D01*
X272075Y164755D01*
X272225Y164634D01*
X272375Y164512D01*
X272382Y164508D01*
X272388Y164503D01*
X272561Y164413D01*
X272730Y164323D01*
X272738Y164321D01*
X272745Y164317D01*
X272932Y164263D01*
X273116Y164208D01*
X273124Y164208D01*
X273132Y164205D01*
X273324Y164189D01*
X273517Y164172D01*
X273525Y164173D01*
G37*
G36*
X29919Y10174D02*
X29919Y10174D01*
X30056Y10179D01*
X30119Y10194D01*
X30183Y10201D01*
X30314Y10241D01*
X30448Y10273D01*
X30506Y10300D01*
X30568Y10319D01*
X30689Y10384D01*
X30813Y10442D01*
X30865Y10480D01*
X30922Y10511D01*
X31027Y10598D01*
X31138Y10680D01*
X31182Y10727D01*
X31231Y10768D01*
X31317Y10875D01*
X31410Y10977D01*
X31443Y11032D01*
X31484Y11082D01*
X31547Y11204D01*
X31618Y11322D01*
X31640Y11382D01*
X31669Y11439D01*
X31707Y11571D01*
X31753Y11701D01*
X31763Y11764D01*
X31781Y11826D01*
X31792Y11963D01*
X31812Y12099D01*
X31808Y12163D01*
X31813Y12228D01*
X31797Y12364D01*
X31790Y12501D01*
X31774Y12564D01*
X31766Y12627D01*
X31724Y12758D01*
X31690Y12891D01*
X31662Y12949D01*
X31642Y13010D01*
X31574Y13130D01*
X31514Y13253D01*
X31475Y13305D01*
X31444Y13361D01*
X31354Y13465D01*
X31271Y13574D01*
X31223Y13617D01*
X31181Y13665D01*
X31072Y13750D01*
X30969Y13841D01*
X30913Y13873D01*
X30862Y13912D01*
X30740Y13973D01*
X30621Y14042D01*
X30551Y14067D01*
X30502Y14092D01*
X30425Y14112D01*
X30308Y14154D01*
X28394Y14667D01*
X22660Y17978D01*
X17978Y22660D01*
X14667Y28394D01*
X14154Y30308D01*
X14106Y30436D01*
X14065Y30568D01*
X14034Y30625D01*
X14012Y30685D01*
X13939Y30801D01*
X13873Y30922D01*
X13832Y30971D01*
X13798Y31026D01*
X13704Y31126D01*
X13616Y31231D01*
X13566Y31272D01*
X13521Y31318D01*
X13409Y31398D01*
X13302Y31484D01*
X13245Y31513D01*
X13192Y31550D01*
X13066Y31606D01*
X12945Y31669D01*
X12883Y31687D01*
X12824Y31713D01*
X12690Y31743D01*
X12558Y31781D01*
X12494Y31786D01*
X12431Y31800D01*
X12293Y31802D01*
X12156Y31813D01*
X12093Y31806D01*
X12028Y31807D01*
X11893Y31782D01*
X11757Y31766D01*
X11695Y31746D01*
X11632Y31735D01*
X11505Y31684D01*
X11374Y31642D01*
X11318Y31610D01*
X11258Y31586D01*
X11143Y31511D01*
X11023Y31444D01*
X10974Y31402D01*
X10921Y31367D01*
X10822Y31270D01*
X10718Y31181D01*
X10679Y31130D01*
X10633Y31085D01*
X10556Y30971D01*
X10472Y30862D01*
X10443Y30805D01*
X10407Y30752D01*
X10354Y30625D01*
X10292Y30502D01*
X10276Y30440D01*
X10251Y30380D01*
X10224Y30246D01*
X10188Y30113D01*
X10182Y30039D01*
X10171Y29986D01*
X10171Y29906D01*
X10161Y29782D01*
X10161Y12192D01*
X10163Y12174D01*
X10161Y12156D01*
X10182Y11974D01*
X10201Y11791D01*
X10206Y11774D01*
X10208Y11757D01*
X10265Y11582D01*
X10319Y11406D01*
X10327Y11391D01*
X10333Y11374D01*
X10423Y11214D01*
X10511Y11052D01*
X10522Y11039D01*
X10531Y11023D01*
X10651Y10884D01*
X10768Y10743D01*
X10782Y10732D01*
X10794Y10718D01*
X10939Y10606D01*
X11082Y10491D01*
X11098Y10483D01*
X11112Y10472D01*
X11277Y10390D01*
X11439Y10305D01*
X11456Y10300D01*
X11472Y10292D01*
X11651Y10245D01*
X11826Y10194D01*
X11844Y10192D01*
X11861Y10188D01*
X12192Y10161D01*
X29782Y10161D01*
X29919Y10174D01*
G37*
G36*
X273631Y203239D02*
X273631Y203239D01*
X273697Y203237D01*
X273831Y203262D01*
X273966Y203278D01*
X274029Y203298D01*
X274093Y203309D01*
X274219Y203360D01*
X274349Y203402D01*
X274406Y203434D01*
X274467Y203458D01*
X274581Y203533D01*
X274700Y203600D01*
X274750Y203642D01*
X274804Y203678D01*
X274902Y203773D01*
X275005Y203863D01*
X275045Y203914D01*
X275092Y203960D01*
X275168Y204073D01*
X275252Y204180D01*
X275281Y204239D01*
X275318Y204293D01*
X275371Y204419D01*
X275432Y204541D01*
X275449Y204604D01*
X275474Y204664D01*
X275501Y204797D01*
X275537Y204930D01*
X275543Y205004D01*
X275554Y205059D01*
X275554Y205138D01*
X275564Y205260D01*
X275579Y222756D01*
X275577Y222775D01*
X275579Y222794D01*
X275557Y222975D01*
X275539Y223157D01*
X275534Y223175D01*
X275532Y223193D01*
X275475Y223367D01*
X275422Y223542D01*
X275413Y223558D01*
X275407Y223576D01*
X275317Y223736D01*
X275230Y223896D01*
X275218Y223910D01*
X275209Y223927D01*
X275089Y224065D01*
X274973Y224206D01*
X274958Y224217D01*
X274946Y224232D01*
X274802Y224343D01*
X274659Y224458D01*
X274642Y224467D01*
X274628Y224478D01*
X274464Y224560D01*
X274302Y224644D01*
X274284Y224649D01*
X274267Y224658D01*
X274091Y224705D01*
X273915Y224756D01*
X273896Y224757D01*
X273878Y224762D01*
X273548Y224789D01*
X255968Y224789D01*
X255831Y224776D01*
X255694Y224771D01*
X255631Y224756D01*
X255567Y224749D01*
X255436Y224709D01*
X255302Y224677D01*
X255244Y224650D01*
X255182Y224631D01*
X255061Y224566D01*
X254937Y224508D01*
X254885Y224470D01*
X254828Y224439D01*
X254723Y224352D01*
X254612Y224270D01*
X254568Y224223D01*
X254519Y224182D01*
X254433Y224075D01*
X254340Y223973D01*
X254307Y223918D01*
X254266Y223868D01*
X254203Y223746D01*
X254132Y223628D01*
X254110Y223568D01*
X254081Y223511D01*
X254043Y223379D01*
X253997Y223249D01*
X253987Y223186D01*
X253969Y223124D01*
X253958Y222987D01*
X253938Y222851D01*
X253942Y222787D01*
X253937Y222722D01*
X253953Y222586D01*
X253960Y222449D01*
X253976Y222386D01*
X253984Y222323D01*
X254026Y222192D01*
X254060Y222059D01*
X254088Y222001D01*
X254108Y221940D01*
X254176Y221820D01*
X254236Y221697D01*
X254275Y221645D01*
X254306Y221589D01*
X254396Y221485D01*
X254479Y221376D01*
X254527Y221333D01*
X254569Y221285D01*
X254678Y221200D01*
X254781Y221109D01*
X254837Y221077D01*
X254888Y221038D01*
X255010Y220977D01*
X255129Y220908D01*
X255199Y220883D01*
X255248Y220858D01*
X255325Y220838D01*
X255442Y220796D01*
X257356Y220283D01*
X263090Y216972D01*
X267772Y212290D01*
X271083Y206556D01*
X271571Y204736D01*
X271619Y204609D01*
X271659Y204478D01*
X271690Y204421D01*
X271713Y204360D01*
X271785Y204244D01*
X271850Y204124D01*
X271892Y204074D01*
X271927Y204018D01*
X272021Y203919D01*
X272108Y203814D01*
X272159Y203773D01*
X272203Y203726D01*
X272315Y203647D01*
X272421Y203562D01*
X272479Y203532D01*
X272533Y203494D01*
X272657Y203439D01*
X272778Y203376D01*
X272841Y203358D01*
X272901Y203331D01*
X273034Y203302D01*
X273165Y203264D01*
X273230Y203259D01*
X273294Y203245D01*
X273431Y203242D01*
X273567Y203231D01*
X273631Y203239D01*
G37*
G36*
X192436Y149609D02*
X192436Y149609D01*
X192462Y149607D01*
X192636Y149629D01*
X192810Y149647D01*
X192835Y149654D01*
X192862Y149658D01*
X193027Y149713D01*
X193195Y149765D01*
X193218Y149778D01*
X193243Y149786D01*
X193395Y149873D01*
X193549Y149957D01*
X193569Y149974D01*
X193592Y149987D01*
X193845Y150202D01*
X194607Y150964D01*
X194619Y150977D01*
X194632Y150989D01*
X194746Y151133D01*
X194862Y151275D01*
X194871Y151291D01*
X194882Y151305D01*
X194965Y151468D01*
X195051Y151631D01*
X195056Y151648D01*
X195064Y151664D01*
X195113Y151840D01*
X195166Y152017D01*
X195167Y152035D01*
X195172Y152052D01*
X195186Y152235D01*
X195202Y152418D01*
X195200Y152435D01*
X195202Y152453D01*
X195179Y152635D01*
X195159Y152818D01*
X195153Y152835D01*
X195151Y152853D01*
X195093Y153027D01*
X195037Y153202D01*
X195029Y153217D01*
X195023Y153234D01*
X194931Y153394D01*
X194843Y153554D01*
X194831Y153568D01*
X194822Y153583D01*
X194607Y153836D01*
X193845Y154598D01*
X193825Y154615D01*
X193807Y154636D01*
X193669Y154743D01*
X193534Y154853D01*
X193510Y154866D01*
X193489Y154882D01*
X193332Y154960D01*
X193178Y155042D01*
X193153Y155050D01*
X193129Y155062D01*
X192959Y155107D01*
X192792Y155157D01*
X192766Y155159D01*
X192740Y155166D01*
X192409Y155193D01*
X179141Y155193D01*
X179114Y155191D01*
X179088Y155193D01*
X178914Y155171D01*
X178740Y155153D01*
X178715Y155146D01*
X178688Y155142D01*
X178523Y155087D01*
X178355Y155035D01*
X178332Y155022D01*
X178307Y155014D01*
X178155Y154927D01*
X178001Y154843D01*
X177981Y154826D01*
X177958Y154813D01*
X177705Y154598D01*
X176943Y153836D01*
X176931Y153822D01*
X176918Y153811D01*
X176804Y153667D01*
X176688Y153525D01*
X176679Y153509D01*
X176668Y153495D01*
X176585Y153331D01*
X176499Y153169D01*
X176494Y153152D01*
X176486Y153136D01*
X176436Y152959D01*
X176384Y152783D01*
X176383Y152765D01*
X176378Y152748D01*
X176364Y152565D01*
X176348Y152382D01*
X176350Y152364D01*
X176348Y152347D01*
X176371Y152165D01*
X176391Y151982D01*
X176397Y151965D01*
X176399Y151947D01*
X176457Y151774D01*
X176513Y151598D01*
X176521Y151582D01*
X176527Y151566D01*
X176619Y151406D01*
X176707Y151246D01*
X176719Y151232D01*
X176728Y151217D01*
X176943Y150964D01*
X177705Y150202D01*
X177725Y150185D01*
X177743Y150164D01*
X177881Y150058D01*
X178016Y149947D01*
X178040Y149934D01*
X178061Y149918D01*
X178217Y149840D01*
X178372Y149758D01*
X178397Y149750D01*
X178421Y149738D01*
X178591Y149693D01*
X178758Y149643D01*
X178784Y149641D01*
X178810Y149634D01*
X179141Y149607D01*
X192409Y149607D01*
X192436Y149609D01*
G37*
%LPC*%
G36*
X141731Y207519D02*
X141731Y207519D01*
X148845Y207519D01*
X148845Y202226D01*
X148620Y200805D01*
X148175Y199436D01*
X147521Y198153D01*
X146675Y196989D01*
X145657Y195971D01*
X144493Y195125D01*
X143210Y194471D01*
X141841Y194026D01*
X141731Y194009D01*
X141731Y207519D01*
G37*
%LPD*%
%LPC*%
G36*
X167131Y207519D02*
X167131Y207519D01*
X174245Y207519D01*
X174245Y202226D01*
X174020Y200805D01*
X173575Y199436D01*
X172921Y198153D01*
X172075Y196989D01*
X171057Y195971D01*
X169893Y195125D01*
X168610Y194471D01*
X167241Y194026D01*
X167131Y194009D01*
X167131Y207519D01*
G37*
%LPD*%
%LPC*%
G36*
X162959Y194026D02*
X162959Y194026D01*
X161590Y194471D01*
X160307Y195125D01*
X159143Y195971D01*
X158125Y196989D01*
X157279Y198153D01*
X156625Y199436D01*
X156180Y200805D01*
X155955Y202226D01*
X155955Y207519D01*
X163069Y207519D01*
X163069Y194009D01*
X162959Y194026D01*
G37*
%LPD*%
%LPC*%
G36*
X137559Y194026D02*
X137559Y194026D01*
X136190Y194471D01*
X134907Y195125D01*
X133743Y195971D01*
X132725Y196989D01*
X131879Y198153D01*
X131225Y199436D01*
X130780Y200805D01*
X130555Y202226D01*
X130555Y207519D01*
X137669Y207519D01*
X137669Y194009D01*
X137559Y194026D01*
G37*
%LPD*%
%LPC*%
G36*
X251649Y112999D02*
X251649Y112999D01*
X251649Y124541D01*
X255985Y124541D01*
X256631Y124368D01*
X257210Y124033D01*
X257683Y123560D01*
X258018Y122981D01*
X258191Y122335D01*
X258191Y112999D01*
X251649Y112999D01*
G37*
%LPD*%
%LPC*%
G36*
X251649Y93459D02*
X251649Y93459D01*
X251649Y105001D01*
X258191Y105001D01*
X258191Y95665D01*
X258018Y95019D01*
X257683Y94440D01*
X257210Y93967D01*
X256631Y93632D01*
X255985Y93459D01*
X251649Y93459D01*
G37*
%LPD*%
%LPC*%
G36*
X237109Y112999D02*
X237109Y112999D01*
X237109Y122335D01*
X237282Y122981D01*
X237617Y123560D01*
X238090Y124033D01*
X238669Y124368D01*
X239315Y124541D01*
X243651Y124541D01*
X243651Y112999D01*
X237109Y112999D01*
G37*
%LPD*%
%LPC*%
G36*
X239315Y93459D02*
X239315Y93459D01*
X238669Y93632D01*
X238090Y93967D01*
X237617Y94440D01*
X237282Y95019D01*
X237109Y95665D01*
X237109Y105001D01*
X243651Y105001D01*
X243651Y93459D01*
X239315Y93459D01*
G37*
%LPD*%
%LPC*%
G36*
X97999Y40849D02*
X97999Y40849D01*
X97999Y48891D01*
X103835Y48891D01*
X104481Y48718D01*
X105060Y48383D01*
X105533Y47910D01*
X105868Y47331D01*
X106041Y46685D01*
X106041Y40849D01*
X97999Y40849D01*
G37*
%LPD*%
%LPC*%
G36*
X84459Y40849D02*
X84459Y40849D01*
X84459Y46685D01*
X84632Y47331D01*
X84967Y47910D01*
X85440Y48383D01*
X86019Y48718D01*
X86665Y48891D01*
X92501Y48891D01*
X92501Y40849D01*
X84459Y40849D01*
G37*
%LPD*%
%LPC*%
G36*
X97999Y27309D02*
X97999Y27309D01*
X97999Y35351D01*
X106041Y35351D01*
X106041Y29515D01*
X105868Y28869D01*
X105533Y28290D01*
X105060Y27817D01*
X104481Y27482D01*
X103835Y27309D01*
X97999Y27309D01*
G37*
%LPD*%
%LPC*%
G36*
X86665Y27309D02*
X86665Y27309D01*
X86019Y27482D01*
X85440Y27817D01*
X84967Y28290D01*
X84632Y28869D01*
X84459Y29515D01*
X84459Y35351D01*
X92501Y35351D01*
X92501Y27309D01*
X86665Y27309D01*
G37*
%LPD*%
%LPC*%
G36*
X63549Y193749D02*
X63549Y193749D01*
X63549Y201041D01*
X67135Y201041D01*
X67781Y200868D01*
X68360Y200533D01*
X68833Y200060D01*
X69168Y199481D01*
X69341Y198835D01*
X69341Y193749D01*
X63549Y193749D01*
G37*
%LPD*%
%LPC*%
G36*
X63549Y179959D02*
X63549Y179959D01*
X63549Y187251D01*
X69341Y187251D01*
X69341Y182165D01*
X69168Y181519D01*
X68833Y180940D01*
X68360Y180467D01*
X67781Y180132D01*
X67135Y179959D01*
X63549Y179959D01*
G37*
%LPD*%
%LPC*%
G36*
X200099Y88909D02*
X200099Y88909D01*
X200099Y94701D01*
X207391Y94701D01*
X207391Y91115D01*
X207218Y90469D01*
X206883Y89890D01*
X206410Y89417D01*
X205831Y89082D01*
X205185Y88909D01*
X200099Y88909D01*
G37*
%LPD*%
%LPC*%
G36*
X188515Y88909D02*
X188515Y88909D01*
X187869Y89082D01*
X187290Y89417D01*
X186817Y89890D01*
X186482Y90469D01*
X186309Y91115D01*
X186309Y94701D01*
X193601Y94701D01*
X193601Y88909D01*
X188515Y88909D01*
G37*
%LPD*%
%LPC*%
G36*
X115731Y160781D02*
X115731Y160781D01*
X115731Y164291D01*
X125035Y164291D01*
X125681Y164118D01*
X126260Y163783D01*
X126733Y163310D01*
X127068Y162731D01*
X127241Y162085D01*
X127241Y160781D01*
X115731Y160781D01*
G37*
%LPD*%
%LPC*%
G36*
X100159Y160781D02*
X100159Y160781D01*
X100159Y162085D01*
X100332Y162731D01*
X100667Y163310D01*
X101140Y163783D01*
X101719Y164118D01*
X102365Y164291D01*
X111669Y164291D01*
X111669Y160781D01*
X100159Y160781D01*
G37*
%LPD*%
%LPC*%
G36*
X249681Y52831D02*
X249681Y52831D01*
X249681Y59945D01*
X251438Y59945D01*
X256795Y54588D01*
X256795Y52831D01*
X249681Y52831D01*
G37*
%LPD*%
%LPC*%
G36*
X238505Y52831D02*
X238505Y52831D01*
X238505Y54588D01*
X243862Y59945D01*
X245619Y59945D01*
X245619Y52831D01*
X238505Y52831D01*
G37*
%LPD*%
%LPC*%
G36*
X249681Y41655D02*
X249681Y41655D01*
X249681Y48769D01*
X256795Y48769D01*
X256795Y47012D01*
X251438Y41655D01*
X249681Y41655D01*
G37*
%LPD*%
%LPC*%
G36*
X243862Y41655D02*
X243862Y41655D01*
X238505Y47012D01*
X238505Y48769D01*
X245619Y48769D01*
X245619Y41655D01*
X243862Y41655D01*
G37*
%LPD*%
%LPC*%
G36*
X123159Y180424D02*
X123159Y180424D01*
X123159Y183535D01*
X123332Y184181D01*
X123667Y184760D01*
X124140Y185233D01*
X124719Y185568D01*
X125365Y185741D01*
X128326Y185741D01*
X128326Y180424D01*
X123159Y180424D01*
G37*
%LPD*%
%LPC*%
G36*
X125365Y169859D02*
X125365Y169859D01*
X124719Y170032D01*
X124140Y170367D01*
X123667Y170840D01*
X123332Y171419D01*
X123159Y172065D01*
X123159Y175176D01*
X128326Y175176D01*
X128326Y169859D01*
X125365Y169859D01*
G37*
%LPD*%
D10*
X247650Y145000D03*
X247650Y109000D03*
D11*
X148450Y177800D03*
X130950Y177800D03*
D12*
X196850Y117950D03*
X196850Y97950D03*
D13*
X113700Y146050D03*
X165700Y146050D03*
X113700Y158750D03*
X113700Y133350D03*
X113700Y120650D03*
X165700Y158750D03*
X165700Y133350D03*
X165700Y120650D03*
D14*
X95250Y38100D03*
D15*
X120250Y38100D03*
X145250Y38100D03*
X170250Y38100D03*
D16*
X247650Y25400D03*
X247650Y50800D03*
D17*
X50800Y110750D03*
X50800Y155750D03*
D12*
X203200Y142900D03*
X203200Y161900D03*
D18*
X60300Y190500D03*
X41300Y190500D03*
D12*
X209550Y28600D03*
X209550Y47600D03*
D19*
X165100Y202946D02*
X165100Y216154D01*
X114300Y216154D02*
X114300Y202946D01*
X139700Y202946D02*
X139700Y216154D01*
D20*
X200050Y146050D02*
X203200Y142900D01*
X200050Y146050D02*
X165700Y146050D01*
X165700Y133350D01*
X246600Y146050D02*
X247650Y145000D01*
X206350Y146050D02*
X203200Y142900D01*
X206350Y146050D02*
X246600Y146050D01*
X170250Y38100D02*
X170250Y24200D01*
X165100Y19050D01*
X69850Y19050D01*
X65278Y23622D01*
X65278Y49358D01*
X79000Y110750D02*
X88900Y120650D01*
X113700Y120650D01*
X148450Y162700D02*
X148450Y177800D01*
X148450Y162700D02*
X152400Y158750D01*
X165700Y158750D01*
X201625Y160325D02*
X203200Y161900D01*
X201625Y160325D02*
X200050Y158750D01*
X165700Y158750D01*
X170250Y24200D02*
X181750Y12700D01*
X266700Y12700D02*
X273050Y19050D01*
X203200Y158750D02*
X201625Y160325D01*
X181750Y12700D02*
X266700Y12700D01*
X273050Y158750D02*
X266700Y165100D01*
X273050Y158750D02*
X273050Y19050D01*
X65278Y49358D02*
X50800Y63836D01*
X50800Y110750D02*
X79000Y110750D01*
X50800Y110750D02*
X50800Y63836D01*
X228600Y165100D02*
X266700Y165100D01*
X228600Y165100D02*
X215900Y177800D01*
X148450Y177800D01*
X79200Y155750D02*
X50800Y155750D01*
X79200Y155750D02*
X88900Y146050D01*
X113700Y146050D01*
X50800Y155750D02*
X50800Y171450D01*
X41300Y180950D02*
X41300Y190500D01*
X41300Y180950D02*
X50800Y171450D01*
X41300Y200050D02*
X50800Y209550D01*
X41300Y200050D02*
X41300Y190500D01*
X50800Y209550D02*
X114300Y209550D01*
X165700Y120650D02*
X194150Y120650D01*
X196850Y117950D01*
X127000Y133350D02*
X113700Y133350D01*
X127000Y133350D02*
X133350Y127000D01*
X133350Y51200D02*
X120250Y38100D01*
X133350Y51200D02*
X133350Y127000D01*
X146050Y38900D02*
X145250Y38100D01*
X146050Y38900D02*
X146050Y50800D01*
X152400Y57150D01*
X190500Y57150D01*
X196850Y50800D01*
X196850Y31750D01*
X200000Y28600D02*
X209550Y28600D01*
X200000Y28600D02*
X196850Y31750D01*
X209550Y47600D02*
X225450Y47600D01*
X228600Y44450D01*
X228600Y31750D01*
X234950Y25400D01*
X247650Y25400D01*
M02*
