G04 EAGLE Gerber RS-274X export*
G75*
%MOMM*%
%FSLAX34Y34*%
%LPD*%
%AMOC8*
5,1,8,0,0,1.08239X$1,22.5*%
G01*
%ADD10C,0.254000*%


D10*
X0Y0D02*
X285550Y0D01*
X285750Y234950D01*
X0Y234950D01*
X0Y0D01*
X53086Y37565D02*
X53010Y36497D01*
X52857Y35438D01*
X52630Y34392D01*
X52328Y33364D01*
X51954Y32361D01*
X51509Y31388D01*
X50996Y30448D01*
X50418Y29548D01*
X49776Y28691D01*
X49075Y27882D01*
X48318Y27125D01*
X47509Y26424D01*
X46652Y25782D01*
X45752Y25204D01*
X44812Y24691D01*
X43839Y24246D01*
X42836Y23872D01*
X41809Y23570D01*
X40763Y23343D01*
X39703Y23190D01*
X38635Y23114D01*
X37565Y23114D01*
X36497Y23190D01*
X35438Y23343D01*
X34392Y23570D01*
X33364Y23872D01*
X32361Y24246D01*
X31388Y24691D01*
X30448Y25204D01*
X29548Y25782D01*
X28691Y26424D01*
X27882Y27125D01*
X27125Y27882D01*
X26424Y28691D01*
X25782Y29548D01*
X25204Y30448D01*
X24691Y31388D01*
X24246Y32361D01*
X23872Y33364D01*
X23570Y34392D01*
X23343Y35438D01*
X23190Y36497D01*
X23114Y37565D01*
X23114Y38635D01*
X23190Y39703D01*
X23343Y40763D01*
X23570Y41809D01*
X23872Y42836D01*
X24246Y43839D01*
X24691Y44812D01*
X25204Y45752D01*
X25782Y46652D01*
X26424Y47509D01*
X27125Y48318D01*
X27882Y49075D01*
X28691Y49776D01*
X29548Y50418D01*
X30448Y50996D01*
X31388Y51509D01*
X32361Y51954D01*
X33364Y52328D01*
X34392Y52630D01*
X35438Y52857D01*
X36497Y53010D01*
X37565Y53086D01*
X38635Y53086D01*
X39703Y53010D01*
X40763Y52857D01*
X41809Y52630D01*
X42836Y52328D01*
X43839Y51954D01*
X44812Y51509D01*
X45752Y50996D01*
X46652Y50418D01*
X47509Y49776D01*
X48318Y49075D01*
X49075Y48318D01*
X49776Y47509D01*
X50418Y46652D01*
X50996Y45752D01*
X51509Y44812D01*
X51954Y43839D01*
X52328Y42836D01*
X52630Y41809D01*
X52857Y40763D01*
X53010Y39703D01*
X53086Y38635D01*
X53086Y37565D01*
X262636Y196315D02*
X262560Y195247D01*
X262407Y194188D01*
X262180Y193142D01*
X261878Y192114D01*
X261504Y191111D01*
X261059Y190138D01*
X260546Y189198D01*
X259968Y188298D01*
X259326Y187441D01*
X258625Y186632D01*
X257868Y185875D01*
X257059Y185174D01*
X256202Y184532D01*
X255302Y183954D01*
X254362Y183441D01*
X253389Y182996D01*
X252386Y182622D01*
X251359Y182320D01*
X250313Y182093D01*
X249253Y181940D01*
X248185Y181864D01*
X247115Y181864D01*
X246047Y181940D01*
X244988Y182093D01*
X243942Y182320D01*
X242914Y182622D01*
X241911Y182996D01*
X240938Y183441D01*
X239998Y183954D01*
X239098Y184532D01*
X238241Y185174D01*
X237432Y185875D01*
X236675Y186632D01*
X235974Y187441D01*
X235332Y188298D01*
X234754Y189198D01*
X234241Y190138D01*
X233796Y191111D01*
X233422Y192114D01*
X233120Y193142D01*
X232893Y194188D01*
X232740Y195247D01*
X232664Y196315D01*
X232664Y197385D01*
X232740Y198453D01*
X232893Y199513D01*
X233120Y200559D01*
X233422Y201586D01*
X233796Y202589D01*
X234241Y203562D01*
X234754Y204502D01*
X235332Y205402D01*
X235974Y206259D01*
X236675Y207068D01*
X237432Y207825D01*
X238241Y208526D01*
X239098Y209168D01*
X239998Y209746D01*
X240938Y210259D01*
X241911Y210704D01*
X242914Y211078D01*
X243942Y211380D01*
X244988Y211607D01*
X246047Y211760D01*
X247115Y211836D01*
X248185Y211836D01*
X249253Y211760D01*
X250313Y211607D01*
X251359Y211380D01*
X252386Y211078D01*
X253389Y210704D01*
X254362Y210259D01*
X255302Y209746D01*
X256202Y209168D01*
X257059Y208526D01*
X257868Y207825D01*
X258625Y207068D01*
X259326Y206259D01*
X259968Y205402D01*
X260546Y204502D01*
X261059Y203562D01*
X261504Y202589D01*
X261878Y201586D01*
X262180Y200559D01*
X262407Y199513D01*
X262560Y198453D01*
X262636Y197385D01*
X262636Y196315D01*
X64800Y132750D02*
X64729Y131753D01*
X64586Y130763D01*
X64374Y129786D01*
X64092Y128826D01*
X63743Y127889D01*
X63327Y126979D01*
X62848Y126102D01*
X62307Y125260D01*
X61708Y124460D01*
X61053Y123704D01*
X60346Y122997D01*
X59590Y122342D01*
X58790Y121743D01*
X57948Y121202D01*
X57071Y120723D01*
X56161Y120307D01*
X55224Y119958D01*
X54265Y119676D01*
X53287Y119464D01*
X52298Y119321D01*
X51300Y119250D01*
X50300Y119250D01*
X49303Y119321D01*
X48313Y119464D01*
X47336Y119676D01*
X46376Y119958D01*
X45439Y120307D01*
X44529Y120723D01*
X43652Y121202D01*
X42810Y121743D01*
X42010Y122342D01*
X41254Y122997D01*
X40547Y123704D01*
X39892Y124460D01*
X39293Y125260D01*
X38752Y126102D01*
X38273Y126979D01*
X37857Y127889D01*
X37508Y128826D01*
X37226Y129786D01*
X37014Y130763D01*
X36871Y131753D01*
X36800Y132750D01*
X36800Y133750D01*
X36871Y134748D01*
X37014Y135737D01*
X37226Y136715D01*
X37508Y137674D01*
X37857Y138611D01*
X38273Y139521D01*
X38752Y140398D01*
X39293Y141240D01*
X39892Y142040D01*
X40547Y142796D01*
X41254Y143503D01*
X42010Y144158D01*
X42810Y144757D01*
X43652Y145298D01*
X44529Y145777D01*
X45439Y146193D01*
X46376Y146542D01*
X47336Y146824D01*
X48313Y147036D01*
X49303Y147179D01*
X50300Y147250D01*
X51300Y147250D01*
X52298Y147179D01*
X53287Y147036D01*
X54265Y146824D01*
X55224Y146542D01*
X56161Y146193D01*
X57071Y145777D01*
X57948Y145298D01*
X58790Y144757D01*
X59590Y144158D01*
X60346Y143503D01*
X61053Y142796D01*
X61708Y142040D01*
X62307Y141240D01*
X62848Y140398D01*
X63327Y139521D01*
X63743Y138611D01*
X64092Y137674D01*
X64374Y136715D01*
X64586Y135737D01*
X64729Y134748D01*
X64800Y133750D01*
X64800Y132750D01*
M02*
