G04 EAGLE Gerber RS-274X export*
G75*
%MOMM*%
%FSLAX34Y34*%
%LPD*%
%AMOC8*
5,1,8,0,0,1.08239X$1,22.5*%
G01*
%ADD10C,0.152400*%
%ADD11C,0.203200*%
%ADD12C,0.101600*%
%ADD13C,0.076200*%
%ADD14C,0.200000*%
%ADD15C,0.254000*%
%ADD16C,0.127000*%
%ADD17C,0.200000*%


D10*
X19812Y87799D02*
X23424Y76962D01*
X27037Y87799D01*
X32977Y85090D02*
X32981Y85410D01*
X32992Y85729D01*
X33011Y86049D01*
X33038Y86367D01*
X33072Y86685D01*
X33114Y87002D01*
X33164Y87318D01*
X33221Y87633D01*
X33285Y87946D01*
X33357Y88258D01*
X33436Y88568D01*
X33523Y88875D01*
X33617Y89181D01*
X33718Y89484D01*
X33827Y89785D01*
X33942Y90083D01*
X34065Y90379D01*
X34195Y90671D01*
X34332Y90960D01*
X34332Y90961D02*
X34371Y91069D01*
X34414Y91176D01*
X34460Y91281D01*
X34511Y91385D01*
X34564Y91487D01*
X34621Y91587D01*
X34682Y91685D01*
X34746Y91780D01*
X34813Y91874D01*
X34884Y91965D01*
X34957Y92054D01*
X35034Y92140D01*
X35113Y92223D01*
X35195Y92304D01*
X35280Y92382D01*
X35368Y92456D01*
X35458Y92528D01*
X35550Y92596D01*
X35645Y92662D01*
X35742Y92724D01*
X35841Y92782D01*
X35943Y92838D01*
X36045Y92889D01*
X36150Y92937D01*
X36256Y92982D01*
X36364Y93023D01*
X36473Y93060D01*
X36583Y93093D01*
X36695Y93122D01*
X36807Y93148D01*
X36920Y93170D01*
X37034Y93187D01*
X37148Y93201D01*
X37263Y93211D01*
X37378Y93217D01*
X37493Y93219D01*
X37493Y93218D02*
X37608Y93216D01*
X37723Y93210D01*
X37838Y93200D01*
X37952Y93186D01*
X38066Y93169D01*
X38179Y93147D01*
X38291Y93121D01*
X38403Y93092D01*
X38513Y93059D01*
X38622Y93022D01*
X38730Y92981D01*
X38836Y92936D01*
X38941Y92888D01*
X39043Y92837D01*
X39144Y92781D01*
X39244Y92723D01*
X39341Y92661D01*
X39435Y92596D01*
X39528Y92527D01*
X39618Y92455D01*
X39706Y92381D01*
X39791Y92303D01*
X39873Y92222D01*
X39952Y92139D01*
X40029Y92053D01*
X40102Y91964D01*
X40173Y91873D01*
X40240Y91779D01*
X40304Y91684D01*
X40365Y91586D01*
X40422Y91486D01*
X40475Y91384D01*
X40526Y91280D01*
X40572Y91175D01*
X40615Y91068D01*
X40654Y90960D01*
X40653Y90960D02*
X40790Y90671D01*
X40920Y90379D01*
X41043Y90083D01*
X41158Y89785D01*
X41267Y89484D01*
X41368Y89181D01*
X41462Y88875D01*
X41549Y88568D01*
X41628Y88258D01*
X41700Y87946D01*
X41764Y87633D01*
X41821Y87318D01*
X41871Y87002D01*
X41913Y86685D01*
X41947Y86367D01*
X41974Y86049D01*
X41993Y85729D01*
X42004Y85410D01*
X42008Y85090D01*
X32977Y85090D02*
X32981Y84770D01*
X32992Y84451D01*
X33011Y84131D01*
X33038Y83813D01*
X33072Y83495D01*
X33114Y83178D01*
X33164Y82862D01*
X33221Y82547D01*
X33285Y82234D01*
X33357Y81922D01*
X33436Y81612D01*
X33523Y81305D01*
X33617Y80999D01*
X33718Y80696D01*
X33827Y80395D01*
X33942Y80097D01*
X34065Y79801D01*
X34195Y79509D01*
X34332Y79220D01*
X34371Y79112D01*
X34414Y79005D01*
X34460Y78900D01*
X34511Y78796D01*
X34564Y78694D01*
X34621Y78594D01*
X34682Y78496D01*
X34746Y78401D01*
X34813Y78307D01*
X34884Y78216D01*
X34957Y78127D01*
X35034Y78041D01*
X35113Y77958D01*
X35195Y77877D01*
X35280Y77799D01*
X35368Y77725D01*
X35458Y77653D01*
X35551Y77584D01*
X35645Y77519D01*
X35742Y77457D01*
X35842Y77399D01*
X35943Y77343D01*
X36045Y77292D01*
X36150Y77244D01*
X36256Y77199D01*
X36364Y77158D01*
X36473Y77121D01*
X36583Y77088D01*
X36695Y77059D01*
X36807Y77033D01*
X36920Y77011D01*
X37034Y76994D01*
X37148Y76980D01*
X37263Y76970D01*
X37378Y76964D01*
X37493Y76962D01*
X40653Y79220D02*
X40790Y79509D01*
X40920Y79801D01*
X41043Y80097D01*
X41158Y80395D01*
X41267Y80696D01*
X41368Y80999D01*
X41462Y81305D01*
X41549Y81612D01*
X41628Y81922D01*
X41700Y82234D01*
X41764Y82547D01*
X41821Y82862D01*
X41871Y83178D01*
X41913Y83495D01*
X41947Y83813D01*
X41974Y84131D01*
X41993Y84451D01*
X42004Y84770D01*
X42008Y85090D01*
X40654Y79220D02*
X40615Y79112D01*
X40572Y79005D01*
X40526Y78900D01*
X40475Y78796D01*
X40422Y78694D01*
X40365Y78594D01*
X40304Y78496D01*
X40240Y78401D01*
X40173Y78307D01*
X40102Y78216D01*
X40029Y78127D01*
X39952Y78041D01*
X39873Y77958D01*
X39791Y77877D01*
X39706Y77799D01*
X39618Y77725D01*
X39528Y77653D01*
X39435Y77584D01*
X39341Y77519D01*
X39244Y77457D01*
X39144Y77399D01*
X39043Y77343D01*
X38940Y77292D01*
X38836Y77244D01*
X38730Y77199D01*
X38622Y77158D01*
X38513Y77121D01*
X38403Y77088D01*
X38291Y77059D01*
X38179Y77033D01*
X38066Y77011D01*
X37952Y76994D01*
X37838Y76980D01*
X37723Y76970D01*
X37608Y76964D01*
X37493Y76962D01*
X33880Y80574D02*
X41105Y89606D01*
X47983Y77865D02*
X47983Y76962D01*
X47983Y77865D02*
X48886Y77865D01*
X48886Y76962D01*
X47983Y76962D01*
X54861Y89606D02*
X59376Y93218D01*
X59376Y76962D01*
X54861Y76962D02*
X63892Y76962D01*
X70631Y83284D02*
X81468Y83284D01*
X91156Y83284D02*
X95220Y83284D01*
X91156Y83284D02*
X91044Y83282D01*
X90933Y83276D01*
X90822Y83266D01*
X90711Y83253D01*
X90601Y83235D01*
X90492Y83213D01*
X90383Y83188D01*
X90275Y83159D01*
X90169Y83126D01*
X90063Y83089D01*
X89959Y83049D01*
X89857Y83005D01*
X89756Y82957D01*
X89657Y82906D01*
X89559Y82851D01*
X89464Y82793D01*
X89371Y82732D01*
X89280Y82667D01*
X89191Y82599D01*
X89105Y82528D01*
X89022Y82455D01*
X88941Y82378D01*
X88862Y82298D01*
X88787Y82216D01*
X88715Y82131D01*
X88645Y82044D01*
X88579Y81954D01*
X88516Y81862D01*
X88456Y81767D01*
X88400Y81671D01*
X88347Y81573D01*
X88298Y81473D01*
X88252Y81371D01*
X88210Y81268D01*
X88171Y81163D01*
X88136Y81057D01*
X88105Y80950D01*
X88078Y80842D01*
X88054Y80733D01*
X88035Y80623D01*
X88019Y80513D01*
X88007Y80402D01*
X87999Y80290D01*
X87995Y80179D01*
X87995Y80067D01*
X87999Y79956D01*
X88007Y79844D01*
X88019Y79733D01*
X88035Y79623D01*
X88054Y79513D01*
X88078Y79404D01*
X88105Y79296D01*
X88136Y79189D01*
X88171Y79083D01*
X88210Y78978D01*
X88252Y78875D01*
X88298Y78773D01*
X88347Y78673D01*
X88400Y78575D01*
X88456Y78479D01*
X88516Y78384D01*
X88579Y78292D01*
X88645Y78202D01*
X88715Y78115D01*
X88787Y78030D01*
X88862Y77948D01*
X88941Y77868D01*
X89022Y77791D01*
X89105Y77718D01*
X89191Y77647D01*
X89280Y77579D01*
X89371Y77514D01*
X89464Y77453D01*
X89559Y77395D01*
X89657Y77340D01*
X89756Y77289D01*
X89857Y77241D01*
X89959Y77197D01*
X90063Y77157D01*
X90169Y77120D01*
X90275Y77087D01*
X90383Y77058D01*
X90492Y77033D01*
X90601Y77011D01*
X90711Y76993D01*
X90822Y76980D01*
X90933Y76970D01*
X91044Y76964D01*
X91156Y76962D01*
X95220Y76962D01*
X95220Y85090D01*
X95218Y85191D01*
X95212Y85292D01*
X95203Y85393D01*
X95190Y85494D01*
X95173Y85594D01*
X95152Y85693D01*
X95128Y85791D01*
X95100Y85888D01*
X95068Y85985D01*
X95033Y86080D01*
X94994Y86173D01*
X94952Y86265D01*
X94906Y86356D01*
X94857Y86445D01*
X94805Y86531D01*
X94749Y86616D01*
X94691Y86699D01*
X94629Y86779D01*
X94564Y86857D01*
X94497Y86933D01*
X94427Y87006D01*
X94354Y87076D01*
X94278Y87143D01*
X94200Y87208D01*
X94120Y87270D01*
X94037Y87328D01*
X93952Y87384D01*
X93866Y87436D01*
X93777Y87485D01*
X93686Y87531D01*
X93594Y87573D01*
X93501Y87612D01*
X93406Y87647D01*
X93309Y87679D01*
X93212Y87707D01*
X93114Y87731D01*
X93015Y87752D01*
X92915Y87769D01*
X92814Y87782D01*
X92713Y87791D01*
X92612Y87797D01*
X92511Y87799D01*
X88898Y87799D01*
X102373Y93218D02*
X102373Y79671D01*
X102374Y79671D02*
X102376Y79570D01*
X102382Y79469D01*
X102391Y79368D01*
X102404Y79267D01*
X102421Y79167D01*
X102442Y79068D01*
X102466Y78970D01*
X102494Y78873D01*
X102526Y78776D01*
X102561Y78681D01*
X102600Y78588D01*
X102642Y78496D01*
X102688Y78405D01*
X102737Y78317D01*
X102789Y78230D01*
X102845Y78145D01*
X102903Y78062D01*
X102965Y77982D01*
X103030Y77904D01*
X103097Y77828D01*
X103167Y77755D01*
X103240Y77685D01*
X103316Y77618D01*
X103394Y77553D01*
X103474Y77491D01*
X103557Y77433D01*
X103642Y77377D01*
X103729Y77325D01*
X103817Y77276D01*
X103908Y77230D01*
X104000Y77188D01*
X104093Y77149D01*
X104188Y77114D01*
X104285Y77082D01*
X104382Y77054D01*
X104480Y77030D01*
X104579Y77009D01*
X104679Y76992D01*
X104780Y76979D01*
X104881Y76970D01*
X104982Y76964D01*
X105083Y76962D01*
X111067Y71543D02*
X111067Y87799D01*
X115583Y87799D01*
X115687Y87797D01*
X115790Y87791D01*
X115894Y87781D01*
X115997Y87767D01*
X116099Y87749D01*
X116200Y87728D01*
X116301Y87702D01*
X116400Y87673D01*
X116499Y87640D01*
X116596Y87603D01*
X116691Y87562D01*
X116785Y87518D01*
X116877Y87470D01*
X116967Y87419D01*
X117056Y87364D01*
X117142Y87306D01*
X117225Y87244D01*
X117307Y87180D01*
X117385Y87112D01*
X117461Y87042D01*
X117535Y86969D01*
X117605Y86892D01*
X117673Y86814D01*
X117737Y86732D01*
X117799Y86649D01*
X117857Y86563D01*
X117912Y86474D01*
X117963Y86384D01*
X118011Y86292D01*
X118055Y86198D01*
X118096Y86103D01*
X118133Y86006D01*
X118166Y85907D01*
X118195Y85808D01*
X118221Y85707D01*
X118242Y85606D01*
X118260Y85504D01*
X118274Y85401D01*
X118284Y85297D01*
X118290Y85194D01*
X118292Y85090D01*
X118292Y79671D01*
X118290Y79570D01*
X118284Y79469D01*
X118275Y79368D01*
X118262Y79267D01*
X118245Y79167D01*
X118224Y79068D01*
X118200Y78970D01*
X118172Y78873D01*
X118140Y78776D01*
X118105Y78681D01*
X118066Y78588D01*
X118024Y78496D01*
X117978Y78405D01*
X117929Y78316D01*
X117877Y78230D01*
X117821Y78145D01*
X117763Y78062D01*
X117701Y77982D01*
X117636Y77904D01*
X117569Y77828D01*
X117499Y77755D01*
X117426Y77685D01*
X117350Y77618D01*
X117272Y77553D01*
X117192Y77491D01*
X117109Y77433D01*
X117024Y77377D01*
X116937Y77325D01*
X116849Y77276D01*
X116758Y77230D01*
X116666Y77188D01*
X116573Y77149D01*
X116478Y77114D01*
X116381Y77082D01*
X116284Y77054D01*
X116186Y77030D01*
X116087Y77009D01*
X115987Y76992D01*
X115886Y76979D01*
X115785Y76970D01*
X115684Y76964D01*
X115583Y76962D01*
X111067Y76962D01*
X125062Y76962D02*
X125062Y93218D01*
X125062Y87799D02*
X129578Y87799D01*
X129682Y87797D01*
X129785Y87791D01*
X129889Y87781D01*
X129992Y87767D01*
X130094Y87749D01*
X130195Y87728D01*
X130296Y87702D01*
X130395Y87673D01*
X130494Y87640D01*
X130591Y87603D01*
X130686Y87562D01*
X130780Y87518D01*
X130872Y87470D01*
X130962Y87419D01*
X131051Y87364D01*
X131137Y87306D01*
X131220Y87244D01*
X131302Y87180D01*
X131380Y87112D01*
X131456Y87042D01*
X131530Y86969D01*
X131600Y86892D01*
X131668Y86814D01*
X131732Y86732D01*
X131794Y86649D01*
X131852Y86563D01*
X131907Y86474D01*
X131958Y86384D01*
X132006Y86292D01*
X132050Y86198D01*
X132091Y86103D01*
X132128Y86006D01*
X132161Y85907D01*
X132190Y85808D01*
X132216Y85707D01*
X132237Y85606D01*
X132255Y85504D01*
X132269Y85401D01*
X132279Y85297D01*
X132285Y85194D01*
X132287Y85090D01*
X132287Y76962D01*
X142218Y83284D02*
X146282Y83284D01*
X142218Y83284D02*
X142106Y83282D01*
X141995Y83276D01*
X141884Y83266D01*
X141773Y83253D01*
X141663Y83235D01*
X141554Y83213D01*
X141445Y83188D01*
X141337Y83159D01*
X141231Y83126D01*
X141125Y83089D01*
X141021Y83049D01*
X140919Y83005D01*
X140818Y82957D01*
X140719Y82906D01*
X140621Y82851D01*
X140526Y82793D01*
X140433Y82732D01*
X140342Y82667D01*
X140253Y82599D01*
X140167Y82528D01*
X140084Y82455D01*
X140003Y82378D01*
X139924Y82298D01*
X139849Y82216D01*
X139777Y82131D01*
X139707Y82044D01*
X139641Y81954D01*
X139578Y81862D01*
X139518Y81767D01*
X139462Y81671D01*
X139409Y81573D01*
X139360Y81473D01*
X139314Y81371D01*
X139272Y81268D01*
X139233Y81163D01*
X139198Y81057D01*
X139167Y80950D01*
X139140Y80842D01*
X139116Y80733D01*
X139097Y80623D01*
X139081Y80513D01*
X139069Y80402D01*
X139061Y80290D01*
X139057Y80179D01*
X139057Y80067D01*
X139061Y79956D01*
X139069Y79844D01*
X139081Y79733D01*
X139097Y79623D01*
X139116Y79513D01*
X139140Y79404D01*
X139167Y79296D01*
X139198Y79189D01*
X139233Y79083D01*
X139272Y78978D01*
X139314Y78875D01*
X139360Y78773D01*
X139409Y78673D01*
X139462Y78575D01*
X139518Y78479D01*
X139578Y78384D01*
X139641Y78292D01*
X139707Y78202D01*
X139777Y78115D01*
X139849Y78030D01*
X139924Y77948D01*
X140003Y77868D01*
X140084Y77791D01*
X140167Y77718D01*
X140253Y77647D01*
X140342Y77579D01*
X140433Y77514D01*
X140526Y77453D01*
X140621Y77395D01*
X140719Y77340D01*
X140818Y77289D01*
X140919Y77241D01*
X141021Y77197D01*
X141125Y77157D01*
X141231Y77120D01*
X141337Y77087D01*
X141445Y77058D01*
X141554Y77033D01*
X141663Y77011D01*
X141773Y76993D01*
X141884Y76980D01*
X141995Y76970D01*
X142106Y76964D01*
X142218Y76962D01*
X146282Y76962D01*
X146282Y85090D01*
X146280Y85191D01*
X146274Y85292D01*
X146265Y85393D01*
X146252Y85494D01*
X146235Y85594D01*
X146214Y85693D01*
X146190Y85791D01*
X146162Y85888D01*
X146130Y85985D01*
X146095Y86080D01*
X146056Y86173D01*
X146014Y86265D01*
X145968Y86356D01*
X145919Y86445D01*
X145867Y86531D01*
X145811Y86616D01*
X145753Y86699D01*
X145691Y86779D01*
X145626Y86857D01*
X145559Y86933D01*
X145489Y87006D01*
X145416Y87076D01*
X145340Y87143D01*
X145262Y87208D01*
X145182Y87270D01*
X145099Y87328D01*
X145014Y87384D01*
X144928Y87436D01*
X144839Y87485D01*
X144748Y87531D01*
X144656Y87573D01*
X144563Y87612D01*
X144468Y87647D01*
X144371Y87679D01*
X144274Y87707D01*
X144176Y87731D01*
X144077Y87752D01*
X143977Y87769D01*
X143876Y87782D01*
X143775Y87791D01*
X143674Y87797D01*
X143573Y87799D01*
X139960Y87799D01*
D11*
X269150Y105500D02*
X269150Y139500D01*
X269150Y105500D02*
X258650Y105500D01*
X236650Y105500D02*
X226150Y105500D01*
X226150Y139500D01*
X235150Y148500D02*
X236650Y148500D01*
X258150Y148500D02*
X260150Y148500D01*
X269150Y139500D01*
X235150Y148500D02*
X226150Y139500D01*
X257150Y143500D02*
X257549Y143263D01*
X257943Y143017D01*
X258330Y142761D01*
X258711Y142496D01*
X259086Y142222D01*
X259453Y141939D01*
X259814Y141646D01*
X260168Y141346D01*
X260514Y141036D01*
X260852Y140718D01*
X261182Y140392D01*
X261505Y140059D01*
X261819Y139717D01*
X262125Y139368D01*
X262422Y139011D01*
X262711Y138647D01*
X262990Y138277D01*
X263260Y137899D01*
X263521Y137516D01*
X263773Y137126D01*
X264015Y136730D01*
X264248Y136328D01*
X264470Y135920D01*
X264682Y135508D01*
X264885Y135090D01*
X265077Y134667D01*
X265259Y134240D01*
X265430Y133809D01*
X265591Y133373D01*
X265741Y132934D01*
X265880Y132491D01*
X266008Y132045D01*
X266126Y131596D01*
X266232Y131144D01*
X266328Y130690D01*
X266412Y130234D01*
X266486Y129775D01*
X266548Y129315D01*
X266599Y128854D01*
X266638Y128391D01*
X266666Y127928D01*
X266683Y127464D01*
X266689Y127000D01*
X266683Y126536D01*
X266666Y126072D01*
X266638Y125609D01*
X266599Y125146D01*
X266548Y124685D01*
X266486Y124225D01*
X266412Y123766D01*
X266328Y123310D01*
X266232Y122856D01*
X266126Y122404D01*
X266008Y121955D01*
X265880Y121509D01*
X265741Y121066D01*
X265591Y120627D01*
X265430Y120191D01*
X265259Y119760D01*
X265077Y119333D01*
X264885Y118910D01*
X264682Y118492D01*
X264470Y118080D01*
X264248Y117672D01*
X264015Y117270D01*
X263773Y116874D01*
X263521Y116484D01*
X263260Y116101D01*
X262990Y115723D01*
X262711Y115353D01*
X262422Y114989D01*
X262125Y114632D01*
X261819Y114283D01*
X261505Y113941D01*
X261182Y113608D01*
X260852Y113282D01*
X260514Y112964D01*
X260168Y112654D01*
X259814Y112354D01*
X259453Y112061D01*
X259086Y111778D01*
X258711Y111504D01*
X258330Y111239D01*
X257943Y110983D01*
X257549Y110737D01*
X257150Y110500D01*
X238150Y110500D02*
X237751Y110737D01*
X237357Y110983D01*
X236970Y111239D01*
X236589Y111504D01*
X236214Y111778D01*
X235847Y112061D01*
X235486Y112354D01*
X235132Y112654D01*
X234786Y112964D01*
X234448Y113282D01*
X234118Y113608D01*
X233795Y113941D01*
X233481Y114283D01*
X233175Y114632D01*
X232878Y114989D01*
X232589Y115353D01*
X232310Y115723D01*
X232040Y116101D01*
X231779Y116484D01*
X231527Y116874D01*
X231285Y117270D01*
X231052Y117672D01*
X230830Y118080D01*
X230618Y118492D01*
X230415Y118910D01*
X230223Y119333D01*
X230041Y119760D01*
X229870Y120191D01*
X229709Y120627D01*
X229559Y121066D01*
X229420Y121509D01*
X229292Y121955D01*
X229174Y122404D01*
X229068Y122856D01*
X228972Y123310D01*
X228888Y123766D01*
X228814Y124225D01*
X228752Y124685D01*
X228701Y125146D01*
X228662Y125609D01*
X228634Y126072D01*
X228617Y126536D01*
X228611Y127000D01*
X228617Y127464D01*
X228634Y127928D01*
X228662Y128391D01*
X228701Y128854D01*
X228752Y129315D01*
X228814Y129775D01*
X228888Y130234D01*
X228972Y130690D01*
X229068Y131144D01*
X229174Y131596D01*
X229292Y132045D01*
X229420Y132491D01*
X229559Y132934D01*
X229709Y133373D01*
X229870Y133809D01*
X230041Y134240D01*
X230223Y134667D01*
X230415Y135090D01*
X230618Y135508D01*
X230830Y135920D01*
X231052Y136328D01*
X231285Y136730D01*
X231527Y137126D01*
X231779Y137516D01*
X232040Y137899D01*
X232310Y138277D01*
X232589Y138647D01*
X232878Y139011D01*
X233175Y139368D01*
X233481Y139717D01*
X233795Y140059D01*
X234118Y140392D01*
X234448Y140718D01*
X234786Y141036D01*
X235132Y141346D01*
X235486Y141646D01*
X235847Y141939D01*
X236214Y142222D01*
X236589Y142496D01*
X236970Y142761D01*
X237357Y143017D01*
X237751Y143263D01*
X238150Y143500D01*
D12*
X222342Y110301D02*
X222342Y107704D01*
X222340Y107605D01*
X222334Y107505D01*
X222325Y107406D01*
X222312Y107308D01*
X222295Y107210D01*
X222274Y107112D01*
X222249Y107016D01*
X222221Y106921D01*
X222189Y106827D01*
X222154Y106734D01*
X222115Y106642D01*
X222072Y106552D01*
X222027Y106464D01*
X221977Y106377D01*
X221925Y106293D01*
X221869Y106210D01*
X221811Y106130D01*
X221749Y106052D01*
X221684Y105977D01*
X221616Y105904D01*
X221546Y105834D01*
X221473Y105766D01*
X221398Y105701D01*
X221320Y105639D01*
X221240Y105581D01*
X221157Y105525D01*
X221073Y105473D01*
X220986Y105423D01*
X220898Y105378D01*
X220808Y105335D01*
X220716Y105296D01*
X220623Y105261D01*
X220529Y105229D01*
X220434Y105201D01*
X220338Y105176D01*
X220240Y105155D01*
X220142Y105138D01*
X220044Y105125D01*
X219945Y105116D01*
X219845Y105110D01*
X219746Y105108D01*
X213254Y105108D01*
X213155Y105110D01*
X213055Y105116D01*
X212956Y105125D01*
X212858Y105138D01*
X212760Y105156D01*
X212662Y105176D01*
X212566Y105201D01*
X212470Y105229D01*
X212376Y105261D01*
X212283Y105296D01*
X212192Y105335D01*
X212102Y105378D01*
X212013Y105423D01*
X211927Y105473D01*
X211842Y105525D01*
X211760Y105581D01*
X211680Y105640D01*
X211602Y105701D01*
X211526Y105766D01*
X211453Y105834D01*
X211383Y105904D01*
X211315Y105977D01*
X211250Y106053D01*
X211189Y106131D01*
X211130Y106211D01*
X211074Y106293D01*
X211022Y106378D01*
X210973Y106464D01*
X210927Y106553D01*
X210884Y106643D01*
X210845Y106734D01*
X210810Y106827D01*
X210778Y106921D01*
X210750Y107017D01*
X210725Y107113D01*
X210705Y107211D01*
X210687Y107309D01*
X210674Y107407D01*
X210665Y107506D01*
X210659Y107605D01*
X210657Y107705D01*
X210658Y107704D02*
X210658Y110301D01*
X213254Y114666D02*
X210658Y117912D01*
X222342Y117912D01*
X222342Y121157D02*
X222342Y114666D01*
D13*
X106879Y174221D02*
X104791Y174221D01*
X104702Y174223D01*
X104614Y174229D01*
X104526Y174238D01*
X104438Y174251D01*
X104351Y174268D01*
X104265Y174288D01*
X104180Y174313D01*
X104095Y174340D01*
X104012Y174372D01*
X103931Y174406D01*
X103851Y174445D01*
X103773Y174486D01*
X103696Y174531D01*
X103622Y174579D01*
X103549Y174630D01*
X103479Y174684D01*
X103412Y174742D01*
X103346Y174802D01*
X103284Y174864D01*
X103224Y174930D01*
X103166Y174997D01*
X103112Y175067D01*
X103061Y175140D01*
X103013Y175214D01*
X102968Y175291D01*
X102927Y175369D01*
X102888Y175449D01*
X102854Y175530D01*
X102822Y175613D01*
X102795Y175698D01*
X102770Y175783D01*
X102750Y175869D01*
X102733Y175956D01*
X102720Y176044D01*
X102711Y176132D01*
X102705Y176220D01*
X102703Y176309D01*
X102702Y176309D02*
X102702Y181531D01*
X102703Y181531D02*
X102705Y181622D01*
X102711Y181713D01*
X102721Y181804D01*
X102735Y181894D01*
X102752Y181983D01*
X102774Y182071D01*
X102800Y182159D01*
X102829Y182245D01*
X102862Y182330D01*
X102899Y182413D01*
X102939Y182495D01*
X102983Y182575D01*
X103030Y182653D01*
X103081Y182729D01*
X103134Y182802D01*
X103191Y182873D01*
X103252Y182942D01*
X103315Y183007D01*
X103380Y183070D01*
X103449Y183130D01*
X103520Y183188D01*
X103593Y183241D01*
X103669Y183292D01*
X103747Y183339D01*
X103827Y183383D01*
X103909Y183423D01*
X103992Y183460D01*
X104077Y183493D01*
X104163Y183522D01*
X104251Y183548D01*
X104339Y183570D01*
X104428Y183587D01*
X104518Y183601D01*
X104609Y183611D01*
X104700Y183617D01*
X104791Y183619D01*
X106879Y183619D01*
X113220Y183620D02*
X113315Y183618D01*
X113409Y183612D01*
X113503Y183603D01*
X113597Y183590D01*
X113690Y183573D01*
X113782Y183552D01*
X113874Y183527D01*
X113964Y183499D01*
X114053Y183467D01*
X114141Y183432D01*
X114227Y183393D01*
X114312Y183351D01*
X114395Y183305D01*
X114476Y183256D01*
X114555Y183204D01*
X114632Y183149D01*
X114706Y183090D01*
X114778Y183029D01*
X114848Y182965D01*
X114915Y182898D01*
X114979Y182828D01*
X115040Y182756D01*
X115099Y182682D01*
X115154Y182605D01*
X115206Y182526D01*
X115255Y182445D01*
X115301Y182362D01*
X115343Y182277D01*
X115382Y182191D01*
X115417Y182103D01*
X115449Y182014D01*
X115477Y181924D01*
X115502Y181832D01*
X115523Y181740D01*
X115540Y181647D01*
X115553Y181553D01*
X115562Y181459D01*
X115568Y181365D01*
X115570Y181270D01*
X113220Y183619D02*
X113112Y183617D01*
X113003Y183611D01*
X112895Y183601D01*
X112788Y183588D01*
X112681Y183570D01*
X112574Y183549D01*
X112469Y183524D01*
X112364Y183495D01*
X112261Y183463D01*
X112159Y183426D01*
X112058Y183386D01*
X111959Y183343D01*
X111861Y183296D01*
X111765Y183245D01*
X111671Y183191D01*
X111579Y183134D01*
X111489Y183073D01*
X111401Y183009D01*
X111316Y182943D01*
X111233Y182873D01*
X111153Y182800D01*
X111075Y182724D01*
X111000Y182646D01*
X110928Y182565D01*
X110859Y182481D01*
X110793Y182395D01*
X110730Y182307D01*
X110671Y182216D01*
X110614Y182124D01*
X110561Y182029D01*
X110512Y181933D01*
X110466Y181834D01*
X110423Y181735D01*
X110384Y181633D01*
X110349Y181531D01*
X114786Y179442D02*
X114855Y179511D01*
X114921Y179582D01*
X114985Y179655D01*
X115046Y179731D01*
X115104Y179810D01*
X115158Y179890D01*
X115210Y179973D01*
X115258Y180057D01*
X115304Y180143D01*
X115345Y180231D01*
X115384Y180321D01*
X115419Y180412D01*
X115450Y180504D01*
X115478Y180597D01*
X115502Y180691D01*
X115522Y180786D01*
X115539Y180882D01*
X115552Y180979D01*
X115561Y181076D01*
X115567Y181173D01*
X115569Y181270D01*
X114786Y179442D02*
X110348Y174221D01*
X115569Y174221D01*
X183629Y102529D02*
X183629Y100441D01*
X183627Y100352D01*
X183621Y100264D01*
X183612Y100176D01*
X183599Y100088D01*
X183582Y100001D01*
X183562Y99915D01*
X183537Y99830D01*
X183510Y99745D01*
X183478Y99662D01*
X183444Y99581D01*
X183405Y99501D01*
X183364Y99423D01*
X183319Y99346D01*
X183271Y99272D01*
X183220Y99199D01*
X183166Y99129D01*
X183108Y99062D01*
X183048Y98996D01*
X182986Y98934D01*
X182920Y98874D01*
X182853Y98816D01*
X182783Y98762D01*
X182710Y98711D01*
X182636Y98663D01*
X182559Y98618D01*
X182481Y98577D01*
X182401Y98538D01*
X182320Y98504D01*
X182237Y98472D01*
X182152Y98445D01*
X182067Y98420D01*
X181981Y98400D01*
X181894Y98383D01*
X181806Y98370D01*
X181718Y98361D01*
X181630Y98355D01*
X181541Y98353D01*
X181541Y98352D02*
X176319Y98352D01*
X176228Y98354D01*
X176137Y98360D01*
X176046Y98370D01*
X175956Y98384D01*
X175867Y98402D01*
X175778Y98423D01*
X175691Y98449D01*
X175605Y98478D01*
X175520Y98511D01*
X175436Y98548D01*
X175354Y98588D01*
X175275Y98632D01*
X175197Y98679D01*
X175121Y98730D01*
X175047Y98784D01*
X174976Y98841D01*
X174908Y98901D01*
X174842Y98964D01*
X174779Y99030D01*
X174719Y99098D01*
X174662Y99169D01*
X174608Y99243D01*
X174557Y99319D01*
X174510Y99396D01*
X174466Y99476D01*
X174426Y99558D01*
X174389Y99642D01*
X174356Y99726D01*
X174327Y99813D01*
X174301Y99900D01*
X174280Y99989D01*
X174262Y100078D01*
X174248Y100168D01*
X174238Y100259D01*
X174232Y100350D01*
X174230Y100441D01*
X174231Y100441D02*
X174231Y102529D01*
X183629Y105998D02*
X183629Y108608D01*
X183627Y108709D01*
X183621Y108810D01*
X183611Y108911D01*
X183598Y109011D01*
X183580Y109111D01*
X183559Y109210D01*
X183533Y109308D01*
X183504Y109405D01*
X183472Y109501D01*
X183435Y109595D01*
X183395Y109688D01*
X183351Y109780D01*
X183304Y109869D01*
X183253Y109957D01*
X183199Y110043D01*
X183142Y110126D01*
X183082Y110208D01*
X183018Y110286D01*
X182952Y110363D01*
X182882Y110436D01*
X182810Y110507D01*
X182735Y110575D01*
X182657Y110640D01*
X182577Y110702D01*
X182495Y110761D01*
X182410Y110817D01*
X182324Y110869D01*
X182235Y110918D01*
X182144Y110964D01*
X182052Y111005D01*
X181958Y111044D01*
X181863Y111078D01*
X181767Y111109D01*
X181669Y111136D01*
X181571Y111160D01*
X181471Y111179D01*
X181371Y111195D01*
X181271Y111207D01*
X181170Y111215D01*
X181069Y111219D01*
X180967Y111219D01*
X180866Y111215D01*
X180765Y111207D01*
X180665Y111195D01*
X180565Y111179D01*
X180465Y111160D01*
X180367Y111136D01*
X180269Y111109D01*
X180173Y111078D01*
X180078Y111044D01*
X179984Y111005D01*
X179892Y110964D01*
X179801Y110918D01*
X179713Y110869D01*
X179626Y110817D01*
X179541Y110761D01*
X179459Y110702D01*
X179379Y110640D01*
X179301Y110575D01*
X179226Y110507D01*
X179154Y110436D01*
X179084Y110363D01*
X179018Y110286D01*
X178954Y110208D01*
X178894Y110126D01*
X178837Y110043D01*
X178783Y109957D01*
X178732Y109869D01*
X178685Y109780D01*
X178641Y109688D01*
X178601Y109595D01*
X178564Y109501D01*
X178532Y109405D01*
X178503Y109308D01*
X178477Y109210D01*
X178456Y109111D01*
X178438Y109011D01*
X178425Y108911D01*
X178415Y108810D01*
X178409Y108709D01*
X178407Y108608D01*
X174231Y109131D02*
X174231Y105998D01*
X174231Y109131D02*
X174233Y109221D01*
X174239Y109310D01*
X174248Y109400D01*
X174262Y109489D01*
X174279Y109577D01*
X174300Y109664D01*
X174325Y109751D01*
X174354Y109836D01*
X174386Y109920D01*
X174421Y110002D01*
X174461Y110083D01*
X174503Y110162D01*
X174549Y110239D01*
X174599Y110314D01*
X174651Y110387D01*
X174707Y110458D01*
X174765Y110526D01*
X174827Y110591D01*
X174891Y110654D01*
X174958Y110714D01*
X175027Y110771D01*
X175099Y110825D01*
X175173Y110876D01*
X175249Y110924D01*
X175327Y110968D01*
X175407Y111009D01*
X175489Y111047D01*
X175572Y111081D01*
X175657Y111111D01*
X175743Y111138D01*
X175829Y111161D01*
X175917Y111180D01*
X176006Y111195D01*
X176095Y111207D01*
X176184Y111215D01*
X176274Y111219D01*
X176364Y111219D01*
X176454Y111215D01*
X176543Y111207D01*
X176632Y111195D01*
X176721Y111180D01*
X176809Y111161D01*
X176895Y111138D01*
X176981Y111111D01*
X177066Y111081D01*
X177149Y111047D01*
X177231Y111009D01*
X177311Y110968D01*
X177389Y110924D01*
X177465Y110876D01*
X177539Y110825D01*
X177611Y110771D01*
X177680Y110714D01*
X177747Y110654D01*
X177811Y110591D01*
X177873Y110526D01*
X177931Y110458D01*
X177987Y110387D01*
X178039Y110314D01*
X178089Y110239D01*
X178135Y110162D01*
X178177Y110083D01*
X178217Y110002D01*
X178252Y109920D01*
X178284Y109836D01*
X178313Y109751D01*
X178338Y109664D01*
X178359Y109577D01*
X178376Y109489D01*
X178390Y109400D01*
X178399Y109310D01*
X178405Y109221D01*
X178407Y109131D01*
X178408Y109131D02*
X178408Y107042D01*
D12*
X141506Y108712D02*
X141506Y97028D01*
X140208Y97028D02*
X142804Y97028D01*
X142804Y108712D02*
X140208Y108712D01*
X149968Y97028D02*
X152564Y97028D01*
X149968Y97028D02*
X149869Y97030D01*
X149769Y97036D01*
X149670Y97045D01*
X149572Y97058D01*
X149474Y97075D01*
X149376Y97096D01*
X149280Y97121D01*
X149185Y97149D01*
X149091Y97181D01*
X148998Y97216D01*
X148906Y97255D01*
X148816Y97298D01*
X148728Y97343D01*
X148641Y97393D01*
X148557Y97445D01*
X148474Y97501D01*
X148394Y97559D01*
X148316Y97621D01*
X148241Y97686D01*
X148168Y97754D01*
X148098Y97824D01*
X148030Y97897D01*
X147965Y97972D01*
X147903Y98050D01*
X147845Y98130D01*
X147789Y98213D01*
X147737Y98297D01*
X147687Y98384D01*
X147642Y98472D01*
X147599Y98562D01*
X147560Y98654D01*
X147525Y98747D01*
X147493Y98841D01*
X147465Y98936D01*
X147440Y99032D01*
X147419Y99130D01*
X147402Y99228D01*
X147389Y99326D01*
X147380Y99425D01*
X147374Y99525D01*
X147372Y99624D01*
X147371Y99624D02*
X147371Y106116D01*
X147372Y106116D02*
X147374Y106215D01*
X147380Y106315D01*
X147389Y106414D01*
X147402Y106512D01*
X147419Y106610D01*
X147440Y106708D01*
X147465Y106804D01*
X147493Y106899D01*
X147525Y106993D01*
X147560Y107086D01*
X147599Y107178D01*
X147642Y107268D01*
X147687Y107356D01*
X147737Y107443D01*
X147789Y107527D01*
X147845Y107610D01*
X147903Y107690D01*
X147965Y107768D01*
X148030Y107843D01*
X148098Y107916D01*
X148168Y107986D01*
X148241Y108054D01*
X148316Y108119D01*
X148394Y108181D01*
X148474Y108239D01*
X148557Y108295D01*
X148641Y108347D01*
X148728Y108397D01*
X148816Y108442D01*
X148906Y108485D01*
X148998Y108524D01*
X149090Y108559D01*
X149185Y108591D01*
X149280Y108619D01*
X149376Y108644D01*
X149474Y108665D01*
X149572Y108682D01*
X149670Y108695D01*
X149769Y108704D01*
X149869Y108710D01*
X149968Y108712D01*
X152564Y108712D01*
X156930Y106116D02*
X160175Y108712D01*
X160175Y97028D01*
X156930Y97028D02*
X163421Y97028D01*
D14*
X194750Y14600D02*
X95250Y14600D01*
X194750Y14600D02*
X194750Y72100D01*
X70750Y72100D01*
X70750Y38100D01*
D12*
X180215Y79304D02*
X180215Y88392D01*
X180215Y79304D02*
X180213Y79205D01*
X180207Y79105D01*
X180198Y79006D01*
X180185Y78908D01*
X180168Y78810D01*
X180147Y78712D01*
X180122Y78616D01*
X180094Y78521D01*
X180062Y78427D01*
X180027Y78334D01*
X179988Y78242D01*
X179945Y78152D01*
X179900Y78064D01*
X179850Y77977D01*
X179798Y77893D01*
X179742Y77810D01*
X179684Y77730D01*
X179622Y77652D01*
X179557Y77577D01*
X179489Y77504D01*
X179419Y77434D01*
X179346Y77366D01*
X179271Y77301D01*
X179193Y77239D01*
X179113Y77181D01*
X179030Y77125D01*
X178946Y77073D01*
X178859Y77023D01*
X178771Y76978D01*
X178681Y76935D01*
X178589Y76896D01*
X178496Y76861D01*
X178402Y76829D01*
X178307Y76801D01*
X178211Y76776D01*
X178113Y76755D01*
X178015Y76738D01*
X177917Y76725D01*
X177818Y76716D01*
X177718Y76710D01*
X177619Y76708D01*
X176320Y76708D01*
X185489Y85796D02*
X188734Y88392D01*
X188734Y76708D01*
X185489Y76708D02*
X191980Y76708D01*
D10*
X238792Y50501D02*
X238492Y50282D01*
X238198Y50055D01*
X237910Y49821D01*
X237627Y49580D01*
X237350Y49333D01*
X237079Y49078D01*
X236815Y48817D01*
X236557Y48550D01*
X236306Y48277D01*
X236061Y47997D01*
X235823Y47712D01*
X235593Y47421D01*
X235369Y47124D01*
X235153Y46822D01*
X234944Y46515D01*
X234743Y46203D01*
X234549Y45886D01*
X234363Y45564D01*
X234185Y45238D01*
X234015Y44908D01*
X233853Y44574D01*
X233700Y44236D01*
X233554Y43894D01*
X233417Y43549D01*
X233289Y43200D01*
X233169Y42849D01*
X233057Y42494D01*
X232955Y42137D01*
X232860Y41778D01*
X232775Y41417D01*
X232699Y41053D01*
X232631Y40688D01*
X232573Y40321D01*
X232523Y39953D01*
X232482Y39584D01*
X232451Y39214D01*
X232428Y38843D01*
X232415Y38472D01*
X232410Y38100D01*
X232415Y37728D01*
X232428Y37357D01*
X232451Y36985D01*
X232483Y36615D01*
X232523Y36245D01*
X232573Y35877D01*
X232632Y35509D01*
X232699Y35144D01*
X232776Y34780D01*
X232862Y34418D01*
X232956Y34058D01*
X233059Y33701D01*
X233170Y33346D01*
X233291Y32994D01*
X233420Y32645D01*
X233557Y32300D01*
X233703Y31958D01*
X233857Y31619D01*
X234019Y31284D01*
X234189Y30954D01*
X234368Y30628D01*
X234554Y30306D01*
X234748Y29988D01*
X234950Y29676D01*
X235159Y29369D01*
X235376Y29067D01*
X235600Y28770D01*
X235831Y28478D01*
X236069Y28193D01*
X236315Y27913D01*
X236567Y27640D01*
X236825Y27372D01*
X237090Y27112D01*
X237361Y26857D01*
X237639Y26609D01*
X237922Y26369D01*
X238211Y26135D01*
X238506Y25908D01*
X262890Y38100D02*
X262886Y38465D01*
X262873Y38830D01*
X262851Y39194D01*
X262820Y39557D01*
X262781Y39920D01*
X262733Y40282D01*
X262676Y40642D01*
X262611Y41001D01*
X262538Y41359D01*
X262455Y41714D01*
X262365Y42067D01*
X262265Y42419D01*
X262158Y42767D01*
X262042Y43113D01*
X261918Y43456D01*
X261785Y43796D01*
X261645Y44133D01*
X261497Y44466D01*
X261340Y44796D01*
X261176Y45122D01*
X261004Y45444D01*
X260824Y45761D01*
X260637Y46074D01*
X260443Y46383D01*
X260241Y46687D01*
X260031Y46986D01*
X259815Y47280D01*
X259592Y47568D01*
X259362Y47851D01*
X259125Y48129D01*
X258882Y48401D01*
X258632Y48667D01*
X258376Y48927D01*
X258113Y49180D01*
X257845Y49428D01*
X257571Y49668D01*
X257291Y49903D01*
X257006Y50130D01*
X262890Y38100D02*
X262886Y37735D01*
X262873Y37370D01*
X262851Y37006D01*
X262820Y36643D01*
X262781Y36280D01*
X262733Y35918D01*
X262676Y35558D01*
X262611Y35199D01*
X262538Y34841D01*
X262455Y34486D01*
X262365Y34133D01*
X262265Y33781D01*
X262158Y33433D01*
X262042Y33087D01*
X261918Y32744D01*
X261785Y32404D01*
X261645Y32067D01*
X261497Y31734D01*
X261340Y31404D01*
X261176Y31078D01*
X261004Y30756D01*
X260824Y30439D01*
X260637Y30126D01*
X260443Y29817D01*
X260241Y29513D01*
X260031Y29214D01*
X259815Y28920D01*
X259592Y28632D01*
X259362Y28349D01*
X259125Y28071D01*
X258882Y27799D01*
X258632Y27533D01*
X258376Y27273D01*
X258113Y27020D01*
X257845Y26772D01*
X257571Y26532D01*
X257291Y26297D01*
X257006Y26070D01*
D15*
X227330Y38100D02*
X227336Y38594D01*
X227354Y39088D01*
X227384Y39582D01*
X227426Y40075D01*
X227480Y40566D01*
X227546Y41056D01*
X227624Y41544D01*
X227714Y42031D01*
X227815Y42515D01*
X227929Y42996D01*
X228054Y43474D01*
X228190Y43950D01*
X228338Y44421D01*
X228498Y44889D01*
X228669Y45353D01*
X228851Y45813D01*
X229044Y46268D01*
X229248Y46719D01*
X229463Y47164D01*
X229689Y47604D01*
X229926Y48038D01*
X230173Y48466D01*
X230430Y48888D01*
X230698Y49304D01*
X230976Y49713D01*
X231263Y50115D01*
X231560Y50511D01*
X231867Y50898D01*
X232183Y51279D01*
X232508Y51651D01*
X232843Y52016D01*
X233186Y52372D01*
X233537Y52719D01*
X233897Y53059D01*
X234265Y53389D01*
X234641Y53710D01*
X227330Y38100D02*
X227336Y37612D01*
X227353Y37125D01*
X227383Y36638D01*
X227424Y36151D01*
X227476Y35666D01*
X227541Y35182D01*
X227617Y34700D01*
X227704Y34220D01*
X227803Y33742D01*
X227913Y33267D01*
X228035Y32794D01*
X228168Y32325D01*
X228313Y31858D01*
X228468Y31396D01*
X228635Y30937D01*
X228812Y30482D01*
X229001Y30032D01*
X229200Y29587D01*
X229410Y29146D01*
X229630Y28710D01*
X229861Y28280D01*
X230102Y27856D01*
X230353Y27438D01*
X230614Y27025D01*
X230885Y26619D01*
X231165Y26220D01*
X231455Y25827D01*
X231755Y25442D01*
X232064Y25064D01*
X232381Y24693D01*
X232708Y24331D01*
X233043Y23976D01*
X233386Y23629D01*
X233738Y23291D01*
X234097Y22961D01*
X234465Y22640D01*
X234840Y22327D01*
X235223Y22024D01*
X235612Y21730D01*
X236009Y21446D01*
X236412Y21171D01*
X236822Y20906D01*
X237238Y20651D01*
X237660Y20406D01*
X238088Y20171D01*
X267970Y38100D02*
X267964Y38590D01*
X267946Y39080D01*
X267917Y39569D01*
X267875Y40058D01*
X267822Y40545D01*
X267758Y41031D01*
X267681Y41515D01*
X267593Y41997D01*
X267493Y42477D01*
X267382Y42955D01*
X267259Y43429D01*
X267124Y43901D01*
X266979Y44369D01*
X266822Y44833D01*
X266654Y45294D01*
X266475Y45750D01*
X266285Y46202D01*
X266084Y46649D01*
X265872Y47091D01*
X265650Y47528D01*
X265418Y47960D01*
X265175Y48386D01*
X264921Y48805D01*
X264658Y49219D01*
X264385Y49626D01*
X264102Y50026D01*
X263809Y50420D01*
X263508Y50806D01*
X263196Y51185D01*
X262876Y51556D01*
X262547Y51919D01*
X262210Y52275D01*
X261863Y52622D01*
X261509Y52960D01*
X261146Y53290D01*
X260776Y53612D01*
X267970Y38100D02*
X267964Y37603D01*
X267946Y37106D01*
X267915Y36610D01*
X267873Y36115D01*
X267818Y35621D01*
X267752Y35128D01*
X267673Y34638D01*
X267582Y34149D01*
X267480Y33663D01*
X267365Y33179D01*
X267239Y32699D01*
X267101Y32221D01*
X266952Y31747D01*
X266791Y31277D01*
X266618Y30811D01*
X266434Y30349D01*
X266239Y29892D01*
X266033Y29440D01*
X265816Y28993D01*
X265587Y28552D01*
X265349Y28116D01*
X265099Y27686D01*
X264839Y27263D01*
X264569Y26845D01*
X264289Y26435D01*
X263999Y26032D01*
X263699Y25635D01*
X263389Y25247D01*
X263070Y24866D01*
X262742Y24493D01*
X262405Y24128D01*
X262059Y23771D01*
X261704Y23423D01*
X261341Y23084D01*
X260970Y22753D01*
X260590Y22432D01*
X260203Y22120D01*
X259809Y21818D01*
X259407Y21526D01*
X258998Y21243D01*
X258583Y20971D01*
X258160Y20708D01*
X257732Y20457D01*
D16*
X243205Y57785D02*
X231775Y57785D01*
X243205Y57785D02*
X243205Y62865D01*
X243205Y67691D02*
X243205Y72771D01*
X243205Y67691D02*
X231775Y67691D01*
X231775Y72771D01*
X236855Y71501D02*
X236855Y67691D01*
X231775Y77572D02*
X243205Y77572D01*
X231775Y77572D02*
X231775Y80747D01*
X231777Y80858D01*
X231783Y80968D01*
X231792Y81079D01*
X231806Y81189D01*
X231823Y81298D01*
X231844Y81407D01*
X231869Y81515D01*
X231898Y81622D01*
X231930Y81728D01*
X231966Y81833D01*
X232006Y81936D01*
X232049Y82038D01*
X232096Y82139D01*
X232147Y82238D01*
X232200Y82335D01*
X232257Y82429D01*
X232318Y82522D01*
X232381Y82613D01*
X232448Y82702D01*
X232518Y82788D01*
X232591Y82871D01*
X232666Y82953D01*
X232744Y83031D01*
X232826Y83106D01*
X232909Y83179D01*
X232995Y83249D01*
X233084Y83316D01*
X233175Y83379D01*
X233268Y83440D01*
X233363Y83497D01*
X233459Y83550D01*
X233558Y83601D01*
X233659Y83648D01*
X233761Y83691D01*
X233864Y83731D01*
X233969Y83767D01*
X234075Y83799D01*
X234182Y83828D01*
X234290Y83853D01*
X234399Y83874D01*
X234508Y83891D01*
X234618Y83905D01*
X234729Y83914D01*
X234839Y83920D01*
X234950Y83922D01*
X240030Y83922D01*
X240141Y83920D01*
X240251Y83914D01*
X240362Y83905D01*
X240472Y83891D01*
X240581Y83874D01*
X240690Y83853D01*
X240798Y83828D01*
X240905Y83799D01*
X241011Y83767D01*
X241116Y83731D01*
X241219Y83691D01*
X241321Y83648D01*
X241422Y83601D01*
X241521Y83550D01*
X241618Y83497D01*
X241712Y83440D01*
X241805Y83379D01*
X241896Y83316D01*
X241985Y83249D01*
X242071Y83179D01*
X242154Y83106D01*
X242236Y83031D01*
X242314Y82953D01*
X242389Y82871D01*
X242462Y82788D01*
X242532Y82702D01*
X242599Y82613D01*
X242662Y82522D01*
X242723Y82429D01*
X242780Y82335D01*
X242833Y82238D01*
X242884Y82139D01*
X242931Y82038D01*
X242974Y81936D01*
X243014Y81833D01*
X243050Y81728D01*
X243082Y81622D01*
X243111Y81515D01*
X243136Y81407D01*
X243157Y81298D01*
X243174Y81189D01*
X243188Y81079D01*
X243197Y80968D01*
X243203Y80858D01*
X243205Y80747D01*
X243205Y77572D01*
X234315Y89383D02*
X231775Y92558D01*
X243205Y92558D01*
X243205Y89383D02*
X243205Y95733D01*
D17*
X49800Y99250D03*
D14*
X49802Y99312D01*
X49808Y99373D01*
X49817Y99434D01*
X49830Y99494D01*
X49847Y99553D01*
X49868Y99611D01*
X49892Y99668D01*
X49919Y99723D01*
X49950Y99776D01*
X49984Y99828D01*
X50021Y99877D01*
X50061Y99924D01*
X50104Y99968D01*
X50149Y100009D01*
X50197Y100048D01*
X50248Y100084D01*
X50300Y100116D01*
X50354Y100145D01*
X50410Y100171D01*
X50468Y100193D01*
X50526Y100212D01*
X50586Y100227D01*
X50647Y100238D01*
X50708Y100246D01*
X50769Y100250D01*
X50831Y100250D01*
X50892Y100246D01*
X50953Y100238D01*
X51014Y100227D01*
X51074Y100212D01*
X51132Y100193D01*
X51190Y100171D01*
X51246Y100145D01*
X51300Y100116D01*
X51352Y100084D01*
X51403Y100048D01*
X51451Y100009D01*
X51496Y99968D01*
X51539Y99924D01*
X51579Y99877D01*
X51616Y99828D01*
X51650Y99776D01*
X51681Y99723D01*
X51708Y99668D01*
X51732Y99611D01*
X51753Y99553D01*
X51770Y99494D01*
X51783Y99434D01*
X51792Y99373D01*
X51798Y99312D01*
X51800Y99250D01*
D17*
X51800Y99250D03*
D14*
X51798Y99188D01*
X51792Y99127D01*
X51783Y99066D01*
X51770Y99006D01*
X51753Y98947D01*
X51732Y98889D01*
X51708Y98832D01*
X51681Y98777D01*
X51650Y98724D01*
X51616Y98672D01*
X51579Y98623D01*
X51539Y98576D01*
X51496Y98532D01*
X51451Y98491D01*
X51403Y98452D01*
X51352Y98416D01*
X51300Y98384D01*
X51246Y98355D01*
X51190Y98329D01*
X51132Y98307D01*
X51074Y98288D01*
X51014Y98273D01*
X50953Y98262D01*
X50892Y98254D01*
X50831Y98250D01*
X50769Y98250D01*
X50708Y98254D01*
X50647Y98262D01*
X50586Y98273D01*
X50526Y98288D01*
X50468Y98307D01*
X50410Y98329D01*
X50354Y98355D01*
X50300Y98384D01*
X50248Y98416D01*
X50197Y98452D01*
X50149Y98491D01*
X50104Y98532D01*
X50061Y98576D01*
X50021Y98623D01*
X49984Y98672D01*
X49950Y98724D01*
X49919Y98777D01*
X49892Y98832D01*
X49868Y98889D01*
X49847Y98947D01*
X49830Y99006D01*
X49817Y99066D01*
X49808Y99127D01*
X49802Y99188D01*
X49800Y99250D01*
D12*
X21142Y114304D02*
X9458Y114304D01*
X21142Y114304D02*
X21142Y119497D01*
X21142Y124210D02*
X21142Y129403D01*
X21142Y124210D02*
X9458Y124210D01*
X9458Y129403D01*
X14651Y128105D02*
X14651Y124210D01*
X9458Y134094D02*
X21142Y134094D01*
X9458Y134094D02*
X9458Y137339D01*
X9460Y137452D01*
X9466Y137565D01*
X9476Y137678D01*
X9490Y137791D01*
X9507Y137903D01*
X9529Y138014D01*
X9554Y138124D01*
X9584Y138234D01*
X9617Y138342D01*
X9654Y138449D01*
X9694Y138555D01*
X9739Y138659D01*
X9787Y138762D01*
X9838Y138863D01*
X9893Y138962D01*
X9951Y139059D01*
X10013Y139154D01*
X10078Y139247D01*
X10146Y139337D01*
X10217Y139425D01*
X10292Y139511D01*
X10369Y139594D01*
X10449Y139674D01*
X10532Y139751D01*
X10618Y139826D01*
X10706Y139897D01*
X10796Y139965D01*
X10889Y140030D01*
X10984Y140092D01*
X11081Y140150D01*
X11180Y140205D01*
X11281Y140256D01*
X11384Y140304D01*
X11488Y140349D01*
X11594Y140389D01*
X11701Y140426D01*
X11809Y140459D01*
X11919Y140489D01*
X12029Y140514D01*
X12140Y140536D01*
X12252Y140553D01*
X12365Y140567D01*
X12478Y140577D01*
X12591Y140583D01*
X12704Y140585D01*
X17896Y140585D01*
X18009Y140583D01*
X18122Y140577D01*
X18235Y140567D01*
X18348Y140553D01*
X18460Y140536D01*
X18571Y140514D01*
X18681Y140489D01*
X18791Y140459D01*
X18899Y140426D01*
X19006Y140389D01*
X19112Y140349D01*
X19216Y140304D01*
X19319Y140256D01*
X19420Y140205D01*
X19519Y140150D01*
X19616Y140092D01*
X19711Y140030D01*
X19804Y139965D01*
X19894Y139897D01*
X19982Y139826D01*
X20068Y139751D01*
X20151Y139674D01*
X20231Y139594D01*
X20308Y139511D01*
X20383Y139425D01*
X20454Y139337D01*
X20522Y139247D01*
X20587Y139154D01*
X20649Y139059D01*
X20707Y138962D01*
X20762Y138863D01*
X20813Y138762D01*
X20861Y138659D01*
X20906Y138555D01*
X20946Y138449D01*
X20983Y138342D01*
X21016Y138234D01*
X21046Y138124D01*
X21071Y138014D01*
X21093Y137903D01*
X21110Y137791D01*
X21124Y137678D01*
X21134Y137565D01*
X21140Y137452D01*
X21142Y137339D01*
X21142Y134094D01*
X9458Y149475D02*
X9460Y149582D01*
X9466Y149688D01*
X9476Y149794D01*
X9489Y149900D01*
X9507Y150006D01*
X9528Y150110D01*
X9553Y150214D01*
X9582Y150317D01*
X9614Y150418D01*
X9651Y150518D01*
X9691Y150617D01*
X9734Y150715D01*
X9781Y150811D01*
X9832Y150905D01*
X9886Y150997D01*
X9943Y151087D01*
X10003Y151175D01*
X10067Y151260D01*
X10134Y151343D01*
X10204Y151424D01*
X10276Y151502D01*
X10352Y151578D01*
X10430Y151650D01*
X10511Y151720D01*
X10594Y151787D01*
X10679Y151851D01*
X10767Y151911D01*
X10857Y151968D01*
X10949Y152022D01*
X11043Y152073D01*
X11139Y152120D01*
X11237Y152163D01*
X11336Y152203D01*
X11436Y152240D01*
X11537Y152272D01*
X11640Y152301D01*
X11744Y152326D01*
X11848Y152347D01*
X11954Y152365D01*
X12060Y152378D01*
X12166Y152388D01*
X12272Y152394D01*
X12379Y152396D01*
X9458Y149475D02*
X9460Y149354D01*
X9466Y149233D01*
X9476Y149113D01*
X9489Y148992D01*
X9507Y148873D01*
X9528Y148753D01*
X9553Y148635D01*
X9582Y148518D01*
X9615Y148401D01*
X9651Y148286D01*
X9692Y148172D01*
X9735Y148059D01*
X9783Y147947D01*
X9834Y147838D01*
X9889Y147730D01*
X9947Y147623D01*
X10008Y147519D01*
X10073Y147417D01*
X10141Y147317D01*
X10212Y147219D01*
X10286Y147123D01*
X10363Y147030D01*
X10444Y146940D01*
X10527Y146852D01*
X10613Y146767D01*
X10702Y146684D01*
X10793Y146605D01*
X10887Y146528D01*
X10983Y146455D01*
X11081Y146385D01*
X11182Y146318D01*
X11285Y146254D01*
X11390Y146194D01*
X11497Y146136D01*
X11605Y146083D01*
X11715Y146033D01*
X11827Y145987D01*
X11940Y145944D01*
X12055Y145905D01*
X14651Y151421D02*
X14573Y151500D01*
X14493Y151576D01*
X14410Y151649D01*
X14324Y151719D01*
X14237Y151786D01*
X14146Y151850D01*
X14054Y151910D01*
X13960Y151968D01*
X13863Y152022D01*
X13765Y152072D01*
X13665Y152119D01*
X13564Y152163D01*
X13461Y152203D01*
X13356Y152239D01*
X13251Y152271D01*
X13144Y152300D01*
X13037Y152325D01*
X12928Y152347D01*
X12819Y152364D01*
X12710Y152378D01*
X12600Y152387D01*
X12489Y152393D01*
X12379Y152395D01*
X14651Y151422D02*
X21142Y145905D01*
X21142Y152396D01*
X178308Y140208D02*
X189992Y140208D01*
X178308Y140208D02*
X178308Y143454D01*
X178310Y143567D01*
X178316Y143680D01*
X178326Y143793D01*
X178340Y143906D01*
X178357Y144018D01*
X178379Y144129D01*
X178404Y144239D01*
X178434Y144349D01*
X178467Y144457D01*
X178504Y144564D01*
X178544Y144670D01*
X178589Y144774D01*
X178637Y144877D01*
X178688Y144978D01*
X178743Y145077D01*
X178801Y145174D01*
X178863Y145269D01*
X178928Y145362D01*
X178996Y145452D01*
X179067Y145540D01*
X179142Y145626D01*
X179219Y145709D01*
X179299Y145789D01*
X179382Y145866D01*
X179468Y145941D01*
X179556Y146012D01*
X179646Y146080D01*
X179739Y146145D01*
X179834Y146207D01*
X179931Y146265D01*
X180030Y146320D01*
X180131Y146371D01*
X180234Y146419D01*
X180338Y146464D01*
X180444Y146504D01*
X180551Y146541D01*
X180659Y146574D01*
X180769Y146604D01*
X180879Y146629D01*
X180990Y146651D01*
X181102Y146668D01*
X181215Y146682D01*
X181328Y146692D01*
X181441Y146698D01*
X181554Y146700D01*
X181667Y146698D01*
X181780Y146692D01*
X181893Y146682D01*
X182006Y146668D01*
X182118Y146651D01*
X182229Y146629D01*
X182339Y146604D01*
X182449Y146574D01*
X182557Y146541D01*
X182664Y146504D01*
X182770Y146464D01*
X182874Y146419D01*
X182977Y146371D01*
X183078Y146320D01*
X183177Y146265D01*
X183274Y146207D01*
X183369Y146145D01*
X183462Y146080D01*
X183552Y146012D01*
X183640Y145941D01*
X183726Y145866D01*
X183809Y145789D01*
X183889Y145709D01*
X183966Y145626D01*
X184041Y145540D01*
X184112Y145452D01*
X184180Y145362D01*
X184245Y145269D01*
X184307Y145174D01*
X184365Y145077D01*
X184420Y144978D01*
X184471Y144877D01*
X184519Y144774D01*
X184564Y144670D01*
X184604Y144564D01*
X184641Y144457D01*
X184674Y144349D01*
X184704Y144239D01*
X184729Y144129D01*
X184751Y144018D01*
X184768Y143906D01*
X184782Y143793D01*
X184792Y143680D01*
X184798Y143567D01*
X184800Y143454D01*
X184799Y143454D02*
X184799Y140208D01*
X184799Y144103D02*
X189992Y146699D01*
X180904Y151564D02*
X178308Y154810D01*
X189992Y154810D01*
X189992Y158055D02*
X189992Y151564D01*
X76895Y184658D02*
X76895Y196342D01*
X80140Y196342D01*
X80253Y196340D01*
X80366Y196334D01*
X80479Y196324D01*
X80592Y196310D01*
X80704Y196293D01*
X80815Y196271D01*
X80925Y196246D01*
X81035Y196216D01*
X81143Y196183D01*
X81250Y196146D01*
X81356Y196106D01*
X81460Y196061D01*
X81563Y196013D01*
X81664Y195962D01*
X81763Y195907D01*
X81860Y195849D01*
X81955Y195787D01*
X82048Y195722D01*
X82138Y195654D01*
X82226Y195583D01*
X82312Y195508D01*
X82395Y195431D01*
X82475Y195351D01*
X82552Y195268D01*
X82627Y195182D01*
X82698Y195094D01*
X82766Y195004D01*
X82831Y194911D01*
X82893Y194816D01*
X82951Y194719D01*
X83006Y194620D01*
X83057Y194519D01*
X83105Y194416D01*
X83150Y194312D01*
X83190Y194206D01*
X83227Y194099D01*
X83260Y193991D01*
X83290Y193881D01*
X83315Y193771D01*
X83337Y193660D01*
X83354Y193548D01*
X83368Y193435D01*
X83378Y193322D01*
X83384Y193209D01*
X83386Y193096D01*
X83384Y192983D01*
X83378Y192870D01*
X83368Y192757D01*
X83354Y192644D01*
X83337Y192532D01*
X83315Y192421D01*
X83290Y192311D01*
X83260Y192201D01*
X83227Y192093D01*
X83190Y191986D01*
X83150Y191880D01*
X83105Y191776D01*
X83057Y191673D01*
X83006Y191572D01*
X82951Y191473D01*
X82893Y191376D01*
X82831Y191281D01*
X82766Y191188D01*
X82698Y191098D01*
X82627Y191010D01*
X82552Y190924D01*
X82475Y190841D01*
X82395Y190761D01*
X82312Y190684D01*
X82226Y190609D01*
X82138Y190538D01*
X82048Y190470D01*
X81955Y190405D01*
X81860Y190343D01*
X81763Y190285D01*
X81664Y190230D01*
X81563Y190179D01*
X81460Y190131D01*
X81356Y190086D01*
X81250Y190046D01*
X81143Y190009D01*
X81035Y189976D01*
X80925Y189946D01*
X80815Y189921D01*
X80704Y189899D01*
X80592Y189882D01*
X80479Y189868D01*
X80366Y189858D01*
X80253Y189852D01*
X80140Y189850D01*
X80140Y189851D02*
X76895Y189851D01*
X80789Y189851D02*
X83386Y184658D01*
X94742Y193421D02*
X94740Y193528D01*
X94734Y193634D01*
X94724Y193740D01*
X94711Y193846D01*
X94693Y193952D01*
X94672Y194056D01*
X94647Y194160D01*
X94618Y194263D01*
X94586Y194364D01*
X94549Y194464D01*
X94509Y194563D01*
X94466Y194661D01*
X94419Y194757D01*
X94368Y194851D01*
X94314Y194943D01*
X94257Y195033D01*
X94197Y195121D01*
X94133Y195206D01*
X94066Y195289D01*
X93996Y195370D01*
X93924Y195448D01*
X93848Y195524D01*
X93770Y195596D01*
X93689Y195666D01*
X93606Y195733D01*
X93521Y195797D01*
X93433Y195857D01*
X93343Y195914D01*
X93251Y195968D01*
X93157Y196019D01*
X93061Y196066D01*
X92963Y196109D01*
X92864Y196149D01*
X92764Y196186D01*
X92663Y196218D01*
X92560Y196247D01*
X92456Y196272D01*
X92352Y196293D01*
X92246Y196311D01*
X92140Y196324D01*
X92034Y196334D01*
X91928Y196340D01*
X91821Y196342D01*
X91700Y196340D01*
X91579Y196334D01*
X91459Y196324D01*
X91338Y196311D01*
X91219Y196293D01*
X91099Y196272D01*
X90981Y196247D01*
X90864Y196218D01*
X90747Y196185D01*
X90632Y196149D01*
X90518Y196108D01*
X90405Y196065D01*
X90293Y196017D01*
X90184Y195966D01*
X90076Y195911D01*
X89969Y195853D01*
X89865Y195792D01*
X89763Y195727D01*
X89663Y195659D01*
X89565Y195588D01*
X89469Y195514D01*
X89376Y195437D01*
X89286Y195356D01*
X89198Y195273D01*
X89113Y195187D01*
X89030Y195098D01*
X88951Y195007D01*
X88874Y194913D01*
X88801Y194817D01*
X88731Y194719D01*
X88664Y194618D01*
X88600Y194515D01*
X88540Y194410D01*
X88483Y194303D01*
X88429Y194195D01*
X88379Y194085D01*
X88333Y193973D01*
X88290Y193860D01*
X88251Y193745D01*
X93769Y191149D02*
X93848Y191226D01*
X93924Y191307D01*
X93997Y191390D01*
X94067Y191475D01*
X94134Y191563D01*
X94198Y191653D01*
X94258Y191745D01*
X94315Y191840D01*
X94369Y191936D01*
X94420Y192034D01*
X94467Y192134D01*
X94511Y192236D01*
X94551Y192339D01*
X94587Y192443D01*
X94619Y192549D01*
X94648Y192655D01*
X94673Y192763D01*
X94695Y192871D01*
X94712Y192981D01*
X94726Y193090D01*
X94735Y193200D01*
X94741Y193311D01*
X94743Y193421D01*
X93768Y191149D02*
X88251Y184658D01*
X94742Y184658D01*
X203708Y64008D02*
X215392Y64008D01*
X203708Y64008D02*
X203708Y67254D01*
X203710Y67367D01*
X203716Y67480D01*
X203726Y67593D01*
X203740Y67706D01*
X203757Y67818D01*
X203779Y67929D01*
X203804Y68039D01*
X203834Y68149D01*
X203867Y68257D01*
X203904Y68364D01*
X203944Y68470D01*
X203989Y68574D01*
X204037Y68677D01*
X204088Y68778D01*
X204143Y68877D01*
X204201Y68974D01*
X204263Y69069D01*
X204328Y69162D01*
X204396Y69252D01*
X204467Y69340D01*
X204542Y69426D01*
X204619Y69509D01*
X204699Y69589D01*
X204782Y69666D01*
X204868Y69741D01*
X204956Y69812D01*
X205046Y69880D01*
X205139Y69945D01*
X205234Y70007D01*
X205331Y70065D01*
X205430Y70120D01*
X205531Y70171D01*
X205634Y70219D01*
X205738Y70264D01*
X205844Y70304D01*
X205951Y70341D01*
X206059Y70374D01*
X206169Y70404D01*
X206279Y70429D01*
X206390Y70451D01*
X206502Y70468D01*
X206615Y70482D01*
X206728Y70492D01*
X206841Y70498D01*
X206954Y70500D01*
X207067Y70498D01*
X207180Y70492D01*
X207293Y70482D01*
X207406Y70468D01*
X207518Y70451D01*
X207629Y70429D01*
X207739Y70404D01*
X207849Y70374D01*
X207957Y70341D01*
X208064Y70304D01*
X208170Y70264D01*
X208274Y70219D01*
X208377Y70171D01*
X208478Y70120D01*
X208577Y70065D01*
X208674Y70007D01*
X208769Y69945D01*
X208862Y69880D01*
X208952Y69812D01*
X209040Y69741D01*
X209126Y69666D01*
X209209Y69589D01*
X209289Y69509D01*
X209366Y69426D01*
X209441Y69340D01*
X209512Y69252D01*
X209580Y69162D01*
X209645Y69069D01*
X209707Y68974D01*
X209765Y68877D01*
X209820Y68778D01*
X209871Y68677D01*
X209919Y68574D01*
X209964Y68470D01*
X210004Y68364D01*
X210041Y68257D01*
X210074Y68149D01*
X210104Y68039D01*
X210129Y67929D01*
X210151Y67818D01*
X210168Y67706D01*
X210182Y67593D01*
X210192Y67480D01*
X210198Y67367D01*
X210200Y67254D01*
X210199Y67254D02*
X210199Y64008D01*
X210199Y67903D02*
X215392Y70499D01*
X215392Y75364D02*
X215392Y78610D01*
X215390Y78723D01*
X215384Y78836D01*
X215374Y78949D01*
X215360Y79062D01*
X215343Y79174D01*
X215321Y79285D01*
X215296Y79395D01*
X215266Y79505D01*
X215233Y79613D01*
X215196Y79720D01*
X215156Y79826D01*
X215111Y79930D01*
X215063Y80033D01*
X215012Y80134D01*
X214957Y80233D01*
X214899Y80330D01*
X214837Y80425D01*
X214772Y80518D01*
X214704Y80608D01*
X214633Y80696D01*
X214558Y80782D01*
X214481Y80865D01*
X214401Y80945D01*
X214318Y81022D01*
X214232Y81097D01*
X214144Y81168D01*
X214054Y81236D01*
X213961Y81301D01*
X213866Y81363D01*
X213769Y81421D01*
X213670Y81476D01*
X213569Y81527D01*
X213466Y81575D01*
X213362Y81620D01*
X213256Y81660D01*
X213149Y81697D01*
X213041Y81730D01*
X212931Y81760D01*
X212821Y81785D01*
X212710Y81807D01*
X212598Y81824D01*
X212485Y81838D01*
X212372Y81848D01*
X212259Y81854D01*
X212146Y81856D01*
X212033Y81854D01*
X211920Y81848D01*
X211807Y81838D01*
X211694Y81824D01*
X211582Y81807D01*
X211471Y81785D01*
X211361Y81760D01*
X211251Y81730D01*
X211143Y81697D01*
X211036Y81660D01*
X210930Y81620D01*
X210826Y81575D01*
X210723Y81527D01*
X210622Y81476D01*
X210523Y81421D01*
X210426Y81363D01*
X210331Y81301D01*
X210238Y81236D01*
X210148Y81168D01*
X210060Y81097D01*
X209974Y81022D01*
X209891Y80945D01*
X209811Y80865D01*
X209734Y80782D01*
X209659Y80696D01*
X209588Y80608D01*
X209520Y80518D01*
X209455Y80425D01*
X209393Y80330D01*
X209335Y80233D01*
X209280Y80134D01*
X209229Y80033D01*
X209181Y79930D01*
X209136Y79826D01*
X209096Y79720D01*
X209059Y79613D01*
X209026Y79505D01*
X208996Y79395D01*
X208971Y79285D01*
X208949Y79174D01*
X208932Y79062D01*
X208918Y78949D01*
X208908Y78836D01*
X208902Y78723D01*
X208900Y78610D01*
X203708Y79259D02*
X203708Y75364D01*
X203708Y79259D02*
X203710Y79360D01*
X203716Y79460D01*
X203726Y79560D01*
X203739Y79660D01*
X203757Y79759D01*
X203778Y79858D01*
X203803Y79955D01*
X203832Y80052D01*
X203865Y80147D01*
X203901Y80241D01*
X203941Y80333D01*
X203984Y80424D01*
X204031Y80513D01*
X204081Y80600D01*
X204135Y80686D01*
X204192Y80769D01*
X204252Y80849D01*
X204315Y80928D01*
X204382Y81004D01*
X204451Y81077D01*
X204523Y81147D01*
X204597Y81215D01*
X204674Y81280D01*
X204754Y81341D01*
X204836Y81400D01*
X204920Y81455D01*
X205006Y81507D01*
X205094Y81556D01*
X205184Y81601D01*
X205276Y81643D01*
X205369Y81681D01*
X205464Y81715D01*
X205559Y81746D01*
X205656Y81773D01*
X205754Y81796D01*
X205853Y81816D01*
X205953Y81831D01*
X206053Y81843D01*
X206153Y81851D01*
X206254Y81855D01*
X206354Y81855D01*
X206455Y81851D01*
X206555Y81843D01*
X206655Y81831D01*
X206755Y81816D01*
X206854Y81796D01*
X206952Y81773D01*
X207049Y81746D01*
X207144Y81715D01*
X207239Y81681D01*
X207332Y81643D01*
X207424Y81601D01*
X207514Y81556D01*
X207602Y81507D01*
X207688Y81455D01*
X207772Y81400D01*
X207854Y81341D01*
X207934Y81280D01*
X208011Y81215D01*
X208085Y81147D01*
X208157Y81077D01*
X208226Y81004D01*
X208293Y80928D01*
X208356Y80849D01*
X208416Y80769D01*
X208473Y80686D01*
X208527Y80600D01*
X208577Y80513D01*
X208624Y80424D01*
X208667Y80333D01*
X208707Y80241D01*
X208743Y80147D01*
X208776Y80052D01*
X208805Y79955D01*
X208830Y79858D01*
X208851Y79759D01*
X208869Y79660D01*
X208882Y79560D01*
X208892Y79460D01*
X208898Y79360D01*
X208900Y79259D01*
X208901Y79259D02*
X208901Y76663D01*
D10*
X171450Y229870D02*
X107950Y229870D01*
X107950Y223520D01*
X107950Y195580D02*
X107950Y187452D01*
X171450Y187452D01*
X171450Y195580D01*
X171450Y223520D02*
X171450Y229870D01*
X130810Y195580D02*
X129540Y194310D01*
X130810Y195580D02*
X129540Y196850D01*
X128270Y198120D02*
X128270Y193040D01*
X127000Y191770D01*
X128270Y198120D02*
X127000Y199390D01*
X129540Y196850D02*
X129540Y194310D01*
X128270Y193040D01*
X129540Y196850D02*
X128270Y198120D01*
X127000Y195580D02*
X130810Y195580D01*
X127000Y195580D02*
X111760Y195580D01*
X127000Y195580D02*
X127000Y199390D01*
X127000Y195580D02*
X127000Y191770D01*
X125730Y190500D01*
X127000Y199390D02*
X125730Y200660D01*
X125730Y190500D01*
D16*
X179705Y197485D02*
X191135Y197485D01*
X179705Y197485D02*
X179705Y200660D01*
X179707Y200771D01*
X179713Y200881D01*
X179722Y200992D01*
X179736Y201102D01*
X179753Y201211D01*
X179774Y201320D01*
X179799Y201428D01*
X179828Y201535D01*
X179860Y201641D01*
X179896Y201746D01*
X179936Y201849D01*
X179979Y201951D01*
X180026Y202052D01*
X180077Y202151D01*
X180130Y202248D01*
X180187Y202342D01*
X180248Y202435D01*
X180311Y202526D01*
X180378Y202615D01*
X180448Y202701D01*
X180521Y202784D01*
X180596Y202866D01*
X180674Y202944D01*
X180756Y203019D01*
X180839Y203092D01*
X180925Y203162D01*
X181014Y203229D01*
X181105Y203292D01*
X181198Y203353D01*
X181293Y203410D01*
X181389Y203463D01*
X181488Y203514D01*
X181589Y203561D01*
X181691Y203604D01*
X181794Y203644D01*
X181899Y203680D01*
X182005Y203712D01*
X182112Y203741D01*
X182220Y203766D01*
X182329Y203787D01*
X182438Y203804D01*
X182548Y203818D01*
X182659Y203827D01*
X182769Y203833D01*
X182880Y203835D01*
X182991Y203833D01*
X183101Y203827D01*
X183212Y203818D01*
X183322Y203804D01*
X183431Y203787D01*
X183540Y203766D01*
X183648Y203741D01*
X183755Y203712D01*
X183861Y203680D01*
X183966Y203644D01*
X184069Y203604D01*
X184171Y203561D01*
X184272Y203514D01*
X184371Y203463D01*
X184468Y203410D01*
X184562Y203353D01*
X184655Y203292D01*
X184746Y203229D01*
X184835Y203162D01*
X184921Y203092D01*
X185004Y203019D01*
X185086Y202944D01*
X185164Y202866D01*
X185239Y202784D01*
X185312Y202701D01*
X185382Y202615D01*
X185449Y202526D01*
X185512Y202435D01*
X185573Y202342D01*
X185630Y202248D01*
X185683Y202151D01*
X185734Y202052D01*
X185781Y201951D01*
X185824Y201849D01*
X185864Y201746D01*
X185900Y201641D01*
X185932Y201535D01*
X185961Y201428D01*
X185986Y201320D01*
X186007Y201211D01*
X186024Y201102D01*
X186038Y200992D01*
X186047Y200881D01*
X186053Y200771D01*
X186055Y200660D01*
X186055Y197485D01*
X186055Y201295D02*
X191135Y203835D01*
X188595Y208832D02*
X179705Y211372D01*
X188595Y208832D02*
X188595Y215182D01*
X186055Y213277D02*
X191135Y213277D01*
M02*
