G04 EAGLE Gerber RS-274X export*
G75*
%MOMM*%
%FSLAX34Y34*%
%LPD*%
%AMOC8*
5,1,8,0,0,1.08239X$1,22.5*%
G01*
%ADD10P,1.649562X8X22.500000*%
%ADD11C,1.320800*%
%ADD12R,5.500000X1.000000*%
%ADD13R,3.000000X1.600000*%
%ADD14R,1.650000X1.650000*%
%ADD15C,1.650000*%
%ADD16P,1.429621X8X22.500000*%
%ADD17C,1.575000*%
%ADD18C,1.950000*%
%ADD19R,1.300000X1.500000*%
%ADD20R,1.400000X1.000000*%
%ADD21R,1.500000X1.300000*%
%ADD22R,1.000000X1.400000*%
%ADD23C,0.756400*%
%ADD24C,0.856400*%
%ADD25C,0.706400*%
%ADD26C,0.508000*%
%ADD27C,0.254000*%
%ADD28C,0.406400*%
%ADD29C,0.656400*%
%ADD30C,0.152400*%

G36*
X1077513Y10176D02*
X1077513Y10176D01*
X1077632Y10183D01*
X1077670Y10196D01*
X1077711Y10201D01*
X1077821Y10244D01*
X1077934Y10281D01*
X1077969Y10303D01*
X1078006Y10318D01*
X1078102Y10387D01*
X1078203Y10451D01*
X1078231Y10481D01*
X1078264Y10504D01*
X1078340Y10596D01*
X1078421Y10683D01*
X1078441Y10718D01*
X1078466Y10749D01*
X1078517Y10857D01*
X1078575Y10961D01*
X1078585Y11001D01*
X1078602Y11037D01*
X1078624Y11154D01*
X1078654Y11269D01*
X1078658Y11329D01*
X1078662Y11349D01*
X1078660Y11370D01*
X1078664Y11430D01*
X1078664Y265932D01*
X1078647Y266070D01*
X1078634Y266208D01*
X1078627Y266227D01*
X1078624Y266247D01*
X1078573Y266377D01*
X1078526Y266508D01*
X1078515Y266524D01*
X1078507Y266543D01*
X1078426Y266656D01*
X1078348Y266771D01*
X1078332Y266784D01*
X1078321Y266800D01*
X1078213Y266889D01*
X1078109Y266981D01*
X1078091Y266990D01*
X1078076Y267003D01*
X1077950Y267062D01*
X1077826Y267126D01*
X1077806Y267130D01*
X1077788Y267139D01*
X1077652Y267165D01*
X1077516Y267195D01*
X1077495Y267195D01*
X1077476Y267199D01*
X1077337Y267190D01*
X1077198Y267186D01*
X1077178Y267180D01*
X1077158Y267179D01*
X1077026Y267136D01*
X1076892Y267097D01*
X1076875Y267087D01*
X1076856Y267081D01*
X1076738Y267006D01*
X1076618Y266936D01*
X1076597Y266917D01*
X1076587Y266911D01*
X1076573Y266896D01*
X1076497Y266829D01*
X1076277Y266609D01*
X1044173Y266609D01*
X1042684Y268098D01*
X1042684Y286202D01*
X1044173Y287691D01*
X1076277Y287691D01*
X1076497Y287471D01*
X1076607Y287385D01*
X1076714Y287297D01*
X1076733Y287288D01*
X1076749Y287276D01*
X1076877Y287220D01*
X1077002Y287161D01*
X1077022Y287157D01*
X1077041Y287149D01*
X1077179Y287127D01*
X1077315Y287101D01*
X1077335Y287103D01*
X1077355Y287099D01*
X1077494Y287113D01*
X1077632Y287121D01*
X1077651Y287127D01*
X1077671Y287129D01*
X1077802Y287176D01*
X1077934Y287219D01*
X1077952Y287230D01*
X1077971Y287237D01*
X1078085Y287315D01*
X1078203Y287389D01*
X1078217Y287404D01*
X1078234Y287415D01*
X1078326Y287520D01*
X1078421Y287621D01*
X1078431Y287639D01*
X1078444Y287654D01*
X1078507Y287778D01*
X1078575Y287899D01*
X1078580Y287919D01*
X1078589Y287937D01*
X1078619Y288073D01*
X1078654Y288207D01*
X1078656Y288235D01*
X1078659Y288247D01*
X1078658Y288268D01*
X1078664Y288368D01*
X1078664Y333932D01*
X1078647Y334070D01*
X1078634Y334208D01*
X1078627Y334227D01*
X1078624Y334247D01*
X1078573Y334377D01*
X1078526Y334508D01*
X1078515Y334524D01*
X1078507Y334543D01*
X1078426Y334656D01*
X1078348Y334771D01*
X1078332Y334784D01*
X1078321Y334800D01*
X1078213Y334889D01*
X1078109Y334981D01*
X1078091Y334990D01*
X1078076Y335003D01*
X1077950Y335062D01*
X1077826Y335126D01*
X1077806Y335130D01*
X1077788Y335139D01*
X1077652Y335165D01*
X1077516Y335195D01*
X1077495Y335195D01*
X1077476Y335199D01*
X1077337Y335190D01*
X1077198Y335186D01*
X1077178Y335180D01*
X1077158Y335179D01*
X1077026Y335136D01*
X1076892Y335097D01*
X1076875Y335087D01*
X1076856Y335081D01*
X1076738Y335006D01*
X1076618Y334936D01*
X1076597Y334917D01*
X1076587Y334911D01*
X1076573Y334896D01*
X1076497Y334829D01*
X1076277Y334609D01*
X1071372Y334609D01*
X1071254Y334594D01*
X1071135Y334587D01*
X1071097Y334574D01*
X1071056Y334569D01*
X1070946Y334526D01*
X1070833Y334489D01*
X1070798Y334467D01*
X1070761Y334452D01*
X1070665Y334383D01*
X1070564Y334319D01*
X1070536Y334289D01*
X1070503Y334266D01*
X1070427Y334174D01*
X1070346Y334087D01*
X1070326Y334052D01*
X1070301Y334021D01*
X1070250Y333913D01*
X1070192Y333809D01*
X1070182Y333769D01*
X1070165Y333733D01*
X1070143Y333616D01*
X1070113Y333501D01*
X1070109Y333441D01*
X1070105Y333421D01*
X1070107Y333400D01*
X1070103Y333340D01*
X1070103Y312957D01*
X1068168Y311022D01*
X1066999Y311022D01*
X1066848Y311003D01*
X1066696Y310986D01*
X1066690Y310983D01*
X1066683Y310982D01*
X1066542Y310926D01*
X1066399Y310872D01*
X1066394Y310868D01*
X1066388Y310865D01*
X1066265Y310776D01*
X1066140Y310688D01*
X1066136Y310683D01*
X1066130Y310679D01*
X1066032Y310560D01*
X1065935Y310445D01*
X1065932Y310439D01*
X1065928Y310434D01*
X1065863Y310296D01*
X1065796Y310159D01*
X1065795Y310152D01*
X1065792Y310146D01*
X1065764Y309998D01*
X1065733Y309847D01*
X1065734Y309840D01*
X1065732Y309834D01*
X1065742Y309682D01*
X1065750Y309529D01*
X1065752Y309523D01*
X1065752Y309516D01*
X1065799Y309372D01*
X1065844Y309226D01*
X1065848Y309220D01*
X1065850Y309214D01*
X1065931Y309085D01*
X1066012Y308955D01*
X1066017Y308951D01*
X1066020Y308945D01*
X1066131Y308840D01*
X1066241Y308735D01*
X1066247Y308732D01*
X1066252Y308727D01*
X1066385Y308653D01*
X1066518Y308578D01*
X1066527Y308576D01*
X1066530Y308573D01*
X1066541Y308571D01*
X1066670Y308527D01*
X1066706Y308518D01*
X1067285Y308183D01*
X1067758Y307710D01*
X1068093Y307131D01*
X1068266Y306484D01*
X1068266Y303649D01*
X1039455Y303649D01*
X1039337Y303634D01*
X1039218Y303627D01*
X1039180Y303614D01*
X1039140Y303609D01*
X1039029Y303566D01*
X1038916Y303529D01*
X1038882Y303507D01*
X1038844Y303492D01*
X1038748Y303423D01*
X1038647Y303359D01*
X1038619Y303329D01*
X1038587Y303306D01*
X1038511Y303214D01*
X1038429Y303127D01*
X1038410Y303092D01*
X1038384Y303061D01*
X1038333Y302953D01*
X1038276Y302849D01*
X1038266Y302809D01*
X1038248Y302773D01*
X1038228Y302666D01*
X1038224Y302696D01*
X1038180Y302806D01*
X1038144Y302919D01*
X1038122Y302954D01*
X1038107Y302991D01*
X1038037Y303087D01*
X1037974Y303188D01*
X1037944Y303216D01*
X1037920Y303249D01*
X1037829Y303325D01*
X1037742Y303406D01*
X1037707Y303426D01*
X1037675Y303451D01*
X1037568Y303502D01*
X1037463Y303560D01*
X1037424Y303570D01*
X1037388Y303587D01*
X1037271Y303609D01*
X1037155Y303639D01*
X1037095Y303643D01*
X1037075Y303647D01*
X1037055Y303645D01*
X1036995Y303649D01*
X1008184Y303649D01*
X1008184Y306484D01*
X1008357Y307131D01*
X1008692Y307710D01*
X1009165Y308183D01*
X1009744Y308518D01*
X1009779Y308527D01*
X1009921Y308585D01*
X1010062Y308641D01*
X1010068Y308645D01*
X1010074Y308647D01*
X1010197Y308739D01*
X1010320Y308827D01*
X1010324Y308833D01*
X1010329Y308837D01*
X1010425Y308955D01*
X1010522Y309072D01*
X1010525Y309079D01*
X1010530Y309084D01*
X1010593Y309223D01*
X1010658Y309360D01*
X1010659Y309367D01*
X1010662Y309373D01*
X1010689Y309524D01*
X1010718Y309673D01*
X1010717Y309679D01*
X1010719Y309686D01*
X1010707Y309839D01*
X1010698Y309990D01*
X1010696Y309996D01*
X1010696Y310003D01*
X1010647Y310148D01*
X1010600Y310292D01*
X1010596Y310298D01*
X1010594Y310304D01*
X1010512Y310431D01*
X1010430Y310561D01*
X1010425Y310566D01*
X1010421Y310571D01*
X1010310Y310674D01*
X1010198Y310779D01*
X1010192Y310782D01*
X1010187Y310787D01*
X1010054Y310859D01*
X1009920Y310933D01*
X1009913Y310934D01*
X1009907Y310937D01*
X1009759Y310974D01*
X1009612Y311012D01*
X1009603Y311013D01*
X1009599Y311014D01*
X1009588Y311014D01*
X1009451Y311022D01*
X1008282Y311022D01*
X1006347Y312957D01*
X1006347Y334743D01*
X1008282Y336678D01*
X1041415Y336678D01*
X1041533Y336693D01*
X1041652Y336700D01*
X1041690Y336713D01*
X1041731Y336718D01*
X1041841Y336761D01*
X1041954Y336798D01*
X1041989Y336820D01*
X1042026Y336835D01*
X1042122Y336904D01*
X1042223Y336968D01*
X1042251Y336998D01*
X1042284Y337021D01*
X1042360Y337113D01*
X1042441Y337200D01*
X1042461Y337235D01*
X1042486Y337266D01*
X1042537Y337374D01*
X1042595Y337478D01*
X1042605Y337518D01*
X1042622Y337554D01*
X1042644Y337671D01*
X1042674Y337786D01*
X1042678Y337846D01*
X1042682Y337866D01*
X1042680Y337887D01*
X1042684Y337947D01*
X1042684Y354202D01*
X1044173Y355691D01*
X1076277Y355691D01*
X1076497Y355471D01*
X1076607Y355385D01*
X1076714Y355297D01*
X1076733Y355288D01*
X1076749Y355276D01*
X1076877Y355220D01*
X1077002Y355161D01*
X1077022Y355157D01*
X1077041Y355149D01*
X1077179Y355127D01*
X1077315Y355101D01*
X1077335Y355103D01*
X1077355Y355099D01*
X1077494Y355113D01*
X1077632Y355121D01*
X1077651Y355127D01*
X1077671Y355129D01*
X1077802Y355176D01*
X1077934Y355219D01*
X1077952Y355230D01*
X1077971Y355237D01*
X1078085Y355315D01*
X1078203Y355389D01*
X1078217Y355404D01*
X1078234Y355415D01*
X1078326Y355520D01*
X1078421Y355621D01*
X1078431Y355639D01*
X1078444Y355654D01*
X1078507Y355778D01*
X1078575Y355899D01*
X1078580Y355919D01*
X1078589Y355937D01*
X1078619Y356073D01*
X1078654Y356207D01*
X1078656Y356235D01*
X1078659Y356247D01*
X1078658Y356268D01*
X1078664Y356368D01*
X1078664Y490095D01*
X1078649Y490213D01*
X1078642Y490332D01*
X1078629Y490370D01*
X1078624Y490411D01*
X1078581Y490521D01*
X1078544Y490634D01*
X1078522Y490669D01*
X1078507Y490706D01*
X1078438Y490802D01*
X1078374Y490903D01*
X1078344Y490931D01*
X1078321Y490964D01*
X1078229Y491040D01*
X1078142Y491121D01*
X1078107Y491141D01*
X1078076Y491166D01*
X1077968Y491217D01*
X1077864Y491275D01*
X1077824Y491285D01*
X1077788Y491302D01*
X1077671Y491324D01*
X1077556Y491354D01*
X1077496Y491358D01*
X1077476Y491362D01*
X1077455Y491360D01*
X1077395Y491364D01*
X500219Y491364D01*
X500150Y491356D01*
X500080Y491357D01*
X499993Y491336D01*
X499904Y491324D01*
X499839Y491299D01*
X499771Y491282D01*
X499691Y491240D01*
X499608Y491207D01*
X499552Y491166D01*
X499490Y491134D01*
X499423Y491073D01*
X499351Y491021D01*
X499306Y490967D01*
X499254Y490920D01*
X499205Y490845D01*
X499148Y490776D01*
X499118Y490712D01*
X499080Y490654D01*
X499051Y490569D01*
X499012Y490488D01*
X498999Y490419D01*
X498976Y490353D01*
X498969Y490264D01*
X498952Y490176D01*
X498957Y490106D01*
X498951Y490036D01*
X498967Y489948D01*
X498972Y489858D01*
X498994Y489792D01*
X499006Y489723D01*
X499043Y489641D01*
X499070Y489556D01*
X499108Y489497D01*
X499136Y489433D01*
X499192Y489363D01*
X499240Y489287D01*
X499291Y489239D01*
X499335Y489185D01*
X499407Y489130D01*
X499472Y489069D01*
X499533Y489035D01*
X499589Y488993D01*
X499733Y488922D01*
X502057Y487960D01*
X503835Y486182D01*
X504812Y483823D01*
X504813Y483791D01*
X504830Y483733D01*
X504838Y483673D01*
X504874Y483581D01*
X504902Y483486D01*
X504932Y483433D01*
X504955Y483377D01*
X505013Y483297D01*
X505063Y483212D01*
X505129Y483136D01*
X505141Y483120D01*
X505151Y483112D01*
X505169Y483091D01*
X507524Y480736D01*
X509132Y479128D01*
X509906Y477261D01*
X509906Y450850D01*
X509921Y450732D01*
X509928Y450613D01*
X509941Y450575D01*
X509946Y450534D01*
X509989Y450424D01*
X510026Y450311D01*
X510048Y450276D01*
X510063Y450239D01*
X510132Y450143D01*
X510196Y450042D01*
X510226Y450014D01*
X510249Y449981D01*
X510341Y449905D01*
X510428Y449824D01*
X510463Y449804D01*
X510494Y449779D01*
X510602Y449728D01*
X510706Y449670D01*
X510746Y449660D01*
X510782Y449643D01*
X510899Y449621D01*
X511014Y449591D01*
X511074Y449587D01*
X511094Y449583D01*
X511115Y449585D01*
X511175Y449581D01*
X592891Y449581D01*
X593029Y449598D01*
X593167Y449611D01*
X593186Y449618D01*
X593206Y449621D01*
X593335Y449672D01*
X593467Y449719D01*
X593483Y449730D01*
X593502Y449738D01*
X593614Y449819D01*
X593730Y449897D01*
X593743Y449913D01*
X593759Y449924D01*
X593848Y450032D01*
X593940Y450136D01*
X593949Y450154D01*
X593962Y450169D01*
X594021Y450295D01*
X594085Y450419D01*
X594089Y450439D01*
X594098Y450457D01*
X594124Y450594D01*
X594154Y450729D01*
X594154Y450750D01*
X594158Y450769D01*
X594149Y450908D01*
X594145Y451047D01*
X594139Y451067D01*
X594138Y451087D01*
X594095Y451219D01*
X594056Y451353D01*
X594046Y451370D01*
X594040Y451389D01*
X593965Y451507D01*
X593895Y451627D01*
X593876Y451648D01*
X593870Y451658D01*
X593855Y451672D01*
X593788Y451747D01*
X592718Y452818D01*
X589914Y455622D01*
X589914Y457918D01*
X589902Y458016D01*
X589899Y458116D01*
X589882Y458174D01*
X589874Y458234D01*
X589838Y458326D01*
X589810Y458421D01*
X589780Y458473D01*
X589757Y458530D01*
X589699Y458610D01*
X589649Y458695D01*
X589583Y458770D01*
X589571Y458787D01*
X589561Y458795D01*
X589543Y458816D01*
X588390Y459968D01*
X587427Y462292D01*
X587427Y464808D01*
X588390Y467132D01*
X590168Y468910D01*
X592492Y469873D01*
X595008Y469873D01*
X597332Y468910D01*
X599110Y467132D01*
X600073Y464808D01*
X600073Y462292D01*
X599101Y459947D01*
X599059Y459893D01*
X598970Y459786D01*
X598962Y459767D01*
X598949Y459751D01*
X598894Y459623D01*
X598835Y459498D01*
X598831Y459478D01*
X598823Y459459D01*
X598801Y459322D01*
X598775Y459185D01*
X598776Y459165D01*
X598773Y459145D01*
X598786Y459007D01*
X598795Y458868D01*
X598801Y458849D01*
X598803Y458829D01*
X598850Y458697D01*
X598893Y458566D01*
X598904Y458549D01*
X598910Y458529D01*
X598988Y458415D01*
X599063Y458297D01*
X599078Y458283D01*
X599089Y458266D01*
X599193Y458175D01*
X599295Y458079D01*
X599312Y458069D01*
X599327Y458056D01*
X599451Y457993D01*
X599573Y457925D01*
X599592Y457920D01*
X599611Y457911D01*
X599747Y457881D01*
X599881Y457846D01*
X599909Y457844D01*
X599921Y457841D01*
X599941Y457842D01*
X600042Y457836D01*
X779453Y457836D01*
X782057Y455232D01*
X791782Y445507D01*
X794386Y442903D01*
X794386Y278329D01*
X794398Y278231D01*
X794401Y278132D01*
X794418Y278074D01*
X794426Y278014D01*
X794462Y277922D01*
X794490Y277826D01*
X794520Y277774D01*
X794543Y277718D01*
X794601Y277638D01*
X794651Y277553D01*
X794717Y277477D01*
X794729Y277461D01*
X794739Y277453D01*
X794757Y277432D01*
X801141Y271049D01*
X801217Y270989D01*
X801288Y270922D01*
X801343Y270892D01*
X801392Y270854D01*
X801481Y270815D01*
X801566Y270768D01*
X801626Y270752D01*
X801684Y270727D01*
X801780Y270712D01*
X801874Y270687D01*
X801978Y270680D01*
X801998Y270677D01*
X802009Y270678D01*
X802034Y270677D01*
X911159Y270349D01*
X911179Y270351D01*
X911279Y270354D01*
X912662Y270481D01*
X912687Y270465D01*
X912725Y270453D01*
X912759Y270433D01*
X912875Y270403D01*
X912939Y270382D01*
X913921Y269394D01*
X913937Y269381D01*
X914010Y269313D01*
X928125Y257571D01*
X928160Y257548D01*
X928190Y257520D01*
X928293Y257463D01*
X928393Y257399D01*
X928432Y257387D01*
X928468Y257367D01*
X928583Y257337D01*
X928636Y257320D01*
X929630Y256325D01*
X929647Y256312D01*
X929716Y256247D01*
X930791Y255353D01*
X930795Y255333D01*
X930814Y255296D01*
X930825Y255257D01*
X930886Y255155D01*
X930911Y255105D01*
X930911Y253699D01*
X930913Y253678D01*
X930916Y253583D01*
X931044Y252190D01*
X931033Y252173D01*
X931020Y252134D01*
X931000Y252098D01*
X930971Y251984D01*
X930934Y251871D01*
X930931Y251830D01*
X930921Y251790D01*
X930911Y251630D01*
X930911Y213803D01*
X930914Y213774D01*
X930912Y213745D01*
X930934Y213617D01*
X930951Y213488D01*
X930961Y213460D01*
X930966Y213431D01*
X931020Y213313D01*
X931068Y213192D01*
X931085Y213168D01*
X931097Y213141D01*
X931178Y213040D01*
X931254Y212935D01*
X931277Y212916D01*
X931296Y212893D01*
X931399Y212815D01*
X931499Y212732D01*
X931526Y212719D01*
X931550Y212702D01*
X931694Y212631D01*
X933857Y211735D01*
X935635Y209957D01*
X936598Y207633D01*
X936598Y205117D01*
X935626Y202772D01*
X935584Y202718D01*
X935495Y202611D01*
X935487Y202592D01*
X935474Y202576D01*
X935419Y202448D01*
X935360Y202323D01*
X935356Y202303D01*
X935348Y202284D01*
X935326Y202147D01*
X935300Y202010D01*
X935301Y201990D01*
X935298Y201970D01*
X935311Y201832D01*
X935320Y201693D01*
X935326Y201674D01*
X935328Y201654D01*
X935375Y201522D01*
X935418Y201391D01*
X935429Y201374D01*
X935435Y201354D01*
X935513Y201240D01*
X935588Y201122D01*
X935603Y201108D01*
X935614Y201091D01*
X935718Y201000D01*
X935820Y200904D01*
X935837Y200894D01*
X935852Y200881D01*
X935976Y200818D01*
X936098Y200750D01*
X936117Y200745D01*
X936136Y200736D01*
X936272Y200706D01*
X936406Y200671D01*
X936434Y200669D01*
X936446Y200666D01*
X936466Y200667D01*
X936567Y200661D01*
X966778Y200661D01*
X972186Y195253D01*
X972186Y172528D01*
X972189Y172499D01*
X972187Y172470D01*
X972209Y172342D01*
X972226Y172213D01*
X972236Y172185D01*
X972241Y172156D01*
X972295Y172038D01*
X972343Y171917D01*
X972360Y171893D01*
X972372Y171866D01*
X972453Y171765D01*
X972529Y171660D01*
X972552Y171641D01*
X972571Y171618D01*
X972674Y171540D01*
X972774Y171457D01*
X972801Y171444D01*
X972825Y171427D01*
X972969Y171356D01*
X975132Y170460D01*
X976910Y168682D01*
X977873Y166358D01*
X977873Y163842D01*
X976910Y161518D01*
X975132Y159740D01*
X972808Y158777D01*
X970292Y158777D01*
X967968Y159740D01*
X966190Y161518D01*
X965227Y163842D01*
X965227Y165508D01*
X965215Y165606D01*
X965212Y165705D01*
X965195Y165763D01*
X965187Y165823D01*
X965151Y165915D01*
X965123Y166011D01*
X965093Y166063D01*
X965070Y166119D01*
X965012Y166199D01*
X964962Y166284D01*
X964896Y166360D01*
X964884Y166376D01*
X964874Y166384D01*
X964856Y166405D01*
X964564Y166697D01*
X964564Y191571D01*
X964552Y191669D01*
X964549Y191768D01*
X964532Y191826D01*
X964524Y191886D01*
X964488Y191978D01*
X964460Y192074D01*
X964430Y192126D01*
X964407Y192182D01*
X964349Y192262D01*
X964299Y192347D01*
X964233Y192423D01*
X964221Y192439D01*
X964211Y192447D01*
X964193Y192468D01*
X963993Y192668D01*
X963915Y192728D01*
X963843Y192796D01*
X963790Y192825D01*
X963742Y192862D01*
X963651Y192902D01*
X963564Y192950D01*
X963506Y192965D01*
X963450Y192989D01*
X963352Y193004D01*
X963256Y193029D01*
X963156Y193035D01*
X963136Y193039D01*
X963124Y193037D01*
X963096Y193039D01*
X890597Y193039D01*
X885189Y198447D01*
X885189Y213796D01*
X885177Y213894D01*
X885174Y213993D01*
X885157Y214051D01*
X885149Y214111D01*
X885113Y214203D01*
X885085Y214299D01*
X885055Y214351D01*
X885032Y214407D01*
X884974Y214487D01*
X884924Y214572D01*
X884858Y214648D01*
X884846Y214664D01*
X884836Y214672D01*
X884818Y214693D01*
X884618Y214893D01*
X884540Y214953D01*
X884468Y215021D01*
X884415Y215050D01*
X884367Y215087D01*
X884276Y215127D01*
X884189Y215175D01*
X884131Y215190D01*
X884075Y215214D01*
X883977Y215229D01*
X883881Y215254D01*
X883781Y215260D01*
X883761Y215264D01*
X883749Y215262D01*
X883721Y215264D01*
X739082Y215264D01*
X738984Y215252D01*
X738884Y215249D01*
X738826Y215232D01*
X738766Y215224D01*
X738674Y215188D01*
X738579Y215160D01*
X738527Y215130D01*
X738470Y215107D01*
X738390Y215049D01*
X738305Y214999D01*
X738230Y214933D01*
X738213Y214921D01*
X738205Y214911D01*
X738184Y214893D01*
X737007Y213715D01*
X734683Y212752D01*
X732167Y212752D01*
X729843Y213715D01*
X728065Y215493D01*
X727102Y217817D01*
X727102Y220333D01*
X728065Y222657D01*
X729843Y224435D01*
X732167Y225398D01*
X734683Y225398D01*
X737007Y224435D01*
X738184Y223257D01*
X738262Y223197D01*
X738335Y223129D01*
X738388Y223100D01*
X738435Y223063D01*
X738526Y223023D01*
X738613Y222975D01*
X738672Y222960D01*
X738727Y222936D01*
X738825Y222921D01*
X738921Y222896D01*
X739021Y222890D01*
X739041Y222886D01*
X739054Y222888D01*
X739082Y222886D01*
X762436Y222886D01*
X762573Y222903D01*
X762712Y222916D01*
X762731Y222923D01*
X762751Y222926D01*
X762880Y222977D01*
X763011Y223024D01*
X763028Y223035D01*
X763047Y223043D01*
X763160Y223124D01*
X763275Y223202D01*
X763288Y223218D01*
X763304Y223229D01*
X763393Y223337D01*
X763485Y223441D01*
X763494Y223459D01*
X763507Y223474D01*
X763566Y223600D01*
X763630Y223724D01*
X763634Y223744D01*
X763643Y223762D01*
X763669Y223898D01*
X763699Y224034D01*
X763699Y224055D01*
X763703Y224074D01*
X763694Y224213D01*
X763690Y224352D01*
X763684Y224372D01*
X763683Y224392D01*
X763640Y224524D01*
X763601Y224658D01*
X763591Y224675D01*
X763585Y224694D01*
X763510Y224812D01*
X763440Y224932D01*
X763421Y224953D01*
X763415Y224963D01*
X763400Y224977D01*
X763333Y225052D01*
X760993Y227393D01*
X758189Y230197D01*
X758189Y239196D01*
X758177Y239294D01*
X758174Y239393D01*
X758157Y239451D01*
X758149Y239511D01*
X758113Y239603D01*
X758085Y239699D01*
X758055Y239751D01*
X758032Y239807D01*
X757974Y239887D01*
X757924Y239972D01*
X757858Y240048D01*
X757846Y240064D01*
X757836Y240072D01*
X757818Y240093D01*
X757618Y240293D01*
X757540Y240353D01*
X757468Y240421D01*
X757415Y240450D01*
X757367Y240487D01*
X757276Y240527D01*
X757189Y240575D01*
X757131Y240590D01*
X757075Y240614D01*
X756977Y240629D01*
X756881Y240654D01*
X756781Y240660D01*
X756761Y240664D01*
X756749Y240662D01*
X756721Y240664D01*
X684504Y240664D01*
X684406Y240652D01*
X684307Y240649D01*
X684249Y240632D01*
X684189Y240624D01*
X684096Y240588D01*
X684001Y240560D01*
X683949Y240530D01*
X683893Y240507D01*
X683813Y240449D01*
X683794Y240438D01*
X668573Y240438D01*
X668281Y240730D01*
X668203Y240790D01*
X668131Y240858D01*
X668078Y240887D01*
X668030Y240924D01*
X667939Y240964D01*
X667852Y241012D01*
X667794Y241027D01*
X667738Y241051D01*
X667640Y241066D01*
X667544Y241091D01*
X667444Y241097D01*
X667424Y241101D01*
X667412Y241099D01*
X667384Y241101D01*
X665492Y241101D01*
X663168Y242064D01*
X661390Y243842D01*
X660427Y246166D01*
X660427Y248682D01*
X661390Y251006D01*
X663168Y252784D01*
X663273Y252827D01*
X663334Y252862D01*
X663398Y252888D01*
X663471Y252940D01*
X663549Y252985D01*
X663599Y253033D01*
X663656Y253074D01*
X663713Y253144D01*
X663778Y253206D01*
X663814Y253266D01*
X663859Y253319D01*
X663897Y253401D01*
X663944Y253477D01*
X663964Y253544D01*
X663994Y253607D01*
X664011Y253695D01*
X664037Y253781D01*
X664041Y253851D01*
X664054Y253920D01*
X664048Y254009D01*
X664053Y254099D01*
X664038Y254167D01*
X664034Y254237D01*
X664006Y254322D01*
X663988Y254410D01*
X663958Y254473D01*
X663936Y254539D01*
X663888Y254615D01*
X663849Y254696D01*
X663803Y254749D01*
X663766Y254808D01*
X663701Y254870D01*
X663642Y254938D01*
X663585Y254978D01*
X663534Y255026D01*
X663456Y255069D01*
X663382Y255121D01*
X663317Y255146D01*
X663256Y255180D01*
X663169Y255202D01*
X663085Y255234D01*
X663015Y255242D01*
X662948Y255259D01*
X662787Y255269D01*
X614939Y255269D01*
X613072Y256043D01*
X608468Y260647D01*
X607694Y262514D01*
X607694Y282575D01*
X607679Y282693D01*
X607672Y282812D01*
X607659Y282850D01*
X607654Y282891D01*
X607611Y283001D01*
X607574Y283114D01*
X607552Y283149D01*
X607537Y283186D01*
X607468Y283282D01*
X607404Y283383D01*
X607374Y283411D01*
X607351Y283444D01*
X607259Y283520D01*
X607172Y283601D01*
X607137Y283621D01*
X607106Y283646D01*
X606998Y283697D01*
X606894Y283755D01*
X606854Y283765D01*
X606818Y283782D01*
X606701Y283804D01*
X606586Y283834D01*
X606526Y283838D01*
X606506Y283842D01*
X606485Y283840D01*
X606425Y283844D01*
X565150Y283844D01*
X565032Y283829D01*
X564913Y283822D01*
X564875Y283809D01*
X564834Y283804D01*
X564724Y283761D01*
X564611Y283724D01*
X564576Y283702D01*
X564539Y283687D01*
X564443Y283618D01*
X564342Y283554D01*
X564314Y283524D01*
X564281Y283501D01*
X564205Y283409D01*
X564124Y283322D01*
X564104Y283287D01*
X564079Y283256D01*
X564028Y283148D01*
X563970Y283044D01*
X563960Y283004D01*
X563943Y282968D01*
X563921Y282851D01*
X563891Y282736D01*
X563887Y282676D01*
X563883Y282656D01*
X563885Y282635D01*
X563881Y282575D01*
X563881Y239337D01*
X563893Y239238D01*
X563896Y239139D01*
X563913Y239081D01*
X563921Y239021D01*
X563957Y238929D01*
X563985Y238834D01*
X564015Y238782D01*
X564038Y238725D01*
X564096Y238645D01*
X564146Y238560D01*
X564150Y238555D01*
X565123Y236208D01*
X565123Y233692D01*
X564146Y231334D01*
X564124Y231310D01*
X564095Y231257D01*
X564058Y231210D01*
X564018Y231119D01*
X563970Y231032D01*
X563955Y230973D01*
X563931Y230918D01*
X563916Y230820D01*
X563891Y230724D01*
X563885Y230624D01*
X563881Y230604D01*
X563883Y230591D01*
X563881Y230563D01*
X563881Y194887D01*
X563893Y194789D01*
X563896Y194689D01*
X563913Y194631D01*
X563921Y194571D01*
X563957Y194479D01*
X563985Y194384D01*
X564015Y194332D01*
X564038Y194275D01*
X564096Y194195D01*
X564146Y194110D01*
X564150Y194105D01*
X565123Y191758D01*
X565123Y189242D01*
X564160Y186918D01*
X562382Y185140D01*
X560058Y184177D01*
X557542Y184177D01*
X555218Y185140D01*
X553440Y186918D01*
X552477Y189242D01*
X552477Y191758D01*
X553454Y194116D01*
X553476Y194140D01*
X553505Y194193D01*
X553542Y194240D01*
X553582Y194331D01*
X553630Y194418D01*
X553645Y194477D01*
X553669Y194532D01*
X553684Y194630D01*
X553709Y194726D01*
X553715Y194826D01*
X553719Y194846D01*
X553717Y194859D01*
X553719Y194887D01*
X553719Y230563D01*
X553707Y230661D01*
X553704Y230761D01*
X553687Y230819D01*
X553679Y230879D01*
X553643Y230971D01*
X553615Y231066D01*
X553585Y231118D01*
X553562Y231175D01*
X553504Y231255D01*
X553454Y231340D01*
X553450Y231345D01*
X552477Y233692D01*
X552477Y236208D01*
X553454Y238566D01*
X553476Y238590D01*
X553505Y238643D01*
X553542Y238690D01*
X553582Y238781D01*
X553630Y238868D01*
X553645Y238927D01*
X553669Y238982D01*
X553684Y239080D01*
X553709Y239176D01*
X553715Y239276D01*
X553719Y239296D01*
X553717Y239308D01*
X553719Y239337D01*
X553719Y279400D01*
X553704Y279518D01*
X553697Y279637D01*
X553684Y279675D01*
X553679Y279716D01*
X553636Y279826D01*
X553599Y279939D01*
X553577Y279974D01*
X553562Y280011D01*
X553493Y280107D01*
X553429Y280208D01*
X553399Y280236D01*
X553376Y280269D01*
X553284Y280345D01*
X553197Y280426D01*
X553162Y280446D01*
X553131Y280471D01*
X553023Y280522D01*
X552919Y280580D01*
X552879Y280590D01*
X552843Y280607D01*
X552726Y280629D01*
X552611Y280659D01*
X552551Y280663D01*
X552531Y280667D01*
X552510Y280665D01*
X552450Y280669D01*
X548468Y280669D01*
X548439Y280666D01*
X548410Y280668D01*
X548282Y280646D01*
X548153Y280629D01*
X548125Y280619D01*
X548096Y280614D01*
X547978Y280560D01*
X547857Y280512D01*
X547833Y280495D01*
X547806Y280483D01*
X547705Y280402D01*
X547600Y280326D01*
X547581Y280303D01*
X547558Y280284D01*
X547480Y280181D01*
X547397Y280081D01*
X547384Y280054D01*
X547367Y280030D01*
X547296Y279886D01*
X547207Y279672D01*
X539453Y271918D01*
X537586Y271144D01*
X483812Y271144D01*
X483714Y271132D01*
X483614Y271129D01*
X483556Y271112D01*
X483496Y271104D01*
X483404Y271068D01*
X483309Y271040D01*
X483257Y271010D01*
X483200Y270987D01*
X483120Y270929D01*
X483035Y270879D01*
X483030Y270875D01*
X480683Y269902D01*
X478167Y269902D01*
X475809Y270879D01*
X475785Y270901D01*
X475732Y270930D01*
X475685Y270967D01*
X475594Y271007D01*
X475507Y271055D01*
X475448Y271070D01*
X475393Y271094D01*
X475295Y271109D01*
X475199Y271134D01*
X475099Y271140D01*
X475079Y271144D01*
X475066Y271142D01*
X475038Y271144D01*
X465714Y271144D01*
X463847Y271918D01*
X456068Y279697D01*
X455294Y281564D01*
X455294Y338513D01*
X455282Y338611D01*
X455279Y338711D01*
X455262Y338769D01*
X455254Y338829D01*
X455218Y338921D01*
X455190Y339016D01*
X455160Y339068D01*
X455137Y339125D01*
X455079Y339205D01*
X455029Y339290D01*
X455025Y339295D01*
X454052Y341642D01*
X454052Y344158D01*
X455029Y346516D01*
X455051Y346540D01*
X455080Y346593D01*
X455117Y346640D01*
X455157Y346731D01*
X455205Y346818D01*
X455220Y346877D01*
X455244Y346932D01*
X455259Y347030D01*
X455284Y347126D01*
X455290Y347226D01*
X455294Y347246D01*
X455292Y347259D01*
X455294Y347287D01*
X455294Y374650D01*
X455279Y374768D01*
X455272Y374887D01*
X455259Y374925D01*
X455254Y374966D01*
X455211Y375076D01*
X455174Y375189D01*
X455152Y375224D01*
X455137Y375261D01*
X455068Y375357D01*
X455004Y375458D01*
X454974Y375486D01*
X454951Y375519D01*
X454859Y375595D01*
X454772Y375676D01*
X454737Y375696D01*
X454706Y375721D01*
X454598Y375772D01*
X454494Y375830D01*
X454454Y375840D01*
X454418Y375857D01*
X454301Y375879D01*
X454186Y375909D01*
X454126Y375913D01*
X454106Y375917D01*
X454085Y375915D01*
X454025Y375919D01*
X405615Y375919D01*
X403748Y376693D01*
X402140Y378300D01*
X402140Y378301D01*
X386859Y393582D01*
X386781Y393642D01*
X386709Y393710D01*
X386656Y393739D01*
X386608Y393776D01*
X386517Y393816D01*
X386430Y393864D01*
X386372Y393879D01*
X386316Y393903D01*
X386218Y393918D01*
X386122Y393943D01*
X386116Y393943D01*
X383768Y394916D01*
X381990Y396694D01*
X381027Y399018D01*
X381027Y401534D01*
X382053Y404009D01*
X382066Y404057D01*
X382087Y404102D01*
X382108Y404210D01*
X382137Y404316D01*
X382137Y404366D01*
X382147Y404415D01*
X382140Y404524D01*
X382142Y404634D01*
X382130Y404682D01*
X382127Y404732D01*
X382093Y404836D01*
X382068Y404943D01*
X382044Y404987D01*
X382029Y405034D01*
X381970Y405127D01*
X381919Y405224D01*
X381885Y405261D01*
X381859Y405303D01*
X381779Y405378D01*
X381705Y405460D01*
X381663Y405487D01*
X381627Y405521D01*
X381531Y405574D01*
X381439Y405634D01*
X381392Y405651D01*
X381349Y405675D01*
X381242Y405702D01*
X381138Y405738D01*
X381089Y405742D01*
X381041Y405754D01*
X380880Y405764D01*
X372717Y405764D01*
X372599Y405749D01*
X372480Y405742D01*
X372442Y405729D01*
X372401Y405724D01*
X372291Y405681D01*
X372178Y405644D01*
X372143Y405622D01*
X372106Y405607D01*
X372010Y405538D01*
X371909Y405474D01*
X371881Y405444D01*
X371848Y405421D01*
X371772Y405329D01*
X371691Y405242D01*
X371671Y405207D01*
X371646Y405176D01*
X371595Y405068D01*
X371537Y404964D01*
X371527Y404924D01*
X371510Y404888D01*
X371488Y404771D01*
X371458Y404656D01*
X371454Y404596D01*
X371450Y404576D01*
X371452Y404555D01*
X371448Y404495D01*
X371448Y401967D01*
X370485Y399643D01*
X368707Y397865D01*
X366383Y396902D01*
X366192Y396902D01*
X366142Y396896D01*
X366093Y396898D01*
X365985Y396876D01*
X365876Y396862D01*
X365830Y396844D01*
X365781Y396834D01*
X365683Y396786D01*
X365581Y396745D01*
X365540Y396716D01*
X365496Y396694D01*
X365412Y396623D01*
X365323Y396559D01*
X365292Y396520D01*
X365254Y396488D01*
X365190Y396398D01*
X365120Y396314D01*
X365099Y396269D01*
X365071Y396228D01*
X365032Y396125D01*
X364985Y396026D01*
X364976Y395977D01*
X364958Y395931D01*
X364946Y395821D01*
X364925Y395714D01*
X364928Y395664D01*
X364923Y395614D01*
X364938Y395506D01*
X364945Y395396D01*
X364960Y395349D01*
X364967Y395300D01*
X365019Y395147D01*
X365098Y394958D01*
X365098Y392442D01*
X364135Y390118D01*
X362957Y388941D01*
X362897Y388863D01*
X362829Y388790D01*
X362800Y388737D01*
X362763Y388690D01*
X362723Y388599D01*
X362675Y388512D01*
X362660Y388453D01*
X362636Y388398D01*
X362621Y388300D01*
X362596Y388204D01*
X362590Y388104D01*
X362586Y388084D01*
X362588Y388071D01*
X362586Y388043D01*
X362586Y220672D01*
X354003Y212089D01*
X259657Y212089D01*
X259559Y212077D01*
X259459Y212074D01*
X259401Y212057D01*
X259341Y212049D01*
X259249Y212013D01*
X259154Y211985D01*
X259102Y211955D01*
X259045Y211932D01*
X258965Y211874D01*
X258880Y211824D01*
X258805Y211758D01*
X258788Y211746D01*
X258780Y211736D01*
X258759Y211718D01*
X257489Y210447D01*
X257416Y210353D01*
X257337Y210264D01*
X257319Y210228D01*
X257294Y210196D01*
X257247Y210087D01*
X257193Y209981D01*
X257184Y209942D01*
X257168Y209904D01*
X257149Y209787D01*
X257123Y209671D01*
X257124Y209630D01*
X257118Y209590D01*
X257129Y209472D01*
X257133Y209353D01*
X257144Y209314D01*
X257148Y209274D01*
X257188Y209162D01*
X257221Y209047D01*
X257242Y209012D01*
X257255Y208974D01*
X257322Y208876D01*
X257383Y208773D01*
X257423Y208728D01*
X257434Y208711D01*
X257449Y208698D01*
X257489Y208652D01*
X258759Y207382D01*
X258837Y207322D01*
X258910Y207254D01*
X258963Y207225D01*
X259011Y207188D01*
X259101Y207148D01*
X259188Y207100D01*
X259247Y207085D01*
X259302Y207061D01*
X259400Y207046D01*
X259496Y207021D01*
X259596Y207015D01*
X259616Y207011D01*
X259629Y207013D01*
X259657Y207011D01*
X359846Y207011D01*
X359944Y207023D01*
X360043Y207026D01*
X360101Y207043D01*
X360161Y207051D01*
X360253Y207087D01*
X360349Y207115D01*
X360401Y207145D01*
X360457Y207168D01*
X360537Y207226D01*
X360622Y207276D01*
X360698Y207342D01*
X360714Y207354D01*
X360722Y207364D01*
X360743Y207382D01*
X367293Y213932D01*
X367353Y214010D01*
X367421Y214082D01*
X367450Y214135D01*
X367487Y214183D01*
X367527Y214274D01*
X367575Y214361D01*
X367590Y214419D01*
X367614Y214475D01*
X367629Y214573D01*
X367654Y214669D01*
X367660Y214769D01*
X367664Y214789D01*
X367662Y214801D01*
X367664Y214829D01*
X367664Y375343D01*
X367652Y375441D01*
X367649Y375541D01*
X367632Y375599D01*
X367624Y375659D01*
X367588Y375751D01*
X367560Y375846D01*
X367530Y375898D01*
X367507Y375955D01*
X367449Y376035D01*
X367399Y376120D01*
X367333Y376195D01*
X367321Y376212D01*
X367311Y376220D01*
X367293Y376241D01*
X366115Y377418D01*
X365152Y379742D01*
X365152Y382258D01*
X366115Y384582D01*
X367893Y386360D01*
X370217Y387323D01*
X372733Y387323D01*
X375057Y386360D01*
X376835Y384582D01*
X377798Y382258D01*
X377798Y379742D01*
X376835Y377418D01*
X375657Y376241D01*
X375597Y376163D01*
X375529Y376090D01*
X375500Y376037D01*
X375463Y375990D01*
X375423Y375899D01*
X375375Y375812D01*
X375360Y375753D01*
X375336Y375698D01*
X375321Y375600D01*
X375296Y375504D01*
X375290Y375404D01*
X375286Y375384D01*
X375288Y375371D01*
X375286Y375343D01*
X375286Y211147D01*
X363528Y199389D01*
X259657Y199389D01*
X259559Y199377D01*
X259459Y199374D01*
X259401Y199357D01*
X259341Y199349D01*
X259249Y199313D01*
X259154Y199285D01*
X259102Y199255D01*
X259045Y199232D01*
X258965Y199174D01*
X258880Y199124D01*
X258805Y199058D01*
X258788Y199046D01*
X258780Y199036D01*
X258759Y199018D01*
X257582Y197840D01*
X255258Y196877D01*
X252742Y196877D01*
X250397Y197849D01*
X250343Y197891D01*
X250236Y197980D01*
X250217Y197988D01*
X250201Y198001D01*
X250073Y198056D01*
X249948Y198115D01*
X249928Y198119D01*
X249909Y198127D01*
X249772Y198149D01*
X249635Y198175D01*
X249615Y198174D01*
X249595Y198177D01*
X249457Y198164D01*
X249318Y198155D01*
X249299Y198149D01*
X249279Y198147D01*
X249147Y198100D01*
X249016Y198057D01*
X248999Y198046D01*
X248979Y198040D01*
X248865Y197962D01*
X248747Y197887D01*
X248733Y197872D01*
X248716Y197861D01*
X248625Y197757D01*
X248529Y197655D01*
X248519Y197638D01*
X248506Y197623D01*
X248443Y197499D01*
X248375Y197377D01*
X248370Y197358D01*
X248361Y197339D01*
X248331Y197203D01*
X248296Y197069D01*
X248294Y197041D01*
X248291Y197029D01*
X248292Y197009D01*
X248286Y196908D01*
X248286Y100907D01*
X248298Y100809D01*
X248301Y100709D01*
X248318Y100651D01*
X248326Y100591D01*
X248362Y100499D01*
X248390Y100404D01*
X248420Y100352D01*
X248443Y100295D01*
X248501Y100215D01*
X248551Y100130D01*
X248617Y100055D01*
X248629Y100038D01*
X248639Y100030D01*
X248657Y100009D01*
X249835Y98832D01*
X250798Y96508D01*
X250798Y93992D01*
X249835Y91668D01*
X248057Y89890D01*
X245733Y88927D01*
X243217Y88927D01*
X240893Y89890D01*
X239115Y91668D01*
X238152Y93992D01*
X238152Y96508D01*
X239115Y98832D01*
X240293Y100009D01*
X240353Y100087D01*
X240421Y100160D01*
X240450Y100213D01*
X240487Y100260D01*
X240527Y100351D01*
X240575Y100438D01*
X240590Y100497D01*
X240614Y100552D01*
X240629Y100650D01*
X240654Y100746D01*
X240660Y100846D01*
X240664Y100866D01*
X240662Y100879D01*
X240664Y100907D01*
X240664Y245168D01*
X240652Y245266D01*
X240649Y245366D01*
X240632Y245424D01*
X240624Y245484D01*
X240588Y245576D01*
X240560Y245671D01*
X240530Y245723D01*
X240507Y245780D01*
X240449Y245860D01*
X240399Y245945D01*
X240333Y246020D01*
X240321Y246037D01*
X240311Y246045D01*
X240293Y246066D01*
X239115Y247243D01*
X238152Y249567D01*
X238152Y252083D01*
X239115Y254407D01*
X240893Y256185D01*
X243217Y257148D01*
X245733Y257148D01*
X248057Y256185D01*
X249835Y254407D01*
X250798Y252083D01*
X250798Y249567D01*
X249835Y247243D01*
X248657Y246066D01*
X248597Y245988D01*
X248529Y245915D01*
X248500Y245862D01*
X248463Y245815D01*
X248423Y245724D01*
X248375Y245637D01*
X248360Y245578D01*
X248336Y245523D01*
X248321Y245425D01*
X248296Y245329D01*
X248290Y245229D01*
X248286Y245209D01*
X248288Y245196D01*
X248286Y245168D01*
X248286Y222192D01*
X248303Y222054D01*
X248316Y221915D01*
X248323Y221896D01*
X248326Y221876D01*
X248377Y221747D01*
X248424Y221616D01*
X248435Y221599D01*
X248443Y221580D01*
X248524Y221468D01*
X248602Y221353D01*
X248618Y221339D01*
X248629Y221323D01*
X248737Y221234D01*
X248841Y221142D01*
X248859Y221133D01*
X248874Y221120D01*
X249000Y221061D01*
X249124Y220998D01*
X249144Y220993D01*
X249162Y220985D01*
X249298Y220959D01*
X249434Y220928D01*
X249455Y220929D01*
X249474Y220925D01*
X249613Y220934D01*
X249752Y220938D01*
X249772Y220943D01*
X249792Y220945D01*
X249924Y220987D01*
X250058Y221026D01*
X250075Y221037D01*
X250094Y221043D01*
X250212Y221117D01*
X250332Y221188D01*
X250353Y221206D01*
X250363Y221213D01*
X250377Y221228D01*
X250410Y221257D01*
X252742Y222223D01*
X255258Y222223D01*
X257582Y221260D01*
X258759Y220082D01*
X258837Y220022D01*
X258910Y219954D01*
X258963Y219925D01*
X259010Y219888D01*
X259101Y219848D01*
X259188Y219800D01*
X259247Y219785D01*
X259302Y219761D01*
X259400Y219746D01*
X259496Y219721D01*
X259596Y219715D01*
X259616Y219711D01*
X259629Y219713D01*
X259657Y219711D01*
X350321Y219711D01*
X350419Y219723D01*
X350518Y219726D01*
X350576Y219743D01*
X350636Y219751D01*
X350728Y219787D01*
X350824Y219815D01*
X350876Y219845D01*
X350932Y219868D01*
X351012Y219926D01*
X351097Y219976D01*
X351173Y220042D01*
X351189Y220054D01*
X351197Y220064D01*
X351218Y220082D01*
X354593Y223457D01*
X354653Y223535D01*
X354721Y223607D01*
X354750Y223660D01*
X354787Y223708D01*
X354827Y223799D01*
X354875Y223886D01*
X354890Y223944D01*
X354914Y224000D01*
X354929Y224098D01*
X354954Y224194D01*
X354960Y224294D01*
X354964Y224314D01*
X354962Y224326D01*
X354964Y224354D01*
X354964Y295333D01*
X354947Y295471D01*
X354934Y295610D01*
X354927Y295629D01*
X354924Y295649D01*
X354873Y295778D01*
X354826Y295909D01*
X354815Y295926D01*
X354807Y295945D01*
X354726Y296057D01*
X354648Y296172D01*
X354632Y296186D01*
X354621Y296202D01*
X354513Y296291D01*
X354409Y296383D01*
X354391Y296392D01*
X354376Y296405D01*
X354250Y296464D01*
X354126Y296527D01*
X354106Y296532D01*
X354088Y296540D01*
X353952Y296566D01*
X353816Y296597D01*
X353795Y296596D01*
X353776Y296600D01*
X353637Y296591D01*
X353498Y296587D01*
X353478Y296582D01*
X353458Y296580D01*
X353326Y296538D01*
X353192Y296499D01*
X353175Y296488D01*
X353156Y296482D01*
X353038Y296408D01*
X352918Y296337D01*
X352897Y296319D01*
X352887Y296312D01*
X352873Y296297D01*
X352840Y296268D01*
X350508Y295302D01*
X347992Y295302D01*
X345668Y296265D01*
X343890Y298043D01*
X342927Y300367D01*
X342927Y302883D01*
X343890Y305207D01*
X344306Y305622D01*
X344366Y305700D01*
X344434Y305773D01*
X344463Y305826D01*
X344500Y305873D01*
X344540Y305964D01*
X344588Y306051D01*
X344603Y306110D01*
X344627Y306165D01*
X344642Y306263D01*
X344667Y306359D01*
X344673Y306459D01*
X344677Y306479D01*
X344675Y306492D01*
X344677Y306520D01*
X344677Y336443D01*
X344669Y336512D01*
X344670Y336582D01*
X344649Y336669D01*
X344637Y336758D01*
X344612Y336823D01*
X344595Y336891D01*
X344553Y336971D01*
X344520Y337054D01*
X344479Y337111D01*
X344447Y337172D01*
X344386Y337239D01*
X344334Y337312D01*
X344280Y337356D01*
X344233Y337408D01*
X344158Y337457D01*
X344089Y337514D01*
X344025Y337544D01*
X343967Y337582D01*
X343882Y337612D01*
X343801Y337650D01*
X343732Y337663D01*
X343666Y337686D01*
X343577Y337693D01*
X343489Y337710D01*
X343419Y337705D01*
X343349Y337711D01*
X343261Y337695D01*
X343171Y337690D01*
X343105Y337668D01*
X343036Y337656D01*
X342954Y337620D01*
X342869Y337592D01*
X342810Y337555D01*
X342746Y337526D01*
X342676Y337470D01*
X342600Y337422D01*
X342552Y337371D01*
X342498Y337327D01*
X342443Y337255D01*
X342382Y337190D01*
X342348Y337129D01*
X342306Y337073D01*
X342235Y336929D01*
X341910Y336143D01*
X340132Y334365D01*
X337808Y333402D01*
X335292Y333402D01*
X332968Y334365D01*
X331791Y335543D01*
X331713Y335603D01*
X331640Y335671D01*
X331587Y335700D01*
X331540Y335737D01*
X331449Y335777D01*
X331362Y335825D01*
X331303Y335840D01*
X331248Y335864D01*
X331150Y335879D01*
X331054Y335904D01*
X330954Y335910D01*
X330934Y335914D01*
X330921Y335912D01*
X330893Y335914D01*
X189807Y335914D01*
X189709Y335902D01*
X189609Y335899D01*
X189551Y335882D01*
X189491Y335874D01*
X189399Y335838D01*
X189304Y335810D01*
X189252Y335780D01*
X189195Y335757D01*
X189115Y335699D01*
X189030Y335649D01*
X188955Y335583D01*
X188938Y335571D01*
X188930Y335561D01*
X188909Y335543D01*
X187732Y334365D01*
X185408Y333402D01*
X182892Y333402D01*
X180568Y334365D01*
X178790Y336143D01*
X177827Y338467D01*
X177827Y340983D01*
X178631Y342922D01*
X178644Y342970D01*
X178665Y343015D01*
X178686Y343123D01*
X178715Y343229D01*
X178715Y343279D01*
X178725Y343328D01*
X178718Y343437D01*
X178720Y343547D01*
X178708Y343595D01*
X178705Y343645D01*
X178671Y343749D01*
X178646Y343856D01*
X178622Y343900D01*
X178607Y343947D01*
X178548Y344040D01*
X178497Y344137D01*
X178463Y344174D01*
X178437Y344216D01*
X178357Y344291D01*
X178283Y344373D01*
X178241Y344400D01*
X178205Y344434D01*
X178109Y344487D01*
X178017Y344547D01*
X177970Y344564D01*
X177927Y344588D01*
X177820Y344615D01*
X177716Y344651D01*
X177667Y344655D01*
X177619Y344667D01*
X177458Y344677D01*
X161170Y344677D01*
X161072Y344665D01*
X160973Y344662D01*
X160914Y344645D01*
X160854Y344637D01*
X160762Y344601D01*
X160667Y344573D01*
X160615Y344543D01*
X160559Y344520D01*
X160479Y344462D01*
X160393Y344412D01*
X160318Y344346D01*
X160301Y344334D01*
X160293Y344324D01*
X160272Y344306D01*
X154294Y338327D01*
X93356Y338327D01*
X86377Y345306D01*
X86377Y347465D01*
X86362Y347583D01*
X86355Y347702D01*
X86342Y347740D01*
X86337Y347781D01*
X86294Y347891D01*
X86257Y348004D01*
X86235Y348039D01*
X86220Y348076D01*
X86151Y348172D01*
X86087Y348273D01*
X86057Y348301D01*
X86034Y348334D01*
X85942Y348410D01*
X85855Y348491D01*
X85820Y348511D01*
X85789Y348536D01*
X85681Y348587D01*
X85577Y348645D01*
X85537Y348655D01*
X85501Y348672D01*
X85384Y348694D01*
X85269Y348724D01*
X85209Y348728D01*
X85189Y348732D01*
X85168Y348730D01*
X85108Y348734D01*
X83398Y348734D01*
X81909Y350223D01*
X81909Y352933D01*
X81894Y353051D01*
X81887Y353170D01*
X81874Y353208D01*
X81869Y353249D01*
X81826Y353359D01*
X81789Y353472D01*
X81767Y353507D01*
X81752Y353544D01*
X81683Y353640D01*
X81619Y353741D01*
X81589Y353769D01*
X81566Y353802D01*
X81474Y353878D01*
X81387Y353959D01*
X81352Y353979D01*
X81321Y354004D01*
X81213Y354055D01*
X81109Y354113D01*
X81069Y354123D01*
X81033Y354140D01*
X80916Y354162D01*
X80801Y354192D01*
X80741Y354196D01*
X80721Y354200D01*
X80700Y354198D01*
X80640Y354202D01*
X71570Y354202D01*
X71472Y354190D01*
X71372Y354187D01*
X71314Y354170D01*
X71254Y354162D01*
X71162Y354126D01*
X71067Y354098D01*
X71015Y354068D01*
X70958Y354045D01*
X70878Y353987D01*
X70793Y353937D01*
X70718Y353871D01*
X70701Y353859D01*
X70693Y353849D01*
X70672Y353831D01*
X70257Y353415D01*
X67933Y352452D01*
X65417Y352452D01*
X63093Y353415D01*
X61315Y355193D01*
X60352Y357517D01*
X60352Y360033D01*
X61315Y362357D01*
X63093Y364135D01*
X65417Y365098D01*
X67933Y365098D01*
X70257Y364135D01*
X70672Y363719D01*
X70750Y363659D01*
X70823Y363591D01*
X70876Y363562D01*
X70923Y363525D01*
X71014Y363485D01*
X71101Y363437D01*
X71160Y363422D01*
X71215Y363398D01*
X71313Y363383D01*
X71409Y363358D01*
X71509Y363352D01*
X71529Y363348D01*
X71542Y363350D01*
X71570Y363348D01*
X80640Y363348D01*
X80758Y363363D01*
X80877Y363370D01*
X80915Y363383D01*
X80956Y363388D01*
X81066Y363431D01*
X81179Y363468D01*
X81214Y363490D01*
X81251Y363505D01*
X81347Y363574D01*
X81448Y363638D01*
X81476Y363668D01*
X81509Y363691D01*
X81585Y363783D01*
X81666Y363870D01*
X81686Y363905D01*
X81711Y363936D01*
X81762Y364044D01*
X81820Y364148D01*
X81830Y364188D01*
X81847Y364224D01*
X81869Y364341D01*
X81899Y364456D01*
X81903Y364516D01*
X81907Y364536D01*
X81905Y364557D01*
X81909Y364617D01*
X81909Y365765D01*
X81894Y365883D01*
X81887Y366002D01*
X81874Y366040D01*
X81869Y366081D01*
X81826Y366191D01*
X81789Y366304D01*
X81767Y366339D01*
X81752Y366376D01*
X81683Y366472D01*
X81619Y366573D01*
X81589Y366601D01*
X81566Y366634D01*
X81474Y366710D01*
X81387Y366791D01*
X81352Y366811D01*
X81321Y366836D01*
X81213Y366887D01*
X81109Y366945D01*
X81069Y366955D01*
X81033Y366972D01*
X80916Y366994D01*
X80801Y367024D01*
X80741Y367028D01*
X80721Y367032D01*
X80700Y367030D01*
X80640Y367034D01*
X73248Y367034D01*
X71759Y368523D01*
X71759Y387127D01*
X73248Y388616D01*
X91852Y388616D01*
X93341Y387127D01*
X93341Y370085D01*
X93356Y369967D01*
X93363Y369848D01*
X93376Y369810D01*
X93381Y369769D01*
X93424Y369659D01*
X93461Y369546D01*
X93483Y369511D01*
X93498Y369474D01*
X93567Y369378D01*
X93631Y369277D01*
X93661Y369249D01*
X93684Y369216D01*
X93776Y369140D01*
X93863Y369059D01*
X93898Y369039D01*
X93929Y369014D01*
X94037Y368963D01*
X94141Y368905D01*
X94181Y368895D01*
X94217Y368878D01*
X94334Y368856D01*
X94449Y368826D01*
X94509Y368822D01*
X94529Y368818D01*
X94550Y368820D01*
X94610Y368816D01*
X98235Y368816D01*
X98373Y368833D01*
X98511Y368846D01*
X98530Y368853D01*
X98550Y368856D01*
X98679Y368907D01*
X98810Y368954D01*
X98827Y368965D01*
X98846Y368973D01*
X98958Y369054D01*
X99073Y369132D01*
X99087Y369148D01*
X99103Y369159D01*
X99192Y369267D01*
X99284Y369371D01*
X99293Y369389D01*
X99306Y369404D01*
X99365Y369530D01*
X99428Y369654D01*
X99433Y369674D01*
X99442Y369692D01*
X99468Y369829D01*
X99498Y369964D01*
X99498Y369985D01*
X99501Y370004D01*
X99493Y370143D01*
X99488Y370282D01*
X99483Y370302D01*
X99482Y370322D01*
X99439Y370454D01*
X99400Y370588D01*
X99390Y370605D01*
X99384Y370624D01*
X99309Y370742D01*
X99239Y370862D01*
X99220Y370883D01*
X99213Y370893D01*
X99198Y370907D01*
X99132Y370982D01*
X98402Y371713D01*
X96759Y375679D01*
X96759Y379971D01*
X98402Y383937D01*
X101438Y386973D01*
X105404Y388616D01*
X109696Y388616D01*
X113662Y386973D01*
X116698Y383937D01*
X118341Y379971D01*
X118341Y375679D01*
X116698Y371713D01*
X115549Y370564D01*
X115476Y370470D01*
X115398Y370381D01*
X115379Y370345D01*
X115354Y370313D01*
X115307Y370203D01*
X115253Y370097D01*
X115244Y370058D01*
X115228Y370021D01*
X115209Y369903D01*
X115183Y369787D01*
X115184Y369747D01*
X115178Y369707D01*
X115189Y369588D01*
X115193Y369469D01*
X115204Y369430D01*
X115208Y369390D01*
X115248Y369278D01*
X115281Y369164D01*
X115302Y369129D01*
X115316Y369091D01*
X115382Y368992D01*
X115443Y368890D01*
X115483Y368844D01*
X115494Y368828D01*
X115497Y368825D01*
X115497Y368824D01*
X115511Y368812D01*
X115549Y368769D01*
X115552Y368766D01*
X115647Y368693D01*
X115736Y368614D01*
X115772Y368596D01*
X115804Y368571D01*
X115913Y368523D01*
X116019Y368469D01*
X116058Y368460D01*
X116096Y368444D01*
X116213Y368426D01*
X116329Y368400D01*
X116370Y368401D01*
X116410Y368395D01*
X116528Y368406D01*
X116647Y368409D01*
X116686Y368421D01*
X116726Y368424D01*
X116839Y368465D01*
X116953Y368498D01*
X116987Y368518D01*
X117026Y368532D01*
X117124Y368599D01*
X117227Y368659D01*
X117272Y368699D01*
X117289Y368711D01*
X117302Y368726D01*
X117347Y368766D01*
X117398Y368816D01*
X132502Y368816D01*
X133991Y367327D01*
X133991Y364617D01*
X134006Y364499D01*
X134013Y364380D01*
X134026Y364342D01*
X134031Y364301D01*
X134074Y364191D01*
X134111Y364078D01*
X134133Y364043D01*
X134148Y364006D01*
X134217Y363910D01*
X134281Y363809D01*
X134311Y363781D01*
X134334Y363748D01*
X134426Y363672D01*
X134513Y363591D01*
X134548Y363571D01*
X134579Y363546D01*
X134687Y363495D01*
X134791Y363437D01*
X134831Y363427D01*
X134867Y363410D01*
X134984Y363388D01*
X135099Y363358D01*
X135159Y363354D01*
X135179Y363350D01*
X135200Y363352D01*
X135260Y363348D01*
X197605Y363348D01*
X197703Y363360D01*
X197802Y363363D01*
X197861Y363380D01*
X197921Y363388D01*
X198013Y363424D01*
X198108Y363452D01*
X198160Y363482D01*
X198216Y363505D01*
X198296Y363563D01*
X198382Y363613D01*
X198457Y363679D01*
X198474Y363691D01*
X198482Y363701D01*
X198503Y363719D01*
X204606Y369822D01*
X204666Y369901D01*
X204734Y369973D01*
X204763Y370026D01*
X204800Y370074D01*
X204840Y370165D01*
X204888Y370251D01*
X204903Y370310D01*
X204927Y370365D01*
X204942Y370463D01*
X204967Y370559D01*
X204973Y370659D01*
X204977Y370680D01*
X204975Y370692D01*
X204977Y370720D01*
X204977Y395594D01*
X210956Y401572D01*
X212981Y403598D01*
X213066Y403707D01*
X213155Y403814D01*
X213163Y403833D01*
X213176Y403849D01*
X213231Y403977D01*
X213290Y404102D01*
X213294Y404122D01*
X213302Y404141D01*
X213324Y404279D01*
X213350Y404415D01*
X213349Y404435D01*
X213352Y404455D01*
X213339Y404594D01*
X213330Y404732D01*
X213324Y404751D01*
X213322Y404771D01*
X213275Y404903D01*
X213232Y405034D01*
X213221Y405052D01*
X213214Y405071D01*
X213136Y405186D01*
X213062Y405303D01*
X213047Y405317D01*
X213036Y405334D01*
X212932Y405426D01*
X212830Y405521D01*
X212813Y405531D01*
X212797Y405544D01*
X212673Y405608D01*
X212552Y405675D01*
X212532Y405680D01*
X212514Y405689D01*
X212378Y405719D01*
X212244Y405754D01*
X212216Y405756D01*
X212204Y405759D01*
X212183Y405758D01*
X212083Y405764D01*
X84147Y405764D01*
X78168Y411743D01*
X78090Y411803D01*
X78018Y411871D01*
X77965Y411900D01*
X77917Y411937D01*
X77826Y411977D01*
X77739Y412025D01*
X77681Y412040D01*
X77625Y412064D01*
X77527Y412079D01*
X77431Y412104D01*
X77331Y412110D01*
X77311Y412114D01*
X77299Y412112D01*
X77271Y412114D01*
X30172Y412114D01*
X25048Y417238D01*
X24970Y417298D01*
X24898Y417366D01*
X24845Y417395D01*
X24797Y417432D01*
X24706Y417472D01*
X24619Y417520D01*
X24561Y417535D01*
X24505Y417559D01*
X24407Y417574D01*
X24311Y417599D01*
X24211Y417605D01*
X24191Y417609D01*
X24179Y417607D01*
X24151Y417609D01*
X22523Y417609D01*
X21034Y419098D01*
X21034Y435202D01*
X22523Y436691D01*
X34627Y436691D01*
X36116Y435202D01*
X36116Y421005D01*
X36131Y420887D01*
X36138Y420768D01*
X36151Y420730D01*
X36156Y420689D01*
X36199Y420579D01*
X36236Y420466D01*
X36258Y420431D01*
X36273Y420394D01*
X36342Y420298D01*
X36406Y420197D01*
X36436Y420169D01*
X36459Y420136D01*
X36551Y420060D01*
X36638Y419979D01*
X36673Y419959D01*
X36704Y419934D01*
X36812Y419883D01*
X36916Y419825D01*
X36956Y419815D01*
X36992Y419798D01*
X37109Y419776D01*
X37224Y419746D01*
X37284Y419742D01*
X37304Y419738D01*
X37325Y419740D01*
X37385Y419736D01*
X80953Y419736D01*
X86932Y413757D01*
X87010Y413697D01*
X87082Y413629D01*
X87135Y413600D01*
X87183Y413563D01*
X87274Y413523D01*
X87361Y413475D01*
X87419Y413460D01*
X87475Y413436D01*
X87573Y413421D01*
X87669Y413396D01*
X87769Y413390D01*
X87789Y413386D01*
X87801Y413388D01*
X87829Y413386D01*
X109883Y413386D01*
X110001Y413401D01*
X110120Y413408D01*
X110158Y413421D01*
X110199Y413426D01*
X110309Y413469D01*
X110422Y413506D01*
X110457Y413528D01*
X110494Y413543D01*
X110590Y413612D01*
X110691Y413676D01*
X110719Y413706D01*
X110752Y413729D01*
X110828Y413821D01*
X110909Y413908D01*
X110929Y413943D01*
X110954Y413974D01*
X111005Y414082D01*
X111063Y414186D01*
X111073Y414226D01*
X111090Y414262D01*
X111112Y414379D01*
X111142Y414494D01*
X111146Y414554D01*
X111150Y414574D01*
X111148Y414595D01*
X111152Y414655D01*
X111152Y417409D01*
X112115Y419733D01*
X112531Y420148D01*
X112591Y420226D01*
X112659Y420299D01*
X112688Y420352D01*
X112725Y420399D01*
X112765Y420490D01*
X112813Y420577D01*
X112828Y420636D01*
X112852Y420691D01*
X112867Y420789D01*
X112892Y420885D01*
X112898Y420985D01*
X112902Y421005D01*
X112900Y421018D01*
X112902Y421046D01*
X112902Y438278D01*
X112885Y438416D01*
X112872Y438554D01*
X112865Y438573D01*
X112862Y438593D01*
X112811Y438722D01*
X112764Y438853D01*
X112753Y438870D01*
X112745Y438889D01*
X112664Y439001D01*
X112586Y439116D01*
X112570Y439130D01*
X112559Y439146D01*
X112451Y439235D01*
X112347Y439327D01*
X112329Y439336D01*
X112314Y439349D01*
X112188Y439408D01*
X112064Y439471D01*
X112044Y439476D01*
X112026Y439485D01*
X111889Y439511D01*
X111754Y439541D01*
X111733Y439541D01*
X111714Y439544D01*
X111575Y439536D01*
X111436Y439531D01*
X111416Y439526D01*
X111396Y439525D01*
X111264Y439482D01*
X111130Y439443D01*
X111113Y439433D01*
X111094Y439427D01*
X110976Y439352D01*
X110856Y439282D01*
X110835Y439263D01*
X110825Y439256D01*
X110811Y439241D01*
X110736Y439175D01*
X110087Y438527D01*
X106121Y436884D01*
X101829Y436884D01*
X97863Y438527D01*
X94827Y441563D01*
X93184Y445529D01*
X93184Y449821D01*
X94827Y453787D01*
X97863Y456823D01*
X101829Y458466D01*
X106121Y458466D01*
X110087Y456823D01*
X110736Y456175D01*
X110845Y456090D01*
X110952Y456001D01*
X110971Y455992D01*
X110987Y455980D01*
X111115Y455925D01*
X111240Y455865D01*
X111260Y455862D01*
X111279Y455854D01*
X111417Y455832D01*
X111553Y455806D01*
X111573Y455807D01*
X111593Y455804D01*
X111732Y455817D01*
X111870Y455825D01*
X111889Y455832D01*
X111909Y455834D01*
X112040Y455881D01*
X112172Y455923D01*
X112190Y455934D01*
X112209Y455941D01*
X112323Y456019D01*
X112441Y456094D01*
X112455Y456108D01*
X112472Y456120D01*
X112564Y456224D01*
X112659Y456325D01*
X112669Y456343D01*
X112682Y456358D01*
X112745Y456482D01*
X112813Y456604D01*
X112818Y456623D01*
X112827Y456641D01*
X112857Y456777D01*
X112892Y456912D01*
X112894Y456940D01*
X112897Y456952D01*
X112896Y456972D01*
X112902Y457072D01*
X112902Y457955D01*
X112890Y458053D01*
X112887Y458152D01*
X112870Y458211D01*
X112862Y458271D01*
X112826Y458363D01*
X112798Y458458D01*
X112768Y458510D01*
X112745Y458566D01*
X112687Y458646D01*
X112637Y458732D01*
X112571Y458807D01*
X112559Y458824D01*
X112549Y458832D01*
X112531Y458853D01*
X111353Y460031D01*
X111274Y460091D01*
X111202Y460159D01*
X111149Y460188D01*
X111101Y460225D01*
X111010Y460265D01*
X110924Y460313D01*
X110865Y460328D01*
X110810Y460352D01*
X110712Y460367D01*
X110616Y460392D01*
X110516Y460398D01*
X110495Y460402D01*
X110483Y460400D01*
X110455Y460402D01*
X109867Y460402D01*
X107543Y461365D01*
X105765Y463143D01*
X104802Y465467D01*
X104802Y467983D01*
X105331Y469258D01*
X105333Y469267D01*
X105338Y469275D01*
X105375Y469421D01*
X105415Y469565D01*
X105415Y469574D01*
X105417Y469583D01*
X105427Y469744D01*
X105427Y471290D01*
X105412Y471408D01*
X105405Y471527D01*
X105392Y471565D01*
X105387Y471606D01*
X105344Y471716D01*
X105307Y471829D01*
X105285Y471864D01*
X105270Y471901D01*
X105201Y471997D01*
X105137Y472098D01*
X105107Y472126D01*
X105084Y472159D01*
X104992Y472235D01*
X104905Y472316D01*
X104870Y472336D01*
X104839Y472361D01*
X104731Y472412D01*
X104627Y472470D01*
X104587Y472480D01*
X104551Y472497D01*
X104434Y472519D01*
X104319Y472549D01*
X104259Y472553D01*
X104239Y472557D01*
X104218Y472555D01*
X104158Y472559D01*
X102448Y472559D01*
X100959Y474048D01*
X100959Y490095D01*
X100944Y490213D01*
X100937Y490332D01*
X100924Y490370D01*
X100919Y490411D01*
X100876Y490521D01*
X100839Y490634D01*
X100817Y490669D01*
X100802Y490706D01*
X100733Y490802D01*
X100669Y490903D01*
X100639Y490931D01*
X100616Y490964D01*
X100524Y491040D01*
X100437Y491121D01*
X100402Y491141D01*
X100371Y491166D01*
X100263Y491217D01*
X100159Y491275D01*
X100119Y491285D01*
X100083Y491302D01*
X99966Y491324D01*
X99851Y491354D01*
X99791Y491358D01*
X99771Y491362D01*
X99750Y491360D01*
X99690Y491364D01*
X67442Y491364D01*
X67304Y491347D01*
X67165Y491334D01*
X67146Y491327D01*
X67126Y491324D01*
X66997Y491273D01*
X66866Y491226D01*
X66849Y491215D01*
X66831Y491207D01*
X66718Y491126D01*
X66603Y491048D01*
X66590Y491032D01*
X66573Y491021D01*
X66484Y490913D01*
X66393Y490809D01*
X66383Y490791D01*
X66370Y490776D01*
X66311Y490650D01*
X66248Y490526D01*
X66243Y490506D01*
X66235Y490488D01*
X66209Y490351D01*
X66178Y490216D01*
X66179Y490195D01*
X66175Y490176D01*
X66184Y490037D01*
X66188Y489898D01*
X66194Y489878D01*
X66195Y489858D01*
X66238Y489726D01*
X66276Y489592D01*
X66287Y489575D01*
X66293Y489556D01*
X66367Y489438D01*
X66438Y489318D01*
X66456Y489297D01*
X66463Y489287D01*
X66478Y489273D01*
X66544Y489198D01*
X68073Y487669D01*
X68073Y484385D01*
X68088Y484267D01*
X68095Y484148D01*
X68108Y484110D01*
X68113Y484069D01*
X68156Y483959D01*
X68193Y483846D01*
X68215Y483811D01*
X68230Y483774D01*
X68299Y483678D01*
X68363Y483577D01*
X68393Y483549D01*
X68416Y483516D01*
X68508Y483440D01*
X68595Y483359D01*
X68630Y483339D01*
X68661Y483314D01*
X68769Y483263D01*
X68873Y483205D01*
X68913Y483195D01*
X68949Y483178D01*
X69066Y483156D01*
X69181Y483126D01*
X69241Y483122D01*
X69261Y483118D01*
X69282Y483120D01*
X69342Y483116D01*
X71077Y483116D01*
X72128Y482066D01*
X72222Y481993D01*
X72311Y481914D01*
X72347Y481896D01*
X72379Y481871D01*
X72488Y481823D01*
X72594Y481769D01*
X72633Y481760D01*
X72671Y481744D01*
X72788Y481726D01*
X72904Y481700D01*
X72945Y481701D01*
X72985Y481695D01*
X73103Y481706D01*
X73222Y481709D01*
X73261Y481721D01*
X73301Y481724D01*
X73413Y481765D01*
X73528Y481798D01*
X73563Y481818D01*
X73601Y481832D01*
X73699Y481899D01*
X73802Y481959D01*
X73847Y481999D01*
X73864Y482011D01*
X73877Y482026D01*
X73923Y482066D01*
X74973Y483116D01*
X90077Y483116D01*
X91566Y481627D01*
X91566Y464523D01*
X90077Y463034D01*
X88367Y463034D01*
X88249Y463019D01*
X88130Y463012D01*
X88092Y462999D01*
X88051Y462994D01*
X87941Y462951D01*
X87828Y462914D01*
X87793Y462892D01*
X87756Y462877D01*
X87660Y462808D01*
X87559Y462744D01*
X87531Y462714D01*
X87498Y462691D01*
X87422Y462599D01*
X87341Y462512D01*
X87321Y462477D01*
X87296Y462446D01*
X87245Y462338D01*
X87187Y462234D01*
X87177Y462194D01*
X87160Y462158D01*
X87138Y462041D01*
X87108Y461926D01*
X87104Y461866D01*
X87100Y461846D01*
X87102Y461825D01*
X87098Y461765D01*
X87098Y455338D01*
X87110Y455240D01*
X87113Y455141D01*
X87130Y455083D01*
X87138Y455023D01*
X87174Y454931D01*
X87202Y454836D01*
X87232Y454784D01*
X87255Y454727D01*
X87313Y454647D01*
X87363Y454562D01*
X87429Y454486D01*
X87441Y454470D01*
X87451Y454462D01*
X87469Y454441D01*
X88123Y453787D01*
X89766Y449821D01*
X89766Y445529D01*
X88123Y441563D01*
X85087Y438527D01*
X81121Y436884D01*
X76829Y436884D01*
X72863Y438527D01*
X69827Y441563D01*
X68184Y445529D01*
X68184Y449821D01*
X69827Y453787D01*
X72863Y456823D01*
X76876Y458485D01*
X76920Y458488D01*
X76958Y458501D01*
X76999Y458506D01*
X77109Y458549D01*
X77222Y458586D01*
X77257Y458608D01*
X77294Y458623D01*
X77390Y458692D01*
X77491Y458756D01*
X77519Y458786D01*
X77552Y458809D01*
X77628Y458901D01*
X77709Y458988D01*
X77729Y459023D01*
X77754Y459054D01*
X77805Y459162D01*
X77863Y459266D01*
X77873Y459306D01*
X77890Y459342D01*
X77912Y459459D01*
X77942Y459574D01*
X77946Y459634D01*
X77950Y459654D01*
X77948Y459675D01*
X77952Y459735D01*
X77952Y461765D01*
X77937Y461883D01*
X77930Y462002D01*
X77917Y462040D01*
X77912Y462081D01*
X77869Y462191D01*
X77832Y462304D01*
X77810Y462339D01*
X77795Y462376D01*
X77726Y462472D01*
X77662Y462573D01*
X77632Y462601D01*
X77609Y462634D01*
X77517Y462710D01*
X77430Y462791D01*
X77395Y462811D01*
X77364Y462836D01*
X77256Y462887D01*
X77152Y462945D01*
X77112Y462955D01*
X77076Y462972D01*
X76959Y462994D01*
X76844Y463024D01*
X76784Y463028D01*
X76764Y463032D01*
X76743Y463030D01*
X76683Y463034D01*
X74973Y463034D01*
X73923Y464084D01*
X73828Y464157D01*
X73739Y464236D01*
X73703Y464255D01*
X73671Y464279D01*
X73562Y464327D01*
X73456Y464381D01*
X73417Y464390D01*
X73379Y464406D01*
X73262Y464424D01*
X73146Y464450D01*
X73105Y464449D01*
X73065Y464455D01*
X72947Y464444D01*
X72828Y464441D01*
X72789Y464429D01*
X72749Y464426D01*
X72636Y464385D01*
X72522Y464352D01*
X72488Y464332D01*
X72449Y464318D01*
X72351Y464251D01*
X72248Y464191D01*
X72203Y464151D01*
X72186Y464139D01*
X72173Y464124D01*
X72128Y464084D01*
X71077Y463034D01*
X55973Y463034D01*
X54484Y464523D01*
X54484Y481627D01*
X55067Y482211D01*
X55152Y482320D01*
X55241Y482427D01*
X55250Y482446D01*
X55262Y482462D01*
X55318Y482589D01*
X55377Y482715D01*
X55381Y482735D01*
X55389Y482754D01*
X55411Y482892D01*
X55437Y483028D01*
X55435Y483048D01*
X55439Y483068D01*
X55425Y483207D01*
X55417Y483345D01*
X55411Y483364D01*
X55409Y483384D01*
X55362Y483515D01*
X55319Y483647D01*
X55308Y483665D01*
X55301Y483684D01*
X55223Y483799D01*
X55149Y483916D01*
X55134Y483930D01*
X55123Y483947D01*
X55018Y484039D01*
X54917Y484134D01*
X54899Y484144D01*
X54884Y484157D01*
X54760Y484220D01*
X54639Y484288D01*
X54619Y484293D01*
X54601Y484302D01*
X54465Y484332D01*
X54331Y484367D01*
X54303Y484369D01*
X54291Y484372D01*
X54270Y484371D01*
X54170Y484377D01*
X47430Y484377D01*
X47292Y484360D01*
X47154Y484347D01*
X47135Y484340D01*
X47115Y484337D01*
X46985Y484286D01*
X46854Y484239D01*
X46838Y484228D01*
X46819Y484220D01*
X46706Y484139D01*
X46591Y484061D01*
X46578Y484045D01*
X46562Y484034D01*
X46473Y483926D01*
X46381Y483822D01*
X46372Y483804D01*
X46359Y483789D01*
X46299Y483663D01*
X46236Y483539D01*
X46232Y483519D01*
X46223Y483501D01*
X46197Y483364D01*
X46167Y483229D01*
X46167Y483208D01*
X46163Y483189D01*
X46172Y483050D01*
X46176Y482911D01*
X46182Y482891D01*
X46183Y482871D01*
X46226Y482739D01*
X46265Y482605D01*
X46275Y482588D01*
X46281Y482569D01*
X46355Y482451D01*
X46426Y482331D01*
X46445Y482310D01*
X46451Y482300D01*
X46466Y482286D01*
X46533Y482210D01*
X46608Y482135D01*
X46943Y481556D01*
X47116Y480909D01*
X47116Y475614D01*
X39345Y475614D01*
X39227Y475599D01*
X39108Y475592D01*
X39070Y475579D01*
X39030Y475574D01*
X38919Y475530D01*
X38806Y475494D01*
X38771Y475472D01*
X38734Y475457D01*
X38638Y475387D01*
X38537Y475324D01*
X38509Y475294D01*
X38477Y475270D01*
X38401Y475179D01*
X38319Y475092D01*
X38300Y475057D01*
X38274Y475025D01*
X38223Y474918D01*
X38166Y474814D01*
X38155Y474774D01*
X38138Y474738D01*
X38116Y474621D01*
X38086Y474506D01*
X38082Y474445D01*
X38078Y474425D01*
X38080Y474405D01*
X38076Y474345D01*
X38076Y473074D01*
X36805Y473074D01*
X36687Y473059D01*
X36568Y473052D01*
X36530Y473039D01*
X36490Y473034D01*
X36379Y472990D01*
X36266Y472954D01*
X36231Y472932D01*
X36194Y472917D01*
X36098Y472847D01*
X35997Y472784D01*
X35969Y472754D01*
X35936Y472730D01*
X35861Y472639D01*
X35779Y472552D01*
X35759Y472517D01*
X35734Y472485D01*
X35683Y472378D01*
X35625Y472274D01*
X35615Y472234D01*
X35598Y472198D01*
X35576Y472081D01*
X35546Y471966D01*
X35542Y471905D01*
X35538Y471885D01*
X35540Y471865D01*
X35536Y471805D01*
X35536Y463034D01*
X31241Y463034D01*
X30594Y463207D01*
X30015Y463542D01*
X29473Y464084D01*
X29378Y464157D01*
X29289Y464236D01*
X29253Y464255D01*
X29221Y464279D01*
X29112Y464327D01*
X29006Y464381D01*
X28967Y464390D01*
X28929Y464406D01*
X28811Y464424D01*
X28696Y464450D01*
X28655Y464449D01*
X28615Y464456D01*
X28497Y464444D01*
X28378Y464441D01*
X28339Y464429D01*
X28299Y464426D01*
X28187Y464385D01*
X28072Y464352D01*
X28037Y464332D01*
X27999Y464318D01*
X27901Y464251D01*
X27798Y464191D01*
X27753Y464151D01*
X27736Y464140D01*
X27723Y464124D01*
X27678Y464084D01*
X26627Y463034D01*
X24917Y463034D01*
X24799Y463019D01*
X24680Y463012D01*
X24642Y462999D01*
X24601Y462994D01*
X24491Y462951D01*
X24378Y462914D01*
X24343Y462892D01*
X24306Y462877D01*
X24210Y462808D01*
X24109Y462744D01*
X24081Y462714D01*
X24048Y462691D01*
X23972Y462599D01*
X23891Y462512D01*
X23871Y462477D01*
X23846Y462446D01*
X23795Y462338D01*
X23737Y462234D01*
X23727Y462194D01*
X23710Y462158D01*
X23688Y462041D01*
X23658Y461926D01*
X23654Y461866D01*
X23650Y461846D01*
X23652Y461825D01*
X23648Y461765D01*
X23648Y459960D01*
X23663Y459842D01*
X23670Y459723D01*
X23683Y459685D01*
X23688Y459644D01*
X23731Y459534D01*
X23768Y459421D01*
X23790Y459386D01*
X23805Y459349D01*
X23875Y459252D01*
X23938Y459152D01*
X23968Y459124D01*
X23991Y459091D01*
X24083Y459015D01*
X24170Y458934D01*
X24205Y458914D01*
X24236Y458889D01*
X24344Y458838D01*
X24448Y458780D01*
X24488Y458770D01*
X24524Y458753D01*
X24641Y458731D01*
X24756Y458701D01*
X24816Y458697D01*
X24836Y458693D01*
X24857Y458695D01*
X24917Y458691D01*
X25127Y458691D01*
X26616Y457202D01*
X26616Y441098D01*
X25127Y439609D01*
X13023Y439609D01*
X12327Y440304D01*
X12218Y440389D01*
X12111Y440478D01*
X12092Y440487D01*
X12076Y440499D01*
X11949Y440555D01*
X11823Y440614D01*
X11803Y440618D01*
X11784Y440626D01*
X11646Y440648D01*
X11510Y440674D01*
X11490Y440672D01*
X11470Y440676D01*
X11331Y440662D01*
X11193Y440654D01*
X11174Y440648D01*
X11154Y440646D01*
X11022Y440599D01*
X10891Y440556D01*
X10873Y440545D01*
X10854Y440538D01*
X10739Y440460D01*
X10622Y440386D01*
X10608Y440371D01*
X10591Y440360D01*
X10499Y440255D01*
X10404Y440154D01*
X10394Y440136D01*
X10381Y440121D01*
X10318Y439997D01*
X10250Y439876D01*
X10245Y439856D01*
X10236Y439838D01*
X10206Y439702D01*
X10171Y439568D01*
X10169Y439540D01*
X10166Y439528D01*
X10167Y439507D01*
X10161Y439407D01*
X10161Y281305D01*
X10176Y281187D01*
X10183Y281068D01*
X10196Y281030D01*
X10201Y280989D01*
X10244Y280879D01*
X10281Y280766D01*
X10303Y280731D01*
X10318Y280694D01*
X10387Y280598D01*
X10451Y280497D01*
X10481Y280469D01*
X10504Y280436D01*
X10596Y280360D01*
X10683Y280279D01*
X10718Y280259D01*
X10749Y280234D01*
X10857Y280183D01*
X10961Y280125D01*
X11001Y280115D01*
X11037Y280098D01*
X11154Y280076D01*
X11269Y280046D01*
X11329Y280042D01*
X11349Y280038D01*
X11370Y280040D01*
X11430Y280036D01*
X87303Y280036D01*
X89536Y277803D01*
X89536Y119072D01*
X87303Y116839D01*
X11430Y116839D01*
X11312Y116824D01*
X11193Y116817D01*
X11155Y116804D01*
X11114Y116799D01*
X11004Y116756D01*
X10891Y116719D01*
X10856Y116697D01*
X10819Y116682D01*
X10723Y116613D01*
X10622Y116549D01*
X10594Y116519D01*
X10561Y116496D01*
X10485Y116404D01*
X10404Y116317D01*
X10384Y116282D01*
X10359Y116251D01*
X10308Y116143D01*
X10250Y116039D01*
X10240Y115999D01*
X10223Y115963D01*
X10201Y115846D01*
X10171Y115731D01*
X10167Y115671D01*
X10163Y115651D01*
X10165Y115630D01*
X10161Y115570D01*
X10161Y11430D01*
X10176Y11312D01*
X10183Y11193D01*
X10196Y11155D01*
X10201Y11114D01*
X10244Y11004D01*
X10281Y10891D01*
X10303Y10856D01*
X10318Y10819D01*
X10387Y10723D01*
X10451Y10622D01*
X10481Y10594D01*
X10504Y10561D01*
X10596Y10485D01*
X10683Y10404D01*
X10718Y10384D01*
X10749Y10359D01*
X10857Y10308D01*
X10961Y10250D01*
X11001Y10240D01*
X11037Y10223D01*
X11154Y10201D01*
X11269Y10171D01*
X11329Y10167D01*
X11349Y10163D01*
X11370Y10165D01*
X11430Y10161D01*
X1077395Y10161D01*
X1077513Y10176D01*
G37*
G36*
X766563Y254651D02*
X766563Y254651D01*
X766682Y254658D01*
X766720Y254671D01*
X766761Y254676D01*
X766871Y254719D01*
X766984Y254756D01*
X767019Y254778D01*
X767056Y254793D01*
X767152Y254862D01*
X767253Y254926D01*
X767281Y254956D01*
X767314Y254979D01*
X767390Y255071D01*
X767471Y255158D01*
X767491Y255193D01*
X767516Y255224D01*
X767567Y255332D01*
X767625Y255436D01*
X767635Y255476D01*
X767652Y255512D01*
X767674Y255629D01*
X767704Y255744D01*
X767708Y255804D01*
X767712Y255824D01*
X767710Y255845D01*
X767714Y255905D01*
X767714Y423346D01*
X767702Y423444D01*
X767699Y423543D01*
X767682Y423601D01*
X767674Y423661D01*
X767638Y423753D01*
X767610Y423849D01*
X767580Y423901D01*
X767557Y423957D01*
X767499Y424037D01*
X767449Y424122D01*
X767383Y424198D01*
X767371Y424214D01*
X767361Y424222D01*
X767343Y424243D01*
X763968Y427618D01*
X763890Y427678D01*
X763818Y427746D01*
X763765Y427775D01*
X763717Y427812D01*
X763626Y427852D01*
X763539Y427900D01*
X763481Y427915D01*
X763425Y427939D01*
X763327Y427954D01*
X763231Y427979D01*
X763131Y427985D01*
X763111Y427989D01*
X763099Y427987D01*
X763071Y427989D01*
X697807Y427989D01*
X697709Y427977D01*
X697609Y427974D01*
X697551Y427957D01*
X697491Y427949D01*
X697399Y427913D01*
X697304Y427885D01*
X697252Y427855D01*
X697195Y427832D01*
X697115Y427774D01*
X697030Y427724D01*
X696955Y427658D01*
X696938Y427646D01*
X696930Y427636D01*
X696909Y427618D01*
X695732Y426440D01*
X693408Y425477D01*
X690892Y425477D01*
X688568Y426440D01*
X686790Y428218D01*
X685827Y430542D01*
X685827Y433058D01*
X686790Y435382D01*
X688661Y437253D01*
X688734Y437347D01*
X688813Y437436D01*
X688831Y437472D01*
X688856Y437504D01*
X688903Y437613D01*
X688957Y437719D01*
X688966Y437758D01*
X688982Y437796D01*
X689001Y437913D01*
X689027Y438029D01*
X689026Y438070D01*
X689032Y438110D01*
X689021Y438228D01*
X689017Y438347D01*
X689006Y438386D01*
X689002Y438426D01*
X688962Y438538D01*
X688929Y438653D01*
X688908Y438688D01*
X688895Y438726D01*
X688828Y438824D01*
X688767Y438927D01*
X688727Y438972D01*
X688716Y438989D01*
X688701Y439002D01*
X688661Y439048D01*
X686790Y440918D01*
X685827Y443242D01*
X685827Y445758D01*
X686799Y448103D01*
X686841Y448157D01*
X686930Y448264D01*
X686938Y448283D01*
X686951Y448299D01*
X687006Y448427D01*
X687065Y448552D01*
X687069Y448572D01*
X687077Y448591D01*
X687099Y448728D01*
X687125Y448865D01*
X687124Y448885D01*
X687127Y448905D01*
X687114Y449043D01*
X687105Y449182D01*
X687099Y449201D01*
X687097Y449221D01*
X687050Y449353D01*
X687007Y449484D01*
X686996Y449501D01*
X686990Y449521D01*
X686912Y449635D01*
X686837Y449753D01*
X686822Y449767D01*
X686811Y449784D01*
X686707Y449875D01*
X686605Y449971D01*
X686588Y449981D01*
X686573Y449994D01*
X686449Y450057D01*
X686327Y450125D01*
X686308Y450130D01*
X686289Y450139D01*
X686153Y450169D01*
X686019Y450204D01*
X685991Y450206D01*
X685979Y450209D01*
X685959Y450208D01*
X685858Y450214D01*
X666692Y450214D01*
X666554Y450197D01*
X666415Y450184D01*
X666396Y450177D01*
X666376Y450174D01*
X666247Y450123D01*
X666116Y450076D01*
X666099Y450065D01*
X666080Y450057D01*
X665968Y449976D01*
X665853Y449898D01*
X665839Y449882D01*
X665823Y449871D01*
X665734Y449763D01*
X665642Y449659D01*
X665633Y449641D01*
X665620Y449626D01*
X665561Y449500D01*
X665498Y449376D01*
X665493Y449356D01*
X665485Y449338D01*
X665459Y449202D01*
X665428Y449066D01*
X665429Y449045D01*
X665425Y449026D01*
X665434Y448887D01*
X665438Y448748D01*
X665443Y448728D01*
X665445Y448708D01*
X665487Y448576D01*
X665526Y448442D01*
X665537Y448425D01*
X665543Y448406D01*
X665617Y448288D01*
X665688Y448168D01*
X665706Y448147D01*
X665713Y448137D01*
X665728Y448123D01*
X665757Y448090D01*
X666723Y445758D01*
X666723Y443242D01*
X665760Y440918D01*
X663982Y439140D01*
X661658Y438177D01*
X659142Y438177D01*
X656784Y439154D01*
X656760Y439176D01*
X656707Y439205D01*
X656660Y439242D01*
X656569Y439282D01*
X656482Y439330D01*
X656423Y439345D01*
X656368Y439369D01*
X656270Y439384D01*
X656174Y439409D01*
X656074Y439415D01*
X656054Y439419D01*
X656042Y439417D01*
X656013Y439419D01*
X506989Y439419D01*
X505122Y440193D01*
X502126Y443189D01*
X502125Y443189D01*
X500518Y444797D01*
X499946Y446177D01*
X499921Y446221D01*
X499905Y446267D01*
X499843Y446358D01*
X499788Y446454D01*
X499754Y446489D01*
X499726Y446530D01*
X499644Y446603D01*
X499567Y446682D01*
X499525Y446708D01*
X499488Y446741D01*
X499390Y446791D01*
X499296Y446848D01*
X499249Y446863D01*
X499204Y446886D01*
X499097Y446910D01*
X498992Y446942D01*
X498942Y446944D01*
X498894Y446955D01*
X498784Y446952D01*
X498674Y446957D01*
X498626Y446947D01*
X498576Y446946D01*
X498471Y446915D01*
X498363Y446893D01*
X498318Y446871D01*
X498271Y446857D01*
X498176Y446801D01*
X498077Y446753D01*
X498039Y446721D01*
X497997Y446696D01*
X497876Y446589D01*
X497305Y446018D01*
X493944Y444626D01*
X490306Y444626D01*
X486945Y446018D01*
X484372Y448591D01*
X482980Y451952D01*
X482980Y468798D01*
X484372Y472159D01*
X486945Y474732D01*
X487780Y475077D01*
X487841Y475112D01*
X487905Y475138D01*
X487978Y475190D01*
X488056Y475235D01*
X488106Y475283D01*
X488163Y475324D01*
X488220Y475394D01*
X488285Y475456D01*
X488321Y475516D01*
X488366Y475569D01*
X488404Y475651D01*
X488451Y475727D01*
X488471Y475794D01*
X488501Y475857D01*
X488518Y475945D01*
X488544Y476031D01*
X488548Y476101D01*
X488561Y476170D01*
X488555Y476259D01*
X488560Y476349D01*
X488545Y476417D01*
X488541Y476487D01*
X488513Y476572D01*
X488495Y476660D01*
X488465Y476723D01*
X488443Y476789D01*
X488395Y476865D01*
X488356Y476946D01*
X488310Y476999D01*
X488273Y477058D01*
X488207Y477120D01*
X488149Y477188D01*
X488092Y477228D01*
X488041Y477276D01*
X487963Y477319D01*
X487889Y477371D01*
X487824Y477396D01*
X487763Y477430D01*
X487676Y477452D01*
X487592Y477484D01*
X487522Y477492D01*
X487455Y477509D01*
X487294Y477519D01*
X471556Y477519D01*
X471487Y477511D01*
X471417Y477512D01*
X471329Y477491D01*
X471240Y477479D01*
X471175Y477454D01*
X471108Y477437D01*
X471028Y477395D01*
X470945Y477362D01*
X470888Y477321D01*
X470826Y477289D01*
X470760Y477228D01*
X470687Y477176D01*
X470643Y477122D01*
X470591Y477075D01*
X470542Y477000D01*
X470484Y476931D01*
X470455Y476867D01*
X470416Y476809D01*
X470387Y476724D01*
X470349Y476643D01*
X470336Y476574D01*
X470313Y476508D01*
X470306Y476419D01*
X470289Y476331D01*
X470293Y476261D01*
X470288Y476191D01*
X470303Y476103D01*
X470309Y476013D01*
X470330Y475947D01*
X470342Y475878D01*
X470379Y475796D01*
X470407Y475711D01*
X470444Y475652D01*
X470473Y475588D01*
X470529Y475518D01*
X470577Y475442D01*
X470628Y475394D01*
X470671Y475340D01*
X470743Y475285D01*
X470809Y475224D01*
X470870Y475190D01*
X470926Y475148D01*
X471070Y475077D01*
X471905Y474732D01*
X474478Y472159D01*
X475870Y468798D01*
X475870Y451952D01*
X474478Y448591D01*
X471905Y446018D01*
X471319Y445776D01*
X471294Y445761D01*
X471266Y445752D01*
X471156Y445683D01*
X471043Y445618D01*
X471022Y445598D01*
X470997Y445582D01*
X470908Y445487D01*
X470815Y445397D01*
X470799Y445372D01*
X470779Y445350D01*
X470716Y445236D01*
X470648Y445126D01*
X470640Y445098D01*
X470625Y445072D01*
X470593Y444946D01*
X470555Y444822D01*
X470553Y444792D01*
X470546Y444764D01*
X470536Y444603D01*
X470536Y427554D01*
X470548Y427456D01*
X470551Y427357D01*
X470568Y427299D01*
X470576Y427239D01*
X470612Y427147D01*
X470640Y427051D01*
X470670Y426999D01*
X470693Y426943D01*
X470751Y426863D01*
X470801Y426778D01*
X470867Y426702D01*
X470879Y426686D01*
X470889Y426678D01*
X470907Y426657D01*
X471107Y426457D01*
X471185Y426397D01*
X471257Y426329D01*
X471310Y426300D01*
X471358Y426263D01*
X471449Y426223D01*
X471536Y426175D01*
X471594Y426160D01*
X471650Y426136D01*
X471748Y426121D01*
X471843Y426096D01*
X471944Y426090D01*
X471964Y426086D01*
X471976Y426088D01*
X472004Y426086D01*
X670618Y426086D01*
X670716Y426098D01*
X670816Y426101D01*
X670874Y426118D01*
X670934Y426126D01*
X671026Y426162D01*
X671121Y426190D01*
X671173Y426220D01*
X671230Y426243D01*
X671310Y426301D01*
X671395Y426351D01*
X671470Y426417D01*
X671487Y426429D01*
X671495Y426439D01*
X671516Y426457D01*
X672693Y427635D01*
X675017Y428598D01*
X677533Y428598D01*
X679857Y427635D01*
X681635Y425857D01*
X682598Y423533D01*
X682598Y421017D01*
X681635Y418693D01*
X679857Y416915D01*
X677533Y415952D01*
X677116Y415952D01*
X677066Y415946D01*
X677017Y415948D01*
X676909Y415926D01*
X676800Y415912D01*
X676754Y415894D01*
X676705Y415884D01*
X676607Y415836D01*
X676505Y415795D01*
X676464Y415766D01*
X676420Y415744D01*
X676336Y415673D01*
X676247Y415609D01*
X676216Y415570D01*
X676178Y415538D01*
X676114Y415448D01*
X676044Y415364D01*
X676023Y415319D01*
X675995Y415278D01*
X675956Y415175D01*
X675909Y415076D01*
X675900Y415027D01*
X675882Y414981D01*
X675870Y414871D01*
X675849Y414764D01*
X675852Y414714D01*
X675847Y414664D01*
X675862Y414556D01*
X675869Y414446D01*
X675884Y414399D01*
X675891Y414350D01*
X675943Y414197D01*
X676022Y414008D01*
X676022Y411492D01*
X675059Y409168D01*
X673281Y407390D01*
X670957Y406427D01*
X668441Y406427D01*
X668226Y406517D01*
X668092Y406553D01*
X667958Y406594D01*
X667938Y406595D01*
X667919Y406601D01*
X667779Y406603D01*
X667641Y406609D01*
X667621Y406605D01*
X667601Y406606D01*
X667465Y406573D01*
X667329Y406545D01*
X667311Y406536D01*
X667292Y406532D01*
X667169Y406467D01*
X667044Y406405D01*
X667028Y406392D01*
X667010Y406383D01*
X666907Y406289D01*
X666802Y406199D01*
X666790Y406183D01*
X666775Y406169D01*
X666699Y406053D01*
X666619Y405939D01*
X666611Y405920D01*
X666600Y405903D01*
X666555Y405771D01*
X666506Y405642D01*
X666504Y405622D01*
X666497Y405602D01*
X666486Y405464D01*
X666471Y405326D01*
X666473Y405306D01*
X666472Y405285D01*
X666496Y405148D01*
X666515Y405011D01*
X666524Y404984D01*
X666526Y404972D01*
X666535Y404954D01*
X666567Y404858D01*
X666723Y404483D01*
X666723Y401967D01*
X665760Y399643D01*
X663982Y397865D01*
X661658Y396902D01*
X659142Y396902D01*
X656818Y397865D01*
X655641Y399043D01*
X655563Y399103D01*
X655490Y399171D01*
X655437Y399200D01*
X655390Y399237D01*
X655299Y399277D01*
X655212Y399325D01*
X655153Y399340D01*
X655098Y399364D01*
X655000Y399379D01*
X654904Y399404D01*
X654804Y399410D01*
X654784Y399414D01*
X654771Y399412D01*
X654743Y399414D01*
X430222Y399414D01*
X414718Y414918D01*
X414640Y414978D01*
X414568Y415046D01*
X414515Y415075D01*
X414467Y415112D01*
X414376Y415152D01*
X414289Y415200D01*
X414231Y415215D01*
X414175Y415239D01*
X414077Y415254D01*
X413981Y415279D01*
X413881Y415285D01*
X413861Y415289D01*
X413849Y415287D01*
X413821Y415289D01*
X405964Y415289D01*
X405827Y415272D01*
X405688Y415259D01*
X405669Y415252D01*
X405649Y415249D01*
X405520Y415198D01*
X405389Y415151D01*
X405372Y415140D01*
X405353Y415132D01*
X405240Y415051D01*
X405125Y414973D01*
X405112Y414957D01*
X405096Y414946D01*
X405007Y414838D01*
X404915Y414734D01*
X404906Y414716D01*
X404893Y414701D01*
X404833Y414574D01*
X404770Y414451D01*
X404766Y414431D01*
X404757Y414413D01*
X404731Y414277D01*
X404701Y414141D01*
X404701Y414120D01*
X404697Y414101D01*
X404706Y413962D01*
X404710Y413823D01*
X404716Y413803D01*
X404717Y413783D01*
X404760Y413651D01*
X404799Y413517D01*
X404809Y413500D01*
X404815Y413481D01*
X404890Y413363D01*
X404960Y413243D01*
X404979Y413222D01*
X404985Y413212D01*
X405000Y413198D01*
X405067Y413123D01*
X407407Y410782D01*
X423482Y394707D01*
X423560Y394647D01*
X423632Y394579D01*
X423685Y394550D01*
X423733Y394513D01*
X423824Y394473D01*
X423911Y394425D01*
X423969Y394410D01*
X424025Y394386D01*
X424123Y394371D01*
X424219Y394346D01*
X424319Y394340D01*
X424339Y394336D01*
X424351Y394338D01*
X424379Y394336D01*
X680143Y394336D01*
X680241Y394348D01*
X680341Y394351D01*
X680399Y394368D01*
X680459Y394376D01*
X680551Y394412D01*
X680646Y394440D01*
X680698Y394470D01*
X680755Y394493D01*
X680835Y394551D01*
X680920Y394601D01*
X680995Y394667D01*
X681012Y394679D01*
X681020Y394689D01*
X681041Y394707D01*
X682218Y395885D01*
X684542Y396848D01*
X687058Y396848D01*
X689382Y395885D01*
X691160Y394107D01*
X692123Y391783D01*
X692123Y389267D01*
X691160Y386943D01*
X689382Y385165D01*
X687058Y384202D01*
X684542Y384202D01*
X682218Y385165D01*
X681041Y386343D01*
X680963Y386403D01*
X680890Y386471D01*
X680837Y386500D01*
X680790Y386537D01*
X680699Y386577D01*
X680612Y386625D01*
X680553Y386640D01*
X680498Y386664D01*
X680400Y386679D01*
X680304Y386704D01*
X680204Y386710D01*
X680184Y386714D01*
X680171Y386712D01*
X680143Y386714D01*
X464910Y386714D01*
X464772Y386697D01*
X464634Y386684D01*
X464615Y386677D01*
X464595Y386674D01*
X464466Y386623D01*
X464335Y386576D01*
X464318Y386565D01*
X464299Y386557D01*
X464187Y386476D01*
X464071Y386398D01*
X464058Y386382D01*
X464042Y386371D01*
X463953Y386263D01*
X463861Y386159D01*
X463852Y386141D01*
X463839Y386126D01*
X463780Y386000D01*
X463716Y385876D01*
X463712Y385856D01*
X463703Y385838D01*
X463677Y385701D01*
X463647Y385566D01*
X463647Y385545D01*
X463644Y385526D01*
X463652Y385387D01*
X463656Y385248D01*
X463662Y385228D01*
X463663Y385208D01*
X463706Y385076D01*
X463745Y384942D01*
X463755Y384925D01*
X463761Y384906D01*
X463836Y384788D01*
X463906Y384668D01*
X463925Y384647D01*
X463931Y384637D01*
X463946Y384623D01*
X464013Y384548D01*
X464682Y383878D01*
X465456Y382011D01*
X465456Y347287D01*
X465468Y347189D01*
X465471Y347089D01*
X465488Y347031D01*
X465496Y346971D01*
X465532Y346879D01*
X465560Y346784D01*
X465590Y346732D01*
X465613Y346675D01*
X465671Y346595D01*
X465721Y346510D01*
X465725Y346505D01*
X466698Y344158D01*
X466698Y341642D01*
X465721Y339284D01*
X465699Y339260D01*
X465670Y339207D01*
X465633Y339160D01*
X465593Y339069D01*
X465545Y338982D01*
X465530Y338923D01*
X465506Y338868D01*
X465491Y338770D01*
X465466Y338674D01*
X465460Y338574D01*
X465456Y338554D01*
X465458Y338541D01*
X465456Y338513D01*
X465456Y285205D01*
X465468Y285107D01*
X465471Y285008D01*
X465488Y284950D01*
X465496Y284890D01*
X465532Y284798D01*
X465560Y284703D01*
X465590Y284650D01*
X465613Y284594D01*
X465671Y284514D01*
X465721Y284429D01*
X465787Y284353D01*
X465799Y284337D01*
X465809Y284329D01*
X465827Y284308D01*
X468458Y281677D01*
X468536Y281617D01*
X468608Y281549D01*
X468661Y281520D01*
X468709Y281483D01*
X468800Y281443D01*
X468887Y281395D01*
X468945Y281380D01*
X469001Y281356D01*
X469099Y281341D01*
X469195Y281316D01*
X469295Y281310D01*
X469315Y281306D01*
X469327Y281308D01*
X469355Y281306D01*
X475038Y281306D01*
X475136Y281318D01*
X475236Y281321D01*
X475294Y281338D01*
X475354Y281346D01*
X475446Y281382D01*
X475541Y281410D01*
X475593Y281440D01*
X475650Y281463D01*
X475730Y281521D01*
X475815Y281571D01*
X475820Y281575D01*
X478167Y282548D01*
X480683Y282548D01*
X483041Y281571D01*
X483065Y281549D01*
X483118Y281520D01*
X483165Y281483D01*
X483256Y281443D01*
X483343Y281395D01*
X483402Y281380D01*
X483457Y281356D01*
X483555Y281341D01*
X483651Y281316D01*
X483751Y281310D01*
X483771Y281306D01*
X483784Y281308D01*
X483812Y281306D01*
X533945Y281306D01*
X534043Y281318D01*
X534142Y281321D01*
X534200Y281338D01*
X534260Y281346D01*
X534352Y281382D01*
X534447Y281410D01*
X534500Y281440D01*
X534556Y281463D01*
X534636Y281521D01*
X534721Y281571D01*
X534797Y281637D01*
X534813Y281649D01*
X534821Y281659D01*
X534842Y281677D01*
X536301Y283136D01*
X536319Y283160D01*
X536342Y283179D01*
X536417Y283285D01*
X536496Y283388D01*
X536508Y283415D01*
X536525Y283439D01*
X536571Y283561D01*
X536622Y283680D01*
X536627Y283709D01*
X536638Y283736D01*
X536652Y283865D01*
X536672Y283994D01*
X536670Y284023D01*
X536673Y284053D01*
X536655Y284181D01*
X536643Y284310D01*
X536632Y284338D01*
X536628Y284367D01*
X536577Y284517D01*
X536577Y287033D01*
X537540Y289357D01*
X539318Y291135D01*
X541642Y292098D01*
X544158Y292098D01*
X546516Y291121D01*
X546540Y291099D01*
X546593Y291070D01*
X546640Y291033D01*
X546731Y290993D01*
X546818Y290945D01*
X546877Y290930D01*
X546932Y290906D01*
X547030Y290891D01*
X547126Y290866D01*
X547140Y290865D01*
X547219Y290843D01*
X547229Y290843D01*
X547238Y290841D01*
X547398Y290831D01*
X556170Y290831D01*
X556268Y290843D01*
X556367Y290846D01*
X556425Y290863D01*
X556485Y290871D01*
X556577Y290907D01*
X556672Y290935D01*
X556725Y290965D01*
X556781Y290988D01*
X556861Y291046D01*
X556946Y291096D01*
X557022Y291162D01*
X557038Y291174D01*
X557046Y291184D01*
X557067Y291202D01*
X559097Y293232D01*
X560964Y294006D01*
X608388Y294006D01*
X608486Y294018D01*
X608586Y294021D01*
X608644Y294038D01*
X608704Y294046D01*
X608796Y294082D01*
X608891Y294110D01*
X608943Y294140D01*
X609000Y294163D01*
X609080Y294221D01*
X609165Y294271D01*
X609170Y294275D01*
X611517Y295248D01*
X614033Y295248D01*
X616357Y294285D01*
X618135Y292507D01*
X619098Y290183D01*
X619098Y287667D01*
X618121Y285309D01*
X618099Y285285D01*
X618070Y285232D01*
X618033Y285185D01*
X617993Y285094D01*
X617945Y285007D01*
X617930Y284948D01*
X617906Y284893D01*
X617891Y284795D01*
X617866Y284699D01*
X617860Y284599D01*
X617856Y284579D01*
X617858Y284566D01*
X617856Y284538D01*
X617856Y266700D01*
X617871Y266582D01*
X617878Y266463D01*
X617891Y266425D01*
X617896Y266384D01*
X617939Y266274D01*
X617976Y266161D01*
X617998Y266126D01*
X618013Y266089D01*
X618082Y265993D01*
X618146Y265892D01*
X618176Y265864D01*
X618199Y265831D01*
X618291Y265755D01*
X618378Y265674D01*
X618413Y265654D01*
X618444Y265629D01*
X618552Y265578D01*
X618656Y265520D01*
X618696Y265510D01*
X618732Y265493D01*
X618849Y265471D01*
X618964Y265441D01*
X619024Y265437D01*
X619044Y265433D01*
X619065Y265435D01*
X619125Y265431D01*
X754438Y265431D01*
X754536Y265443D01*
X754636Y265446D01*
X754694Y265463D01*
X754754Y265471D01*
X754846Y265507D01*
X754941Y265535D01*
X754993Y265565D01*
X755050Y265588D01*
X755130Y265646D01*
X755215Y265696D01*
X755220Y265700D01*
X757567Y266673D01*
X760083Y266673D01*
X762407Y265710D01*
X764185Y263932D01*
X765148Y261608D01*
X765148Y259092D01*
X764176Y256747D01*
X764134Y256693D01*
X764045Y256586D01*
X764037Y256567D01*
X764024Y256551D01*
X763969Y256423D01*
X763910Y256298D01*
X763906Y256278D01*
X763898Y256259D01*
X763876Y256122D01*
X763850Y255985D01*
X763851Y255965D01*
X763848Y255945D01*
X763861Y255807D01*
X763870Y255668D01*
X763876Y255649D01*
X763878Y255629D01*
X763925Y255497D01*
X763968Y255366D01*
X763979Y255349D01*
X763985Y255329D01*
X764063Y255215D01*
X764138Y255097D01*
X764153Y255083D01*
X764164Y255066D01*
X764268Y254975D01*
X764370Y254879D01*
X764387Y254869D01*
X764402Y254856D01*
X764526Y254793D01*
X764648Y254725D01*
X764667Y254720D01*
X764686Y254711D01*
X764822Y254681D01*
X764956Y254646D01*
X764984Y254644D01*
X764996Y254641D01*
X765016Y254642D01*
X765117Y254636D01*
X766445Y254636D01*
X766563Y254651D01*
G37*
%LPC*%
G36*
X614692Y25427D02*
X614692Y25427D01*
X612368Y26390D01*
X610590Y28168D01*
X609627Y30492D01*
X609627Y33008D01*
X610604Y35366D01*
X610626Y35390D01*
X610655Y35443D01*
X610692Y35490D01*
X610732Y35581D01*
X610780Y35668D01*
X610795Y35727D01*
X610819Y35782D01*
X610834Y35880D01*
X610859Y35976D01*
X610865Y36076D01*
X610869Y36096D01*
X610867Y36109D01*
X610869Y36137D01*
X610869Y92075D01*
X610854Y92193D01*
X610847Y92312D01*
X610834Y92350D01*
X610829Y92391D01*
X610786Y92501D01*
X610749Y92614D01*
X610727Y92649D01*
X610712Y92686D01*
X610643Y92782D01*
X610579Y92883D01*
X610549Y92911D01*
X610526Y92944D01*
X610434Y93020D01*
X610347Y93101D01*
X610312Y93121D01*
X610281Y93146D01*
X610173Y93197D01*
X610069Y93255D01*
X610029Y93265D01*
X609993Y93282D01*
X609876Y93304D01*
X609761Y93334D01*
X609701Y93338D01*
X609681Y93342D01*
X609660Y93340D01*
X609600Y93344D01*
X529214Y93344D01*
X527347Y94118D01*
X518001Y103464D01*
X518000Y103464D01*
X516393Y105072D01*
X515619Y106939D01*
X515619Y117475D01*
X515604Y117593D01*
X515597Y117712D01*
X515584Y117750D01*
X515579Y117791D01*
X515536Y117901D01*
X515499Y118014D01*
X515477Y118049D01*
X515462Y118086D01*
X515393Y118182D01*
X515329Y118283D01*
X515299Y118311D01*
X515276Y118344D01*
X515184Y118420D01*
X515097Y118501D01*
X515062Y118521D01*
X515031Y118546D01*
X514923Y118597D01*
X514819Y118655D01*
X514779Y118665D01*
X514743Y118682D01*
X514626Y118704D01*
X514511Y118734D01*
X514451Y118738D01*
X514431Y118742D01*
X514410Y118740D01*
X514350Y118744D01*
X371475Y118744D01*
X371357Y118729D01*
X371238Y118722D01*
X371200Y118709D01*
X371159Y118704D01*
X371049Y118661D01*
X370936Y118624D01*
X370901Y118602D01*
X370864Y118587D01*
X370768Y118518D01*
X370667Y118454D01*
X370639Y118424D01*
X370606Y118401D01*
X370530Y118309D01*
X370449Y118222D01*
X370429Y118187D01*
X370404Y118156D01*
X370353Y118048D01*
X370295Y117944D01*
X370285Y117904D01*
X370268Y117868D01*
X370246Y117751D01*
X370216Y117636D01*
X370212Y117576D01*
X370208Y117556D01*
X370210Y117535D01*
X370206Y117475D01*
X370206Y99637D01*
X370218Y99539D01*
X370221Y99439D01*
X370238Y99381D01*
X370246Y99321D01*
X370282Y99229D01*
X370310Y99134D01*
X370340Y99082D01*
X370363Y99025D01*
X370421Y98945D01*
X370471Y98860D01*
X370475Y98855D01*
X371448Y96508D01*
X371448Y93992D01*
X370485Y91668D01*
X368707Y89890D01*
X366383Y88927D01*
X363867Y88927D01*
X361543Y89890D01*
X359765Y91668D01*
X358802Y93992D01*
X358802Y96508D01*
X359779Y98866D01*
X359801Y98890D01*
X359830Y98943D01*
X359867Y98990D01*
X359907Y99081D01*
X359955Y99168D01*
X359970Y99227D01*
X359994Y99282D01*
X360009Y99380D01*
X360034Y99476D01*
X360040Y99576D01*
X360044Y99596D01*
X360042Y99609D01*
X360044Y99637D01*
X360044Y121661D01*
X360818Y123528D01*
X365422Y128132D01*
X367289Y128906D01*
X514350Y128906D01*
X514468Y128921D01*
X514587Y128928D01*
X514625Y128941D01*
X514666Y128946D01*
X514776Y128989D01*
X514889Y129026D01*
X514924Y129048D01*
X514961Y129063D01*
X515057Y129132D01*
X515158Y129196D01*
X515186Y129226D01*
X515219Y129249D01*
X515295Y129341D01*
X515376Y129428D01*
X515396Y129463D01*
X515421Y129494D01*
X515472Y129602D01*
X515530Y129706D01*
X515540Y129746D01*
X515557Y129782D01*
X515579Y129899D01*
X515609Y130014D01*
X515613Y130074D01*
X515617Y130094D01*
X515615Y130115D01*
X515619Y130175D01*
X515619Y132138D01*
X515607Y132236D01*
X515604Y132336D01*
X515587Y132394D01*
X515579Y132454D01*
X515543Y132546D01*
X515515Y132641D01*
X515485Y132693D01*
X515462Y132750D01*
X515404Y132830D01*
X515354Y132915D01*
X515350Y132920D01*
X514377Y135267D01*
X514377Y137783D01*
X515349Y140128D01*
X515391Y140182D01*
X515480Y140289D01*
X515488Y140308D01*
X515501Y140324D01*
X515556Y140452D01*
X515615Y140577D01*
X515619Y140597D01*
X515627Y140616D01*
X515649Y140753D01*
X515675Y140890D01*
X515674Y140910D01*
X515677Y140930D01*
X515664Y141068D01*
X515655Y141207D01*
X515649Y141226D01*
X515647Y141246D01*
X515600Y141378D01*
X515557Y141509D01*
X515546Y141526D01*
X515540Y141546D01*
X515462Y141660D01*
X515387Y141778D01*
X515372Y141792D01*
X515361Y141809D01*
X515257Y141900D01*
X515155Y141996D01*
X515138Y142006D01*
X515123Y142019D01*
X514999Y142082D01*
X514877Y142150D01*
X514858Y142155D01*
X514839Y142164D01*
X514703Y142194D01*
X514569Y142229D01*
X514541Y142231D01*
X514529Y142234D01*
X514509Y142233D01*
X514408Y142239D01*
X494607Y142239D01*
X494509Y142227D01*
X494409Y142224D01*
X494351Y142207D01*
X494291Y142199D01*
X494199Y142163D01*
X494104Y142135D01*
X494052Y142105D01*
X493995Y142082D01*
X493915Y142024D01*
X493830Y141974D01*
X493755Y141908D01*
X493738Y141896D01*
X493730Y141886D01*
X493709Y141868D01*
X492532Y140690D01*
X490208Y139727D01*
X487692Y139727D01*
X485368Y140690D01*
X483590Y142468D01*
X482627Y144792D01*
X482627Y147308D01*
X483590Y149632D01*
X485368Y151410D01*
X487692Y152373D01*
X490208Y152373D01*
X492532Y151410D01*
X493709Y150232D01*
X493787Y150172D01*
X493860Y150104D01*
X493913Y150075D01*
X493960Y150038D01*
X494051Y149998D01*
X494138Y149950D01*
X494197Y149935D01*
X494252Y149911D01*
X494350Y149896D01*
X494446Y149871D01*
X494546Y149865D01*
X494566Y149861D01*
X494579Y149863D01*
X494607Y149861D01*
X588645Y149861D01*
X588763Y149876D01*
X588882Y149883D01*
X588920Y149896D01*
X588961Y149901D01*
X589071Y149944D01*
X589184Y149981D01*
X589219Y150003D01*
X589256Y150018D01*
X589352Y150087D01*
X589453Y150151D01*
X589481Y150181D01*
X589514Y150204D01*
X589590Y150296D01*
X589671Y150383D01*
X589691Y150418D01*
X589716Y150449D01*
X589767Y150557D01*
X589825Y150661D01*
X589835Y150701D01*
X589852Y150737D01*
X589874Y150854D01*
X589904Y150969D01*
X589908Y151029D01*
X589912Y151049D01*
X589910Y151070D01*
X589914Y151130D01*
X589914Y226118D01*
X589902Y226216D01*
X589899Y226316D01*
X589882Y226374D01*
X589874Y226434D01*
X589838Y226526D01*
X589810Y226621D01*
X589780Y226673D01*
X589757Y226730D01*
X589699Y226810D01*
X589649Y226895D01*
X589583Y226970D01*
X589571Y226987D01*
X589561Y226995D01*
X589543Y227016D01*
X588365Y228193D01*
X587402Y230517D01*
X587402Y233033D01*
X588365Y235357D01*
X590143Y237135D01*
X592467Y238098D01*
X594983Y238098D01*
X597307Y237135D01*
X599085Y235357D01*
X600048Y233033D01*
X600048Y230517D01*
X599085Y228193D01*
X597907Y227016D01*
X597847Y226938D01*
X597779Y226865D01*
X597750Y226812D01*
X597713Y226765D01*
X597673Y226674D01*
X597625Y226587D01*
X597610Y226528D01*
X597586Y226473D01*
X597571Y226375D01*
X597546Y226279D01*
X597540Y226179D01*
X597536Y226159D01*
X597538Y226146D01*
X597536Y226118D01*
X597536Y116782D01*
X597548Y116684D01*
X597551Y116584D01*
X597562Y116549D01*
X597562Y116541D01*
X597569Y116520D01*
X597576Y116466D01*
X597612Y116374D01*
X597640Y116279D01*
X597656Y116251D01*
X597660Y116238D01*
X597675Y116214D01*
X597693Y116170D01*
X597751Y116090D01*
X597801Y116005D01*
X597825Y115978D01*
X597830Y115970D01*
X597842Y115958D01*
X597867Y115930D01*
X597879Y115913D01*
X597889Y115905D01*
X597907Y115884D01*
X599085Y114707D01*
X600048Y112383D01*
X600048Y109867D01*
X599085Y107543D01*
X597214Y105672D01*
X597129Y105563D01*
X597040Y105456D01*
X597032Y105437D01*
X597019Y105421D01*
X596964Y105293D01*
X596905Y105168D01*
X596901Y105148D01*
X596893Y105129D01*
X596871Y104991D01*
X596845Y104855D01*
X596846Y104835D01*
X596843Y104815D01*
X596856Y104676D01*
X596865Y104538D01*
X596871Y104519D01*
X596873Y104499D01*
X596920Y104367D01*
X596963Y104236D01*
X596974Y104218D01*
X596980Y104199D01*
X597059Y104084D01*
X597133Y103967D01*
X597148Y103953D01*
X597159Y103936D01*
X597263Y103844D01*
X597365Y103749D01*
X597382Y103739D01*
X597397Y103726D01*
X597522Y103662D01*
X597643Y103595D01*
X597663Y103590D01*
X597681Y103581D01*
X597817Y103551D01*
X597951Y103516D01*
X597979Y103514D01*
X597991Y103511D01*
X598011Y103512D01*
X598112Y103506D01*
X613786Y103506D01*
X615653Y102732D01*
X620257Y98128D01*
X621031Y96261D01*
X621031Y36137D01*
X621043Y36039D01*
X621046Y35939D01*
X621063Y35881D01*
X621071Y35821D01*
X621107Y35729D01*
X621135Y35634D01*
X621165Y35582D01*
X621188Y35525D01*
X621246Y35445D01*
X621296Y35360D01*
X621300Y35355D01*
X622273Y33008D01*
X622273Y30492D01*
X621310Y28168D01*
X619532Y26390D01*
X617208Y25427D01*
X614692Y25427D01*
G37*
%LPD*%
G36*
X445073Y407053D02*
X445073Y407053D01*
X445212Y407066D01*
X445231Y407073D01*
X445251Y407076D01*
X445380Y407127D01*
X445511Y407174D01*
X445528Y407185D01*
X445547Y407193D01*
X445660Y407274D01*
X445775Y407352D01*
X445788Y407368D01*
X445804Y407379D01*
X445893Y407487D01*
X445985Y407591D01*
X445994Y407609D01*
X446007Y407624D01*
X446066Y407750D01*
X446130Y407874D01*
X446134Y407894D01*
X446143Y407912D01*
X446169Y408048D01*
X446199Y408184D01*
X446199Y408205D01*
X446203Y408224D01*
X446194Y408363D01*
X446190Y408502D01*
X446184Y408522D01*
X446183Y408542D01*
X446140Y408674D01*
X446101Y408808D01*
X446091Y408825D01*
X446085Y408844D01*
X446010Y408962D01*
X445940Y409082D01*
X445921Y409103D01*
X445915Y409113D01*
X445900Y409127D01*
X445833Y409202D01*
X440118Y414918D01*
X437514Y417522D01*
X437514Y444603D01*
X437511Y444633D01*
X437513Y444662D01*
X437491Y444790D01*
X437474Y444919D01*
X437464Y444946D01*
X437459Y444975D01*
X437405Y445094D01*
X437357Y445214D01*
X437340Y445238D01*
X437328Y445265D01*
X437247Y445367D01*
X437171Y445472D01*
X437148Y445491D01*
X437129Y445514D01*
X437026Y445592D01*
X436926Y445675D01*
X436899Y445687D01*
X436875Y445705D01*
X436731Y445776D01*
X436145Y446018D01*
X433572Y448591D01*
X432180Y451952D01*
X432180Y468798D01*
X433572Y472159D01*
X436145Y474732D01*
X436980Y475077D01*
X437041Y475112D01*
X437105Y475138D01*
X437178Y475190D01*
X437256Y475235D01*
X437306Y475283D01*
X437363Y475324D01*
X437420Y475394D01*
X437485Y475456D01*
X437521Y475516D01*
X437566Y475569D01*
X437604Y475651D01*
X437651Y475727D01*
X437671Y475794D01*
X437701Y475857D01*
X437718Y475945D01*
X437744Y476031D01*
X437748Y476101D01*
X437761Y476170D01*
X437755Y476259D01*
X437760Y476349D01*
X437745Y476417D01*
X437741Y476487D01*
X437713Y476572D01*
X437695Y476660D01*
X437665Y476723D01*
X437643Y476789D01*
X437595Y476865D01*
X437556Y476946D01*
X437510Y476999D01*
X437473Y477058D01*
X437407Y477120D01*
X437349Y477188D01*
X437292Y477228D01*
X437241Y477276D01*
X437163Y477319D01*
X437089Y477371D01*
X437024Y477396D01*
X436963Y477430D01*
X436876Y477452D01*
X436792Y477484D01*
X436722Y477492D01*
X436655Y477509D01*
X436494Y477519D01*
X420668Y477519D01*
X420649Y477517D01*
X420629Y477519D01*
X420491Y477497D01*
X420353Y477479D01*
X420334Y477472D01*
X420315Y477469D01*
X420186Y477414D01*
X420057Y477362D01*
X420041Y477351D01*
X420023Y477343D01*
X419912Y477257D01*
X419800Y477176D01*
X419787Y477160D01*
X419771Y477148D01*
X419686Y477038D01*
X419597Y476931D01*
X419588Y476913D01*
X419576Y476897D01*
X419521Y476769D01*
X419461Y476643D01*
X419458Y476623D01*
X419450Y476605D01*
X419428Y476466D01*
X419402Y476331D01*
X419403Y476311D01*
X419400Y476291D01*
X419413Y476152D01*
X419421Y476013D01*
X419428Y475994D01*
X419429Y475974D01*
X419476Y475843D01*
X419519Y475711D01*
X419530Y475694D01*
X419537Y475675D01*
X419615Y475560D01*
X419690Y475442D01*
X419704Y475428D01*
X419715Y475412D01*
X419820Y475320D01*
X419921Y475224D01*
X419939Y475214D01*
X419954Y475201D01*
X420092Y475119D01*
X420718Y474800D01*
X421882Y473954D01*
X422900Y472936D01*
X423746Y471772D01*
X424400Y470489D01*
X424845Y469120D01*
X425070Y467699D01*
X425070Y462406D01*
X416687Y462406D01*
X416569Y462391D01*
X416450Y462384D01*
X416412Y462371D01*
X416372Y462366D01*
X416261Y462323D01*
X416148Y462286D01*
X416114Y462264D01*
X416076Y462249D01*
X415980Y462179D01*
X415928Y462146D01*
X415910Y462163D01*
X415875Y462183D01*
X415843Y462208D01*
X415736Y462259D01*
X415631Y462317D01*
X415592Y462327D01*
X415556Y462344D01*
X415439Y462366D01*
X415323Y462396D01*
X415263Y462400D01*
X415243Y462404D01*
X415223Y462402D01*
X415163Y462406D01*
X406780Y462406D01*
X406780Y467699D01*
X407005Y469120D01*
X407450Y470489D01*
X408104Y471772D01*
X408950Y472936D01*
X409968Y473954D01*
X411132Y474800D01*
X411758Y475119D01*
X411774Y475130D01*
X411793Y475138D01*
X411906Y475219D01*
X412021Y475298D01*
X412034Y475313D01*
X412050Y475324D01*
X412139Y475432D01*
X412231Y475536D01*
X412240Y475554D01*
X412253Y475569D01*
X412312Y475695D01*
X412376Y475820D01*
X412380Y475839D01*
X412389Y475857D01*
X412415Y475994D01*
X412445Y476130D01*
X412445Y476150D01*
X412448Y476170D01*
X412440Y476309D01*
X412435Y476448D01*
X412430Y476467D01*
X412429Y476487D01*
X412386Y476619D01*
X412347Y476753D01*
X412337Y476771D01*
X412331Y476789D01*
X412256Y476907D01*
X412185Y477027D01*
X412171Y477041D01*
X412160Y477058D01*
X412059Y477154D01*
X411960Y477252D01*
X411943Y477262D01*
X411929Y477276D01*
X411807Y477343D01*
X411687Y477414D01*
X411668Y477420D01*
X411650Y477430D01*
X411516Y477464D01*
X411382Y477503D01*
X411362Y477504D01*
X411342Y477509D01*
X411182Y477519D01*
X396875Y477519D01*
X396757Y477504D01*
X396638Y477497D01*
X396600Y477484D01*
X396559Y477479D01*
X396449Y477436D01*
X396336Y477399D01*
X396301Y477377D01*
X396264Y477362D01*
X396168Y477293D01*
X396067Y477229D01*
X396039Y477199D01*
X396006Y477176D01*
X395930Y477084D01*
X395849Y476997D01*
X395829Y476962D01*
X395804Y476931D01*
X395753Y476823D01*
X395695Y476719D01*
X395685Y476679D01*
X395668Y476643D01*
X395646Y476526D01*
X395616Y476411D01*
X395612Y476351D01*
X395608Y476331D01*
X395610Y476310D01*
X395606Y476250D01*
X395606Y475357D01*
X395618Y475258D01*
X395621Y475159D01*
X395638Y475101D01*
X395646Y475041D01*
X395682Y474949D01*
X395710Y474854D01*
X395740Y474802D01*
X395763Y474745D01*
X395821Y474665D01*
X395871Y474580D01*
X395937Y474505D01*
X395949Y474488D01*
X395959Y474480D01*
X395977Y474459D01*
X398278Y472159D01*
X399670Y468798D01*
X399670Y451952D01*
X398278Y448591D01*
X395705Y446018D01*
X392344Y444626D01*
X388706Y444626D01*
X385345Y446018D01*
X382772Y448591D01*
X381380Y451952D01*
X381380Y468798D01*
X382772Y472159D01*
X385073Y474459D01*
X385133Y474537D01*
X385201Y474609D01*
X385230Y474662D01*
X385267Y474710D01*
X385307Y474801D01*
X385355Y474888D01*
X385370Y474947D01*
X385394Y475002D01*
X385409Y475100D01*
X385434Y475196D01*
X385440Y475296D01*
X385444Y475316D01*
X385442Y475329D01*
X385444Y475357D01*
X385444Y477513D01*
X385432Y477611D01*
X385429Y477710D01*
X385412Y477769D01*
X385404Y477829D01*
X385368Y477921D01*
X385340Y478016D01*
X385310Y478068D01*
X385287Y478124D01*
X385229Y478205D01*
X385179Y478290D01*
X385113Y478365D01*
X385101Y478382D01*
X385091Y478390D01*
X385073Y478411D01*
X382653Y480831D01*
X382574Y480891D01*
X382502Y480959D01*
X382449Y480988D01*
X382401Y481025D01*
X382310Y481065D01*
X382224Y481113D01*
X382165Y481128D01*
X382110Y481152D01*
X382012Y481167D01*
X381916Y481192D01*
X381816Y481198D01*
X381795Y481202D01*
X381783Y481200D01*
X381755Y481202D01*
X305755Y481202D01*
X305617Y481185D01*
X305479Y481172D01*
X305460Y481165D01*
X305440Y481162D01*
X305310Y481111D01*
X305179Y481064D01*
X305163Y481053D01*
X305144Y481045D01*
X305032Y480964D01*
X304916Y480886D01*
X304903Y480870D01*
X304887Y480859D01*
X304798Y480751D01*
X304706Y480647D01*
X304697Y480629D01*
X304684Y480614D01*
X304624Y480488D01*
X304561Y480364D01*
X304557Y480344D01*
X304548Y480326D01*
X304522Y480189D01*
X304492Y480054D01*
X304492Y480033D01*
X304488Y480014D01*
X304497Y479875D01*
X304501Y479736D01*
X304507Y479716D01*
X304508Y479696D01*
X304551Y479564D01*
X304590Y479430D01*
X304600Y479413D01*
X304606Y479394D01*
X304681Y479276D01*
X304751Y479156D01*
X304770Y479135D01*
X304776Y479125D01*
X304791Y479111D01*
X304858Y479036D01*
X305441Y478452D01*
X305441Y461348D01*
X303952Y459859D01*
X302242Y459859D01*
X302124Y459844D01*
X302005Y459837D01*
X301967Y459824D01*
X301926Y459819D01*
X301816Y459776D01*
X301703Y459739D01*
X301668Y459717D01*
X301631Y459702D01*
X301535Y459633D01*
X301434Y459569D01*
X301406Y459539D01*
X301373Y459516D01*
X301297Y459424D01*
X301216Y459337D01*
X301196Y459302D01*
X301171Y459271D01*
X301120Y459163D01*
X301062Y459059D01*
X301052Y459019D01*
X301035Y458983D01*
X301013Y458866D01*
X300983Y458751D01*
X300979Y458690D01*
X300975Y458671D01*
X300977Y458650D01*
X300973Y458590D01*
X300973Y441169D01*
X300974Y441160D01*
X300973Y441151D01*
X300994Y441002D01*
X301013Y440853D01*
X301016Y440845D01*
X301017Y440836D01*
X301069Y440683D01*
X301598Y439408D01*
X301598Y436892D01*
X300635Y434568D01*
X298857Y432790D01*
X296533Y431827D01*
X294017Y431827D01*
X291693Y432790D01*
X289915Y434568D01*
X288952Y436892D01*
X288952Y439408D01*
X289169Y439930D01*
X289187Y439997D01*
X289215Y440061D01*
X289229Y440150D01*
X289252Y440237D01*
X289254Y440306D01*
X289265Y440375D01*
X289256Y440465D01*
X289258Y440555D01*
X289241Y440622D01*
X289235Y440692D01*
X289204Y440777D01*
X289183Y440864D01*
X289151Y440925D01*
X289127Y440991D01*
X289077Y441066D01*
X289035Y441145D01*
X288988Y441197D01*
X288949Y441254D01*
X288881Y441314D01*
X288821Y441380D01*
X288762Y441419D01*
X288710Y441465D01*
X288630Y441506D01*
X288555Y441555D01*
X288489Y441578D01*
X288427Y441609D01*
X288339Y441629D01*
X288254Y441658D01*
X288185Y441664D01*
X288117Y441679D01*
X288027Y441676D01*
X287937Y441683D01*
X287868Y441672D01*
X287799Y441669D01*
X287712Y441644D01*
X287624Y441629D01*
X287560Y441600D01*
X287493Y441581D01*
X287416Y441535D01*
X287334Y441498D01*
X287279Y441455D01*
X287219Y441419D01*
X287098Y441313D01*
X284312Y438527D01*
X280346Y436884D01*
X278368Y436884D01*
X278230Y436867D01*
X278091Y436854D01*
X278072Y436847D01*
X278052Y436844D01*
X277923Y436793D01*
X277792Y436746D01*
X277775Y436735D01*
X277756Y436727D01*
X277644Y436646D01*
X277529Y436568D01*
X277515Y436552D01*
X277499Y436541D01*
X277410Y436433D01*
X277318Y436329D01*
X277309Y436311D01*
X277296Y436296D01*
X277237Y436170D01*
X277174Y436046D01*
X277169Y436026D01*
X277161Y436008D01*
X277135Y435871D01*
X277104Y435736D01*
X277105Y435715D01*
X277101Y435696D01*
X277110Y435557D01*
X277114Y435418D01*
X277119Y435398D01*
X277121Y435378D01*
X277163Y435246D01*
X277202Y435112D01*
X277212Y435095D01*
X277219Y435076D01*
X277293Y434958D01*
X277364Y434838D01*
X277382Y434817D01*
X277389Y434807D01*
X277404Y434793D01*
X277470Y434718D01*
X279196Y432992D01*
X280158Y430668D01*
X280158Y428153D01*
X279196Y425829D01*
X278444Y425077D01*
X278359Y424968D01*
X278270Y424861D01*
X278262Y424842D01*
X278249Y424826D01*
X278194Y424698D01*
X278135Y424573D01*
X278131Y424553D01*
X278123Y424534D01*
X278101Y424396D01*
X278075Y424260D01*
X278076Y424240D01*
X278073Y424220D01*
X278086Y424081D01*
X278095Y423943D01*
X278101Y423924D01*
X278103Y423904D01*
X278150Y423772D01*
X278193Y423641D01*
X278204Y423623D01*
X278210Y423604D01*
X278289Y423489D01*
X278363Y423372D01*
X278378Y423358D01*
X278389Y423341D01*
X278493Y423249D01*
X278595Y423154D01*
X278612Y423144D01*
X278627Y423131D01*
X278751Y423068D01*
X278873Y423000D01*
X278893Y422995D01*
X278911Y422986D01*
X279047Y422956D01*
X279181Y422921D01*
X279209Y422919D01*
X279221Y422916D01*
X279241Y422917D01*
X279342Y422911D01*
X311208Y422911D01*
X311346Y422928D01*
X311485Y422941D01*
X311504Y422948D01*
X311524Y422951D01*
X311653Y423002D01*
X311784Y423049D01*
X311801Y423060D01*
X311820Y423068D01*
X311932Y423149D01*
X312047Y423227D01*
X312061Y423243D01*
X312077Y423254D01*
X312166Y423362D01*
X312258Y423466D01*
X312267Y423484D01*
X312280Y423499D01*
X312339Y423625D01*
X312402Y423749D01*
X312407Y423769D01*
X312415Y423787D01*
X312441Y423923D01*
X312472Y424059D01*
X312471Y424080D01*
X312475Y424099D01*
X312466Y424238D01*
X312462Y424377D01*
X312457Y424397D01*
X312455Y424417D01*
X312413Y424549D01*
X312374Y424683D01*
X312363Y424700D01*
X312357Y424719D01*
X312283Y424837D01*
X312212Y424957D01*
X312194Y424978D01*
X312187Y424988D01*
X312172Y425002D01*
X312143Y425035D01*
X311177Y427367D01*
X311177Y429883D01*
X312140Y432207D01*
X313918Y433985D01*
X316242Y434948D01*
X318758Y434948D01*
X321082Y433985D01*
X322860Y432207D01*
X323823Y429883D01*
X323823Y427367D01*
X322851Y425022D01*
X322809Y424968D01*
X322720Y424861D01*
X322712Y424842D01*
X322699Y424826D01*
X322644Y424698D01*
X322585Y424573D01*
X322581Y424553D01*
X322573Y424534D01*
X322551Y424397D01*
X322525Y424260D01*
X322526Y424240D01*
X322523Y424220D01*
X322536Y424082D01*
X322545Y423943D01*
X322551Y423924D01*
X322553Y423904D01*
X322600Y423772D01*
X322643Y423641D01*
X322654Y423624D01*
X322660Y423604D01*
X322738Y423490D01*
X322813Y423372D01*
X322828Y423358D01*
X322839Y423341D01*
X322943Y423250D01*
X323045Y423154D01*
X323062Y423144D01*
X323077Y423131D01*
X323201Y423068D01*
X323323Y423000D01*
X323342Y422995D01*
X323361Y422986D01*
X323497Y422956D01*
X323631Y422921D01*
X323659Y422919D01*
X323671Y422916D01*
X323691Y422917D01*
X323792Y422911D01*
X417503Y422911D01*
X433007Y407407D01*
X433085Y407347D01*
X433157Y407279D01*
X433210Y407250D01*
X433258Y407213D01*
X433349Y407173D01*
X433436Y407125D01*
X433494Y407110D01*
X433550Y407086D01*
X433648Y407071D01*
X433744Y407046D01*
X433844Y407040D01*
X433864Y407036D01*
X433876Y407038D01*
X433904Y407036D01*
X444936Y407036D01*
X445073Y407053D01*
G37*
%LPC*%
G36*
X474992Y301652D02*
X474992Y301652D01*
X472668Y302615D01*
X470890Y304393D01*
X469927Y306717D01*
X469927Y309233D01*
X470890Y311557D01*
X472668Y313335D01*
X474992Y314298D01*
X477508Y314298D01*
X479832Y313335D01*
X481009Y312157D01*
X481087Y312097D01*
X481160Y312029D01*
X481213Y312000D01*
X481260Y311963D01*
X481351Y311923D01*
X481438Y311875D01*
X481497Y311860D01*
X481552Y311836D01*
X481650Y311821D01*
X481746Y311796D01*
X481846Y311790D01*
X481866Y311786D01*
X481879Y311788D01*
X481907Y311786D01*
X482658Y311786D01*
X482796Y311803D01*
X482935Y311816D01*
X482954Y311823D01*
X482974Y311826D01*
X483103Y311877D01*
X483234Y311924D01*
X483251Y311935D01*
X483270Y311943D01*
X483382Y312024D01*
X483497Y312102D01*
X483511Y312118D01*
X483527Y312129D01*
X483616Y312237D01*
X483708Y312341D01*
X483717Y312359D01*
X483730Y312374D01*
X483789Y312500D01*
X483852Y312624D01*
X483857Y312644D01*
X483865Y312662D01*
X483891Y312798D01*
X483922Y312934D01*
X483921Y312955D01*
X483925Y312974D01*
X483916Y313113D01*
X483912Y313252D01*
X483907Y313272D01*
X483905Y313292D01*
X483863Y313424D01*
X483824Y313558D01*
X483813Y313575D01*
X483807Y313594D01*
X483733Y313712D01*
X483662Y313832D01*
X483644Y313853D01*
X483637Y313863D01*
X483622Y313877D01*
X483593Y313910D01*
X482627Y316242D01*
X482627Y318758D01*
X483590Y321082D01*
X485368Y322860D01*
X487692Y323823D01*
X490208Y323823D01*
X492532Y322860D01*
X493709Y321682D01*
X493787Y321622D01*
X493860Y321554D01*
X493913Y321525D01*
X493960Y321488D01*
X494051Y321448D01*
X494138Y321400D01*
X494197Y321385D01*
X494252Y321361D01*
X494350Y321346D01*
X494446Y321321D01*
X494546Y321315D01*
X494566Y321311D01*
X494579Y321313D01*
X494607Y321311D01*
X705543Y321311D01*
X705641Y321323D01*
X705741Y321326D01*
X705799Y321343D01*
X705859Y321351D01*
X705951Y321387D01*
X706046Y321415D01*
X706098Y321445D01*
X706155Y321468D01*
X706235Y321526D01*
X706320Y321576D01*
X706395Y321642D01*
X706412Y321654D01*
X706420Y321664D01*
X706441Y321682D01*
X707618Y322860D01*
X709942Y323823D01*
X712458Y323823D01*
X714782Y322860D01*
X716560Y321082D01*
X717523Y318758D01*
X717523Y316242D01*
X716560Y313918D01*
X714782Y312140D01*
X712458Y311177D01*
X709942Y311177D01*
X709454Y311380D01*
X709319Y311416D01*
X709187Y311457D01*
X709166Y311458D01*
X709147Y311464D01*
X709007Y311466D01*
X708869Y311472D01*
X708849Y311468D01*
X708829Y311469D01*
X708693Y311436D01*
X708558Y311408D01*
X708539Y311399D01*
X708520Y311395D01*
X708396Y311329D01*
X708272Y311268D01*
X708257Y311255D01*
X708239Y311246D01*
X708136Y311152D01*
X708030Y311062D01*
X708018Y311046D01*
X708003Y311032D01*
X707927Y310916D01*
X707847Y310802D01*
X707840Y310783D01*
X707828Y310766D01*
X707783Y310634D01*
X707734Y310505D01*
X707732Y310484D01*
X707725Y310465D01*
X707714Y310327D01*
X707699Y310189D01*
X707702Y310169D01*
X707700Y310148D01*
X707724Y310011D01*
X707743Y309874D01*
X707752Y309847D01*
X707754Y309835D01*
X707763Y309816D01*
X707795Y309721D01*
X707998Y309233D01*
X707998Y306717D01*
X707035Y304393D01*
X705257Y302615D01*
X702933Y301652D01*
X700417Y301652D01*
X698093Y302615D01*
X696916Y303793D01*
X696838Y303853D01*
X696765Y303921D01*
X696712Y303950D01*
X696665Y303987D01*
X696574Y304027D01*
X696487Y304075D01*
X696428Y304090D01*
X696373Y304114D01*
X696275Y304129D01*
X696179Y304154D01*
X696079Y304160D01*
X696059Y304164D01*
X696046Y304162D01*
X696018Y304164D01*
X481907Y304164D01*
X481809Y304152D01*
X481709Y304149D01*
X481651Y304132D01*
X481591Y304124D01*
X481499Y304088D01*
X481404Y304060D01*
X481352Y304030D01*
X481295Y304007D01*
X481215Y303949D01*
X481130Y303899D01*
X481055Y303833D01*
X481038Y303821D01*
X481030Y303811D01*
X481009Y303793D01*
X479832Y302615D01*
X477508Y301652D01*
X474992Y301652D01*
G37*
%LPD*%
%LPC*%
G36*
X46837Y20700D02*
X46837Y20700D01*
X39182Y22751D01*
X32318Y26714D01*
X26714Y32318D01*
X22751Y39182D01*
X20700Y46837D01*
X20700Y54763D01*
X22751Y62418D01*
X26714Y69282D01*
X32318Y74886D01*
X39182Y78849D01*
X46837Y80900D01*
X54763Y80900D01*
X62418Y78849D01*
X69282Y74886D01*
X74886Y69282D01*
X78849Y62418D01*
X80900Y54763D01*
X80900Y46837D01*
X78849Y39182D01*
X74886Y32318D01*
X69282Y26714D01*
X62418Y22751D01*
X54763Y20700D01*
X46837Y20700D01*
G37*
%LPD*%
%LPC*%
G36*
X1034262Y420750D02*
X1034262Y420750D01*
X1026607Y422801D01*
X1019743Y426764D01*
X1014139Y432368D01*
X1010176Y439232D01*
X1008125Y446887D01*
X1008125Y454813D01*
X1010176Y462468D01*
X1014139Y469332D01*
X1019743Y474936D01*
X1026607Y478899D01*
X1034262Y480950D01*
X1042188Y480950D01*
X1049843Y478899D01*
X1056707Y474936D01*
X1062311Y469332D01*
X1066274Y462468D01*
X1068325Y454813D01*
X1068325Y446887D01*
X1066274Y439232D01*
X1062311Y432368D01*
X1056707Y426764D01*
X1049843Y422801D01*
X1042188Y420750D01*
X1034262Y420750D01*
G37*
%LPD*%
%LPC*%
G36*
X768717Y15902D02*
X768717Y15902D01*
X766393Y16865D01*
X764615Y18643D01*
X763652Y20967D01*
X763652Y23483D01*
X764615Y25807D01*
X765793Y26984D01*
X765853Y27062D01*
X765921Y27135D01*
X765950Y27188D01*
X765987Y27235D01*
X766027Y27326D01*
X766075Y27413D01*
X766090Y27472D01*
X766114Y27527D01*
X766129Y27625D01*
X766154Y27721D01*
X766160Y27821D01*
X766164Y27841D01*
X766162Y27854D01*
X766164Y27882D01*
X766164Y41303D01*
X773122Y48261D01*
X959921Y48261D01*
X960019Y48273D01*
X960118Y48276D01*
X960176Y48293D01*
X960236Y48301D01*
X960328Y48337D01*
X960424Y48365D01*
X960476Y48395D01*
X960532Y48418D01*
X960612Y48476D01*
X960697Y48526D01*
X960773Y48592D01*
X960789Y48604D01*
X960797Y48614D01*
X960818Y48632D01*
X964193Y52007D01*
X964253Y52085D01*
X964321Y52157D01*
X964350Y52210D01*
X964387Y52258D01*
X964427Y52349D01*
X964475Y52436D01*
X964490Y52494D01*
X964514Y52550D01*
X964529Y52648D01*
X964554Y52744D01*
X964560Y52844D01*
X964564Y52864D01*
X964562Y52876D01*
X964564Y52904D01*
X964564Y128578D01*
X973147Y137161D01*
X1010343Y137161D01*
X1010441Y137173D01*
X1010541Y137176D01*
X1010599Y137193D01*
X1010659Y137201D01*
X1010751Y137237D01*
X1010846Y137265D01*
X1010898Y137295D01*
X1010955Y137318D01*
X1011035Y137376D01*
X1011120Y137426D01*
X1011195Y137492D01*
X1011212Y137504D01*
X1011220Y137514D01*
X1011241Y137532D01*
X1012418Y138710D01*
X1014742Y139673D01*
X1017258Y139673D01*
X1019582Y138710D01*
X1021360Y136932D01*
X1022323Y134608D01*
X1022323Y132092D01*
X1021360Y129768D01*
X1019582Y127990D01*
X1017258Y127027D01*
X1014742Y127027D01*
X1012418Y127990D01*
X1011241Y129168D01*
X1011163Y129228D01*
X1011090Y129296D01*
X1011037Y129325D01*
X1010990Y129362D01*
X1010899Y129402D01*
X1010812Y129450D01*
X1010753Y129465D01*
X1010698Y129489D01*
X1010600Y129504D01*
X1010504Y129529D01*
X1010404Y129535D01*
X1010384Y129539D01*
X1010371Y129537D01*
X1010343Y129539D01*
X976829Y129539D01*
X976731Y129527D01*
X976632Y129524D01*
X976574Y129507D01*
X976514Y129499D01*
X976422Y129463D01*
X976326Y129435D01*
X976274Y129405D01*
X976218Y129382D01*
X976138Y129324D01*
X976053Y129274D01*
X975977Y129208D01*
X975961Y129196D01*
X975953Y129186D01*
X975932Y129168D01*
X972557Y125793D01*
X972497Y125715D01*
X972429Y125643D01*
X972400Y125590D01*
X972363Y125542D01*
X972323Y125451D01*
X972275Y125364D01*
X972260Y125306D01*
X972236Y125250D01*
X972221Y125152D01*
X972196Y125056D01*
X972190Y124956D01*
X972186Y124936D01*
X972188Y124924D01*
X972186Y124896D01*
X972186Y49222D01*
X963603Y40639D01*
X776804Y40639D01*
X776706Y40627D01*
X776607Y40624D01*
X776549Y40607D01*
X776489Y40599D01*
X776397Y40563D01*
X776301Y40535D01*
X776249Y40505D01*
X776193Y40482D01*
X776113Y40424D01*
X776028Y40374D01*
X775952Y40308D01*
X775936Y40296D01*
X775928Y40286D01*
X775923Y40282D01*
X775919Y40279D01*
X775917Y40277D01*
X775907Y40268D01*
X774157Y38518D01*
X774097Y38440D01*
X774029Y38368D01*
X774000Y38315D01*
X773963Y38267D01*
X773923Y38176D01*
X773875Y38089D01*
X773860Y38031D01*
X773836Y37975D01*
X773821Y37877D01*
X773796Y37781D01*
X773790Y37681D01*
X773786Y37661D01*
X773788Y37649D01*
X773786Y37621D01*
X773786Y27882D01*
X773798Y27784D01*
X773801Y27684D01*
X773818Y27626D01*
X773826Y27566D01*
X773862Y27474D01*
X773890Y27379D01*
X773920Y27327D01*
X773943Y27270D01*
X774001Y27190D01*
X774051Y27105D01*
X774117Y27030D01*
X774129Y27013D01*
X774139Y27005D01*
X774157Y26984D01*
X775335Y25807D01*
X776298Y23483D01*
X776298Y20967D01*
X775335Y18643D01*
X773557Y16865D01*
X771233Y15902D01*
X768717Y15902D01*
G37*
%LPD*%
G36*
X251874Y422928D02*
X251874Y422928D01*
X252013Y422941D01*
X252032Y422948D01*
X252053Y422951D01*
X252181Y423002D01*
X252313Y423049D01*
X252329Y423060D01*
X252348Y423068D01*
X252461Y423149D01*
X252576Y423227D01*
X252589Y423243D01*
X252606Y423254D01*
X252694Y423362D01*
X252786Y423466D01*
X252795Y423484D01*
X252808Y423499D01*
X252868Y423625D01*
X252931Y423749D01*
X252935Y423769D01*
X252944Y423787D01*
X252970Y423923D01*
X253000Y424059D01*
X253000Y424080D01*
X253004Y424099D01*
X252995Y424238D01*
X252991Y424377D01*
X252985Y424397D01*
X252984Y424417D01*
X252941Y424549D01*
X252902Y424683D01*
X252892Y424700D01*
X252886Y424719D01*
X252811Y424837D01*
X252741Y424957D01*
X252722Y424978D01*
X252716Y424988D01*
X252701Y425002D01*
X252634Y425077D01*
X250609Y427103D01*
X237646Y440066D01*
X237567Y440127D01*
X237497Y440193D01*
X237480Y440203D01*
X237463Y440218D01*
X237427Y440236D01*
X237395Y440261D01*
X237300Y440302D01*
X237218Y440347D01*
X237201Y440351D01*
X237180Y440362D01*
X237140Y440371D01*
X237103Y440387D01*
X236997Y440404D01*
X236910Y440426D01*
X236887Y440428D01*
X236869Y440432D01*
X236838Y440431D01*
X236820Y440432D01*
X236789Y440437D01*
X236770Y440435D01*
X236750Y440436D01*
X236748Y440436D01*
X236660Y440425D01*
X236551Y440422D01*
X236513Y440411D01*
X236472Y440407D01*
X236449Y440399D01*
X236432Y440397D01*
X236347Y440363D01*
X236246Y440334D01*
X236211Y440313D01*
X236173Y440300D01*
X236154Y440287D01*
X236136Y440280D01*
X236059Y440224D01*
X235972Y440172D01*
X235927Y440132D01*
X235910Y440121D01*
X235896Y440106D01*
X235895Y440104D01*
X235879Y440093D01*
X235872Y440084D01*
X235851Y440066D01*
X234312Y438527D01*
X230346Y436884D01*
X226054Y436884D01*
X222088Y438527D01*
X219052Y441563D01*
X217409Y445529D01*
X217409Y449821D01*
X219052Y453787D01*
X222088Y456823D01*
X223219Y457291D01*
X223244Y457306D01*
X223272Y457315D01*
X223382Y457385D01*
X223495Y457449D01*
X223516Y457470D01*
X223541Y457485D01*
X223630Y457580D01*
X223723Y457670D01*
X223739Y457695D01*
X223759Y457717D01*
X223822Y457831D01*
X223890Y457941D01*
X223898Y457970D01*
X223913Y457995D01*
X223945Y458121D01*
X223983Y458245D01*
X223985Y458275D01*
X223992Y458303D01*
X224002Y458464D01*
X224002Y461765D01*
X223987Y461883D01*
X223980Y462002D01*
X223967Y462040D01*
X223962Y462081D01*
X223919Y462191D01*
X223882Y462304D01*
X223860Y462339D01*
X223845Y462376D01*
X223776Y462472D01*
X223712Y462573D01*
X223682Y462601D01*
X223659Y462634D01*
X223567Y462710D01*
X223480Y462791D01*
X223445Y462811D01*
X223414Y462836D01*
X223306Y462887D01*
X223202Y462945D01*
X223162Y462955D01*
X223126Y462972D01*
X223009Y462994D01*
X222894Y463024D01*
X222834Y463028D01*
X222814Y463032D01*
X222793Y463030D01*
X222733Y463034D01*
X221023Y463034D01*
X219973Y464084D01*
X219878Y464157D01*
X219789Y464236D01*
X219753Y464255D01*
X219721Y464279D01*
X219612Y464327D01*
X219506Y464381D01*
X219467Y464390D01*
X219429Y464406D01*
X219312Y464424D01*
X219196Y464450D01*
X219155Y464449D01*
X219115Y464455D01*
X218997Y464444D01*
X218878Y464441D01*
X218839Y464429D01*
X218799Y464426D01*
X218686Y464385D01*
X218572Y464352D01*
X218538Y464332D01*
X218499Y464318D01*
X218401Y464251D01*
X218298Y464191D01*
X218253Y464151D01*
X218236Y464139D01*
X218223Y464124D01*
X218178Y464084D01*
X217127Y463034D01*
X202023Y463034D01*
X200534Y464523D01*
X200534Y467208D01*
X200519Y467326D01*
X200512Y467445D01*
X200499Y467483D01*
X200494Y467524D01*
X200451Y467634D01*
X200414Y467747D01*
X200392Y467782D01*
X200377Y467819D01*
X200308Y467915D01*
X200244Y468016D01*
X200214Y468044D01*
X200191Y468077D01*
X200099Y468153D01*
X200012Y468234D01*
X199977Y468254D01*
X199946Y468279D01*
X199838Y468330D01*
X199734Y468388D01*
X199694Y468398D01*
X199658Y468415D01*
X199541Y468437D01*
X199426Y468467D01*
X199366Y468471D01*
X199346Y468475D01*
X199325Y468473D01*
X199265Y468477D01*
X195460Y468477D01*
X195342Y468462D01*
X195223Y468455D01*
X195185Y468442D01*
X195144Y468437D01*
X195034Y468394D01*
X194921Y468357D01*
X194886Y468335D01*
X194849Y468320D01*
X194753Y468251D01*
X194652Y468187D01*
X194624Y468157D01*
X194591Y468134D01*
X194515Y468042D01*
X194434Y467955D01*
X194414Y467920D01*
X194389Y467889D01*
X194338Y467781D01*
X194280Y467677D01*
X194270Y467637D01*
X194253Y467601D01*
X194231Y467484D01*
X194201Y467369D01*
X194197Y467309D01*
X194193Y467289D01*
X194195Y467268D01*
X194191Y467208D01*
X194191Y465498D01*
X193141Y464447D01*
X193068Y464353D01*
X192989Y464264D01*
X192971Y464228D01*
X192946Y464196D01*
X192898Y464087D01*
X192844Y463981D01*
X192835Y463942D01*
X192819Y463904D01*
X192801Y463787D01*
X192775Y463671D01*
X192776Y463630D01*
X192770Y463590D01*
X192781Y463472D01*
X192784Y463353D01*
X192796Y463314D01*
X192799Y463274D01*
X192840Y463161D01*
X192873Y463047D01*
X192893Y463012D01*
X192907Y462974D01*
X192974Y462876D01*
X193034Y462773D01*
X193074Y462728D01*
X193086Y462711D01*
X193101Y462698D01*
X193141Y462652D01*
X193683Y462110D01*
X194018Y461531D01*
X194191Y460884D01*
X194191Y459735D01*
X194206Y459617D01*
X194213Y459498D01*
X194226Y459460D01*
X194231Y459419D01*
X194274Y459309D01*
X194311Y459196D01*
X194333Y459161D01*
X194348Y459124D01*
X194417Y459028D01*
X194481Y458927D01*
X194511Y458899D01*
X194534Y458866D01*
X194626Y458790D01*
X194713Y458709D01*
X194748Y458689D01*
X194779Y458664D01*
X194887Y458613D01*
X194991Y458555D01*
X195031Y458545D01*
X195067Y458528D01*
X195184Y458506D01*
X195299Y458476D01*
X195359Y458472D01*
X195379Y458468D01*
X195400Y458470D01*
X195460Y458466D01*
X200661Y458466D01*
X200661Y448945D01*
X200676Y448827D01*
X200683Y448708D01*
X200696Y448670D01*
X200701Y448630D01*
X200744Y448519D01*
X200781Y448406D01*
X200803Y448372D01*
X200818Y448334D01*
X200888Y448238D01*
X200951Y448137D01*
X200981Y448109D01*
X201004Y448077D01*
X201096Y448001D01*
X201183Y447919D01*
X201218Y447900D01*
X201249Y447874D01*
X201357Y447823D01*
X201461Y447766D01*
X201501Y447755D01*
X201537Y447738D01*
X201654Y447716D01*
X201769Y447686D01*
X201830Y447682D01*
X201850Y447678D01*
X201870Y447680D01*
X201930Y447676D01*
X203201Y447676D01*
X203201Y447674D01*
X201930Y447674D01*
X201812Y447659D01*
X201693Y447652D01*
X201655Y447639D01*
X201614Y447634D01*
X201504Y447590D01*
X201391Y447554D01*
X201356Y447532D01*
X201319Y447517D01*
X201223Y447447D01*
X201122Y447384D01*
X201094Y447354D01*
X201061Y447330D01*
X200986Y447239D01*
X200904Y447152D01*
X200884Y447117D01*
X200859Y447085D01*
X200808Y446978D01*
X200750Y446873D01*
X200740Y446834D01*
X200723Y446798D01*
X200701Y446681D01*
X200671Y446566D01*
X200667Y446505D01*
X200663Y446485D01*
X200665Y446465D01*
X200661Y446405D01*
X200661Y436884D01*
X194616Y436884D01*
X193969Y437057D01*
X193390Y437392D01*
X192917Y437865D01*
X192582Y438444D01*
X192409Y439091D01*
X192409Y443740D01*
X192394Y443858D01*
X192387Y443977D01*
X192374Y444015D01*
X192369Y444056D01*
X192326Y444166D01*
X192289Y444279D01*
X192267Y444314D01*
X192252Y444351D01*
X192183Y444447D01*
X192119Y444548D01*
X192089Y444576D01*
X192066Y444609D01*
X191974Y444685D01*
X191887Y444766D01*
X191852Y444786D01*
X191821Y444811D01*
X191713Y444862D01*
X191609Y444920D01*
X191569Y444930D01*
X191533Y444947D01*
X191416Y444969D01*
X191301Y444999D01*
X191241Y445003D01*
X191221Y445007D01*
X191200Y445005D01*
X191140Y445009D01*
X186689Y445009D01*
X186689Y452780D01*
X186674Y452898D01*
X186667Y453017D01*
X186654Y453055D01*
X186649Y453095D01*
X186605Y453206D01*
X186569Y453319D01*
X186547Y453354D01*
X186532Y453391D01*
X186462Y453487D01*
X186399Y453588D01*
X186369Y453616D01*
X186345Y453648D01*
X186254Y453724D01*
X186167Y453806D01*
X186132Y453825D01*
X186100Y453851D01*
X185993Y453902D01*
X185889Y453959D01*
X185849Y453970D01*
X185813Y453987D01*
X185696Y454009D01*
X185581Y454039D01*
X185520Y454043D01*
X185500Y454047D01*
X185480Y454045D01*
X185420Y454049D01*
X184149Y454049D01*
X184149Y455320D01*
X184134Y455438D01*
X184127Y455557D01*
X184114Y455595D01*
X184109Y455635D01*
X184065Y455746D01*
X184029Y455859D01*
X184007Y455894D01*
X183992Y455931D01*
X183922Y456027D01*
X183859Y456128D01*
X183829Y456156D01*
X183805Y456188D01*
X183714Y456264D01*
X183627Y456346D01*
X183592Y456365D01*
X183560Y456391D01*
X183453Y456442D01*
X183349Y456499D01*
X183309Y456510D01*
X183273Y456527D01*
X183156Y456549D01*
X183041Y456579D01*
X182980Y456583D01*
X182960Y456587D01*
X182940Y456585D01*
X182880Y456589D01*
X174210Y456589D01*
X174092Y456574D01*
X173973Y456567D01*
X173935Y456554D01*
X173894Y456549D01*
X165899Y456549D01*
X165899Y461591D01*
X170734Y461591D01*
X171381Y461418D01*
X171960Y461083D01*
X172143Y460901D01*
X172247Y460820D01*
X172348Y460734D01*
X172372Y460722D01*
X172394Y460706D01*
X172515Y460653D01*
X172634Y460595D01*
X172661Y460590D01*
X172686Y460579D01*
X172816Y460559D01*
X172946Y460532D01*
X172973Y460534D01*
X173000Y460529D01*
X173131Y460542D01*
X173264Y460549D01*
X173290Y460557D01*
X173316Y460559D01*
X173441Y460604D01*
X173567Y460644D01*
X173590Y460658D01*
X173616Y460667D01*
X173725Y460741D01*
X173838Y460811D01*
X173856Y460830D01*
X173879Y460845D01*
X173967Y460945D01*
X174058Y461040D01*
X174071Y461064D01*
X174089Y461084D01*
X174150Y461202D01*
X174215Y461317D01*
X174227Y461353D01*
X174234Y461367D01*
X174239Y461388D01*
X174266Y461470D01*
X174282Y461531D01*
X174617Y462110D01*
X175159Y462652D01*
X175232Y462747D01*
X175311Y462836D01*
X175329Y462872D01*
X175354Y462904D01*
X175402Y463013D01*
X175456Y463119D01*
X175465Y463158D01*
X175481Y463196D01*
X175499Y463313D01*
X175525Y463429D01*
X175524Y463470D01*
X175530Y463510D01*
X175519Y463628D01*
X175516Y463747D01*
X175504Y463786D01*
X175501Y463826D01*
X175460Y463939D01*
X175427Y464053D01*
X175407Y464087D01*
X175393Y464126D01*
X175326Y464224D01*
X175266Y464327D01*
X175226Y464372D01*
X175214Y464389D01*
X175199Y464402D01*
X175159Y464447D01*
X173995Y465612D01*
X173971Y465678D01*
X173960Y465694D01*
X173952Y465713D01*
X173871Y465825D01*
X173793Y465941D01*
X173777Y465954D01*
X173766Y465970D01*
X173658Y466059D01*
X173554Y466151D01*
X173536Y466160D01*
X173521Y466173D01*
X173395Y466233D01*
X173271Y466296D01*
X173251Y466300D01*
X173233Y466309D01*
X173096Y466335D01*
X172961Y466365D01*
X172940Y466365D01*
X172921Y466369D01*
X172782Y466360D01*
X172643Y466356D01*
X172623Y466350D01*
X172603Y466349D01*
X172471Y466306D01*
X172337Y466267D01*
X172320Y466257D01*
X172301Y466251D01*
X172183Y466176D01*
X172063Y466106D01*
X172042Y466087D01*
X172032Y466081D01*
X172018Y466066D01*
X171943Y465999D01*
X171452Y465509D01*
X155348Y465509D01*
X153859Y466998D01*
X153859Y471802D01*
X153842Y471940D01*
X153829Y472078D01*
X153822Y472097D01*
X153819Y472117D01*
X153768Y472247D01*
X153721Y472378D01*
X153710Y472394D01*
X153702Y472413D01*
X153621Y472526D01*
X153543Y472641D01*
X153527Y472654D01*
X153516Y472670D01*
X153408Y472760D01*
X153304Y472851D01*
X153286Y472860D01*
X153271Y472873D01*
X153145Y472933D01*
X153021Y472996D01*
X153001Y473000D01*
X152983Y473009D01*
X152847Y473035D01*
X152711Y473065D01*
X152690Y473065D01*
X152671Y473069D01*
X152532Y473060D01*
X152393Y473056D01*
X152373Y473050D01*
X152353Y473049D01*
X152221Y473006D01*
X152087Y472967D01*
X152070Y472957D01*
X152051Y472951D01*
X151933Y472876D01*
X151813Y472806D01*
X151792Y472787D01*
X151782Y472781D01*
X151768Y472766D01*
X151692Y472699D01*
X151552Y472559D01*
X151048Y472559D01*
X150910Y472542D01*
X150772Y472529D01*
X150753Y472522D01*
X150733Y472519D01*
X150603Y472468D01*
X150472Y472421D01*
X150456Y472410D01*
X150437Y472402D01*
X150325Y472321D01*
X150209Y472243D01*
X150196Y472227D01*
X150180Y472216D01*
X150091Y472108D01*
X149999Y472004D01*
X149990Y471986D01*
X149977Y471971D01*
X149917Y471845D01*
X149854Y471721D01*
X149850Y471701D01*
X149841Y471683D01*
X149815Y471546D01*
X149785Y471411D01*
X149785Y471390D01*
X149781Y471371D01*
X149790Y471232D01*
X149794Y471093D01*
X149800Y471073D01*
X149801Y471053D01*
X149844Y470921D01*
X149883Y470787D01*
X149893Y470770D01*
X149899Y470751D01*
X149974Y470633D01*
X150044Y470513D01*
X150063Y470492D01*
X150069Y470482D01*
X150084Y470468D01*
X150151Y470393D01*
X150941Y469602D01*
X150941Y457498D01*
X149452Y456009D01*
X146480Y456009D01*
X146362Y455994D01*
X146243Y455987D01*
X146205Y455974D01*
X146164Y455969D01*
X146054Y455926D01*
X145941Y455889D01*
X145906Y455867D01*
X145869Y455852D01*
X145773Y455783D01*
X145672Y455719D01*
X145644Y455689D01*
X145611Y455666D01*
X145535Y455574D01*
X145454Y455487D01*
X145434Y455452D01*
X145409Y455421D01*
X145358Y455313D01*
X145300Y455209D01*
X145290Y455169D01*
X145273Y455133D01*
X145251Y455016D01*
X145221Y454901D01*
X145217Y454841D01*
X145213Y454821D01*
X145215Y454800D01*
X145211Y454740D01*
X145211Y432204D01*
X145223Y432106D01*
X145226Y432007D01*
X145243Y431949D01*
X145251Y431889D01*
X145287Y431797D01*
X145315Y431701D01*
X145345Y431649D01*
X145368Y431593D01*
X145426Y431513D01*
X145476Y431428D01*
X145542Y431352D01*
X145554Y431336D01*
X145564Y431328D01*
X145582Y431307D01*
X146857Y430032D01*
X146935Y429972D01*
X147007Y429904D01*
X147060Y429875D01*
X147108Y429838D01*
X147199Y429798D01*
X147286Y429750D01*
X147344Y429735D01*
X147400Y429711D01*
X147498Y429696D01*
X147594Y429671D01*
X147694Y429665D01*
X147714Y429661D01*
X147726Y429663D01*
X147754Y429661D01*
X229778Y429661D01*
X236157Y423282D01*
X236235Y423222D01*
X236307Y423154D01*
X236360Y423125D01*
X236408Y423088D01*
X236499Y423048D01*
X236586Y423000D01*
X236644Y422985D01*
X236700Y422961D01*
X236798Y422946D01*
X236894Y422921D01*
X236994Y422915D01*
X237014Y422911D01*
X237026Y422913D01*
X237054Y422911D01*
X251737Y422911D01*
X251874Y422928D01*
G37*
%LPC*%
G36*
X91041Y53339D02*
X91041Y53339D01*
X85089Y59291D01*
X85089Y67709D01*
X90306Y72925D01*
X90366Y73003D01*
X90434Y73075D01*
X90463Y73128D01*
X90500Y73176D01*
X90540Y73267D01*
X90588Y73354D01*
X90603Y73412D01*
X90627Y73468D01*
X90642Y73566D01*
X90667Y73662D01*
X90673Y73762D01*
X90677Y73782D01*
X90675Y73794D01*
X90677Y73822D01*
X90677Y78094D01*
X93727Y81144D01*
X93728Y81144D01*
X96656Y84072D01*
X99706Y87123D01*
X217794Y87123D01*
X226823Y78094D01*
X226823Y74745D01*
X226835Y74647D01*
X226838Y74547D01*
X226855Y74489D01*
X226863Y74429D01*
X226899Y74337D01*
X226927Y74242D01*
X226957Y74190D01*
X226980Y74133D01*
X227038Y74053D01*
X227088Y73968D01*
X227154Y73893D01*
X227166Y73876D01*
X227176Y73868D01*
X227194Y73847D01*
X227610Y73432D01*
X228573Y71108D01*
X228573Y68592D01*
X227610Y66268D01*
X225832Y64490D01*
X223508Y63527D01*
X220992Y63527D01*
X218668Y64490D01*
X216890Y66268D01*
X215927Y68592D01*
X215927Y71108D01*
X216906Y73470D01*
X216975Y73548D01*
X216993Y73584D01*
X217018Y73616D01*
X217065Y73725D01*
X217120Y73831D01*
X217128Y73871D01*
X217144Y73908D01*
X217163Y74025D01*
X217189Y74142D01*
X217188Y74182D01*
X217194Y74222D01*
X217183Y74340D01*
X217180Y74460D01*
X217168Y74498D01*
X217165Y74539D01*
X217124Y74651D01*
X217091Y74765D01*
X217071Y74800D01*
X217057Y74838D01*
X216990Y74936D01*
X216930Y75039D01*
X216890Y75084D01*
X216878Y75101D01*
X216863Y75114D01*
X216823Y75160D01*
X214378Y77606D01*
X214299Y77666D01*
X214227Y77734D01*
X214174Y77763D01*
X214126Y77800D01*
X214035Y77840D01*
X213949Y77888D01*
X213890Y77903D01*
X213835Y77927D01*
X213737Y77942D01*
X213641Y77967D01*
X213541Y77973D01*
X213520Y77977D01*
X213508Y77975D01*
X213480Y77977D01*
X104020Y77977D01*
X103922Y77965D01*
X103823Y77962D01*
X103764Y77945D01*
X103704Y77937D01*
X103612Y77901D01*
X103517Y77873D01*
X103465Y77843D01*
X103409Y77820D01*
X103329Y77762D01*
X103243Y77712D01*
X103168Y77646D01*
X103151Y77634D01*
X103143Y77624D01*
X103122Y77606D01*
X100216Y74699D01*
X100143Y74605D01*
X100064Y74516D01*
X100045Y74480D01*
X100021Y74448D01*
X99973Y74338D01*
X99919Y74232D01*
X99910Y74193D01*
X99894Y74156D01*
X99876Y74038D01*
X99850Y73922D01*
X99851Y73882D01*
X99844Y73842D01*
X99856Y73723D01*
X99859Y73604D01*
X99871Y73565D01*
X99874Y73525D01*
X99915Y73413D01*
X99948Y73299D01*
X99968Y73264D01*
X99982Y73226D01*
X100049Y73127D01*
X100109Y73025D01*
X100149Y72979D01*
X100160Y72963D01*
X100176Y72949D01*
X100216Y72904D01*
X105411Y67709D01*
X105411Y59291D01*
X99459Y53339D01*
X91041Y53339D01*
G37*
%LPD*%
%LPC*%
G36*
X697887Y22605D02*
X697887Y22605D01*
X692530Y27962D01*
X692530Y35538D01*
X697887Y40895D01*
X704905Y40895D01*
X705003Y40907D01*
X705102Y40910D01*
X705160Y40927D01*
X705220Y40935D01*
X705312Y40971D01*
X705408Y40999D01*
X705460Y41029D01*
X705516Y41052D01*
X705596Y41110D01*
X705681Y41160D01*
X705757Y41226D01*
X705773Y41238D01*
X705781Y41248D01*
X705802Y41267D01*
X707018Y42482D01*
X707078Y42560D01*
X707146Y42632D01*
X707175Y42685D01*
X707212Y42733D01*
X707252Y42824D01*
X707300Y42911D01*
X707315Y42969D01*
X707339Y43025D01*
X707354Y43123D01*
X707379Y43219D01*
X707385Y43319D01*
X707389Y43339D01*
X707387Y43351D01*
X707389Y43379D01*
X707389Y163503D01*
X728672Y184786D01*
X740468Y184786D01*
X740566Y184798D01*
X740666Y184801D01*
X740724Y184818D01*
X740784Y184826D01*
X740876Y184862D01*
X740971Y184890D01*
X741023Y184920D01*
X741080Y184943D01*
X741160Y185001D01*
X741245Y185051D01*
X741320Y185117D01*
X741337Y185129D01*
X741345Y185139D01*
X741366Y185157D01*
X742543Y186335D01*
X744867Y187298D01*
X747383Y187298D01*
X749707Y186335D01*
X751485Y184557D01*
X752448Y182233D01*
X752448Y179717D01*
X751485Y177393D01*
X749707Y175615D01*
X747383Y174652D01*
X744867Y174652D01*
X742543Y175615D01*
X741366Y176793D01*
X741288Y176853D01*
X741215Y176921D01*
X741162Y176950D01*
X741115Y176987D01*
X741024Y177027D01*
X740937Y177075D01*
X740878Y177090D01*
X740823Y177114D01*
X740725Y177129D01*
X740629Y177154D01*
X740529Y177160D01*
X740509Y177164D01*
X740496Y177162D01*
X740468Y177164D01*
X732354Y177164D01*
X732256Y177152D01*
X732157Y177149D01*
X732099Y177132D01*
X732039Y177124D01*
X731947Y177088D01*
X731851Y177060D01*
X731799Y177030D01*
X731743Y177007D01*
X731663Y176949D01*
X731578Y176899D01*
X731502Y176833D01*
X731486Y176821D01*
X731478Y176811D01*
X731457Y176793D01*
X715382Y160718D01*
X715322Y160640D01*
X715254Y160568D01*
X715225Y160515D01*
X715188Y160467D01*
X715148Y160376D01*
X715100Y160289D01*
X715085Y160231D01*
X715061Y160175D01*
X715046Y160077D01*
X715021Y159981D01*
X715015Y159881D01*
X715011Y159861D01*
X715013Y159849D01*
X715011Y159821D01*
X715011Y39697D01*
X711191Y35877D01*
X711131Y35799D01*
X711063Y35727D01*
X711034Y35674D01*
X710997Y35626D01*
X710957Y35535D01*
X710909Y35448D01*
X710894Y35390D01*
X710870Y35334D01*
X710855Y35236D01*
X710830Y35141D01*
X710824Y35040D01*
X710820Y35020D01*
X710822Y35008D01*
X710820Y34980D01*
X710820Y27962D01*
X705463Y22605D01*
X697887Y22605D01*
G37*
%LPD*%
%LPC*%
G36*
X852817Y339752D02*
X852817Y339752D01*
X850493Y340715D01*
X848715Y342493D01*
X847752Y344817D01*
X847752Y347333D01*
X848715Y349657D01*
X850493Y351435D01*
X852817Y352398D01*
X854483Y352398D01*
X854581Y352410D01*
X854680Y352413D01*
X854738Y352430D01*
X854798Y352438D01*
X854890Y352474D01*
X854986Y352502D01*
X855038Y352532D01*
X855094Y352555D01*
X855174Y352613D01*
X855259Y352663D01*
X855335Y352729D01*
X855351Y352741D01*
X855359Y352751D01*
X855380Y352769D01*
X865197Y362586D01*
X896421Y362586D01*
X896519Y362598D01*
X896618Y362601D01*
X896676Y362618D01*
X896736Y362626D01*
X896828Y362662D01*
X896924Y362690D01*
X896976Y362720D01*
X897032Y362743D01*
X897112Y362801D01*
X897197Y362851D01*
X897273Y362917D01*
X897289Y362929D01*
X897297Y362939D01*
X897318Y362957D01*
X897518Y363157D01*
X897578Y363235D01*
X897646Y363307D01*
X897675Y363360D01*
X897712Y363408D01*
X897752Y363499D01*
X897800Y363586D01*
X897815Y363644D01*
X897839Y363700D01*
X897854Y363798D01*
X897879Y363894D01*
X897885Y363994D01*
X897889Y364014D01*
X897887Y364026D01*
X897889Y364054D01*
X897889Y397568D01*
X897877Y397666D01*
X897874Y397766D01*
X897857Y397824D01*
X897849Y397884D01*
X897813Y397976D01*
X897785Y398071D01*
X897755Y398123D01*
X897732Y398180D01*
X897674Y398260D01*
X897624Y398345D01*
X897558Y398420D01*
X897546Y398437D01*
X897536Y398445D01*
X897518Y398466D01*
X896340Y399643D01*
X895377Y401967D01*
X895377Y404483D01*
X896349Y406828D01*
X896391Y406882D01*
X896480Y406989D01*
X896488Y407008D01*
X896501Y407024D01*
X896556Y407152D01*
X896615Y407277D01*
X896619Y407297D01*
X896627Y407316D01*
X896649Y407453D01*
X896675Y407590D01*
X896674Y407610D01*
X896677Y407630D01*
X896664Y407768D01*
X896655Y407907D01*
X896649Y407926D01*
X896647Y407946D01*
X896600Y408078D01*
X896557Y408209D01*
X896546Y408226D01*
X896540Y408246D01*
X896462Y408360D01*
X896387Y408478D01*
X896372Y408492D01*
X896361Y408509D01*
X896257Y408600D01*
X896155Y408696D01*
X896138Y408706D01*
X896123Y408719D01*
X895999Y408782D01*
X895877Y408850D01*
X895858Y408855D01*
X895839Y408864D01*
X895703Y408894D01*
X895569Y408929D01*
X895541Y408931D01*
X895529Y408934D01*
X895509Y408933D01*
X895408Y408939D01*
X871547Y408939D01*
X866139Y414347D01*
X866139Y422968D01*
X866127Y423066D01*
X866124Y423166D01*
X866107Y423224D01*
X866099Y423284D01*
X866063Y423376D01*
X866035Y423471D01*
X866005Y423523D01*
X865982Y423580D01*
X865924Y423660D01*
X865874Y423745D01*
X865808Y423820D01*
X865796Y423837D01*
X865786Y423845D01*
X865768Y423866D01*
X864590Y425043D01*
X863627Y427367D01*
X863627Y429883D01*
X864590Y432207D01*
X866368Y433985D01*
X868692Y434948D01*
X871208Y434948D01*
X873532Y433985D01*
X875310Y432207D01*
X876273Y429883D01*
X876273Y427367D01*
X875310Y425043D01*
X874132Y423866D01*
X874072Y423788D01*
X874004Y423715D01*
X873975Y423662D01*
X873938Y423615D01*
X873898Y423524D01*
X873850Y423437D01*
X873835Y423378D01*
X873811Y423323D01*
X873796Y423225D01*
X873771Y423129D01*
X873765Y423029D01*
X873761Y423009D01*
X873763Y422996D01*
X873761Y422968D01*
X873761Y418029D01*
X873773Y417931D01*
X873776Y417832D01*
X873793Y417774D01*
X873801Y417714D01*
X873837Y417622D01*
X873865Y417526D01*
X873895Y417474D01*
X873918Y417418D01*
X873976Y417338D01*
X874026Y417253D01*
X874092Y417177D01*
X874104Y417161D01*
X874114Y417153D01*
X874132Y417132D01*
X874332Y416932D01*
X874410Y416872D01*
X874482Y416804D01*
X874535Y416775D01*
X874583Y416738D01*
X874674Y416698D01*
X874761Y416650D01*
X874819Y416635D01*
X874875Y416611D01*
X874973Y416596D01*
X875069Y416571D01*
X875169Y416565D01*
X875189Y416561D01*
X875201Y416563D01*
X875229Y416561D01*
X900103Y416561D01*
X905511Y411153D01*
X905511Y408882D01*
X905523Y408784D01*
X905526Y408684D01*
X905543Y408626D01*
X905551Y408566D01*
X905587Y408474D01*
X905615Y408379D01*
X905645Y408327D01*
X905668Y408270D01*
X905726Y408190D01*
X905776Y408105D01*
X905842Y408030D01*
X905854Y408013D01*
X905864Y408005D01*
X905882Y407984D01*
X907060Y406807D01*
X908023Y404483D01*
X908023Y401967D01*
X907060Y399643D01*
X905882Y398466D01*
X905822Y398388D01*
X905754Y398315D01*
X905725Y398262D01*
X905688Y398215D01*
X905648Y398124D01*
X905600Y398037D01*
X905585Y397978D01*
X905561Y397923D01*
X905546Y397825D01*
X905521Y397729D01*
X905515Y397629D01*
X905511Y397609D01*
X905513Y397596D01*
X905511Y397568D01*
X905511Y360372D01*
X900103Y354964D01*
X868879Y354964D01*
X868781Y354952D01*
X868682Y354949D01*
X868624Y354932D01*
X868564Y354924D01*
X868472Y354888D01*
X868376Y354860D01*
X868324Y354830D01*
X868268Y354807D01*
X868188Y354749D01*
X868103Y354699D01*
X868027Y354633D01*
X868011Y354621D01*
X868003Y354611D01*
X867982Y354593D01*
X860769Y347380D01*
X860709Y347302D01*
X860641Y347230D01*
X860612Y347177D01*
X860575Y347129D01*
X860535Y347038D01*
X860487Y346951D01*
X860472Y346893D01*
X860448Y346837D01*
X860433Y346739D01*
X860408Y346643D01*
X860402Y346543D01*
X860398Y346523D01*
X860400Y346511D01*
X860398Y346483D01*
X860398Y344817D01*
X859435Y342493D01*
X857657Y340715D01*
X855333Y339752D01*
X852817Y339752D01*
G37*
%LPD*%
G36*
X1066820Y313567D02*
X1066820Y313567D01*
X1066839Y313565D01*
X1066941Y313587D01*
X1067043Y313604D01*
X1067060Y313613D01*
X1067080Y313617D01*
X1067169Y313670D01*
X1067260Y313719D01*
X1067274Y313733D01*
X1067291Y313743D01*
X1067358Y313822D01*
X1067430Y313897D01*
X1067438Y313915D01*
X1067451Y313930D01*
X1067490Y314026D01*
X1067533Y314120D01*
X1067535Y314140D01*
X1067543Y314158D01*
X1067561Y314325D01*
X1067561Y333375D01*
X1067559Y333387D01*
X1067560Y333396D01*
X1067559Y333402D01*
X1067560Y333414D01*
X1067538Y333516D01*
X1067522Y333618D01*
X1067512Y333635D01*
X1067508Y333655D01*
X1067455Y333744D01*
X1067406Y333835D01*
X1067392Y333849D01*
X1067382Y333866D01*
X1067303Y333933D01*
X1067228Y334005D01*
X1067210Y334013D01*
X1067195Y334026D01*
X1067099Y334065D01*
X1067005Y334108D01*
X1066985Y334110D01*
X1066967Y334118D01*
X1066800Y334136D01*
X1009650Y334136D01*
X1009630Y334133D01*
X1009611Y334135D01*
X1009509Y334113D01*
X1009407Y334097D01*
X1009390Y334087D01*
X1009370Y334083D01*
X1009281Y334030D01*
X1009190Y333981D01*
X1009176Y333967D01*
X1009159Y333957D01*
X1009092Y333878D01*
X1009021Y333803D01*
X1009012Y333785D01*
X1008999Y333770D01*
X1008960Y333674D01*
X1008917Y333580D01*
X1008915Y333560D01*
X1008907Y333542D01*
X1008889Y333375D01*
X1008889Y314325D01*
X1008892Y314305D01*
X1008890Y314286D01*
X1008912Y314184D01*
X1008929Y314082D01*
X1008938Y314065D01*
X1008942Y314045D01*
X1008995Y313956D01*
X1009044Y313865D01*
X1009058Y313851D01*
X1009068Y313834D01*
X1009147Y313767D01*
X1009222Y313696D01*
X1009240Y313687D01*
X1009255Y313674D01*
X1009351Y313635D01*
X1009445Y313592D01*
X1009465Y313590D01*
X1009483Y313582D01*
X1009650Y313564D01*
X1066800Y313564D01*
X1066820Y313567D01*
G37*
%LPC*%
G36*
X995372Y43814D02*
X995372Y43814D01*
X995080Y44106D01*
X995002Y44166D01*
X994930Y44234D01*
X994877Y44263D01*
X994829Y44300D01*
X994738Y44340D01*
X994651Y44388D01*
X994593Y44403D01*
X994537Y44427D01*
X994439Y44442D01*
X994343Y44467D01*
X994243Y44473D01*
X994223Y44477D01*
X994211Y44475D01*
X994183Y44477D01*
X992517Y44477D01*
X990193Y45440D01*
X988415Y47218D01*
X987452Y49542D01*
X987452Y52058D01*
X988415Y54382D01*
X990193Y56160D01*
X992517Y57123D01*
X995033Y57123D01*
X997357Y56160D01*
X999135Y54382D01*
X1000031Y52219D01*
X1000045Y52194D01*
X1000055Y52166D01*
X1000124Y52056D01*
X1000188Y51943D01*
X1000209Y51922D01*
X1000225Y51897D01*
X1000319Y51808D01*
X1000410Y51715D01*
X1000435Y51699D01*
X1000456Y51679D01*
X1000570Y51616D01*
X1000681Y51548D01*
X1000709Y51540D01*
X1000735Y51525D01*
X1000861Y51493D01*
X1000985Y51455D01*
X1001014Y51453D01*
X1001043Y51446D01*
X1001203Y51436D01*
X1045646Y51436D01*
X1045744Y51448D01*
X1045843Y51451D01*
X1045901Y51468D01*
X1045961Y51476D01*
X1046053Y51512D01*
X1046149Y51540D01*
X1046201Y51570D01*
X1046257Y51593D01*
X1046337Y51651D01*
X1046422Y51701D01*
X1046498Y51767D01*
X1046514Y51779D01*
X1046522Y51789D01*
X1046543Y51807D01*
X1049918Y55182D01*
X1049978Y55260D01*
X1050046Y55332D01*
X1050075Y55385D01*
X1050112Y55433D01*
X1050152Y55524D01*
X1050200Y55611D01*
X1050215Y55669D01*
X1050239Y55725D01*
X1050254Y55823D01*
X1050279Y55919D01*
X1050285Y56019D01*
X1050289Y56039D01*
X1050287Y56051D01*
X1050289Y56079D01*
X1050289Y105443D01*
X1050277Y105541D01*
X1050274Y105641D01*
X1050257Y105699D01*
X1050249Y105759D01*
X1050213Y105851D01*
X1050185Y105946D01*
X1050155Y105998D01*
X1050132Y106055D01*
X1050074Y106135D01*
X1050024Y106220D01*
X1049958Y106295D01*
X1049946Y106312D01*
X1049936Y106320D01*
X1049918Y106341D01*
X1048715Y107543D01*
X1047752Y109867D01*
X1047752Y112383D01*
X1048715Y114707D01*
X1050493Y116485D01*
X1052817Y117448D01*
X1055333Y117448D01*
X1057657Y116485D01*
X1059435Y114707D01*
X1060398Y112383D01*
X1060398Y109867D01*
X1059435Y107543D01*
X1058282Y106391D01*
X1058222Y106313D01*
X1058154Y106240D01*
X1058125Y106187D01*
X1058088Y106140D01*
X1058048Y106049D01*
X1058000Y105962D01*
X1057985Y105903D01*
X1057961Y105848D01*
X1057946Y105750D01*
X1057921Y105654D01*
X1057915Y105554D01*
X1057911Y105534D01*
X1057913Y105521D01*
X1057911Y105493D01*
X1057911Y52397D01*
X1049328Y43814D01*
X995372Y43814D01*
G37*
%LPD*%
%LPC*%
G36*
X827417Y285777D02*
X827417Y285777D01*
X825093Y286740D01*
X823315Y288518D01*
X822352Y290842D01*
X822352Y293358D01*
X823329Y295716D01*
X823351Y295740D01*
X823380Y295793D01*
X823417Y295840D01*
X823457Y295931D01*
X823505Y296018D01*
X823520Y296077D01*
X823544Y296132D01*
X823559Y296230D01*
X823584Y296326D01*
X823590Y296426D01*
X823594Y296446D01*
X823592Y296459D01*
X823594Y296487D01*
X823594Y329013D01*
X823582Y329111D01*
X823579Y329211D01*
X823562Y329269D01*
X823554Y329329D01*
X823518Y329421D01*
X823490Y329516D01*
X823460Y329568D01*
X823437Y329625D01*
X823379Y329705D01*
X823329Y329790D01*
X823325Y329795D01*
X822352Y332142D01*
X822352Y334658D01*
X823315Y336982D01*
X825093Y338760D01*
X827417Y339723D01*
X829933Y339723D01*
X832257Y338760D01*
X834035Y336982D01*
X834998Y334658D01*
X834998Y332142D01*
X834021Y329784D01*
X833999Y329760D01*
X833970Y329707D01*
X833933Y329660D01*
X833893Y329569D01*
X833845Y329482D01*
X833830Y329423D01*
X833806Y329368D01*
X833791Y329270D01*
X833766Y329174D01*
X833760Y329074D01*
X833756Y329054D01*
X833758Y329041D01*
X833756Y329013D01*
X833756Y296487D01*
X833768Y296389D01*
X833771Y296289D01*
X833788Y296231D01*
X833796Y296171D01*
X833832Y296079D01*
X833860Y295984D01*
X833890Y295932D01*
X833913Y295875D01*
X833971Y295795D01*
X834021Y295710D01*
X834025Y295705D01*
X834998Y293358D01*
X834998Y290842D01*
X834035Y288518D01*
X832257Y286740D01*
X829933Y285777D01*
X827417Y285777D01*
G37*
%LPD*%
%LPC*%
G36*
X363306Y444626D02*
X363306Y444626D01*
X359945Y446018D01*
X357372Y448591D01*
X355980Y451952D01*
X355980Y468798D01*
X357372Y472159D01*
X359945Y474732D01*
X363306Y476124D01*
X366944Y476124D01*
X370305Y474732D01*
X372878Y472159D01*
X374270Y468798D01*
X374270Y451952D01*
X372878Y448591D01*
X370305Y446018D01*
X366944Y444626D01*
X363306Y444626D01*
G37*
%LPD*%
%LPC*%
G36*
X402055Y83784D02*
X402055Y83784D01*
X397538Y85655D01*
X394080Y89113D01*
X392209Y93630D01*
X392209Y98520D01*
X394080Y103037D01*
X397538Y106495D01*
X402055Y108366D01*
X406945Y108366D01*
X411462Y106495D01*
X414920Y103037D01*
X416791Y98520D01*
X416791Y93630D01*
X414920Y89113D01*
X411462Y85655D01*
X406945Y83784D01*
X402055Y83784D01*
G37*
%LPD*%
%LPC*%
G36*
X472055Y83784D02*
X472055Y83784D01*
X467538Y85655D01*
X464080Y89113D01*
X462209Y93630D01*
X462209Y98520D01*
X464080Y103037D01*
X467538Y106495D01*
X472055Y108366D01*
X476945Y108366D01*
X481462Y106495D01*
X484920Y103037D01*
X486791Y98520D01*
X486791Y93630D01*
X484920Y89113D01*
X481462Y85655D01*
X476945Y83784D01*
X472055Y83784D01*
G37*
%LPD*%
%LPC*%
G36*
X802067Y381277D02*
X802067Y381277D01*
X799835Y382202D01*
X798127Y383910D01*
X797202Y386142D01*
X797202Y388558D01*
X798127Y390790D01*
X799093Y391756D01*
X799153Y391834D01*
X799221Y391906D01*
X799250Y391959D01*
X799287Y392007D01*
X799327Y392098D01*
X799375Y392185D01*
X799390Y392243D01*
X799414Y392299D01*
X799429Y392397D01*
X799454Y392492D01*
X799460Y392593D01*
X799464Y392613D01*
X799462Y392625D01*
X799464Y392653D01*
X799464Y426850D01*
X799452Y426949D01*
X799449Y427048D01*
X799432Y427106D01*
X799424Y427166D01*
X799388Y427258D01*
X799360Y427353D01*
X799330Y427405D01*
X799307Y427462D01*
X799249Y427542D01*
X799199Y427627D01*
X799133Y427702D01*
X799121Y427719D01*
X799111Y427727D01*
X799093Y427748D01*
X798339Y428502D01*
X797452Y430642D01*
X797452Y432958D01*
X798339Y435098D01*
X799977Y436736D01*
X802117Y437623D01*
X804433Y437623D01*
X806573Y436736D01*
X808211Y435098D01*
X809098Y432958D01*
X809098Y430642D01*
X808211Y428502D01*
X807457Y427748D01*
X807397Y427670D01*
X807329Y427598D01*
X807300Y427545D01*
X807263Y427497D01*
X807223Y427406D01*
X807175Y427319D01*
X807160Y427260D01*
X807136Y427205D01*
X807121Y427107D01*
X807096Y427011D01*
X807090Y426911D01*
X807086Y426891D01*
X807088Y426878D01*
X807086Y426850D01*
X807086Y392653D01*
X807098Y392555D01*
X807101Y392456D01*
X807118Y392398D01*
X807126Y392338D01*
X807162Y392246D01*
X807190Y392150D01*
X807220Y392098D01*
X807243Y392042D01*
X807301Y391962D01*
X807351Y391877D01*
X807417Y391801D01*
X807429Y391785D01*
X807439Y391777D01*
X807457Y391756D01*
X808423Y390790D01*
X809348Y388558D01*
X809348Y386142D01*
X808423Y383910D01*
X806715Y382202D01*
X804483Y381277D01*
X802067Y381277D01*
G37*
%LPD*%
%LPC*%
G36*
X824292Y365402D02*
X824292Y365402D01*
X822060Y366327D01*
X820352Y368035D01*
X819427Y370267D01*
X819427Y372683D01*
X820352Y374915D01*
X821318Y375881D01*
X821378Y375959D01*
X821446Y376031D01*
X821475Y376084D01*
X821512Y376132D01*
X821552Y376223D01*
X821600Y376310D01*
X821615Y376368D01*
X821639Y376424D01*
X821654Y376522D01*
X821679Y376617D01*
X821685Y376718D01*
X821689Y376738D01*
X821687Y376750D01*
X821689Y376778D01*
X821689Y401097D01*
X821677Y401195D01*
X821674Y401294D01*
X821668Y401316D01*
X821667Y401327D01*
X821656Y401361D01*
X821649Y401412D01*
X821613Y401504D01*
X821585Y401600D01*
X821570Y401626D01*
X821569Y401629D01*
X821555Y401651D01*
X821555Y401652D01*
X821532Y401708D01*
X821474Y401788D01*
X821424Y401873D01*
X821358Y401949D01*
X821346Y401965D01*
X821336Y401973D01*
X821318Y401994D01*
X820352Y402960D01*
X819427Y405192D01*
X819427Y407608D01*
X820352Y409840D01*
X822060Y411548D01*
X824292Y412473D01*
X826708Y412473D01*
X828940Y411548D01*
X830648Y409840D01*
X831573Y407608D01*
X831573Y405192D01*
X830648Y402960D01*
X829682Y401994D01*
X829622Y401916D01*
X829554Y401844D01*
X829525Y401791D01*
X829510Y401772D01*
X829509Y401770D01*
X829508Y401770D01*
X829488Y401743D01*
X829448Y401652D01*
X829400Y401565D01*
X829386Y401511D01*
X829373Y401483D01*
X829372Y401476D01*
X829361Y401451D01*
X829346Y401353D01*
X829321Y401258D01*
X829316Y401187D01*
X829313Y401170D01*
X829314Y401155D01*
X829311Y401137D01*
X829313Y401125D01*
X829311Y401097D01*
X829311Y376778D01*
X829323Y376680D01*
X829326Y376581D01*
X829343Y376523D01*
X829351Y376463D01*
X829387Y376371D01*
X829415Y376275D01*
X829445Y376223D01*
X829468Y376167D01*
X829526Y376087D01*
X829576Y376002D01*
X829642Y375926D01*
X829654Y375910D01*
X829664Y375902D01*
X829682Y375881D01*
X830648Y374915D01*
X831573Y372683D01*
X831573Y370267D01*
X830648Y368035D01*
X828940Y366327D01*
X826708Y365402D01*
X824292Y365402D01*
G37*
%LPD*%
%LPC*%
G36*
X414928Y60659D02*
X414928Y60659D01*
X411100Y62245D01*
X408170Y65175D01*
X406584Y69003D01*
X406584Y73147D01*
X408170Y76975D01*
X411100Y79905D01*
X414928Y81491D01*
X419072Y81491D01*
X422900Y79905D01*
X425830Y76975D01*
X427416Y73147D01*
X427416Y69003D01*
X425830Y65175D01*
X422900Y62245D01*
X419072Y60659D01*
X414928Y60659D01*
G37*
%LPD*%
%LPC*%
G36*
X116441Y27939D02*
X116441Y27939D01*
X110489Y33891D01*
X110489Y42309D01*
X116441Y48261D01*
X124859Y48261D01*
X130811Y42309D01*
X130811Y33891D01*
X124859Y27939D01*
X116441Y27939D01*
G37*
%LPD*%
%LPC*%
G36*
X167241Y27939D02*
X167241Y27939D01*
X161289Y33891D01*
X161289Y42309D01*
X167241Y48261D01*
X175659Y48261D01*
X181611Y42309D01*
X181611Y33891D01*
X175659Y27939D01*
X167241Y27939D01*
G37*
%LPD*%
%LPC*%
G36*
X141841Y27939D02*
X141841Y27939D01*
X135889Y33891D01*
X135889Y42309D01*
X141841Y48261D01*
X150259Y48261D01*
X156211Y42309D01*
X156211Y33891D01*
X150259Y27939D01*
X141841Y27939D01*
G37*
%LPD*%
%LPC*%
G36*
X192641Y27939D02*
X192641Y27939D01*
X186689Y33891D01*
X186689Y42309D01*
X192641Y48261D01*
X201059Y48261D01*
X207011Y42309D01*
X207011Y33891D01*
X201059Y27939D01*
X192641Y27939D01*
G37*
%LPD*%
%LPC*%
G36*
X116441Y53339D02*
X116441Y53339D01*
X110489Y59291D01*
X110489Y67709D01*
X116441Y73661D01*
X124859Y73661D01*
X130811Y67709D01*
X130811Y59291D01*
X124859Y53339D01*
X116441Y53339D01*
G37*
%LPD*%
%LPC*%
G36*
X141841Y53339D02*
X141841Y53339D01*
X135889Y59291D01*
X135889Y67709D01*
X141841Y73661D01*
X150259Y73661D01*
X156211Y67709D01*
X156211Y59291D01*
X150259Y53339D01*
X141841Y53339D01*
G37*
%LPD*%
%LPC*%
G36*
X192641Y53339D02*
X192641Y53339D01*
X186689Y59291D01*
X186689Y67709D01*
X192641Y73661D01*
X201059Y73661D01*
X207011Y67709D01*
X207011Y59291D01*
X201059Y53339D01*
X192641Y53339D01*
G37*
%LPD*%
%LPC*%
G36*
X167241Y53339D02*
X167241Y53339D01*
X161289Y59291D01*
X161289Y67709D01*
X167241Y73661D01*
X175659Y73661D01*
X181611Y67709D01*
X181611Y59291D01*
X175659Y53339D01*
X167241Y53339D01*
G37*
%LPD*%
%LPC*%
G36*
X672487Y22605D02*
X672487Y22605D01*
X667130Y27962D01*
X667130Y35538D01*
X672487Y40895D01*
X680063Y40895D01*
X685420Y35538D01*
X685420Y27962D01*
X680063Y22605D01*
X672487Y22605D01*
G37*
%LPD*%
%LPC*%
G36*
X243862Y22605D02*
X243862Y22605D01*
X238505Y27962D01*
X238505Y35538D01*
X243862Y40895D01*
X251438Y40895D01*
X256795Y35538D01*
X256795Y27962D01*
X251438Y22605D01*
X243862Y22605D01*
G37*
%LPD*%
%LPC*%
G36*
X320062Y22605D02*
X320062Y22605D01*
X314705Y27962D01*
X314705Y35538D01*
X320062Y40895D01*
X327638Y40895D01*
X332995Y35538D01*
X332995Y27962D01*
X327638Y22605D01*
X320062Y22605D01*
G37*
%LPD*%
%LPC*%
G36*
X1040724Y293609D02*
X1040724Y293609D01*
X1040724Y298651D01*
X1068266Y298651D01*
X1068266Y295816D01*
X1068093Y295169D01*
X1067758Y294590D01*
X1067285Y294117D01*
X1066706Y293782D01*
X1066059Y293609D01*
X1040724Y293609D01*
G37*
%LPD*%
%LPC*%
G36*
X1010391Y293609D02*
X1010391Y293609D01*
X1009744Y293782D01*
X1009165Y294117D01*
X1008692Y294590D01*
X1008357Y295169D01*
X1008184Y295816D01*
X1008184Y298651D01*
X1035726Y298651D01*
X1035726Y293609D01*
X1010391Y293609D01*
G37*
%LPD*%
%LPC*%
G36*
X932192Y346102D02*
X932192Y346102D01*
X929868Y347065D01*
X928090Y348843D01*
X927127Y351167D01*
X927127Y353683D01*
X928090Y356007D01*
X929868Y357785D01*
X932192Y358748D01*
X934708Y358748D01*
X937032Y357785D01*
X938810Y356007D01*
X939773Y353683D01*
X939773Y351167D01*
X938810Y348843D01*
X937032Y347065D01*
X934708Y346102D01*
X932192Y346102D01*
G37*
%LPD*%
%LPC*%
G36*
X45391Y436884D02*
X45391Y436884D01*
X44744Y437057D01*
X44165Y437392D01*
X43692Y437865D01*
X43357Y438444D01*
X43297Y438668D01*
X43255Y438773D01*
X43220Y438879D01*
X43195Y438919D01*
X43177Y438963D01*
X43110Y439053D01*
X43050Y439148D01*
X43016Y439180D01*
X42988Y439218D01*
X42900Y439289D01*
X42818Y439366D01*
X42777Y439389D01*
X42741Y439419D01*
X42638Y439465D01*
X42540Y439520D01*
X42494Y439531D01*
X42451Y439551D01*
X42341Y439571D01*
X42232Y439599D01*
X42160Y439604D01*
X42139Y439607D01*
X42120Y439606D01*
X42071Y439609D01*
X40574Y439609D01*
X40574Y446651D01*
X45616Y446651D01*
X45616Y446405D01*
X45631Y446287D01*
X45638Y446168D01*
X45650Y446130D01*
X45656Y446089D01*
X45699Y445979D01*
X45736Y445866D01*
X45758Y445831D01*
X45773Y445794D01*
X45842Y445698D01*
X45906Y445597D01*
X45936Y445569D01*
X45959Y445536D01*
X46051Y445461D01*
X46138Y445379D01*
X46173Y445359D01*
X46204Y445334D01*
X46312Y445283D01*
X46416Y445225D01*
X46456Y445215D01*
X46492Y445198D01*
X46609Y445176D01*
X46724Y445146D01*
X46784Y445142D01*
X46804Y445138D01*
X46825Y445140D01*
X46885Y445136D01*
X51436Y445136D01*
X51436Y436884D01*
X45391Y436884D01*
G37*
%LPD*%
%LPC*%
G36*
X43184Y450214D02*
X43184Y450214D01*
X43184Y450380D01*
X43169Y450498D01*
X43162Y450617D01*
X43149Y450655D01*
X43144Y450696D01*
X43101Y450806D01*
X43064Y450919D01*
X43042Y450954D01*
X43027Y450991D01*
X42958Y451087D01*
X42894Y451188D01*
X42864Y451216D01*
X42841Y451249D01*
X42749Y451325D01*
X42662Y451406D01*
X42627Y451426D01*
X42596Y451451D01*
X42488Y451502D01*
X42384Y451560D01*
X42344Y451570D01*
X42308Y451587D01*
X42191Y451609D01*
X42076Y451639D01*
X42016Y451643D01*
X41996Y451647D01*
X41975Y451645D01*
X41915Y451649D01*
X40574Y451649D01*
X40574Y458691D01*
X43409Y458691D01*
X44056Y458518D01*
X44085Y458501D01*
X44176Y458462D01*
X44263Y458415D01*
X44322Y458401D01*
X44378Y458378D01*
X44476Y458363D01*
X44572Y458339D01*
X44633Y458340D01*
X44692Y458331D01*
X44791Y458341D01*
X44890Y458342D01*
X44988Y458362D01*
X45009Y458364D01*
X45020Y458368D01*
X45048Y458374D01*
X45390Y458466D01*
X51436Y458466D01*
X51436Y450214D01*
X43184Y450214D01*
G37*
%LPD*%
%LPC*%
G36*
X176316Y445009D02*
X176316Y445009D01*
X175669Y445182D01*
X175090Y445517D01*
X174617Y445990D01*
X174282Y446569D01*
X174266Y446630D01*
X174216Y446753D01*
X174171Y446878D01*
X174156Y446900D01*
X174146Y446925D01*
X174067Y447031D01*
X173993Y447141D01*
X173972Y447159D01*
X173956Y447180D01*
X173854Y447263D01*
X173754Y447351D01*
X173730Y447363D01*
X173709Y447380D01*
X173589Y447436D01*
X173471Y447496D01*
X173445Y447502D01*
X173420Y447513D01*
X173290Y447536D01*
X173161Y447565D01*
X173134Y447565D01*
X173107Y447569D01*
X172975Y447560D01*
X172843Y447556D01*
X172817Y447548D01*
X172790Y447546D01*
X172664Y447504D01*
X172537Y447467D01*
X172514Y447454D01*
X172488Y447445D01*
X172377Y447373D01*
X172263Y447306D01*
X172235Y447280D01*
X172222Y447272D01*
X172207Y447256D01*
X172143Y447199D01*
X171960Y447017D01*
X171381Y446682D01*
X170734Y446509D01*
X165899Y446509D01*
X165899Y451551D01*
X173934Y451551D01*
X174049Y451521D01*
X174109Y451517D01*
X174129Y451513D01*
X174150Y451515D01*
X174210Y451511D01*
X181611Y451511D01*
X181611Y445009D01*
X176316Y445009D01*
G37*
%LPD*%
%LPC*%
G36*
X417956Y458344D02*
X417956Y458344D01*
X425070Y458344D01*
X425070Y453051D01*
X424845Y451630D01*
X424400Y450261D01*
X423746Y448978D01*
X422900Y447814D01*
X421882Y446796D01*
X420718Y445950D01*
X419435Y445296D01*
X418066Y444851D01*
X417956Y444834D01*
X417956Y458344D01*
G37*
%LPD*%
%LPC*%
G36*
X413784Y444851D02*
X413784Y444851D01*
X412415Y445296D01*
X411132Y445950D01*
X409968Y446796D01*
X408950Y447814D01*
X408104Y448978D01*
X407450Y450261D01*
X407005Y451630D01*
X406780Y453051D01*
X406780Y458344D01*
X413894Y458344D01*
X413894Y444834D01*
X413784Y444851D01*
G37*
%LPD*%
%LPC*%
G36*
X56514Y450214D02*
X56514Y450214D01*
X56514Y458466D01*
X62559Y458466D01*
X63206Y458293D01*
X63785Y457958D01*
X64258Y457485D01*
X64593Y456906D01*
X64766Y456259D01*
X64766Y450214D01*
X56514Y450214D01*
G37*
%LPD*%
%LPC*%
G36*
X205739Y450214D02*
X205739Y450214D01*
X205739Y458466D01*
X211784Y458466D01*
X212431Y458293D01*
X213010Y457958D01*
X213483Y457485D01*
X213818Y456906D01*
X213991Y456259D01*
X213991Y450214D01*
X205739Y450214D01*
G37*
%LPD*%
%LPC*%
G36*
X56514Y436884D02*
X56514Y436884D01*
X56514Y445136D01*
X64766Y445136D01*
X64766Y439091D01*
X64593Y438444D01*
X64258Y437865D01*
X63785Y437392D01*
X63206Y437057D01*
X62559Y436884D01*
X56514Y436884D01*
G37*
%LPD*%
%LPC*%
G36*
X205739Y436884D02*
X205739Y436884D01*
X205739Y445136D01*
X213991Y445136D01*
X213991Y439091D01*
X213818Y438444D01*
X213483Y437865D01*
X213010Y437392D01*
X212431Y437057D01*
X211784Y436884D01*
X205739Y436884D01*
G37*
%LPD*%
%LPC*%
G36*
X40614Y463034D02*
X40614Y463034D01*
X40614Y470536D01*
X47116Y470536D01*
X47116Y465241D01*
X46943Y464594D01*
X46608Y464015D01*
X46135Y463542D01*
X45556Y463207D01*
X44909Y463034D01*
X40614Y463034D01*
G37*
%LPD*%
%LPC*%
G36*
X97789Y40639D02*
X97789Y40639D01*
X97789Y48261D01*
X99459Y48261D01*
X105411Y42309D01*
X105411Y40639D01*
X97789Y40639D01*
G37*
%LPD*%
%LPC*%
G36*
X85089Y40639D02*
X85089Y40639D01*
X85089Y42309D01*
X91041Y48261D01*
X92711Y48261D01*
X92711Y40639D01*
X85089Y40639D01*
G37*
%LPD*%
%LPC*%
G36*
X97789Y27939D02*
X97789Y27939D01*
X97789Y35561D01*
X105411Y35561D01*
X105411Y33891D01*
X99459Y27939D01*
X97789Y27939D01*
G37*
%LPD*%
%LPC*%
G36*
X91041Y27939D02*
X91041Y27939D01*
X85089Y33891D01*
X85089Y35561D01*
X92711Y35561D01*
X92711Y27939D01*
X91041Y27939D01*
G37*
%LPD*%
%LPC*%
G36*
X464539Y73614D02*
X464539Y73614D01*
X464539Y81202D01*
X465998Y80728D01*
X467459Y79983D01*
X468785Y79020D01*
X469945Y77860D01*
X470908Y76534D01*
X471653Y75073D01*
X472127Y73614D01*
X464539Y73614D01*
G37*
%LPD*%
%LPC*%
G36*
X464539Y68536D02*
X464539Y68536D01*
X472127Y68536D01*
X471653Y67077D01*
X470908Y65616D01*
X469945Y64290D01*
X468785Y63130D01*
X467459Y62167D01*
X465998Y61422D01*
X464539Y60948D01*
X464539Y68536D01*
G37*
%LPD*%
%LPC*%
G36*
X451873Y73614D02*
X451873Y73614D01*
X452347Y75073D01*
X453092Y76534D01*
X454055Y77860D01*
X455215Y79020D01*
X456541Y79983D01*
X458002Y80728D01*
X459461Y81202D01*
X459461Y73614D01*
X451873Y73614D01*
G37*
%LPD*%
%LPC*%
G36*
X458002Y61422D02*
X458002Y61422D01*
X456541Y62167D01*
X455215Y63130D01*
X454055Y64290D01*
X453092Y65616D01*
X452347Y67077D01*
X451873Y68536D01*
X459461Y68536D01*
X459461Y60948D01*
X458002Y61422D01*
G37*
%LPD*%
%LPC*%
G36*
X351281Y33781D02*
X351281Y33781D01*
X351281Y40895D01*
X353038Y40895D01*
X358395Y35538D01*
X358395Y33781D01*
X351281Y33781D01*
G37*
%LPD*%
%LPC*%
G36*
X275081Y33781D02*
X275081Y33781D01*
X275081Y40895D01*
X276838Y40895D01*
X282195Y35538D01*
X282195Y33781D01*
X275081Y33781D01*
G37*
%LPD*%
%LPC*%
G36*
X340105Y33781D02*
X340105Y33781D01*
X340105Y35538D01*
X345462Y40895D01*
X347219Y40895D01*
X347219Y33781D01*
X340105Y33781D01*
G37*
%LPD*%
%LPC*%
G36*
X263905Y33781D02*
X263905Y33781D01*
X263905Y35538D01*
X269262Y40895D01*
X271019Y40895D01*
X271019Y33781D01*
X263905Y33781D01*
G37*
%LPD*%
%LPC*%
G36*
X275081Y22605D02*
X275081Y22605D01*
X275081Y29719D01*
X282195Y29719D01*
X282195Y27962D01*
X276838Y22605D01*
X275081Y22605D01*
G37*
%LPD*%
%LPC*%
G36*
X351281Y22605D02*
X351281Y22605D01*
X351281Y29719D01*
X358395Y29719D01*
X358395Y27962D01*
X353038Y22605D01*
X351281Y22605D01*
G37*
%LPD*%
%LPC*%
G36*
X345462Y22605D02*
X345462Y22605D01*
X340105Y27962D01*
X340105Y29719D01*
X347219Y29719D01*
X347219Y22605D01*
X345462Y22605D01*
G37*
%LPD*%
%LPC*%
G36*
X269262Y22605D02*
X269262Y22605D01*
X263905Y27962D01*
X263905Y29719D01*
X271019Y29719D01*
X271019Y22605D01*
X269262Y22605D01*
G37*
%LPD*%
%LPC*%
G36*
X153859Y456549D02*
X153859Y456549D01*
X153859Y459384D01*
X154032Y460031D01*
X154367Y460610D01*
X154840Y461083D01*
X155419Y461418D01*
X156066Y461591D01*
X160901Y461591D01*
X160901Y456549D01*
X153859Y456549D01*
G37*
%LPD*%
%LPC*%
G36*
X30534Y451649D02*
X30534Y451649D01*
X30534Y456484D01*
X30707Y457131D01*
X31042Y457710D01*
X31515Y458183D01*
X32094Y458518D01*
X32741Y458691D01*
X35576Y458691D01*
X35576Y451649D01*
X30534Y451649D01*
G37*
%LPD*%
%LPC*%
G36*
X32741Y439609D02*
X32741Y439609D01*
X32094Y439782D01*
X31515Y440117D01*
X31042Y440590D01*
X30707Y441169D01*
X30534Y441816D01*
X30534Y446651D01*
X35576Y446651D01*
X35576Y439609D01*
X32741Y439609D01*
G37*
%LPD*%
%LPC*%
G36*
X156066Y446509D02*
X156066Y446509D01*
X155419Y446682D01*
X154840Y447017D01*
X154367Y447490D01*
X154032Y448069D01*
X153859Y448716D01*
X153859Y451551D01*
X160901Y451551D01*
X160901Y446509D01*
X156066Y446509D01*
G37*
%LPD*%
%LPC*%
G36*
X95249Y38099D02*
X95249Y38099D01*
X95249Y38101D01*
X95251Y38101D01*
X95251Y38099D01*
X95249Y38099D01*
G37*
%LPD*%
%LPC*%
G36*
X53974Y447674D02*
X53974Y447674D01*
X53974Y447676D01*
X53976Y447676D01*
X53976Y447674D01*
X53974Y447674D01*
G37*
%LPD*%
%LPC*%
G36*
X461999Y71074D02*
X461999Y71074D01*
X461999Y71076D01*
X462001Y71076D01*
X462001Y71074D01*
X461999Y71074D01*
G37*
%LPD*%
D10*
X95250Y38100D03*
X120650Y38100D03*
X146050Y38100D03*
X171450Y38100D03*
X196850Y38100D03*
X95250Y63500D03*
X120650Y63500D03*
X146050Y63500D03*
X171450Y63500D03*
X196850Y63500D03*
D11*
X365125Y453771D02*
X365125Y466979D01*
X390525Y466979D02*
X390525Y453771D01*
X415925Y453771D02*
X415925Y466979D01*
X441325Y466979D02*
X441325Y453771D01*
X466725Y453771D02*
X466725Y466979D01*
X492125Y466979D02*
X492125Y453771D01*
D12*
X1038225Y321150D03*
X1038225Y301150D03*
D13*
X1060225Y345150D03*
X1060225Y277150D03*
D14*
X231775Y377825D03*
D15*
X256775Y377825D03*
D14*
X203200Y447675D03*
D15*
X228200Y447675D03*
X253200Y447675D03*
X278200Y447675D03*
D14*
X82550Y377825D03*
D15*
X107550Y377825D03*
D14*
X53975Y447675D03*
D15*
X78975Y447675D03*
X103975Y447675D03*
X128975Y447675D03*
D16*
X323850Y31750D03*
X349250Y31750D03*
X676275Y31750D03*
X701675Y31750D03*
X247650Y31750D03*
X273050Y31750D03*
D17*
X462000Y71075D03*
X417000Y71075D03*
D18*
X474500Y96075D03*
X404500Y96075D03*
D19*
X240175Y358775D03*
X257175Y358775D03*
X274175Y358775D03*
X90950Y358775D03*
X107950Y358775D03*
X124950Y358775D03*
X262400Y469900D03*
X279400Y469900D03*
X296400Y469900D03*
X110000Y482600D03*
X127000Y482600D03*
X144000Y482600D03*
D20*
X141400Y463550D03*
X163400Y454050D03*
X163400Y473050D03*
D19*
X228575Y473075D03*
X209575Y473075D03*
D21*
X184150Y473050D03*
X184150Y454050D03*
D22*
X28575Y427150D03*
X38075Y449150D03*
X19075Y449150D03*
D19*
X82525Y473075D03*
X63525Y473075D03*
X19075Y473075D03*
X38075Y473075D03*
D23*
X762000Y152400D03*
D24*
X869950Y387350D03*
X847725Y66675D03*
X860425Y66675D03*
X873125Y66675D03*
X885825Y66675D03*
X800100Y22225D03*
X876300Y22225D03*
X606425Y107950D03*
X571500Y85725D03*
X584200Y85725D03*
X571500Y206375D03*
X584200Y206375D03*
D23*
X908050Y422275D03*
X933450Y422275D03*
X962025Y422275D03*
X987425Y422275D03*
D25*
X1009650Y428625D03*
X1063625Y422275D03*
X1063625Y409575D03*
X1063625Y396875D03*
X1063625Y384175D03*
X1063625Y371475D03*
X1063625Y358775D03*
X1038225Y349250D03*
X1025525Y349250D03*
D23*
X1031875Y374650D03*
X1031875Y406400D03*
D25*
X1012825Y349250D03*
X952500Y209550D03*
X1003300Y22225D03*
X1025525Y38100D03*
X1047750Y38100D03*
X1063625Y53975D03*
X1063625Y92075D03*
X847725Y101600D03*
X796925Y127000D03*
X869950Y114300D03*
X825500Y136525D03*
X762000Y44450D03*
X720725Y63500D03*
X714375Y19050D03*
D23*
X723900Y196850D03*
X727075Y234950D03*
X628650Y482600D03*
X679450Y485775D03*
X711200Y485775D03*
X739775Y485775D03*
X288925Y104775D03*
X323850Y104775D03*
X355600Y104775D03*
X901700Y349250D03*
X917575Y352425D03*
X974725Y358775D03*
X996950Y358775D03*
X876300Y317500D03*
X892175Y463550D03*
X828675Y447675D03*
X828675Y469900D03*
X790575Y457200D03*
X492125Y355600D03*
X581025Y349250D03*
X711200Y342900D03*
X390525Y307975D03*
X273050Y247650D03*
X273050Y146050D03*
X850900Y419100D03*
X603250Y222250D03*
X146050Y384175D03*
X498475Y482600D03*
D26*
X393700Y482600D01*
X390525Y479425D01*
X390525Y460375D01*
D23*
X901700Y403225D03*
D27*
X901700Y409575D01*
X898525Y412750D01*
X873125Y412750D01*
X869950Y415925D01*
X869950Y428625D01*
D23*
X869950Y428625D03*
X854075Y346075D03*
D27*
X866775Y358775D01*
X898525Y358775D02*
X901700Y361950D01*
X901700Y403225D01*
X898525Y358775D02*
X866775Y358775D01*
D23*
X615950Y31750D03*
D26*
X615950Y95250D01*
X612775Y98425D01*
X530225Y98425D01*
X520700Y107950D01*
X520700Y123825D01*
D23*
X520700Y136525D03*
D26*
X520700Y123825D01*
D23*
X558800Y234950D03*
D26*
X558800Y190500D01*
D23*
X558800Y190500D03*
D26*
X558800Y285750D02*
X546100Y285750D01*
D27*
X546075Y285775D01*
D23*
X542900Y285775D03*
D26*
X558800Y285750D02*
X558800Y234950D01*
X558800Y285750D02*
X561975Y288925D01*
X612775Y288925D01*
D23*
X612775Y288925D03*
X758825Y260350D03*
D26*
X615950Y260350D01*
X612775Y263525D01*
X612775Y288925D01*
D23*
X828675Y292100D03*
X828675Y333400D03*
D26*
X828675Y292100D01*
X542900Y285775D02*
X542900Y282550D01*
X536575Y276225D01*
X479425Y276225D01*
D23*
X479425Y276225D03*
D26*
X466725Y276225D01*
X460375Y282575D01*
X460375Y342900D01*
D23*
X460375Y342900D03*
D26*
X460375Y381000D02*
X406626Y381000D01*
X460375Y381000D02*
X460375Y342900D01*
D23*
X365125Y95250D03*
D26*
X365125Y120650D01*
X368300Y123825D01*
X520700Y123825D01*
D23*
X660400Y444500D03*
D26*
X508000Y444500D01*
X504825Y447675D01*
X504825Y476250D02*
X498475Y482600D01*
X504825Y476250D02*
X504825Y447675D01*
X542900Y285775D02*
X546075Y285775D01*
D23*
X387350Y400276D03*
D26*
X406626Y381000D01*
D28*
X262400Y469900D02*
X262400Y481475D01*
X266700Y485775D01*
X384175Y485775D01*
X390525Y479425D01*
X110000Y482600D02*
X110000Y467850D01*
X111125Y466725D01*
D23*
X111125Y466725D03*
X262400Y481475D03*
D28*
X90950Y358775D02*
X90950Y347200D01*
X95250Y342900D01*
X152400Y342900D01*
X158750Y349250D01*
X238125Y349250D02*
X241300Y352425D01*
X240175Y353550D01*
X240175Y358775D01*
X238125Y349250D02*
X158750Y349250D01*
X117475Y460375D02*
X111125Y466725D01*
X117475Y460375D02*
X117475Y452871D01*
X117169Y452565D01*
X117169Y442785D01*
X117475Y442479D01*
X117475Y416151D01*
X117475Y415925D01*
X117475Y416151D01*
D23*
X117475Y416151D03*
X66675Y358775D03*
D28*
X90950Y358775D01*
X95250Y76200D02*
X95250Y63500D01*
X95250Y76200D02*
X101600Y82550D01*
X215900Y82550D01*
X222250Y76200D02*
X222250Y69850D01*
D23*
X222250Y69850D03*
D28*
X222250Y76200D02*
X215900Y82550D01*
D23*
X930275Y206375D03*
D27*
X927100Y209550D01*
X927100Y253466D01*
X911388Y266537D01*
X799928Y266872D01*
X790575Y276225D01*
X790575Y441325D02*
X777875Y454025D01*
X695325Y454025D01*
X596900Y454025D02*
X593725Y457200D01*
X593725Y463550D01*
X593750Y463550D01*
D23*
X593750Y463550D03*
D27*
X790575Y441325D02*
X790575Y276225D01*
X695325Y454025D02*
X596900Y454025D01*
D23*
X371475Y381000D03*
D27*
X371475Y212725D01*
X361950Y203200D01*
X254000Y203200D01*
D23*
X254000Y203200D03*
X358775Y393700D03*
D27*
X358775Y222250D01*
X352425Y215900D01*
X254000Y215900D01*
D23*
X254000Y215900D03*
X692150Y431800D03*
D27*
X765175Y431800D01*
X771525Y425450D01*
X781050Y247650D02*
X904875Y247650D01*
X911225Y241300D01*
X911225Y222250D01*
X910999Y222250D01*
D23*
X910999Y222250D03*
D27*
X771525Y257175D02*
X771525Y425450D01*
X771525Y257175D02*
X781050Y247650D01*
D23*
X692150Y444500D03*
D27*
X774700Y444500D01*
X781050Y438150D01*
X781050Y263525D01*
X787400Y257175D01*
X908050Y257175D01*
X917575Y247650D01*
D23*
X917575Y206375D03*
D27*
X917575Y247650D01*
D25*
X825500Y371475D03*
D27*
X825500Y406400D01*
D25*
X825500Y406400D03*
D29*
X803275Y431800D03*
D27*
X803275Y387350D01*
D25*
X803275Y387350D03*
D23*
X711200Y317500D03*
D27*
X488950Y317500D01*
D23*
X488950Y317500D03*
X701675Y307975D03*
D27*
X476250Y307975D01*
D23*
X476250Y307975D03*
X685800Y390525D03*
D27*
X422275Y390525D02*
X403225Y409575D01*
X422275Y390525D02*
X685800Y390525D01*
X403225Y409575D02*
X365125Y409575D01*
X85725Y409575D01*
X28575Y419100D02*
X28575Y427150D01*
X28575Y419100D02*
X31750Y415925D01*
D23*
X365125Y403225D03*
D27*
X365125Y409575D01*
X85725Y409575D02*
X79375Y415925D01*
X31750Y415925D01*
D23*
X676275Y422275D03*
D27*
X469900Y422275D02*
X466725Y425450D01*
X657224Y422275D02*
X676275Y422275D01*
X657224Y422275D02*
X469900Y422275D01*
X466725Y425450D02*
X466725Y460375D01*
D23*
X660400Y403225D03*
D27*
X431800Y403225D01*
X415925Y419100D02*
X339725Y419100D01*
X330200Y419100D02*
X234950Y419100D01*
X415925Y419100D02*
X431800Y403225D01*
X234950Y419100D02*
X228200Y425850D01*
X145650Y425850D01*
X141400Y430100D02*
X141400Y463550D01*
X141400Y430100D02*
X145650Y425850D01*
D23*
X317500Y428625D03*
D27*
X330200Y419100D02*
X339725Y419100D01*
X317500Y419100D01*
X317500Y428625D01*
D23*
X669699Y412750D03*
D27*
X447675Y412750D01*
X441325Y419100D01*
X441325Y460375D01*
D23*
X733425Y219075D03*
D27*
X885825Y219075D01*
X889000Y215900D01*
X889000Y200025D01*
X892175Y196850D01*
X965200Y196850D01*
X968375Y193675D01*
X968375Y168275D01*
X971550Y165100D01*
D23*
X971550Y165100D03*
X1054075Y111125D03*
D30*
X1054100Y111100D01*
D27*
X1054100Y53975D01*
X1047750Y47625D01*
X996950Y47625D01*
X993775Y50800D01*
D23*
X993775Y50800D03*
X1016000Y133350D03*
X769975Y22225D03*
D27*
X769975Y39725D01*
X774700Y44450D01*
X962025Y44450D01*
X968375Y50800D01*
X968375Y127000D02*
X974725Y133350D01*
X1016000Y133350D01*
X968375Y127000D02*
X968375Y50800D01*
D23*
X244475Y250825D03*
D27*
X244475Y95250D01*
D23*
X244475Y95250D03*
X666750Y247424D03*
D27*
X666976Y247424D01*
X682174Y244249D02*
X682400Y244475D01*
X670151Y244249D02*
X666976Y247424D01*
X670151Y244249D02*
X682174Y244249D01*
X758825Y244475D02*
X762000Y241300D01*
D23*
X777875Y228600D03*
D27*
X758825Y244475D02*
X682400Y244475D01*
X762000Y231775D02*
X765175Y228600D01*
X777875Y228600D01*
X762000Y231775D02*
X762000Y241300D01*
D23*
X679450Y250825D03*
D27*
X771525Y250825D02*
X793750Y228600D01*
X771525Y250825D02*
X679450Y250825D01*
X793750Y228826D02*
X793750Y228600D01*
D23*
X793750Y228826D03*
X336550Y339725D03*
D27*
X184150Y339725D01*
D23*
X184150Y339725D03*
X1063625Y330200D03*
X1012825Y330200D03*
X1038225Y330200D03*
X1025525Y330200D03*
X1050925Y330200D03*
X746125Y180975D03*
D27*
X730250Y180975D01*
X711200Y161925D01*
X711200Y41275D01*
X701675Y31750D01*
D23*
X488950Y146050D03*
D27*
X590550Y146050D02*
X593725Y146050D01*
X593725Y111125D01*
D23*
X593725Y111125D03*
D27*
X593725Y146050D02*
X593725Y231775D01*
D23*
X593725Y231775D03*
D27*
X590550Y146050D02*
X488950Y146050D01*
D23*
X349250Y301625D03*
D28*
X342900Y358775D02*
X274175Y358775D01*
X342900Y358775D02*
X349250Y352425D01*
X349250Y301625D01*
X200025Y358775D02*
X124950Y358775D01*
X209550Y393700D02*
X215900Y400050D01*
X266700Y400050D01*
X274175Y392575D01*
X274175Y358775D01*
X209550Y368300D02*
X200025Y358775D01*
X209550Y368300D02*
X209550Y393700D01*
X266700Y400050D02*
X273050Y400050D01*
X273835Y400835D01*
D23*
X273835Y400835D03*
X295275Y438150D03*
D28*
X296400Y439275D01*
X296400Y469900D01*
X161925Y482600D02*
X144000Y482600D01*
X168658Y489333D02*
X241300Y489333D01*
X168658Y489333D02*
X161925Y482600D01*
X241300Y489333D02*
X247650Y482983D01*
X247650Y460375D01*
X241300Y454025D01*
X241394Y453931D01*
X241394Y442785D01*
X255554Y428625D01*
X273050Y428625D01*
X273835Y429410D01*
D23*
X273835Y429410D03*
D28*
X257175Y377425D02*
X257175Y358775D01*
X257175Y377425D02*
X256775Y377825D01*
X107950Y358775D02*
X107550Y359175D01*
X107550Y377825D01*
X279400Y448875D02*
X279400Y469900D01*
X279400Y448875D02*
X278200Y447675D01*
X128975Y447675D02*
X128975Y480625D01*
X127000Y482600D01*
X209550Y473050D02*
X209575Y473075D01*
X209550Y473050D02*
X184150Y473050D01*
X163400Y473050D01*
X228575Y473075D02*
X228575Y448050D01*
X228200Y447675D01*
X63525Y473075D02*
X63500Y473100D01*
X63500Y485775D01*
X60325Y488950D01*
X22225Y488950D02*
X19050Y485775D01*
X19075Y485750D01*
X19075Y473075D01*
X22225Y488950D02*
X60325Y488950D01*
X19075Y473075D02*
X19075Y449150D01*
X78975Y447675D02*
X82525Y451225D01*
X82525Y473075D01*
D23*
X933450Y352425D03*
M02*
