M48
;GenerationSoftware,Autodesk,EAGLE,9.1.0*%
;CreationDate,2018-08-19T20:52:33Z*%
FMAT,2
ICI,OFF
METRIC,TZ,000.000
T10C0.250
T9C0.300
T8C0.350
T7C0.450
T6C0.813
T5C1.016
T4C1.050
T3C1.100
T2C1.300
T1C3.988
%
G90
M71
T1
X5080Y5080
X103822Y45085
T2
X47450Y9608
X40450Y9608
T3
X20320Y44767
X12897Y44767
X10398Y44767
X23177Y37783
X7897Y44767
X5398Y44767
X10755Y37783
X8255Y37783
X27820Y44767
X22820Y44767
X25677Y37783
X25320Y44767
T4
X41700Y7107
X46200Y7107
T5
X14605Y3810
X9525Y6350
X9525Y3810
X12065Y3810
X19685Y6350
X17145Y6350
X14605Y6350
X12065Y6350
X17145Y3810
X19685Y3810
T6
X36513Y46037
X46672Y46037
X49212Y46037
X41593Y46037
X39053Y46037
X44132Y46037
X32385Y3175
X34925Y3175
X67628Y3175
X24765Y3175
X27305Y3175
X70168Y3175
T7
X58420Y20638
X57150Y20638
X58420Y8573
X57150Y8573
X60642Y10795
X87630Y2223
X88582Y6667
X87313Y6667
X80010Y2223
X86043Y6667
X84773Y6667
X86995Y38735
T8
X11112Y46672
X26240Y48147
X11747Y41615
X6667Y35878
X93027Y20638
X59375Y46355
X37148Y38100
X25400Y20320
X35878Y39370
X25400Y21590
X69215Y43180
X91100Y22225
X69215Y44450
X91757Y20638
X71120Y31750
X48895Y31750
X70168Y30797
X47625Y30797
X68580Y39053
X61595Y3175
X67628Y42228
X66040Y40323
X31750Y42863
X66970Y41275
X73343Y21907
X97155Y16510
X105407Y11112
X99377Y5080
X101600Y13335
X76998Y2223
X24447Y25082
X24447Y9525
X66675Y24742
X77788Y22860
X67945Y25082
X79375Y22883
X33655Y33973
X18415Y33973
X106362Y33020
X101282Y33020
X103822Y33020
X102552Y33020
X105092Y33020
X74613Y18098
X48895Y14605
X59372Y11112
X59372Y23177
X34925Y30162
X27384Y40084
X29527Y43815
X27384Y42941
X76200Y15240
X90805Y42228
X93345Y42228
X96202Y42228
X98742Y42228
X49847Y48260
X36513Y40323
X90170Y40323
X86995Y42863
X85408Y34608
X22225Y5842
X52070Y13652
X55880Y23495
X55880Y19050
X54290Y28577
X61277Y28892
X75883Y26035
X82868Y29210
X82868Y33340
X47942Y27622
X46037Y34290
X36513Y9525
X66040Y44450
X38735Y40028
T9
X104140Y35878
X105410Y35878
X105410Y37148
X105410Y38418
X105410Y39688
X105410Y40958
X105410Y41910
X101600Y41910
X80328Y38735
X82550Y40640
X82550Y37148
X100965Y40958
X100965Y36830
X101600Y35878
X102870Y35878
T10
X80328Y43180
M30