M48
;GenerationSoftware,Autodesk,EAGLE,9.1.0*%
;CreationDate,2018-08-20T12:52:22Z*%
FMAT,2
ICI,OFF
METRIC,TZ,000.000
T11C0.250
T10C0.300
T9C0.350
T8C0.450
T7C0.813
T6C1.016
T5C1.050
T4C1.100
T3C1.300
T2C3.988
%
G90
M71
T2
X103822Y45085
X5080Y5080
T3
X40450Y9608
X47450Y9608
T4
X23177Y37783
X25677Y37783
X20320Y44767
X22820Y44767
X25320Y44767
X27820Y44767
X12897Y44767
X10398Y44767
X7897Y44767
X5398Y44767
X10755Y37783
X8255Y37783
T5
X46200Y7107
X41700Y7107
T6
X9525Y3810
X12065Y3810
X14605Y3810
X17145Y3810
X19685Y3810
X9525Y6350
X12065Y6350
X14605Y6350
X17145Y6350
X19685Y6350
T7
X34925Y3175
X36513Y46037
X39053Y46037
X41593Y46037
X44132Y46037
X46672Y46037
X49212Y46037
X27305Y3175
X24765Y3175
X70168Y3175
X67628Y3175
X32385Y3175
T8
X86995Y38735
X84773Y6667
X86043Y6667
X87313Y6667
X88582Y6667
X80010Y2223
X87630Y2223
X60642Y10795
X57150Y8573
X58420Y8573
X57150Y20638
X58420Y20638
T9
X76998Y2223
X97155Y16510
X101600Y13335
X99377Y5080
X105407Y11112
X47625Y30797
X24447Y25082
X24447Y9525
X66675Y24742
X77788Y22860
X67945Y25082
X79375Y22883
X73343Y21907
X66970Y41275
X31750Y42863
X66040Y40323
X36513Y40323
X68580Y39053
X102552Y33020
X70168Y30797
X48895Y31750
X71120Y31750
X91757Y20638
X69215Y44450
X34925Y30162
X76200Y15240
X90805Y42228
X93345Y42228
X96202Y42228
X98742Y42228
X103187Y37465
X103187Y40640
X93345Y35243
X27384Y42941
X29527Y43815
X27384Y40084
X33655Y33973
X59372Y23177
X59372Y11112
X48895Y14605
X74613Y18098
X105092Y33020
X67628Y42228
X103822Y33020
X101282Y33020
X106362Y33020
X18415Y33973
X82868Y44767
X85408Y34608
X86995Y42863
X90170Y40323
X49847Y48260
X14605Y38418
X60325Y22225
X85090Y41910
X27305Y14605
X27305Y24765
X39053Y30797
X91100Y22225
X58102Y34925
X49212Y35560
X79058Y45720
X82868Y46990
X71120Y34290
X89217Y46355
X87630Y31750
X99695Y35878
X97472Y35878
X91757Y35243
X90170Y34925
X35560Y10478
X32385Y10478
X28892Y10478
X73978Y48577
X71120Y48577
X67945Y48577
X62865Y48260
X72708Y23495
X72390Y19685
X38735Y40028
X69215Y43180
X25400Y21590
X35878Y39370
X25400Y20320
X37148Y38100
X59375Y46355
X93027Y20638
X22225Y6985
X6667Y35878
X11747Y41615
X26240Y48147
X11112Y46672
X61595Y3175
X52070Y13652
X36513Y9525
X46037Y34290
X47942Y27622
X66040Y44450
X82868Y33340
X82868Y29210
X75883Y26035
X61277Y28892
X54290Y28577
X55880Y19050
X55880Y23495
T10
X80328Y38735
X71438Y1905
X82550Y40640
X82550Y37148
X106362Y39688
X100965Y42863
X106362Y42228
X106362Y40958
X100330Y2223
X82550Y13652
X86995Y11430
X79693Y12700
X84773Y10160
X106362Y9208
X106362Y5398
X104775Y3810
X102552Y3810
X76200Y4445
X95250Y20955
X101282Y34925
X72073Y6350
X102552Y34925
X103822Y34925
X106362Y35878
X106362Y37148
X106362Y38418
T11
X80328Y43180
M30