G04 EAGLE Gerber RS-274X export*
G75*
%MOMM*%
%FSLAX34Y34*%
%LPD*%
%AMOC8*
5,1,8,0,0,1.08239X$1,22.5*%
G01*
%ADD10C,0.152400*%
%ADD11C,0.076200*%
%ADD12C,0.254000*%
%ADD13C,0.101600*%


D10*
X473984Y169672D02*
X478500Y169672D01*
X478601Y169674D01*
X478702Y169680D01*
X478803Y169689D01*
X478904Y169702D01*
X479004Y169719D01*
X479103Y169740D01*
X479201Y169764D01*
X479298Y169792D01*
X479395Y169824D01*
X479490Y169859D01*
X479583Y169898D01*
X479675Y169940D01*
X479766Y169986D01*
X479855Y170035D01*
X479941Y170087D01*
X480026Y170143D01*
X480109Y170201D01*
X480189Y170263D01*
X480267Y170328D01*
X480343Y170395D01*
X480416Y170465D01*
X480486Y170538D01*
X480553Y170614D01*
X480618Y170692D01*
X480680Y170772D01*
X480738Y170855D01*
X480794Y170940D01*
X480846Y171026D01*
X480895Y171115D01*
X480941Y171206D01*
X480983Y171298D01*
X481022Y171391D01*
X481057Y171486D01*
X481089Y171583D01*
X481117Y171680D01*
X481141Y171778D01*
X481162Y171877D01*
X481179Y171977D01*
X481192Y172078D01*
X481201Y172179D01*
X481207Y172280D01*
X481209Y172381D01*
X481209Y177800D01*
X481207Y177901D01*
X481201Y178002D01*
X481192Y178103D01*
X481179Y178204D01*
X481162Y178304D01*
X481141Y178403D01*
X481117Y178501D01*
X481089Y178598D01*
X481057Y178695D01*
X481022Y178790D01*
X480983Y178883D01*
X480941Y178975D01*
X480895Y179066D01*
X480846Y179155D01*
X480794Y179241D01*
X480738Y179326D01*
X480680Y179409D01*
X480618Y179489D01*
X480553Y179567D01*
X480486Y179643D01*
X480416Y179716D01*
X480343Y179786D01*
X480267Y179853D01*
X480189Y179918D01*
X480109Y179980D01*
X480026Y180038D01*
X479941Y180094D01*
X479855Y180146D01*
X479766Y180195D01*
X479675Y180241D01*
X479583Y180283D01*
X479490Y180322D01*
X479395Y180357D01*
X479298Y180389D01*
X479201Y180417D01*
X479103Y180441D01*
X479004Y180462D01*
X478904Y180479D01*
X478803Y180492D01*
X478702Y180501D01*
X478601Y180507D01*
X478500Y180509D01*
X473984Y180509D01*
X473984Y166963D01*
X473985Y166963D02*
X473987Y166862D01*
X473993Y166761D01*
X474002Y166660D01*
X474015Y166559D01*
X474032Y166459D01*
X474053Y166360D01*
X474077Y166262D01*
X474105Y166165D01*
X474137Y166068D01*
X474172Y165973D01*
X474211Y165880D01*
X474253Y165788D01*
X474299Y165697D01*
X474348Y165609D01*
X474400Y165522D01*
X474456Y165437D01*
X474514Y165354D01*
X474576Y165274D01*
X474641Y165196D01*
X474708Y165120D01*
X474778Y165047D01*
X474851Y164977D01*
X474927Y164910D01*
X475005Y164845D01*
X475085Y164783D01*
X475168Y164725D01*
X475253Y164669D01*
X475340Y164617D01*
X475428Y164568D01*
X475519Y164522D01*
X475611Y164480D01*
X475704Y164441D01*
X475799Y164406D01*
X475896Y164374D01*
X475993Y164346D01*
X476091Y164322D01*
X476190Y164301D01*
X476290Y164284D01*
X476391Y164271D01*
X476492Y164262D01*
X476593Y164256D01*
X476694Y164254D01*
X476694Y164253D02*
X480306Y164253D01*
X467103Y169672D02*
X467103Y180509D01*
X467554Y185025D02*
X467554Y185928D01*
X466651Y185928D01*
X466651Y185025D01*
X467554Y185025D01*
X462113Y180509D02*
X456694Y180509D01*
X460306Y185928D02*
X460306Y172381D01*
X460304Y172280D01*
X460298Y172179D01*
X460289Y172078D01*
X460276Y171977D01*
X460259Y171877D01*
X460238Y171778D01*
X460214Y171680D01*
X460186Y171583D01*
X460154Y171486D01*
X460119Y171391D01*
X460080Y171298D01*
X460038Y171206D01*
X459992Y171115D01*
X459943Y171026D01*
X459891Y170940D01*
X459835Y170855D01*
X459777Y170772D01*
X459715Y170692D01*
X459650Y170614D01*
X459583Y170538D01*
X459513Y170465D01*
X459440Y170395D01*
X459364Y170328D01*
X459286Y170263D01*
X459206Y170201D01*
X459123Y170143D01*
X459038Y170087D01*
X458952Y170035D01*
X458863Y169986D01*
X458772Y169940D01*
X458680Y169898D01*
X458587Y169859D01*
X458492Y169824D01*
X458395Y169792D01*
X458298Y169764D01*
X458200Y169740D01*
X458101Y169719D01*
X458001Y169702D01*
X457900Y169689D01*
X457799Y169680D01*
X457698Y169674D01*
X457597Y169672D01*
X456694Y169672D01*
X450395Y169672D02*
X450395Y185928D01*
X450395Y180509D02*
X445879Y180509D01*
X445775Y180507D01*
X445672Y180501D01*
X445568Y180491D01*
X445465Y180477D01*
X445363Y180459D01*
X445262Y180438D01*
X445161Y180412D01*
X445062Y180383D01*
X444963Y180350D01*
X444866Y180313D01*
X444771Y180272D01*
X444677Y180228D01*
X444585Y180180D01*
X444495Y180129D01*
X444406Y180074D01*
X444320Y180016D01*
X444237Y179954D01*
X444155Y179890D01*
X444077Y179822D01*
X444001Y179752D01*
X443927Y179679D01*
X443857Y179602D01*
X443789Y179524D01*
X443725Y179442D01*
X443663Y179359D01*
X443605Y179273D01*
X443550Y179184D01*
X443499Y179094D01*
X443451Y179002D01*
X443407Y178908D01*
X443366Y178813D01*
X443329Y178716D01*
X443296Y178617D01*
X443267Y178518D01*
X443241Y178417D01*
X443220Y178316D01*
X443202Y178214D01*
X443188Y178111D01*
X443178Y178007D01*
X443172Y177904D01*
X443170Y177800D01*
X443170Y169672D01*
X435805Y172381D02*
X435805Y180509D01*
X435805Y172381D02*
X435803Y172280D01*
X435797Y172179D01*
X435788Y172078D01*
X435775Y171977D01*
X435758Y171877D01*
X435737Y171778D01*
X435713Y171680D01*
X435685Y171583D01*
X435653Y171486D01*
X435618Y171391D01*
X435579Y171298D01*
X435537Y171206D01*
X435491Y171115D01*
X435442Y171026D01*
X435390Y170940D01*
X435334Y170855D01*
X435276Y170772D01*
X435214Y170692D01*
X435149Y170614D01*
X435082Y170538D01*
X435012Y170465D01*
X434939Y170395D01*
X434863Y170328D01*
X434785Y170263D01*
X434705Y170201D01*
X434622Y170143D01*
X434537Y170087D01*
X434451Y170035D01*
X434362Y169986D01*
X434271Y169940D01*
X434179Y169898D01*
X434086Y169859D01*
X433991Y169824D01*
X433894Y169792D01*
X433797Y169764D01*
X433699Y169740D01*
X433600Y169719D01*
X433500Y169702D01*
X433399Y169689D01*
X433298Y169680D01*
X433197Y169674D01*
X433096Y169672D01*
X428581Y169672D01*
X428581Y180509D01*
X421143Y185928D02*
X421143Y169672D01*
X416627Y169672D01*
X416523Y169674D01*
X416420Y169680D01*
X416316Y169690D01*
X416213Y169704D01*
X416111Y169722D01*
X416010Y169743D01*
X415909Y169769D01*
X415810Y169798D01*
X415711Y169831D01*
X415614Y169868D01*
X415519Y169909D01*
X415425Y169953D01*
X415333Y170001D01*
X415243Y170052D01*
X415154Y170107D01*
X415068Y170165D01*
X414985Y170227D01*
X414903Y170291D01*
X414825Y170359D01*
X414749Y170429D01*
X414675Y170502D01*
X414605Y170579D01*
X414537Y170657D01*
X414473Y170739D01*
X414411Y170822D01*
X414353Y170908D01*
X414298Y170997D01*
X414247Y171087D01*
X414199Y171179D01*
X414155Y171273D01*
X414114Y171368D01*
X414077Y171465D01*
X414044Y171564D01*
X414015Y171663D01*
X413989Y171764D01*
X413968Y171865D01*
X413950Y171967D01*
X413936Y172070D01*
X413926Y172174D01*
X413920Y172277D01*
X413918Y172381D01*
X413918Y177800D01*
X413920Y177901D01*
X413926Y178002D01*
X413935Y178103D01*
X413948Y178204D01*
X413965Y178304D01*
X413986Y178403D01*
X414010Y178501D01*
X414038Y178598D01*
X414070Y178695D01*
X414105Y178790D01*
X414144Y178883D01*
X414186Y178975D01*
X414232Y179066D01*
X414281Y179155D01*
X414333Y179241D01*
X414389Y179326D01*
X414447Y179409D01*
X414509Y179489D01*
X414574Y179567D01*
X414641Y179643D01*
X414711Y179716D01*
X414784Y179786D01*
X414860Y179853D01*
X414938Y179918D01*
X415018Y179980D01*
X415101Y180038D01*
X415186Y180094D01*
X415273Y180146D01*
X415361Y180195D01*
X415452Y180241D01*
X415544Y180283D01*
X415637Y180322D01*
X415732Y180357D01*
X415829Y180389D01*
X415926Y180417D01*
X416024Y180441D01*
X416123Y180462D01*
X416223Y180479D01*
X416324Y180492D01*
X416425Y180501D01*
X416526Y180507D01*
X416627Y180509D01*
X421143Y180509D01*
X408156Y170575D02*
X408156Y169672D01*
X408156Y170575D02*
X407253Y170575D01*
X407253Y169672D01*
X408156Y169672D01*
X398690Y169672D02*
X395077Y169672D01*
X398690Y169672D02*
X398791Y169674D01*
X398892Y169680D01*
X398993Y169689D01*
X399094Y169702D01*
X399194Y169719D01*
X399293Y169740D01*
X399391Y169764D01*
X399488Y169792D01*
X399585Y169824D01*
X399680Y169859D01*
X399773Y169898D01*
X399865Y169940D01*
X399956Y169986D01*
X400045Y170035D01*
X400131Y170087D01*
X400216Y170143D01*
X400299Y170201D01*
X400379Y170263D01*
X400457Y170328D01*
X400533Y170395D01*
X400606Y170465D01*
X400676Y170538D01*
X400743Y170614D01*
X400808Y170692D01*
X400870Y170772D01*
X400928Y170855D01*
X400984Y170940D01*
X401036Y171026D01*
X401085Y171115D01*
X401131Y171206D01*
X401173Y171298D01*
X401212Y171391D01*
X401247Y171486D01*
X401279Y171583D01*
X401307Y171680D01*
X401331Y171778D01*
X401352Y171877D01*
X401369Y171977D01*
X401382Y172078D01*
X401391Y172179D01*
X401397Y172280D01*
X401399Y172381D01*
X401399Y177800D01*
X401397Y177901D01*
X401391Y178002D01*
X401382Y178103D01*
X401369Y178204D01*
X401352Y178304D01*
X401331Y178403D01*
X401307Y178501D01*
X401279Y178598D01*
X401247Y178695D01*
X401212Y178790D01*
X401173Y178883D01*
X401131Y178975D01*
X401085Y179066D01*
X401036Y179155D01*
X400984Y179241D01*
X400928Y179326D01*
X400870Y179409D01*
X400808Y179489D01*
X400743Y179567D01*
X400676Y179643D01*
X400606Y179716D01*
X400533Y179786D01*
X400457Y179853D01*
X400379Y179918D01*
X400299Y179980D01*
X400216Y180038D01*
X400131Y180094D01*
X400045Y180146D01*
X399956Y180195D01*
X399865Y180241D01*
X399773Y180283D01*
X399680Y180322D01*
X399585Y180357D01*
X399488Y180389D01*
X399391Y180417D01*
X399293Y180441D01*
X399194Y180462D01*
X399094Y180479D01*
X398993Y180492D01*
X398892Y180501D01*
X398791Y180507D01*
X398690Y180509D01*
X395077Y180509D01*
X389433Y176897D02*
X389433Y173284D01*
X389432Y176897D02*
X389430Y177016D01*
X389424Y177136D01*
X389414Y177255D01*
X389400Y177373D01*
X389383Y177492D01*
X389361Y177609D01*
X389336Y177726D01*
X389306Y177841D01*
X389273Y177956D01*
X389236Y178070D01*
X389196Y178182D01*
X389151Y178293D01*
X389103Y178402D01*
X389052Y178510D01*
X388997Y178616D01*
X388938Y178720D01*
X388876Y178822D01*
X388811Y178922D01*
X388742Y179020D01*
X388670Y179116D01*
X388595Y179209D01*
X388518Y179299D01*
X388437Y179387D01*
X388353Y179472D01*
X388266Y179554D01*
X388177Y179634D01*
X388085Y179710D01*
X387991Y179784D01*
X387894Y179854D01*
X387796Y179921D01*
X387695Y179985D01*
X387591Y180045D01*
X387486Y180102D01*
X387379Y180155D01*
X387271Y180205D01*
X387161Y180251D01*
X387049Y180293D01*
X386936Y180332D01*
X386822Y180367D01*
X386707Y180398D01*
X386590Y180426D01*
X386473Y180449D01*
X386356Y180469D01*
X386237Y180485D01*
X386118Y180497D01*
X385999Y180505D01*
X385880Y180509D01*
X385760Y180509D01*
X385641Y180505D01*
X385522Y180497D01*
X385403Y180485D01*
X385284Y180469D01*
X385167Y180449D01*
X385050Y180426D01*
X384933Y180398D01*
X384818Y180367D01*
X384704Y180332D01*
X384591Y180293D01*
X384479Y180251D01*
X384369Y180205D01*
X384261Y180155D01*
X384154Y180102D01*
X384049Y180045D01*
X383945Y179985D01*
X383844Y179921D01*
X383746Y179854D01*
X383649Y179784D01*
X383555Y179710D01*
X383463Y179634D01*
X383374Y179554D01*
X383287Y179472D01*
X383203Y179387D01*
X383122Y179299D01*
X383045Y179209D01*
X382970Y179116D01*
X382898Y179020D01*
X382829Y178922D01*
X382764Y178822D01*
X382702Y178720D01*
X382643Y178616D01*
X382588Y178510D01*
X382537Y178402D01*
X382489Y178293D01*
X382444Y178182D01*
X382404Y178070D01*
X382367Y177956D01*
X382334Y177841D01*
X382304Y177726D01*
X382279Y177609D01*
X382257Y177492D01*
X382240Y177373D01*
X382226Y177255D01*
X382216Y177136D01*
X382210Y177016D01*
X382208Y176897D01*
X382208Y173284D01*
X382210Y173165D01*
X382216Y173045D01*
X382226Y172926D01*
X382240Y172808D01*
X382257Y172689D01*
X382279Y172572D01*
X382304Y172455D01*
X382334Y172340D01*
X382367Y172225D01*
X382404Y172111D01*
X382444Y171999D01*
X382489Y171888D01*
X382537Y171779D01*
X382588Y171671D01*
X382643Y171565D01*
X382702Y171461D01*
X382764Y171359D01*
X382829Y171259D01*
X382898Y171161D01*
X382970Y171065D01*
X383045Y170972D01*
X383122Y170882D01*
X383203Y170794D01*
X383287Y170709D01*
X383374Y170627D01*
X383463Y170547D01*
X383555Y170471D01*
X383649Y170397D01*
X383746Y170327D01*
X383844Y170260D01*
X383945Y170196D01*
X384049Y170136D01*
X384154Y170079D01*
X384261Y170026D01*
X384369Y169976D01*
X384479Y169930D01*
X384591Y169888D01*
X384704Y169849D01*
X384818Y169814D01*
X384933Y169783D01*
X385050Y169755D01*
X385167Y169732D01*
X385284Y169712D01*
X385403Y169696D01*
X385522Y169684D01*
X385641Y169676D01*
X385760Y169672D01*
X385880Y169672D01*
X385999Y169676D01*
X386118Y169684D01*
X386237Y169696D01*
X386356Y169712D01*
X386473Y169732D01*
X386590Y169755D01*
X386707Y169783D01*
X386822Y169814D01*
X386936Y169849D01*
X387049Y169888D01*
X387161Y169930D01*
X387271Y169976D01*
X387379Y170026D01*
X387486Y170079D01*
X387591Y170136D01*
X387695Y170196D01*
X387796Y170260D01*
X387894Y170327D01*
X387991Y170397D01*
X388085Y170471D01*
X388177Y170547D01*
X388266Y170627D01*
X388353Y170709D01*
X388437Y170794D01*
X388518Y170882D01*
X388595Y170972D01*
X388670Y171065D01*
X388742Y171161D01*
X388811Y171259D01*
X388876Y171359D01*
X388938Y171461D01*
X388997Y171565D01*
X389052Y171671D01*
X389103Y171779D01*
X389151Y171888D01*
X389196Y171999D01*
X389236Y172111D01*
X389273Y172225D01*
X389306Y172340D01*
X389336Y172455D01*
X389361Y172572D01*
X389383Y172689D01*
X389400Y172808D01*
X389414Y172926D01*
X389424Y173045D01*
X389430Y173165D01*
X389432Y173284D01*
X375087Y169672D02*
X375087Y180509D01*
X366959Y180509D01*
X366858Y180507D01*
X366757Y180501D01*
X366656Y180492D01*
X366555Y180479D01*
X366455Y180462D01*
X366356Y180441D01*
X366258Y180417D01*
X366161Y180389D01*
X366064Y180357D01*
X365969Y180322D01*
X365876Y180283D01*
X365784Y180241D01*
X365693Y180195D01*
X365605Y180146D01*
X365518Y180094D01*
X365433Y180038D01*
X365350Y179980D01*
X365270Y179918D01*
X365192Y179853D01*
X365116Y179786D01*
X365043Y179716D01*
X364973Y179643D01*
X364906Y179567D01*
X364841Y179489D01*
X364779Y179409D01*
X364721Y179326D01*
X364665Y179241D01*
X364613Y179155D01*
X364564Y179066D01*
X364518Y178975D01*
X364476Y178883D01*
X364437Y178790D01*
X364402Y178695D01*
X364370Y178598D01*
X364342Y178501D01*
X364318Y178403D01*
X364297Y178304D01*
X364280Y178204D01*
X364267Y178103D01*
X364258Y178002D01*
X364252Y177901D01*
X364250Y177800D01*
X364249Y177800D02*
X364249Y169672D01*
X369668Y169672D02*
X369668Y180509D01*
X357649Y167866D02*
X350424Y187734D01*
X341987Y169672D02*
X337472Y169672D01*
X341987Y169672D02*
X342088Y169674D01*
X342189Y169680D01*
X342290Y169689D01*
X342391Y169702D01*
X342491Y169719D01*
X342590Y169740D01*
X342688Y169764D01*
X342785Y169792D01*
X342882Y169824D01*
X342977Y169859D01*
X343070Y169898D01*
X343162Y169940D01*
X343253Y169986D01*
X343342Y170035D01*
X343428Y170087D01*
X343513Y170143D01*
X343596Y170201D01*
X343676Y170263D01*
X343754Y170328D01*
X343830Y170395D01*
X343903Y170465D01*
X343973Y170538D01*
X344040Y170614D01*
X344105Y170692D01*
X344167Y170772D01*
X344225Y170855D01*
X344281Y170940D01*
X344333Y171026D01*
X344382Y171115D01*
X344428Y171206D01*
X344470Y171298D01*
X344509Y171391D01*
X344544Y171486D01*
X344576Y171583D01*
X344604Y171680D01*
X344628Y171778D01*
X344649Y171877D01*
X344666Y171977D01*
X344679Y172078D01*
X344688Y172179D01*
X344694Y172280D01*
X344696Y172381D01*
X344697Y172381D02*
X344697Y177800D01*
X344696Y177800D02*
X344694Y177901D01*
X344688Y178002D01*
X344679Y178103D01*
X344666Y178204D01*
X344649Y178304D01*
X344628Y178403D01*
X344604Y178501D01*
X344576Y178598D01*
X344544Y178695D01*
X344509Y178790D01*
X344470Y178883D01*
X344428Y178975D01*
X344382Y179066D01*
X344333Y179155D01*
X344281Y179241D01*
X344225Y179326D01*
X344167Y179409D01*
X344105Y179489D01*
X344040Y179567D01*
X343973Y179643D01*
X343903Y179716D01*
X343830Y179786D01*
X343754Y179853D01*
X343676Y179918D01*
X343596Y179980D01*
X343513Y180038D01*
X343428Y180094D01*
X343342Y180146D01*
X343253Y180195D01*
X343162Y180241D01*
X343070Y180283D01*
X342977Y180322D01*
X342882Y180357D01*
X342785Y180389D01*
X342688Y180417D01*
X342590Y180441D01*
X342491Y180462D01*
X342391Y180479D01*
X342290Y180492D01*
X342189Y180501D01*
X342088Y180507D01*
X341987Y180509D01*
X337472Y180509D01*
X337472Y166963D01*
X337474Y166862D01*
X337480Y166761D01*
X337489Y166660D01*
X337502Y166559D01*
X337519Y166459D01*
X337540Y166360D01*
X337564Y166262D01*
X337592Y166165D01*
X337624Y166068D01*
X337659Y165973D01*
X337698Y165880D01*
X337740Y165788D01*
X337786Y165697D01*
X337835Y165609D01*
X337887Y165522D01*
X337943Y165437D01*
X338001Y165354D01*
X338063Y165274D01*
X338128Y165196D01*
X338195Y165120D01*
X338265Y165047D01*
X338338Y164977D01*
X338414Y164910D01*
X338492Y164845D01*
X338572Y164783D01*
X338655Y164725D01*
X338740Y164669D01*
X338827Y164617D01*
X338915Y164568D01*
X339006Y164522D01*
X339098Y164480D01*
X339191Y164441D01*
X339286Y164406D01*
X339383Y164374D01*
X339480Y164346D01*
X339578Y164322D01*
X339677Y164301D01*
X339777Y164284D01*
X339878Y164271D01*
X339979Y164262D01*
X340080Y164256D01*
X340181Y164254D01*
X340181Y164253D02*
X343793Y164253D01*
X327468Y175994D02*
X323404Y175994D01*
X327468Y175994D02*
X327580Y175992D01*
X327691Y175986D01*
X327802Y175976D01*
X327913Y175963D01*
X328023Y175945D01*
X328132Y175923D01*
X328241Y175898D01*
X328349Y175869D01*
X328455Y175836D01*
X328561Y175799D01*
X328665Y175759D01*
X328767Y175715D01*
X328868Y175667D01*
X328967Y175616D01*
X329065Y175561D01*
X329160Y175503D01*
X329253Y175442D01*
X329344Y175377D01*
X329433Y175309D01*
X329519Y175238D01*
X329602Y175165D01*
X329683Y175088D01*
X329762Y175008D01*
X329837Y174926D01*
X329909Y174841D01*
X329979Y174754D01*
X330045Y174664D01*
X330108Y174572D01*
X330168Y174477D01*
X330224Y174381D01*
X330277Y174283D01*
X330326Y174183D01*
X330372Y174081D01*
X330414Y173978D01*
X330453Y173873D01*
X330488Y173767D01*
X330519Y173660D01*
X330546Y173552D01*
X330570Y173443D01*
X330589Y173333D01*
X330605Y173223D01*
X330617Y173112D01*
X330625Y173000D01*
X330629Y172889D01*
X330629Y172777D01*
X330625Y172666D01*
X330617Y172554D01*
X330605Y172443D01*
X330589Y172333D01*
X330570Y172223D01*
X330546Y172114D01*
X330519Y172006D01*
X330488Y171899D01*
X330453Y171793D01*
X330414Y171688D01*
X330372Y171585D01*
X330326Y171483D01*
X330277Y171383D01*
X330224Y171285D01*
X330168Y171189D01*
X330108Y171094D01*
X330045Y171002D01*
X329979Y170912D01*
X329909Y170825D01*
X329837Y170740D01*
X329762Y170658D01*
X329683Y170578D01*
X329602Y170501D01*
X329519Y170428D01*
X329433Y170357D01*
X329344Y170289D01*
X329253Y170224D01*
X329160Y170163D01*
X329065Y170105D01*
X328967Y170050D01*
X328868Y169999D01*
X328767Y169951D01*
X328665Y169907D01*
X328561Y169867D01*
X328455Y169830D01*
X328349Y169797D01*
X328241Y169768D01*
X328132Y169743D01*
X328023Y169721D01*
X327913Y169703D01*
X327802Y169690D01*
X327691Y169680D01*
X327580Y169674D01*
X327468Y169672D01*
X323404Y169672D01*
X323404Y177800D01*
X323406Y177901D01*
X323412Y178002D01*
X323421Y178103D01*
X323434Y178204D01*
X323451Y178304D01*
X323472Y178403D01*
X323496Y178501D01*
X323524Y178598D01*
X323556Y178695D01*
X323591Y178790D01*
X323630Y178883D01*
X323672Y178975D01*
X323718Y179066D01*
X323767Y179155D01*
X323819Y179241D01*
X323875Y179326D01*
X323933Y179409D01*
X323995Y179489D01*
X324060Y179567D01*
X324127Y179643D01*
X324197Y179716D01*
X324270Y179786D01*
X324346Y179853D01*
X324424Y179918D01*
X324504Y179980D01*
X324587Y180038D01*
X324672Y180094D01*
X324759Y180146D01*
X324847Y180195D01*
X324938Y180241D01*
X325030Y180283D01*
X325123Y180322D01*
X325218Y180357D01*
X325315Y180389D01*
X325412Y180417D01*
X325510Y180441D01*
X325609Y180462D01*
X325709Y180479D01*
X325810Y180492D01*
X325911Y180501D01*
X326012Y180507D01*
X326113Y180509D01*
X329725Y180509D01*
X315893Y185928D02*
X315893Y169672D01*
X311377Y169672D01*
X311273Y169674D01*
X311170Y169680D01*
X311066Y169690D01*
X310963Y169704D01*
X310861Y169722D01*
X310760Y169743D01*
X310659Y169769D01*
X310560Y169798D01*
X310461Y169831D01*
X310364Y169868D01*
X310269Y169909D01*
X310175Y169953D01*
X310083Y170001D01*
X309993Y170052D01*
X309904Y170107D01*
X309818Y170165D01*
X309735Y170227D01*
X309653Y170291D01*
X309575Y170359D01*
X309499Y170429D01*
X309425Y170502D01*
X309355Y170579D01*
X309287Y170657D01*
X309223Y170739D01*
X309161Y170822D01*
X309103Y170908D01*
X309048Y170997D01*
X308997Y171087D01*
X308949Y171179D01*
X308905Y171273D01*
X308864Y171368D01*
X308827Y171465D01*
X308794Y171564D01*
X308765Y171663D01*
X308739Y171764D01*
X308718Y171865D01*
X308700Y171967D01*
X308686Y172070D01*
X308676Y172174D01*
X308670Y172277D01*
X308668Y172381D01*
X308668Y177800D01*
X308670Y177901D01*
X308676Y178002D01*
X308685Y178103D01*
X308698Y178204D01*
X308715Y178304D01*
X308736Y178403D01*
X308760Y178501D01*
X308788Y178598D01*
X308820Y178695D01*
X308855Y178790D01*
X308894Y178883D01*
X308936Y178975D01*
X308982Y179066D01*
X309031Y179155D01*
X309083Y179241D01*
X309139Y179326D01*
X309197Y179409D01*
X309259Y179489D01*
X309324Y179567D01*
X309391Y179643D01*
X309461Y179716D01*
X309534Y179786D01*
X309610Y179853D01*
X309688Y179918D01*
X309768Y179980D01*
X309851Y180038D01*
X309936Y180094D01*
X310023Y180146D01*
X310111Y180195D01*
X310202Y180241D01*
X310294Y180283D01*
X310387Y180322D01*
X310482Y180357D01*
X310579Y180389D01*
X310676Y180417D01*
X310774Y180441D01*
X310873Y180462D01*
X310973Y180479D01*
X311074Y180492D01*
X311175Y180501D01*
X311276Y180507D01*
X311377Y180509D01*
X315893Y180509D01*
X301825Y185928D02*
X301825Y169672D01*
X297309Y169672D01*
X297205Y169674D01*
X297102Y169680D01*
X296998Y169690D01*
X296895Y169704D01*
X296793Y169722D01*
X296692Y169743D01*
X296591Y169769D01*
X296492Y169798D01*
X296393Y169831D01*
X296296Y169868D01*
X296201Y169909D01*
X296107Y169953D01*
X296015Y170001D01*
X295925Y170052D01*
X295836Y170107D01*
X295750Y170165D01*
X295667Y170227D01*
X295585Y170291D01*
X295507Y170359D01*
X295431Y170429D01*
X295357Y170502D01*
X295287Y170579D01*
X295219Y170657D01*
X295155Y170739D01*
X295093Y170822D01*
X295035Y170908D01*
X294980Y170997D01*
X294929Y171087D01*
X294881Y171179D01*
X294837Y171273D01*
X294796Y171368D01*
X294759Y171465D01*
X294726Y171564D01*
X294697Y171663D01*
X294671Y171764D01*
X294650Y171865D01*
X294632Y171967D01*
X294618Y172070D01*
X294608Y172174D01*
X294602Y172277D01*
X294600Y172381D01*
X294600Y177800D01*
X294602Y177901D01*
X294608Y178002D01*
X294617Y178103D01*
X294630Y178204D01*
X294647Y178304D01*
X294668Y178403D01*
X294692Y178501D01*
X294720Y178598D01*
X294752Y178695D01*
X294787Y178790D01*
X294826Y178883D01*
X294868Y178975D01*
X294914Y179066D01*
X294963Y179155D01*
X295015Y179241D01*
X295071Y179326D01*
X295129Y179409D01*
X295191Y179489D01*
X295256Y179567D01*
X295323Y179643D01*
X295393Y179716D01*
X295466Y179786D01*
X295542Y179853D01*
X295620Y179918D01*
X295700Y179980D01*
X295783Y180038D01*
X295868Y180094D01*
X295955Y180146D01*
X296043Y180195D01*
X296134Y180241D01*
X296226Y180283D01*
X296319Y180322D01*
X296414Y180357D01*
X296511Y180389D01*
X296608Y180417D01*
X296706Y180441D01*
X296805Y180462D01*
X296905Y180479D01*
X297006Y180492D01*
X297107Y180501D01*
X297208Y180507D01*
X297309Y180509D01*
X301825Y180509D01*
X288114Y185928D02*
X288114Y172381D01*
X288112Y172280D01*
X288106Y172179D01*
X288097Y172078D01*
X288084Y171977D01*
X288067Y171877D01*
X288046Y171778D01*
X288022Y171680D01*
X287994Y171583D01*
X287962Y171486D01*
X287927Y171391D01*
X287888Y171298D01*
X287846Y171206D01*
X287800Y171115D01*
X287751Y171026D01*
X287699Y170940D01*
X287643Y170855D01*
X287585Y170772D01*
X287523Y170692D01*
X287458Y170614D01*
X287391Y170538D01*
X287321Y170465D01*
X287248Y170395D01*
X287172Y170328D01*
X287094Y170263D01*
X287014Y170201D01*
X286931Y170143D01*
X286846Y170087D01*
X286760Y170035D01*
X286671Y169986D01*
X286580Y169940D01*
X286488Y169898D01*
X286395Y169859D01*
X286300Y169824D01*
X286203Y169792D01*
X286106Y169764D01*
X286008Y169740D01*
X285909Y169719D01*
X285809Y169702D01*
X285708Y169689D01*
X285607Y169680D01*
X285506Y169674D01*
X285405Y169672D01*
X276927Y175994D02*
X272863Y175994D01*
X276927Y175994D02*
X277039Y175992D01*
X277150Y175986D01*
X277261Y175976D01*
X277372Y175963D01*
X277482Y175945D01*
X277591Y175923D01*
X277700Y175898D01*
X277808Y175869D01*
X277914Y175836D01*
X278020Y175799D01*
X278124Y175759D01*
X278226Y175715D01*
X278327Y175667D01*
X278426Y175616D01*
X278524Y175561D01*
X278619Y175503D01*
X278712Y175442D01*
X278803Y175377D01*
X278892Y175309D01*
X278978Y175238D01*
X279061Y175165D01*
X279142Y175088D01*
X279221Y175008D01*
X279296Y174926D01*
X279368Y174841D01*
X279438Y174754D01*
X279504Y174664D01*
X279567Y174572D01*
X279627Y174477D01*
X279683Y174381D01*
X279736Y174283D01*
X279785Y174183D01*
X279831Y174081D01*
X279873Y173978D01*
X279912Y173873D01*
X279947Y173767D01*
X279978Y173660D01*
X280005Y173552D01*
X280029Y173443D01*
X280048Y173333D01*
X280064Y173223D01*
X280076Y173112D01*
X280084Y173000D01*
X280088Y172889D01*
X280088Y172777D01*
X280084Y172666D01*
X280076Y172554D01*
X280064Y172443D01*
X280048Y172333D01*
X280029Y172223D01*
X280005Y172114D01*
X279978Y172006D01*
X279947Y171899D01*
X279912Y171793D01*
X279873Y171688D01*
X279831Y171585D01*
X279785Y171483D01*
X279736Y171383D01*
X279683Y171285D01*
X279627Y171189D01*
X279567Y171094D01*
X279504Y171002D01*
X279438Y170912D01*
X279368Y170825D01*
X279296Y170740D01*
X279221Y170658D01*
X279142Y170578D01*
X279061Y170501D01*
X278978Y170428D01*
X278892Y170357D01*
X278803Y170289D01*
X278712Y170224D01*
X278619Y170163D01*
X278524Y170105D01*
X278426Y170050D01*
X278327Y169999D01*
X278226Y169951D01*
X278124Y169907D01*
X278020Y169867D01*
X277914Y169830D01*
X277808Y169797D01*
X277700Y169768D01*
X277591Y169743D01*
X277482Y169721D01*
X277372Y169703D01*
X277261Y169690D01*
X277150Y169680D01*
X277039Y169674D01*
X276927Y169672D01*
X272863Y169672D01*
X272863Y177800D01*
X272865Y177901D01*
X272871Y178002D01*
X272880Y178103D01*
X272893Y178204D01*
X272910Y178304D01*
X272931Y178403D01*
X272955Y178501D01*
X272983Y178598D01*
X273015Y178695D01*
X273050Y178790D01*
X273089Y178883D01*
X273131Y178975D01*
X273177Y179066D01*
X273226Y179155D01*
X273278Y179241D01*
X273334Y179326D01*
X273392Y179409D01*
X273454Y179489D01*
X273519Y179567D01*
X273586Y179643D01*
X273656Y179716D01*
X273729Y179786D01*
X273805Y179853D01*
X273883Y179918D01*
X273963Y179980D01*
X274046Y180038D01*
X274131Y180094D01*
X274218Y180146D01*
X274306Y180195D01*
X274397Y180241D01*
X274489Y180283D01*
X274582Y180322D01*
X274677Y180357D01*
X274774Y180389D01*
X274871Y180417D01*
X274969Y180441D01*
X275068Y180462D01*
X275168Y180479D01*
X275269Y180492D01*
X275370Y180501D01*
X275471Y180507D01*
X275572Y180509D01*
X279184Y180509D01*
X266467Y167866D02*
X259242Y187734D01*
X252087Y175994D02*
X247571Y174188D01*
X252087Y175994D02*
X252175Y176031D01*
X252261Y176072D01*
X252346Y176116D01*
X252429Y176164D01*
X252509Y176215D01*
X252588Y176269D01*
X252664Y176327D01*
X252738Y176387D01*
X252810Y176451D01*
X252878Y176517D01*
X252944Y176587D01*
X253007Y176658D01*
X253068Y176733D01*
X253125Y176809D01*
X253178Y176888D01*
X253229Y176969D01*
X253276Y177052D01*
X253320Y177137D01*
X253360Y177224D01*
X253397Y177312D01*
X253430Y177402D01*
X253460Y177493D01*
X253485Y177585D01*
X253507Y177678D01*
X253525Y177772D01*
X253540Y177866D01*
X253550Y177961D01*
X253556Y178057D01*
X253559Y178152D01*
X253558Y178248D01*
X253552Y178343D01*
X253543Y178439D01*
X253530Y178533D01*
X253514Y178627D01*
X253493Y178721D01*
X253468Y178813D01*
X253440Y178904D01*
X253408Y178994D01*
X253373Y179083D01*
X253334Y179170D01*
X253291Y179256D01*
X253245Y179340D01*
X253195Y179421D01*
X253143Y179501D01*
X253087Y179579D01*
X253027Y179654D01*
X252965Y179726D01*
X252900Y179796D01*
X252832Y179864D01*
X252762Y179928D01*
X252689Y179990D01*
X252613Y180048D01*
X252535Y180104D01*
X252455Y180156D01*
X252373Y180205D01*
X252289Y180250D01*
X252203Y180292D01*
X252116Y180331D01*
X252027Y180366D01*
X251936Y180397D01*
X251845Y180424D01*
X251752Y180448D01*
X251659Y180468D01*
X251565Y180484D01*
X251470Y180496D01*
X251375Y180505D01*
X251279Y180509D01*
X251184Y180510D01*
X250937Y180503D01*
X250691Y180491D01*
X250445Y180473D01*
X250199Y180448D01*
X249955Y180418D01*
X249711Y180382D01*
X249468Y180341D01*
X249226Y180293D01*
X248985Y180239D01*
X248746Y180180D01*
X248508Y180115D01*
X248272Y180044D01*
X248037Y179968D01*
X247804Y179886D01*
X247574Y179798D01*
X247346Y179705D01*
X247119Y179607D01*
X247571Y174187D02*
X247483Y174150D01*
X247397Y174109D01*
X247312Y174065D01*
X247229Y174017D01*
X247149Y173966D01*
X247070Y173912D01*
X246994Y173854D01*
X246920Y173794D01*
X246848Y173730D01*
X246780Y173664D01*
X246714Y173594D01*
X246651Y173523D01*
X246590Y173448D01*
X246533Y173372D01*
X246480Y173293D01*
X246429Y173212D01*
X246382Y173129D01*
X246338Y173044D01*
X246298Y172957D01*
X246261Y172869D01*
X246228Y172779D01*
X246198Y172688D01*
X246173Y172596D01*
X246151Y172503D01*
X246133Y172409D01*
X246118Y172315D01*
X246108Y172220D01*
X246102Y172124D01*
X246099Y172029D01*
X246100Y171933D01*
X246106Y171838D01*
X246115Y171742D01*
X246128Y171648D01*
X246144Y171554D01*
X246165Y171460D01*
X246190Y171368D01*
X246218Y171277D01*
X246250Y171187D01*
X246285Y171098D01*
X246324Y171011D01*
X246367Y170925D01*
X246413Y170841D01*
X246463Y170760D01*
X246515Y170680D01*
X246571Y170602D01*
X246631Y170527D01*
X246693Y170455D01*
X246758Y170385D01*
X246826Y170317D01*
X246896Y170253D01*
X246969Y170191D01*
X247045Y170133D01*
X247123Y170077D01*
X247203Y170025D01*
X247285Y169976D01*
X247369Y169931D01*
X247455Y169889D01*
X247542Y169850D01*
X247631Y169815D01*
X247722Y169784D01*
X247813Y169757D01*
X247906Y169733D01*
X247999Y169713D01*
X248093Y169697D01*
X248188Y169685D01*
X248283Y169676D01*
X248379Y169672D01*
X248474Y169671D01*
X248474Y169672D02*
X248836Y169681D01*
X249198Y169699D01*
X249559Y169726D01*
X249919Y169761D01*
X250279Y169804D01*
X250638Y169856D01*
X250995Y169917D01*
X251350Y169986D01*
X251704Y170063D01*
X252056Y170149D01*
X252406Y170243D01*
X252754Y170346D01*
X253099Y170456D01*
X253441Y170575D01*
X239300Y164253D02*
X239300Y180509D01*
X234784Y180509D01*
X234680Y180507D01*
X234577Y180501D01*
X234473Y180491D01*
X234370Y180477D01*
X234268Y180459D01*
X234167Y180438D01*
X234066Y180412D01*
X233967Y180383D01*
X233868Y180350D01*
X233771Y180313D01*
X233676Y180272D01*
X233582Y180228D01*
X233490Y180180D01*
X233400Y180129D01*
X233311Y180074D01*
X233225Y180016D01*
X233142Y179954D01*
X233060Y179890D01*
X232982Y179822D01*
X232906Y179752D01*
X232832Y179679D01*
X232762Y179602D01*
X232694Y179524D01*
X232630Y179442D01*
X232568Y179359D01*
X232510Y179273D01*
X232455Y179184D01*
X232404Y179094D01*
X232356Y179002D01*
X232312Y178908D01*
X232271Y178813D01*
X232234Y178716D01*
X232201Y178617D01*
X232172Y178518D01*
X232146Y178417D01*
X232125Y178316D01*
X232107Y178214D01*
X232093Y178111D01*
X232083Y178007D01*
X232077Y177904D01*
X232075Y177800D01*
X232075Y172381D01*
X232077Y172280D01*
X232083Y172179D01*
X232092Y172078D01*
X232105Y171977D01*
X232122Y171877D01*
X232143Y171778D01*
X232167Y171680D01*
X232195Y171583D01*
X232227Y171486D01*
X232262Y171391D01*
X232301Y171298D01*
X232343Y171206D01*
X232389Y171115D01*
X232438Y171026D01*
X232490Y170940D01*
X232546Y170855D01*
X232604Y170772D01*
X232666Y170692D01*
X232731Y170614D01*
X232798Y170538D01*
X232868Y170465D01*
X232941Y170395D01*
X233017Y170328D01*
X233095Y170263D01*
X233175Y170201D01*
X233258Y170143D01*
X233343Y170087D01*
X233430Y170035D01*
X233518Y169986D01*
X233609Y169940D01*
X233701Y169898D01*
X233794Y169859D01*
X233889Y169824D01*
X233986Y169792D01*
X234083Y169764D01*
X234181Y169740D01*
X234280Y169719D01*
X234380Y169702D01*
X234481Y169689D01*
X234582Y169680D01*
X234683Y169674D01*
X234784Y169672D01*
X239300Y169672D01*
X223117Y169672D02*
X218601Y169672D01*
X223117Y169672D02*
X223218Y169674D01*
X223319Y169680D01*
X223420Y169689D01*
X223521Y169702D01*
X223621Y169719D01*
X223720Y169740D01*
X223818Y169764D01*
X223915Y169792D01*
X224012Y169824D01*
X224107Y169859D01*
X224200Y169898D01*
X224292Y169940D01*
X224383Y169986D01*
X224472Y170035D01*
X224558Y170087D01*
X224643Y170143D01*
X224726Y170201D01*
X224806Y170263D01*
X224884Y170328D01*
X224960Y170395D01*
X225033Y170465D01*
X225103Y170538D01*
X225170Y170614D01*
X225235Y170692D01*
X225297Y170772D01*
X225355Y170855D01*
X225411Y170940D01*
X225463Y171026D01*
X225512Y171115D01*
X225558Y171206D01*
X225600Y171298D01*
X225639Y171391D01*
X225674Y171486D01*
X225706Y171583D01*
X225734Y171680D01*
X225758Y171778D01*
X225779Y171877D01*
X225796Y171977D01*
X225809Y172078D01*
X225818Y172179D01*
X225824Y172280D01*
X225826Y172381D01*
X225826Y176897D01*
X225824Y177016D01*
X225818Y177136D01*
X225808Y177255D01*
X225794Y177373D01*
X225777Y177492D01*
X225755Y177609D01*
X225730Y177726D01*
X225700Y177841D01*
X225667Y177956D01*
X225630Y178070D01*
X225590Y178182D01*
X225545Y178293D01*
X225497Y178402D01*
X225446Y178510D01*
X225391Y178616D01*
X225332Y178720D01*
X225270Y178822D01*
X225205Y178922D01*
X225136Y179020D01*
X225064Y179116D01*
X224989Y179209D01*
X224912Y179299D01*
X224831Y179387D01*
X224747Y179472D01*
X224660Y179554D01*
X224571Y179634D01*
X224479Y179710D01*
X224385Y179784D01*
X224288Y179854D01*
X224190Y179921D01*
X224089Y179985D01*
X223985Y180045D01*
X223880Y180102D01*
X223773Y180155D01*
X223665Y180205D01*
X223555Y180251D01*
X223443Y180293D01*
X223330Y180332D01*
X223216Y180367D01*
X223101Y180398D01*
X222984Y180426D01*
X222867Y180449D01*
X222750Y180469D01*
X222631Y180485D01*
X222512Y180497D01*
X222393Y180505D01*
X222274Y180509D01*
X222154Y180509D01*
X222035Y180505D01*
X221916Y180497D01*
X221797Y180485D01*
X221678Y180469D01*
X221561Y180449D01*
X221444Y180426D01*
X221327Y180398D01*
X221212Y180367D01*
X221098Y180332D01*
X220985Y180293D01*
X220873Y180251D01*
X220763Y180205D01*
X220655Y180155D01*
X220548Y180102D01*
X220443Y180045D01*
X220339Y179985D01*
X220238Y179921D01*
X220140Y179854D01*
X220043Y179784D01*
X219949Y179710D01*
X219857Y179634D01*
X219768Y179554D01*
X219681Y179472D01*
X219597Y179387D01*
X219516Y179299D01*
X219439Y179209D01*
X219364Y179116D01*
X219292Y179020D01*
X219223Y178922D01*
X219158Y178822D01*
X219096Y178720D01*
X219037Y178616D01*
X218982Y178510D01*
X218931Y178402D01*
X218883Y178293D01*
X218838Y178182D01*
X218798Y178070D01*
X218761Y177956D01*
X218728Y177841D01*
X218698Y177726D01*
X218673Y177609D01*
X218651Y177492D01*
X218634Y177373D01*
X218620Y177255D01*
X218610Y177136D01*
X218604Y177016D01*
X218602Y176897D01*
X218601Y176897D02*
X218601Y175091D01*
X225826Y175091D01*
X209570Y169672D02*
X205054Y169672D01*
X209570Y169672D02*
X209671Y169674D01*
X209772Y169680D01*
X209873Y169689D01*
X209974Y169702D01*
X210074Y169719D01*
X210173Y169740D01*
X210271Y169764D01*
X210368Y169792D01*
X210465Y169824D01*
X210560Y169859D01*
X210653Y169898D01*
X210745Y169940D01*
X210836Y169986D01*
X210925Y170035D01*
X211011Y170087D01*
X211096Y170143D01*
X211179Y170201D01*
X211259Y170263D01*
X211337Y170328D01*
X211413Y170395D01*
X211486Y170465D01*
X211556Y170538D01*
X211623Y170614D01*
X211688Y170692D01*
X211750Y170772D01*
X211808Y170855D01*
X211864Y170940D01*
X211916Y171026D01*
X211965Y171115D01*
X212011Y171206D01*
X212053Y171298D01*
X212092Y171391D01*
X212127Y171486D01*
X212159Y171583D01*
X212187Y171680D01*
X212211Y171778D01*
X212232Y171877D01*
X212249Y171977D01*
X212262Y172078D01*
X212271Y172179D01*
X212277Y172280D01*
X212279Y172381D01*
X212279Y176897D01*
X212277Y177016D01*
X212271Y177136D01*
X212261Y177255D01*
X212247Y177373D01*
X212230Y177492D01*
X212208Y177609D01*
X212183Y177726D01*
X212153Y177841D01*
X212120Y177956D01*
X212083Y178070D01*
X212043Y178182D01*
X211998Y178293D01*
X211950Y178402D01*
X211899Y178510D01*
X211844Y178616D01*
X211785Y178720D01*
X211723Y178822D01*
X211658Y178922D01*
X211589Y179020D01*
X211517Y179116D01*
X211442Y179209D01*
X211365Y179299D01*
X211284Y179387D01*
X211200Y179472D01*
X211113Y179554D01*
X211024Y179634D01*
X210932Y179710D01*
X210838Y179784D01*
X210741Y179854D01*
X210643Y179921D01*
X210542Y179985D01*
X210438Y180045D01*
X210333Y180102D01*
X210226Y180155D01*
X210118Y180205D01*
X210008Y180251D01*
X209896Y180293D01*
X209783Y180332D01*
X209669Y180367D01*
X209554Y180398D01*
X209437Y180426D01*
X209320Y180449D01*
X209203Y180469D01*
X209084Y180485D01*
X208965Y180497D01*
X208846Y180505D01*
X208727Y180509D01*
X208607Y180509D01*
X208488Y180505D01*
X208369Y180497D01*
X208250Y180485D01*
X208131Y180469D01*
X208014Y180449D01*
X207897Y180426D01*
X207780Y180398D01*
X207665Y180367D01*
X207551Y180332D01*
X207438Y180293D01*
X207326Y180251D01*
X207216Y180205D01*
X207108Y180155D01*
X207001Y180102D01*
X206896Y180045D01*
X206792Y179985D01*
X206691Y179921D01*
X206593Y179854D01*
X206496Y179784D01*
X206402Y179710D01*
X206310Y179634D01*
X206221Y179554D01*
X206134Y179472D01*
X206050Y179387D01*
X205969Y179299D01*
X205892Y179209D01*
X205817Y179116D01*
X205745Y179020D01*
X205676Y178922D01*
X205611Y178822D01*
X205549Y178720D01*
X205490Y178616D01*
X205435Y178510D01*
X205384Y178402D01*
X205336Y178293D01*
X205291Y178182D01*
X205251Y178070D01*
X205214Y177956D01*
X205181Y177841D01*
X205151Y177726D01*
X205126Y177609D01*
X205104Y177492D01*
X205087Y177373D01*
X205073Y177255D01*
X205063Y177136D01*
X205057Y177016D01*
X205055Y176897D01*
X205054Y176897D02*
X205054Y175091D01*
X212279Y175091D01*
X191580Y169672D02*
X191580Y185928D01*
X191580Y169672D02*
X196096Y169672D01*
X196197Y169674D01*
X196298Y169680D01*
X196399Y169689D01*
X196500Y169702D01*
X196600Y169719D01*
X196699Y169740D01*
X196797Y169764D01*
X196894Y169792D01*
X196991Y169824D01*
X197086Y169859D01*
X197179Y169898D01*
X197271Y169940D01*
X197362Y169986D01*
X197451Y170035D01*
X197537Y170087D01*
X197622Y170143D01*
X197705Y170201D01*
X197785Y170263D01*
X197863Y170328D01*
X197939Y170395D01*
X198012Y170465D01*
X198082Y170538D01*
X198149Y170614D01*
X198214Y170692D01*
X198276Y170772D01*
X198334Y170855D01*
X198390Y170940D01*
X198442Y171026D01*
X198491Y171115D01*
X198537Y171206D01*
X198579Y171298D01*
X198618Y171391D01*
X198653Y171486D01*
X198685Y171583D01*
X198713Y171680D01*
X198737Y171778D01*
X198758Y171877D01*
X198775Y171977D01*
X198788Y172078D01*
X198797Y172179D01*
X198803Y172280D01*
X198805Y172381D01*
X198805Y177800D01*
X198803Y177901D01*
X198797Y178002D01*
X198788Y178103D01*
X198775Y178204D01*
X198758Y178304D01*
X198737Y178403D01*
X198713Y178501D01*
X198685Y178598D01*
X198653Y178695D01*
X198618Y178790D01*
X198579Y178883D01*
X198537Y178975D01*
X198491Y179066D01*
X198442Y179155D01*
X198390Y179241D01*
X198334Y179326D01*
X198276Y179409D01*
X198214Y179489D01*
X198149Y179567D01*
X198082Y179643D01*
X198012Y179716D01*
X197939Y179786D01*
X197863Y179853D01*
X197785Y179918D01*
X197705Y179980D01*
X197622Y180038D01*
X197537Y180094D01*
X197451Y180146D01*
X197362Y180195D01*
X197271Y180241D01*
X197179Y180283D01*
X197086Y180322D01*
X196991Y180357D01*
X196894Y180389D01*
X196797Y180417D01*
X196699Y180441D01*
X196600Y180462D01*
X196500Y180479D01*
X196399Y180492D01*
X196298Y180501D01*
X196197Y180507D01*
X196096Y180509D01*
X191580Y180509D01*
X184664Y176897D02*
X184664Y173284D01*
X184663Y176897D02*
X184661Y177016D01*
X184655Y177136D01*
X184645Y177255D01*
X184631Y177373D01*
X184614Y177492D01*
X184592Y177609D01*
X184567Y177726D01*
X184537Y177841D01*
X184504Y177956D01*
X184467Y178070D01*
X184427Y178182D01*
X184382Y178293D01*
X184334Y178402D01*
X184283Y178510D01*
X184228Y178616D01*
X184169Y178720D01*
X184107Y178822D01*
X184042Y178922D01*
X183973Y179020D01*
X183901Y179116D01*
X183826Y179209D01*
X183749Y179299D01*
X183668Y179387D01*
X183584Y179472D01*
X183497Y179554D01*
X183408Y179634D01*
X183316Y179710D01*
X183222Y179784D01*
X183125Y179854D01*
X183027Y179921D01*
X182926Y179985D01*
X182822Y180045D01*
X182717Y180102D01*
X182610Y180155D01*
X182502Y180205D01*
X182392Y180251D01*
X182280Y180293D01*
X182167Y180332D01*
X182053Y180367D01*
X181938Y180398D01*
X181821Y180426D01*
X181704Y180449D01*
X181587Y180469D01*
X181468Y180485D01*
X181349Y180497D01*
X181230Y180505D01*
X181111Y180509D01*
X180991Y180509D01*
X180872Y180505D01*
X180753Y180497D01*
X180634Y180485D01*
X180515Y180469D01*
X180398Y180449D01*
X180281Y180426D01*
X180164Y180398D01*
X180049Y180367D01*
X179935Y180332D01*
X179822Y180293D01*
X179710Y180251D01*
X179600Y180205D01*
X179492Y180155D01*
X179385Y180102D01*
X179280Y180045D01*
X179176Y179985D01*
X179075Y179921D01*
X178977Y179854D01*
X178880Y179784D01*
X178786Y179710D01*
X178694Y179634D01*
X178605Y179554D01*
X178518Y179472D01*
X178434Y179387D01*
X178353Y179299D01*
X178276Y179209D01*
X178201Y179116D01*
X178129Y179020D01*
X178060Y178922D01*
X177995Y178822D01*
X177933Y178720D01*
X177874Y178616D01*
X177819Y178510D01*
X177768Y178402D01*
X177720Y178293D01*
X177675Y178182D01*
X177635Y178070D01*
X177598Y177956D01*
X177565Y177841D01*
X177535Y177726D01*
X177510Y177609D01*
X177488Y177492D01*
X177471Y177373D01*
X177457Y177255D01*
X177447Y177136D01*
X177441Y177016D01*
X177439Y176897D01*
X177439Y173284D01*
X177441Y173165D01*
X177447Y173045D01*
X177457Y172926D01*
X177471Y172808D01*
X177488Y172689D01*
X177510Y172572D01*
X177535Y172455D01*
X177565Y172340D01*
X177598Y172225D01*
X177635Y172111D01*
X177675Y171999D01*
X177720Y171888D01*
X177768Y171779D01*
X177819Y171671D01*
X177874Y171565D01*
X177933Y171461D01*
X177995Y171359D01*
X178060Y171259D01*
X178129Y171161D01*
X178201Y171065D01*
X178276Y170972D01*
X178353Y170882D01*
X178434Y170794D01*
X178518Y170709D01*
X178605Y170627D01*
X178694Y170547D01*
X178786Y170471D01*
X178880Y170397D01*
X178977Y170327D01*
X179075Y170260D01*
X179176Y170196D01*
X179280Y170136D01*
X179385Y170079D01*
X179492Y170026D01*
X179600Y169976D01*
X179710Y169930D01*
X179822Y169888D01*
X179935Y169849D01*
X180049Y169814D01*
X180164Y169783D01*
X180281Y169755D01*
X180398Y169732D01*
X180515Y169712D01*
X180634Y169696D01*
X180753Y169684D01*
X180872Y169676D01*
X180991Y169672D01*
X181111Y169672D01*
X181230Y169676D01*
X181349Y169684D01*
X181468Y169696D01*
X181587Y169712D01*
X181704Y169732D01*
X181821Y169755D01*
X181938Y169783D01*
X182053Y169814D01*
X182167Y169849D01*
X182280Y169888D01*
X182392Y169930D01*
X182502Y169976D01*
X182610Y170026D01*
X182717Y170079D01*
X182822Y170136D01*
X182926Y170196D01*
X183027Y170260D01*
X183125Y170327D01*
X183222Y170397D01*
X183316Y170471D01*
X183408Y170547D01*
X183497Y170627D01*
X183584Y170709D01*
X183668Y170794D01*
X183749Y170882D01*
X183826Y170972D01*
X183901Y171065D01*
X183973Y171161D01*
X184042Y171259D01*
X184107Y171359D01*
X184169Y171461D01*
X184228Y171565D01*
X184283Y171671D01*
X184334Y171779D01*
X184382Y171888D01*
X184427Y171999D01*
X184467Y172111D01*
X184504Y172225D01*
X184537Y172340D01*
X184567Y172455D01*
X184592Y172572D01*
X184614Y172689D01*
X184631Y172808D01*
X184645Y172926D01*
X184655Y173045D01*
X184661Y173165D01*
X184663Y173284D01*
X170318Y169672D02*
X170318Y180509D01*
X162190Y180509D01*
X162089Y180507D01*
X161988Y180501D01*
X161887Y180492D01*
X161786Y180479D01*
X161686Y180462D01*
X161587Y180441D01*
X161489Y180417D01*
X161392Y180389D01*
X161295Y180357D01*
X161200Y180322D01*
X161107Y180283D01*
X161015Y180241D01*
X160924Y180195D01*
X160836Y180146D01*
X160749Y180094D01*
X160664Y180038D01*
X160581Y179980D01*
X160501Y179918D01*
X160423Y179853D01*
X160347Y179786D01*
X160274Y179716D01*
X160204Y179643D01*
X160137Y179567D01*
X160072Y179489D01*
X160010Y179409D01*
X159952Y179326D01*
X159896Y179241D01*
X159844Y179155D01*
X159795Y179066D01*
X159749Y178975D01*
X159707Y178883D01*
X159668Y178790D01*
X159633Y178695D01*
X159601Y178598D01*
X159573Y178501D01*
X159549Y178403D01*
X159528Y178304D01*
X159511Y178204D01*
X159498Y178103D01*
X159489Y178002D01*
X159483Y177901D01*
X159481Y177800D01*
X159480Y177800D02*
X159480Y169672D01*
X164899Y169672D02*
X164899Y180509D01*
X149650Y169672D02*
X145134Y169672D01*
X149650Y169672D02*
X149751Y169674D01*
X149852Y169680D01*
X149953Y169689D01*
X150054Y169702D01*
X150154Y169719D01*
X150253Y169740D01*
X150351Y169764D01*
X150448Y169792D01*
X150545Y169824D01*
X150640Y169859D01*
X150733Y169898D01*
X150825Y169940D01*
X150916Y169986D01*
X151005Y170035D01*
X151091Y170087D01*
X151176Y170143D01*
X151259Y170201D01*
X151339Y170263D01*
X151417Y170328D01*
X151493Y170395D01*
X151566Y170465D01*
X151636Y170538D01*
X151703Y170614D01*
X151768Y170692D01*
X151830Y170772D01*
X151888Y170855D01*
X151944Y170940D01*
X151996Y171026D01*
X152045Y171115D01*
X152091Y171206D01*
X152133Y171298D01*
X152172Y171391D01*
X152207Y171486D01*
X152239Y171583D01*
X152267Y171680D01*
X152291Y171778D01*
X152312Y171877D01*
X152329Y171977D01*
X152342Y172078D01*
X152351Y172179D01*
X152357Y172280D01*
X152359Y172381D01*
X152359Y176897D01*
X152357Y177016D01*
X152351Y177136D01*
X152341Y177255D01*
X152327Y177373D01*
X152310Y177492D01*
X152288Y177609D01*
X152263Y177726D01*
X152233Y177841D01*
X152200Y177956D01*
X152163Y178070D01*
X152123Y178182D01*
X152078Y178293D01*
X152030Y178402D01*
X151979Y178510D01*
X151924Y178616D01*
X151865Y178720D01*
X151803Y178822D01*
X151738Y178922D01*
X151669Y179020D01*
X151597Y179116D01*
X151522Y179209D01*
X151445Y179299D01*
X151364Y179387D01*
X151280Y179472D01*
X151193Y179554D01*
X151104Y179634D01*
X151012Y179710D01*
X150918Y179784D01*
X150821Y179854D01*
X150723Y179921D01*
X150622Y179985D01*
X150518Y180045D01*
X150413Y180102D01*
X150306Y180155D01*
X150198Y180205D01*
X150088Y180251D01*
X149976Y180293D01*
X149863Y180332D01*
X149749Y180367D01*
X149634Y180398D01*
X149517Y180426D01*
X149400Y180449D01*
X149283Y180469D01*
X149164Y180485D01*
X149045Y180497D01*
X148926Y180505D01*
X148807Y180509D01*
X148687Y180509D01*
X148568Y180505D01*
X148449Y180497D01*
X148330Y180485D01*
X148211Y180469D01*
X148094Y180449D01*
X147977Y180426D01*
X147860Y180398D01*
X147745Y180367D01*
X147631Y180332D01*
X147518Y180293D01*
X147406Y180251D01*
X147296Y180205D01*
X147188Y180155D01*
X147081Y180102D01*
X146976Y180045D01*
X146872Y179985D01*
X146771Y179921D01*
X146673Y179854D01*
X146576Y179784D01*
X146482Y179710D01*
X146390Y179634D01*
X146301Y179554D01*
X146214Y179472D01*
X146130Y179387D01*
X146049Y179299D01*
X145972Y179209D01*
X145897Y179116D01*
X145825Y179020D01*
X145756Y178922D01*
X145691Y178822D01*
X145629Y178720D01*
X145570Y178616D01*
X145515Y178510D01*
X145464Y178402D01*
X145416Y178293D01*
X145371Y178182D01*
X145331Y178070D01*
X145294Y177956D01*
X145261Y177841D01*
X145231Y177726D01*
X145206Y177609D01*
X145184Y177492D01*
X145167Y177373D01*
X145153Y177255D01*
X145143Y177136D01*
X145137Y177016D01*
X145135Y176897D01*
X145134Y176897D02*
X145134Y175091D01*
X152359Y175091D01*
X140110Y180509D02*
X134691Y180509D01*
X138303Y185928D02*
X138303Y172381D01*
X138301Y172280D01*
X138295Y172179D01*
X138286Y172078D01*
X138273Y171977D01*
X138256Y171877D01*
X138235Y171778D01*
X138211Y171680D01*
X138183Y171583D01*
X138151Y171486D01*
X138116Y171391D01*
X138077Y171298D01*
X138035Y171206D01*
X137989Y171115D01*
X137940Y171026D01*
X137888Y170940D01*
X137832Y170855D01*
X137774Y170772D01*
X137712Y170692D01*
X137647Y170614D01*
X137580Y170538D01*
X137510Y170465D01*
X137437Y170395D01*
X137361Y170328D01*
X137283Y170263D01*
X137203Y170201D01*
X137120Y170143D01*
X137035Y170087D01*
X136949Y170035D01*
X136860Y169986D01*
X136769Y169940D01*
X136677Y169898D01*
X136584Y169859D01*
X136489Y169824D01*
X136392Y169792D01*
X136295Y169764D01*
X136197Y169740D01*
X136098Y169719D01*
X135998Y169702D01*
X135897Y169689D01*
X135796Y169680D01*
X135695Y169674D01*
X135594Y169672D01*
X134691Y169672D01*
X126203Y169672D02*
X121688Y169672D01*
X126203Y169672D02*
X126304Y169674D01*
X126405Y169680D01*
X126506Y169689D01*
X126607Y169702D01*
X126707Y169719D01*
X126806Y169740D01*
X126904Y169764D01*
X127001Y169792D01*
X127098Y169824D01*
X127193Y169859D01*
X127286Y169898D01*
X127378Y169940D01*
X127469Y169986D01*
X127557Y170035D01*
X127644Y170087D01*
X127729Y170143D01*
X127812Y170201D01*
X127892Y170263D01*
X127970Y170328D01*
X128046Y170395D01*
X128119Y170465D01*
X128189Y170538D01*
X128256Y170614D01*
X128321Y170692D01*
X128383Y170772D01*
X128441Y170855D01*
X128497Y170940D01*
X128549Y171026D01*
X128598Y171115D01*
X128644Y171206D01*
X128686Y171298D01*
X128725Y171391D01*
X128760Y171486D01*
X128792Y171583D01*
X128820Y171680D01*
X128844Y171778D01*
X128865Y171877D01*
X128882Y171977D01*
X128895Y172078D01*
X128904Y172179D01*
X128910Y172280D01*
X128912Y172381D01*
X128912Y176897D01*
X128910Y177016D01*
X128904Y177136D01*
X128894Y177255D01*
X128880Y177373D01*
X128863Y177492D01*
X128841Y177609D01*
X128816Y177726D01*
X128786Y177841D01*
X128753Y177956D01*
X128716Y178070D01*
X128676Y178182D01*
X128631Y178293D01*
X128583Y178402D01*
X128532Y178510D01*
X128477Y178616D01*
X128418Y178720D01*
X128356Y178822D01*
X128291Y178922D01*
X128222Y179020D01*
X128150Y179116D01*
X128075Y179209D01*
X127998Y179299D01*
X127917Y179387D01*
X127833Y179472D01*
X127746Y179554D01*
X127657Y179634D01*
X127565Y179710D01*
X127471Y179784D01*
X127374Y179854D01*
X127276Y179921D01*
X127175Y179985D01*
X127071Y180045D01*
X126966Y180102D01*
X126859Y180155D01*
X126751Y180205D01*
X126641Y180251D01*
X126529Y180293D01*
X126416Y180332D01*
X126302Y180367D01*
X126187Y180398D01*
X126070Y180426D01*
X125953Y180449D01*
X125836Y180469D01*
X125717Y180485D01*
X125598Y180497D01*
X125479Y180505D01*
X125360Y180509D01*
X125240Y180509D01*
X125121Y180505D01*
X125002Y180497D01*
X124883Y180485D01*
X124764Y180469D01*
X124647Y180449D01*
X124530Y180426D01*
X124413Y180398D01*
X124298Y180367D01*
X124184Y180332D01*
X124071Y180293D01*
X123959Y180251D01*
X123849Y180205D01*
X123741Y180155D01*
X123634Y180102D01*
X123529Y180045D01*
X123425Y179985D01*
X123324Y179921D01*
X123226Y179854D01*
X123129Y179784D01*
X123035Y179710D01*
X122943Y179634D01*
X122854Y179554D01*
X122767Y179472D01*
X122683Y179387D01*
X122602Y179299D01*
X122525Y179209D01*
X122450Y179116D01*
X122378Y179020D01*
X122309Y178922D01*
X122244Y178822D01*
X122182Y178720D01*
X122123Y178616D01*
X122068Y178510D01*
X122017Y178402D01*
X121969Y178293D01*
X121924Y178182D01*
X121884Y178070D01*
X121847Y177956D01*
X121814Y177841D01*
X121784Y177726D01*
X121759Y177609D01*
X121737Y177492D01*
X121720Y177373D01*
X121706Y177255D01*
X121696Y177136D01*
X121690Y177016D01*
X121688Y176897D01*
X121688Y175091D01*
X128912Y175091D01*
X114760Y180509D02*
X114760Y169672D01*
X114760Y180509D02*
X109341Y180509D01*
X109341Y178703D01*
D11*
X285411Y321056D02*
X288544Y321056D01*
X285411Y321056D02*
X285322Y321058D01*
X285234Y321064D01*
X285146Y321073D01*
X285058Y321086D01*
X284971Y321103D01*
X284885Y321123D01*
X284800Y321148D01*
X284715Y321175D01*
X284632Y321207D01*
X284551Y321241D01*
X284471Y321280D01*
X284393Y321321D01*
X284316Y321366D01*
X284242Y321414D01*
X284169Y321465D01*
X284099Y321519D01*
X284032Y321577D01*
X283966Y321637D01*
X283904Y321699D01*
X283844Y321765D01*
X283786Y321832D01*
X283732Y321902D01*
X283681Y321975D01*
X283633Y322049D01*
X283588Y322126D01*
X283547Y322204D01*
X283508Y322284D01*
X283474Y322365D01*
X283442Y322448D01*
X283415Y322533D01*
X283390Y322618D01*
X283370Y322704D01*
X283353Y322791D01*
X283340Y322879D01*
X283331Y322967D01*
X283325Y323055D01*
X283323Y323144D01*
X283323Y324189D01*
X283325Y324278D01*
X283331Y324366D01*
X283340Y324454D01*
X283353Y324542D01*
X283370Y324629D01*
X283390Y324715D01*
X283415Y324800D01*
X283442Y324885D01*
X283474Y324968D01*
X283508Y325049D01*
X283547Y325129D01*
X283588Y325207D01*
X283633Y325284D01*
X283681Y325358D01*
X283732Y325431D01*
X283786Y325501D01*
X283844Y325568D01*
X283904Y325634D01*
X283966Y325696D01*
X284032Y325756D01*
X284099Y325814D01*
X284169Y325868D01*
X284242Y325919D01*
X284316Y325967D01*
X284393Y326012D01*
X284471Y326053D01*
X284551Y326092D01*
X284632Y326126D01*
X284715Y326158D01*
X284800Y326185D01*
X284885Y326210D01*
X284971Y326230D01*
X285058Y326247D01*
X285146Y326260D01*
X285234Y326269D01*
X285322Y326275D01*
X285411Y326277D01*
X288544Y326277D01*
X288544Y330454D01*
X283323Y330454D01*
X279922Y330454D02*
X276790Y321056D01*
X273657Y330454D01*
X265292Y324711D02*
X259027Y324711D01*
X250139Y321056D02*
X247529Y321056D01*
X247428Y321058D01*
X247327Y321064D01*
X247226Y321074D01*
X247126Y321087D01*
X247026Y321105D01*
X246927Y321126D01*
X246829Y321152D01*
X246732Y321181D01*
X246636Y321213D01*
X246542Y321250D01*
X246449Y321290D01*
X246357Y321334D01*
X246268Y321381D01*
X246180Y321432D01*
X246094Y321486D01*
X246011Y321543D01*
X245929Y321603D01*
X245851Y321667D01*
X245774Y321733D01*
X245701Y321803D01*
X245630Y321875D01*
X245562Y321950D01*
X245497Y322028D01*
X245435Y322108D01*
X245376Y322190D01*
X245320Y322275D01*
X245268Y322362D01*
X245219Y322450D01*
X245173Y322541D01*
X245132Y322633D01*
X245093Y322727D01*
X245059Y322822D01*
X245028Y322918D01*
X245001Y323016D01*
X244977Y323114D01*
X244958Y323214D01*
X244942Y323314D01*
X244930Y323414D01*
X244922Y323515D01*
X244918Y323616D01*
X244918Y323718D01*
X244922Y323819D01*
X244930Y323920D01*
X244942Y324020D01*
X244958Y324120D01*
X244977Y324220D01*
X245001Y324318D01*
X245028Y324416D01*
X245059Y324512D01*
X245093Y324607D01*
X245132Y324701D01*
X245173Y324793D01*
X245219Y324884D01*
X245268Y324973D01*
X245320Y325059D01*
X245376Y325144D01*
X245435Y325226D01*
X245497Y325306D01*
X245562Y325384D01*
X245630Y325459D01*
X245701Y325531D01*
X245774Y325601D01*
X245851Y325667D01*
X245929Y325731D01*
X246011Y325791D01*
X246094Y325848D01*
X246180Y325902D01*
X246268Y325953D01*
X246357Y326000D01*
X246449Y326044D01*
X246542Y326084D01*
X246636Y326121D01*
X246732Y326153D01*
X246829Y326182D01*
X246927Y326208D01*
X247026Y326229D01*
X247126Y326247D01*
X247226Y326260D01*
X247327Y326270D01*
X247428Y326276D01*
X247529Y326278D01*
X247007Y330454D02*
X250139Y330454D01*
X247007Y330454D02*
X246917Y330452D01*
X246828Y330446D01*
X246738Y330437D01*
X246649Y330423D01*
X246561Y330406D01*
X246474Y330385D01*
X246387Y330360D01*
X246302Y330331D01*
X246218Y330299D01*
X246136Y330264D01*
X246055Y330224D01*
X245976Y330182D01*
X245899Y330136D01*
X245824Y330086D01*
X245751Y330034D01*
X245680Y329978D01*
X245612Y329920D01*
X245547Y329858D01*
X245484Y329794D01*
X245424Y329727D01*
X245367Y329658D01*
X245313Y329586D01*
X245262Y329512D01*
X245214Y329436D01*
X245170Y329358D01*
X245129Y329278D01*
X245091Y329196D01*
X245057Y329113D01*
X245027Y329028D01*
X245000Y328942D01*
X244977Y328856D01*
X244958Y328768D01*
X244943Y328679D01*
X244931Y328590D01*
X244923Y328501D01*
X244919Y328411D01*
X244919Y328321D01*
X244923Y328231D01*
X244931Y328142D01*
X244943Y328053D01*
X244958Y327964D01*
X244977Y327876D01*
X245000Y327790D01*
X245027Y327704D01*
X245057Y327619D01*
X245091Y327536D01*
X245129Y327454D01*
X245170Y327374D01*
X245214Y327296D01*
X245262Y327220D01*
X245313Y327146D01*
X245367Y327074D01*
X245424Y327005D01*
X245484Y326938D01*
X245547Y326874D01*
X245612Y326812D01*
X245680Y326754D01*
X245751Y326698D01*
X245824Y326646D01*
X245899Y326596D01*
X245976Y326550D01*
X246055Y326508D01*
X246136Y326468D01*
X246218Y326433D01*
X246302Y326401D01*
X246387Y326372D01*
X246474Y326347D01*
X246561Y326326D01*
X246649Y326309D01*
X246738Y326295D01*
X246828Y326286D01*
X246917Y326280D01*
X247007Y326278D01*
X247007Y326277D02*
X249095Y326277D01*
X241518Y330454D02*
X238385Y321056D01*
X235252Y330454D01*
X231852Y321056D02*
X229241Y321056D01*
X229140Y321058D01*
X229039Y321064D01*
X228938Y321074D01*
X228838Y321087D01*
X228738Y321105D01*
X228639Y321126D01*
X228541Y321152D01*
X228444Y321181D01*
X228348Y321213D01*
X228254Y321250D01*
X228161Y321290D01*
X228069Y321334D01*
X227980Y321381D01*
X227892Y321432D01*
X227806Y321486D01*
X227723Y321543D01*
X227641Y321603D01*
X227563Y321667D01*
X227486Y321733D01*
X227413Y321803D01*
X227342Y321875D01*
X227274Y321950D01*
X227209Y322028D01*
X227147Y322108D01*
X227088Y322190D01*
X227032Y322275D01*
X226980Y322362D01*
X226931Y322450D01*
X226885Y322541D01*
X226844Y322633D01*
X226805Y322727D01*
X226771Y322822D01*
X226740Y322918D01*
X226713Y323016D01*
X226689Y323114D01*
X226670Y323214D01*
X226654Y323314D01*
X226642Y323414D01*
X226634Y323515D01*
X226630Y323616D01*
X226630Y323718D01*
X226634Y323819D01*
X226642Y323920D01*
X226654Y324020D01*
X226670Y324120D01*
X226689Y324220D01*
X226713Y324318D01*
X226740Y324416D01*
X226771Y324512D01*
X226805Y324607D01*
X226844Y324701D01*
X226885Y324793D01*
X226931Y324884D01*
X226980Y324973D01*
X227032Y325059D01*
X227088Y325144D01*
X227147Y325226D01*
X227209Y325306D01*
X227274Y325384D01*
X227342Y325459D01*
X227413Y325531D01*
X227486Y325601D01*
X227563Y325667D01*
X227641Y325731D01*
X227723Y325791D01*
X227806Y325848D01*
X227892Y325902D01*
X227980Y325953D01*
X228069Y326000D01*
X228161Y326044D01*
X228254Y326084D01*
X228348Y326121D01*
X228444Y326153D01*
X228541Y326182D01*
X228639Y326208D01*
X228738Y326229D01*
X228838Y326247D01*
X228938Y326260D01*
X229039Y326270D01*
X229140Y326276D01*
X229241Y326278D01*
X228719Y330454D02*
X231852Y330454D01*
X228719Y330454D02*
X228629Y330452D01*
X228540Y330446D01*
X228450Y330437D01*
X228361Y330423D01*
X228273Y330406D01*
X228186Y330385D01*
X228099Y330360D01*
X228014Y330331D01*
X227930Y330299D01*
X227848Y330264D01*
X227767Y330224D01*
X227688Y330182D01*
X227611Y330136D01*
X227536Y330086D01*
X227463Y330034D01*
X227392Y329978D01*
X227324Y329920D01*
X227259Y329858D01*
X227196Y329794D01*
X227136Y329727D01*
X227079Y329658D01*
X227025Y329586D01*
X226974Y329512D01*
X226926Y329436D01*
X226882Y329358D01*
X226841Y329278D01*
X226803Y329196D01*
X226769Y329113D01*
X226739Y329028D01*
X226712Y328942D01*
X226689Y328856D01*
X226670Y328768D01*
X226655Y328679D01*
X226643Y328590D01*
X226635Y328501D01*
X226631Y328411D01*
X226631Y328321D01*
X226635Y328231D01*
X226643Y328142D01*
X226655Y328053D01*
X226670Y327964D01*
X226689Y327876D01*
X226712Y327790D01*
X226739Y327704D01*
X226769Y327619D01*
X226803Y327536D01*
X226841Y327454D01*
X226882Y327374D01*
X226926Y327296D01*
X226974Y327220D01*
X227025Y327146D01*
X227079Y327074D01*
X227136Y327005D01*
X227196Y326938D01*
X227259Y326874D01*
X227324Y326812D01*
X227392Y326754D01*
X227463Y326698D01*
X227536Y326646D01*
X227611Y326596D01*
X227688Y326550D01*
X227767Y326508D01*
X227848Y326468D01*
X227930Y326433D01*
X228014Y326401D01*
X228099Y326372D01*
X228186Y326347D01*
X228273Y326326D01*
X228361Y326309D01*
X228450Y326295D01*
X228540Y326286D01*
X228629Y326280D01*
X228719Y326278D01*
X228719Y326277D02*
X230807Y326277D01*
X139319Y321056D02*
X136186Y321056D01*
X136097Y321058D01*
X136009Y321064D01*
X135921Y321073D01*
X135833Y321086D01*
X135746Y321103D01*
X135660Y321123D01*
X135575Y321148D01*
X135490Y321175D01*
X135407Y321207D01*
X135326Y321241D01*
X135246Y321280D01*
X135168Y321321D01*
X135091Y321366D01*
X135017Y321414D01*
X134944Y321465D01*
X134874Y321519D01*
X134807Y321577D01*
X134741Y321637D01*
X134679Y321699D01*
X134619Y321765D01*
X134561Y321832D01*
X134507Y321902D01*
X134456Y321975D01*
X134408Y322049D01*
X134363Y322126D01*
X134322Y322204D01*
X134283Y322284D01*
X134249Y322365D01*
X134217Y322448D01*
X134190Y322533D01*
X134165Y322618D01*
X134145Y322704D01*
X134128Y322791D01*
X134115Y322879D01*
X134106Y322967D01*
X134100Y323055D01*
X134098Y323144D01*
X134098Y324189D01*
X134100Y324278D01*
X134106Y324366D01*
X134115Y324454D01*
X134128Y324542D01*
X134145Y324629D01*
X134165Y324715D01*
X134190Y324800D01*
X134217Y324885D01*
X134249Y324968D01*
X134283Y325049D01*
X134322Y325129D01*
X134363Y325207D01*
X134408Y325284D01*
X134456Y325358D01*
X134507Y325431D01*
X134561Y325501D01*
X134619Y325568D01*
X134679Y325634D01*
X134741Y325696D01*
X134807Y325756D01*
X134874Y325814D01*
X134944Y325868D01*
X135017Y325919D01*
X135091Y325967D01*
X135168Y326012D01*
X135246Y326053D01*
X135326Y326092D01*
X135407Y326126D01*
X135490Y326158D01*
X135575Y326185D01*
X135660Y326210D01*
X135746Y326230D01*
X135833Y326247D01*
X135921Y326260D01*
X136009Y326269D01*
X136097Y326275D01*
X136186Y326277D01*
X139319Y326277D01*
X139319Y330454D01*
X134098Y330454D01*
X130697Y330454D02*
X127565Y321056D01*
X124432Y330454D01*
X116067Y324711D02*
X109802Y324711D01*
X100914Y321056D02*
X98304Y321056D01*
X98203Y321058D01*
X98102Y321064D01*
X98001Y321074D01*
X97901Y321087D01*
X97801Y321105D01*
X97702Y321126D01*
X97604Y321152D01*
X97507Y321181D01*
X97411Y321213D01*
X97317Y321250D01*
X97224Y321290D01*
X97132Y321334D01*
X97043Y321381D01*
X96955Y321432D01*
X96869Y321486D01*
X96786Y321543D01*
X96704Y321603D01*
X96626Y321667D01*
X96549Y321733D01*
X96476Y321803D01*
X96405Y321875D01*
X96337Y321950D01*
X96272Y322028D01*
X96210Y322108D01*
X96151Y322190D01*
X96095Y322275D01*
X96043Y322362D01*
X95994Y322450D01*
X95948Y322541D01*
X95907Y322633D01*
X95868Y322727D01*
X95834Y322822D01*
X95803Y322918D01*
X95776Y323016D01*
X95752Y323114D01*
X95733Y323214D01*
X95717Y323314D01*
X95705Y323414D01*
X95697Y323515D01*
X95693Y323616D01*
X95693Y323718D01*
X95697Y323819D01*
X95705Y323920D01*
X95717Y324020D01*
X95733Y324120D01*
X95752Y324220D01*
X95776Y324318D01*
X95803Y324416D01*
X95834Y324512D01*
X95868Y324607D01*
X95907Y324701D01*
X95948Y324793D01*
X95994Y324884D01*
X96043Y324973D01*
X96095Y325059D01*
X96151Y325144D01*
X96210Y325226D01*
X96272Y325306D01*
X96337Y325384D01*
X96405Y325459D01*
X96476Y325531D01*
X96549Y325601D01*
X96626Y325667D01*
X96704Y325731D01*
X96786Y325791D01*
X96869Y325848D01*
X96955Y325902D01*
X97043Y325953D01*
X97132Y326000D01*
X97224Y326044D01*
X97317Y326084D01*
X97411Y326121D01*
X97507Y326153D01*
X97604Y326182D01*
X97702Y326208D01*
X97801Y326229D01*
X97901Y326247D01*
X98001Y326260D01*
X98102Y326270D01*
X98203Y326276D01*
X98304Y326278D01*
X97782Y330454D02*
X100914Y330454D01*
X97782Y330454D02*
X97692Y330452D01*
X97603Y330446D01*
X97513Y330437D01*
X97424Y330423D01*
X97336Y330406D01*
X97249Y330385D01*
X97162Y330360D01*
X97077Y330331D01*
X96993Y330299D01*
X96911Y330264D01*
X96830Y330224D01*
X96751Y330182D01*
X96674Y330136D01*
X96599Y330086D01*
X96526Y330034D01*
X96455Y329978D01*
X96387Y329920D01*
X96322Y329858D01*
X96259Y329794D01*
X96199Y329727D01*
X96142Y329658D01*
X96088Y329586D01*
X96037Y329512D01*
X95989Y329436D01*
X95945Y329358D01*
X95904Y329278D01*
X95866Y329196D01*
X95832Y329113D01*
X95802Y329028D01*
X95775Y328942D01*
X95752Y328856D01*
X95733Y328768D01*
X95718Y328679D01*
X95706Y328590D01*
X95698Y328501D01*
X95694Y328411D01*
X95694Y328321D01*
X95698Y328231D01*
X95706Y328142D01*
X95718Y328053D01*
X95733Y327964D01*
X95752Y327876D01*
X95775Y327790D01*
X95802Y327704D01*
X95832Y327619D01*
X95866Y327536D01*
X95904Y327454D01*
X95945Y327374D01*
X95989Y327296D01*
X96037Y327220D01*
X96088Y327146D01*
X96142Y327074D01*
X96199Y327005D01*
X96259Y326938D01*
X96322Y326874D01*
X96387Y326812D01*
X96455Y326754D01*
X96526Y326698D01*
X96599Y326646D01*
X96674Y326596D01*
X96751Y326550D01*
X96830Y326508D01*
X96911Y326468D01*
X96993Y326433D01*
X97077Y326401D01*
X97162Y326372D01*
X97249Y326347D01*
X97336Y326326D01*
X97424Y326309D01*
X97513Y326295D01*
X97603Y326286D01*
X97692Y326280D01*
X97782Y326278D01*
X97782Y326277D02*
X99870Y326277D01*
X92293Y330454D02*
X89160Y321056D01*
X86027Y330454D01*
X82627Y321056D02*
X80016Y321056D01*
X79915Y321058D01*
X79814Y321064D01*
X79713Y321074D01*
X79613Y321087D01*
X79513Y321105D01*
X79414Y321126D01*
X79316Y321152D01*
X79219Y321181D01*
X79123Y321213D01*
X79029Y321250D01*
X78936Y321290D01*
X78844Y321334D01*
X78755Y321381D01*
X78667Y321432D01*
X78581Y321486D01*
X78498Y321543D01*
X78416Y321603D01*
X78338Y321667D01*
X78261Y321733D01*
X78188Y321803D01*
X78117Y321875D01*
X78049Y321950D01*
X77984Y322028D01*
X77922Y322108D01*
X77863Y322190D01*
X77807Y322275D01*
X77755Y322362D01*
X77706Y322450D01*
X77660Y322541D01*
X77619Y322633D01*
X77580Y322727D01*
X77546Y322822D01*
X77515Y322918D01*
X77488Y323016D01*
X77464Y323114D01*
X77445Y323214D01*
X77429Y323314D01*
X77417Y323414D01*
X77409Y323515D01*
X77405Y323616D01*
X77405Y323718D01*
X77409Y323819D01*
X77417Y323920D01*
X77429Y324020D01*
X77445Y324120D01*
X77464Y324220D01*
X77488Y324318D01*
X77515Y324416D01*
X77546Y324512D01*
X77580Y324607D01*
X77619Y324701D01*
X77660Y324793D01*
X77706Y324884D01*
X77755Y324973D01*
X77807Y325059D01*
X77863Y325144D01*
X77922Y325226D01*
X77984Y325306D01*
X78049Y325384D01*
X78117Y325459D01*
X78188Y325531D01*
X78261Y325601D01*
X78338Y325667D01*
X78416Y325731D01*
X78498Y325791D01*
X78581Y325848D01*
X78667Y325902D01*
X78755Y325953D01*
X78844Y326000D01*
X78936Y326044D01*
X79029Y326084D01*
X79123Y326121D01*
X79219Y326153D01*
X79316Y326182D01*
X79414Y326208D01*
X79513Y326229D01*
X79613Y326247D01*
X79713Y326260D01*
X79814Y326270D01*
X79915Y326276D01*
X80016Y326278D01*
X79494Y330454D02*
X82627Y330454D01*
X79494Y330454D02*
X79404Y330452D01*
X79315Y330446D01*
X79225Y330437D01*
X79136Y330423D01*
X79048Y330406D01*
X78961Y330385D01*
X78874Y330360D01*
X78789Y330331D01*
X78705Y330299D01*
X78623Y330264D01*
X78542Y330224D01*
X78463Y330182D01*
X78386Y330136D01*
X78311Y330086D01*
X78238Y330034D01*
X78167Y329978D01*
X78099Y329920D01*
X78034Y329858D01*
X77971Y329794D01*
X77911Y329727D01*
X77854Y329658D01*
X77800Y329586D01*
X77749Y329512D01*
X77701Y329436D01*
X77657Y329358D01*
X77616Y329278D01*
X77578Y329196D01*
X77544Y329113D01*
X77514Y329028D01*
X77487Y328942D01*
X77464Y328856D01*
X77445Y328768D01*
X77430Y328679D01*
X77418Y328590D01*
X77410Y328501D01*
X77406Y328411D01*
X77406Y328321D01*
X77410Y328231D01*
X77418Y328142D01*
X77430Y328053D01*
X77445Y327964D01*
X77464Y327876D01*
X77487Y327790D01*
X77514Y327704D01*
X77544Y327619D01*
X77578Y327536D01*
X77616Y327454D01*
X77657Y327374D01*
X77701Y327296D01*
X77749Y327220D01*
X77800Y327146D01*
X77854Y327074D01*
X77911Y327005D01*
X77971Y326938D01*
X78034Y326874D01*
X78099Y326812D01*
X78167Y326754D01*
X78238Y326698D01*
X78311Y326646D01*
X78386Y326596D01*
X78463Y326550D01*
X78542Y326508D01*
X78623Y326468D01*
X78705Y326433D01*
X78789Y326401D01*
X78874Y326372D01*
X78961Y326347D01*
X79048Y326326D01*
X79136Y326309D01*
X79225Y326295D01*
X79315Y326286D01*
X79404Y326280D01*
X79494Y326278D01*
X79494Y326277D02*
X81582Y326277D01*
X152061Y413131D02*
X155194Y413131D01*
X152061Y413131D02*
X151972Y413133D01*
X151884Y413139D01*
X151796Y413148D01*
X151708Y413161D01*
X151621Y413178D01*
X151535Y413198D01*
X151450Y413223D01*
X151365Y413250D01*
X151282Y413282D01*
X151201Y413316D01*
X151121Y413355D01*
X151043Y413396D01*
X150966Y413441D01*
X150892Y413489D01*
X150819Y413540D01*
X150749Y413594D01*
X150682Y413652D01*
X150616Y413712D01*
X150554Y413774D01*
X150494Y413840D01*
X150436Y413907D01*
X150382Y413977D01*
X150331Y414050D01*
X150283Y414124D01*
X150238Y414201D01*
X150197Y414279D01*
X150158Y414359D01*
X150124Y414440D01*
X150092Y414523D01*
X150065Y414608D01*
X150040Y414693D01*
X150020Y414779D01*
X150003Y414866D01*
X149990Y414954D01*
X149981Y415042D01*
X149975Y415130D01*
X149973Y415219D01*
X149973Y416264D01*
X149975Y416353D01*
X149981Y416441D01*
X149990Y416529D01*
X150003Y416617D01*
X150020Y416704D01*
X150040Y416790D01*
X150065Y416875D01*
X150092Y416960D01*
X150124Y417043D01*
X150158Y417124D01*
X150197Y417204D01*
X150238Y417282D01*
X150283Y417359D01*
X150331Y417433D01*
X150382Y417506D01*
X150436Y417576D01*
X150494Y417643D01*
X150554Y417709D01*
X150616Y417771D01*
X150682Y417831D01*
X150749Y417889D01*
X150819Y417943D01*
X150892Y417994D01*
X150966Y418042D01*
X151043Y418087D01*
X151121Y418128D01*
X151201Y418167D01*
X151282Y418201D01*
X151365Y418233D01*
X151450Y418260D01*
X151535Y418285D01*
X151621Y418305D01*
X151708Y418322D01*
X151796Y418335D01*
X151884Y418344D01*
X151972Y418350D01*
X152061Y418352D01*
X155194Y418352D01*
X155194Y422529D01*
X149973Y422529D01*
X146572Y422529D02*
X143440Y413131D01*
X140307Y422529D01*
X131942Y416786D02*
X125677Y416786D01*
X116789Y413131D02*
X114179Y413131D01*
X114078Y413133D01*
X113977Y413139D01*
X113876Y413149D01*
X113776Y413162D01*
X113676Y413180D01*
X113577Y413201D01*
X113479Y413227D01*
X113382Y413256D01*
X113286Y413288D01*
X113192Y413325D01*
X113099Y413365D01*
X113007Y413409D01*
X112918Y413456D01*
X112830Y413507D01*
X112744Y413561D01*
X112661Y413618D01*
X112579Y413678D01*
X112501Y413742D01*
X112424Y413808D01*
X112351Y413878D01*
X112280Y413950D01*
X112212Y414025D01*
X112147Y414103D01*
X112085Y414183D01*
X112026Y414265D01*
X111970Y414350D01*
X111918Y414437D01*
X111869Y414525D01*
X111823Y414616D01*
X111782Y414708D01*
X111743Y414802D01*
X111709Y414897D01*
X111678Y414993D01*
X111651Y415091D01*
X111627Y415189D01*
X111608Y415289D01*
X111592Y415389D01*
X111580Y415489D01*
X111572Y415590D01*
X111568Y415691D01*
X111568Y415793D01*
X111572Y415894D01*
X111580Y415995D01*
X111592Y416095D01*
X111608Y416195D01*
X111627Y416295D01*
X111651Y416393D01*
X111678Y416491D01*
X111709Y416587D01*
X111743Y416682D01*
X111782Y416776D01*
X111823Y416868D01*
X111869Y416959D01*
X111918Y417048D01*
X111970Y417134D01*
X112026Y417219D01*
X112085Y417301D01*
X112147Y417381D01*
X112212Y417459D01*
X112280Y417534D01*
X112351Y417606D01*
X112424Y417676D01*
X112501Y417742D01*
X112579Y417806D01*
X112661Y417866D01*
X112744Y417923D01*
X112830Y417977D01*
X112918Y418028D01*
X113007Y418075D01*
X113099Y418119D01*
X113192Y418159D01*
X113286Y418196D01*
X113382Y418228D01*
X113479Y418257D01*
X113577Y418283D01*
X113676Y418304D01*
X113776Y418322D01*
X113876Y418335D01*
X113977Y418345D01*
X114078Y418351D01*
X114179Y418353D01*
X113657Y422529D02*
X116789Y422529D01*
X113657Y422529D02*
X113567Y422527D01*
X113478Y422521D01*
X113388Y422512D01*
X113299Y422498D01*
X113211Y422481D01*
X113124Y422460D01*
X113037Y422435D01*
X112952Y422406D01*
X112868Y422374D01*
X112786Y422339D01*
X112705Y422299D01*
X112626Y422257D01*
X112549Y422211D01*
X112474Y422161D01*
X112401Y422109D01*
X112330Y422053D01*
X112262Y421995D01*
X112197Y421933D01*
X112134Y421869D01*
X112074Y421802D01*
X112017Y421733D01*
X111963Y421661D01*
X111912Y421587D01*
X111864Y421511D01*
X111820Y421433D01*
X111779Y421353D01*
X111741Y421271D01*
X111707Y421188D01*
X111677Y421103D01*
X111650Y421017D01*
X111627Y420931D01*
X111608Y420843D01*
X111593Y420754D01*
X111581Y420665D01*
X111573Y420576D01*
X111569Y420486D01*
X111569Y420396D01*
X111573Y420306D01*
X111581Y420217D01*
X111593Y420128D01*
X111608Y420039D01*
X111627Y419951D01*
X111650Y419865D01*
X111677Y419779D01*
X111707Y419694D01*
X111741Y419611D01*
X111779Y419529D01*
X111820Y419449D01*
X111864Y419371D01*
X111912Y419295D01*
X111963Y419221D01*
X112017Y419149D01*
X112074Y419080D01*
X112134Y419013D01*
X112197Y418949D01*
X112262Y418887D01*
X112330Y418829D01*
X112401Y418773D01*
X112474Y418721D01*
X112549Y418671D01*
X112626Y418625D01*
X112705Y418583D01*
X112786Y418543D01*
X112868Y418508D01*
X112952Y418476D01*
X113037Y418447D01*
X113124Y418422D01*
X113211Y418401D01*
X113299Y418384D01*
X113388Y418370D01*
X113478Y418361D01*
X113567Y418355D01*
X113657Y418353D01*
X113657Y418352D02*
X115745Y418352D01*
X108168Y422529D02*
X105035Y413131D01*
X101902Y422529D01*
X98502Y413131D02*
X95891Y413131D01*
X95790Y413133D01*
X95689Y413139D01*
X95588Y413149D01*
X95488Y413162D01*
X95388Y413180D01*
X95289Y413201D01*
X95191Y413227D01*
X95094Y413256D01*
X94998Y413288D01*
X94904Y413325D01*
X94811Y413365D01*
X94719Y413409D01*
X94630Y413456D01*
X94542Y413507D01*
X94456Y413561D01*
X94373Y413618D01*
X94291Y413678D01*
X94213Y413742D01*
X94136Y413808D01*
X94063Y413878D01*
X93992Y413950D01*
X93924Y414025D01*
X93859Y414103D01*
X93797Y414183D01*
X93738Y414265D01*
X93682Y414350D01*
X93630Y414437D01*
X93581Y414525D01*
X93535Y414616D01*
X93494Y414708D01*
X93455Y414802D01*
X93421Y414897D01*
X93390Y414993D01*
X93363Y415091D01*
X93339Y415189D01*
X93320Y415289D01*
X93304Y415389D01*
X93292Y415489D01*
X93284Y415590D01*
X93280Y415691D01*
X93280Y415793D01*
X93284Y415894D01*
X93292Y415995D01*
X93304Y416095D01*
X93320Y416195D01*
X93339Y416295D01*
X93363Y416393D01*
X93390Y416491D01*
X93421Y416587D01*
X93455Y416682D01*
X93494Y416776D01*
X93535Y416868D01*
X93581Y416959D01*
X93630Y417048D01*
X93682Y417134D01*
X93738Y417219D01*
X93797Y417301D01*
X93859Y417381D01*
X93924Y417459D01*
X93992Y417534D01*
X94063Y417606D01*
X94136Y417676D01*
X94213Y417742D01*
X94291Y417806D01*
X94373Y417866D01*
X94456Y417923D01*
X94542Y417977D01*
X94630Y418028D01*
X94719Y418075D01*
X94811Y418119D01*
X94904Y418159D01*
X94998Y418196D01*
X95094Y418228D01*
X95191Y418257D01*
X95289Y418283D01*
X95388Y418304D01*
X95488Y418322D01*
X95588Y418335D01*
X95689Y418345D01*
X95790Y418351D01*
X95891Y418353D01*
X95369Y422529D02*
X98502Y422529D01*
X95369Y422529D02*
X95279Y422527D01*
X95190Y422521D01*
X95100Y422512D01*
X95011Y422498D01*
X94923Y422481D01*
X94836Y422460D01*
X94749Y422435D01*
X94664Y422406D01*
X94580Y422374D01*
X94498Y422339D01*
X94417Y422299D01*
X94338Y422257D01*
X94261Y422211D01*
X94186Y422161D01*
X94113Y422109D01*
X94042Y422053D01*
X93974Y421995D01*
X93909Y421933D01*
X93846Y421869D01*
X93786Y421802D01*
X93729Y421733D01*
X93675Y421661D01*
X93624Y421587D01*
X93576Y421511D01*
X93532Y421433D01*
X93491Y421353D01*
X93453Y421271D01*
X93419Y421188D01*
X93389Y421103D01*
X93362Y421017D01*
X93339Y420931D01*
X93320Y420843D01*
X93305Y420754D01*
X93293Y420665D01*
X93285Y420576D01*
X93281Y420486D01*
X93281Y420396D01*
X93285Y420306D01*
X93293Y420217D01*
X93305Y420128D01*
X93320Y420039D01*
X93339Y419951D01*
X93362Y419865D01*
X93389Y419779D01*
X93419Y419694D01*
X93453Y419611D01*
X93491Y419529D01*
X93532Y419449D01*
X93576Y419371D01*
X93624Y419295D01*
X93675Y419221D01*
X93729Y419149D01*
X93786Y419080D01*
X93846Y419013D01*
X93909Y418949D01*
X93974Y418887D01*
X94042Y418829D01*
X94113Y418773D01*
X94186Y418721D01*
X94261Y418671D01*
X94338Y418625D01*
X94417Y418583D01*
X94498Y418543D01*
X94580Y418508D01*
X94664Y418476D01*
X94749Y418447D01*
X94836Y418422D01*
X94923Y418401D01*
X95011Y418384D01*
X95100Y418370D01*
X95190Y418361D01*
X95279Y418355D01*
X95369Y418353D01*
X95369Y418352D02*
X97457Y418352D01*
X304461Y413131D02*
X307594Y413131D01*
X304461Y413131D02*
X304372Y413133D01*
X304284Y413139D01*
X304196Y413148D01*
X304108Y413161D01*
X304021Y413178D01*
X303935Y413198D01*
X303850Y413223D01*
X303765Y413250D01*
X303682Y413282D01*
X303601Y413316D01*
X303521Y413355D01*
X303443Y413396D01*
X303366Y413441D01*
X303292Y413489D01*
X303219Y413540D01*
X303149Y413594D01*
X303082Y413652D01*
X303016Y413712D01*
X302954Y413774D01*
X302894Y413840D01*
X302836Y413907D01*
X302782Y413977D01*
X302731Y414050D01*
X302683Y414124D01*
X302638Y414201D01*
X302597Y414279D01*
X302558Y414359D01*
X302524Y414440D01*
X302492Y414523D01*
X302465Y414608D01*
X302440Y414693D01*
X302420Y414779D01*
X302403Y414866D01*
X302390Y414954D01*
X302381Y415042D01*
X302375Y415130D01*
X302373Y415219D01*
X302373Y416264D01*
X302375Y416353D01*
X302381Y416441D01*
X302390Y416529D01*
X302403Y416617D01*
X302420Y416704D01*
X302440Y416790D01*
X302465Y416875D01*
X302492Y416960D01*
X302524Y417043D01*
X302558Y417124D01*
X302597Y417204D01*
X302638Y417282D01*
X302683Y417359D01*
X302731Y417433D01*
X302782Y417506D01*
X302836Y417576D01*
X302894Y417643D01*
X302954Y417709D01*
X303016Y417771D01*
X303082Y417831D01*
X303149Y417889D01*
X303219Y417943D01*
X303292Y417994D01*
X303366Y418042D01*
X303443Y418087D01*
X303521Y418128D01*
X303601Y418167D01*
X303682Y418201D01*
X303765Y418233D01*
X303850Y418260D01*
X303935Y418285D01*
X304021Y418305D01*
X304108Y418322D01*
X304196Y418335D01*
X304284Y418344D01*
X304372Y418350D01*
X304461Y418352D01*
X307594Y418352D01*
X307594Y422529D01*
X302373Y422529D01*
X298972Y422529D02*
X295840Y413131D01*
X292707Y422529D01*
X284342Y416786D02*
X278077Y416786D01*
X269189Y413131D02*
X266579Y413131D01*
X266478Y413133D01*
X266377Y413139D01*
X266276Y413149D01*
X266176Y413162D01*
X266076Y413180D01*
X265977Y413201D01*
X265879Y413227D01*
X265782Y413256D01*
X265686Y413288D01*
X265592Y413325D01*
X265499Y413365D01*
X265407Y413409D01*
X265318Y413456D01*
X265230Y413507D01*
X265144Y413561D01*
X265061Y413618D01*
X264979Y413678D01*
X264901Y413742D01*
X264824Y413808D01*
X264751Y413878D01*
X264680Y413950D01*
X264612Y414025D01*
X264547Y414103D01*
X264485Y414183D01*
X264426Y414265D01*
X264370Y414350D01*
X264318Y414437D01*
X264269Y414525D01*
X264223Y414616D01*
X264182Y414708D01*
X264143Y414802D01*
X264109Y414897D01*
X264078Y414993D01*
X264051Y415091D01*
X264027Y415189D01*
X264008Y415289D01*
X263992Y415389D01*
X263980Y415489D01*
X263972Y415590D01*
X263968Y415691D01*
X263968Y415793D01*
X263972Y415894D01*
X263980Y415995D01*
X263992Y416095D01*
X264008Y416195D01*
X264027Y416295D01*
X264051Y416393D01*
X264078Y416491D01*
X264109Y416587D01*
X264143Y416682D01*
X264182Y416776D01*
X264223Y416868D01*
X264269Y416959D01*
X264318Y417048D01*
X264370Y417134D01*
X264426Y417219D01*
X264485Y417301D01*
X264547Y417381D01*
X264612Y417459D01*
X264680Y417534D01*
X264751Y417606D01*
X264824Y417676D01*
X264901Y417742D01*
X264979Y417806D01*
X265061Y417866D01*
X265144Y417923D01*
X265230Y417977D01*
X265318Y418028D01*
X265407Y418075D01*
X265499Y418119D01*
X265592Y418159D01*
X265686Y418196D01*
X265782Y418228D01*
X265879Y418257D01*
X265977Y418283D01*
X266076Y418304D01*
X266176Y418322D01*
X266276Y418335D01*
X266377Y418345D01*
X266478Y418351D01*
X266579Y418353D01*
X266057Y422529D02*
X269189Y422529D01*
X266057Y422529D02*
X265967Y422527D01*
X265878Y422521D01*
X265788Y422512D01*
X265699Y422498D01*
X265611Y422481D01*
X265524Y422460D01*
X265437Y422435D01*
X265352Y422406D01*
X265268Y422374D01*
X265186Y422339D01*
X265105Y422299D01*
X265026Y422257D01*
X264949Y422211D01*
X264874Y422161D01*
X264801Y422109D01*
X264730Y422053D01*
X264662Y421995D01*
X264597Y421933D01*
X264534Y421869D01*
X264474Y421802D01*
X264417Y421733D01*
X264363Y421661D01*
X264312Y421587D01*
X264264Y421511D01*
X264220Y421433D01*
X264179Y421353D01*
X264141Y421271D01*
X264107Y421188D01*
X264077Y421103D01*
X264050Y421017D01*
X264027Y420931D01*
X264008Y420843D01*
X263993Y420754D01*
X263981Y420665D01*
X263973Y420576D01*
X263969Y420486D01*
X263969Y420396D01*
X263973Y420306D01*
X263981Y420217D01*
X263993Y420128D01*
X264008Y420039D01*
X264027Y419951D01*
X264050Y419865D01*
X264077Y419779D01*
X264107Y419694D01*
X264141Y419611D01*
X264179Y419529D01*
X264220Y419449D01*
X264264Y419371D01*
X264312Y419295D01*
X264363Y419221D01*
X264417Y419149D01*
X264474Y419080D01*
X264534Y419013D01*
X264597Y418949D01*
X264662Y418887D01*
X264730Y418829D01*
X264801Y418773D01*
X264874Y418721D01*
X264949Y418671D01*
X265026Y418625D01*
X265105Y418583D01*
X265186Y418543D01*
X265268Y418508D01*
X265352Y418476D01*
X265437Y418447D01*
X265524Y418422D01*
X265611Y418401D01*
X265699Y418384D01*
X265788Y418370D01*
X265878Y418361D01*
X265967Y418355D01*
X266057Y418353D01*
X266057Y418352D02*
X268145Y418352D01*
X260568Y422529D02*
X257435Y413131D01*
X254302Y422529D01*
X250902Y413131D02*
X248291Y413131D01*
X248190Y413133D01*
X248089Y413139D01*
X247988Y413149D01*
X247888Y413162D01*
X247788Y413180D01*
X247689Y413201D01*
X247591Y413227D01*
X247494Y413256D01*
X247398Y413288D01*
X247304Y413325D01*
X247211Y413365D01*
X247119Y413409D01*
X247030Y413456D01*
X246942Y413507D01*
X246856Y413561D01*
X246773Y413618D01*
X246691Y413678D01*
X246613Y413742D01*
X246536Y413808D01*
X246463Y413878D01*
X246392Y413950D01*
X246324Y414025D01*
X246259Y414103D01*
X246197Y414183D01*
X246138Y414265D01*
X246082Y414350D01*
X246030Y414437D01*
X245981Y414525D01*
X245935Y414616D01*
X245894Y414708D01*
X245855Y414802D01*
X245821Y414897D01*
X245790Y414993D01*
X245763Y415091D01*
X245739Y415189D01*
X245720Y415289D01*
X245704Y415389D01*
X245692Y415489D01*
X245684Y415590D01*
X245680Y415691D01*
X245680Y415793D01*
X245684Y415894D01*
X245692Y415995D01*
X245704Y416095D01*
X245720Y416195D01*
X245739Y416295D01*
X245763Y416393D01*
X245790Y416491D01*
X245821Y416587D01*
X245855Y416682D01*
X245894Y416776D01*
X245935Y416868D01*
X245981Y416959D01*
X246030Y417048D01*
X246082Y417134D01*
X246138Y417219D01*
X246197Y417301D01*
X246259Y417381D01*
X246324Y417459D01*
X246392Y417534D01*
X246463Y417606D01*
X246536Y417676D01*
X246613Y417742D01*
X246691Y417806D01*
X246773Y417866D01*
X246856Y417923D01*
X246942Y417977D01*
X247030Y418028D01*
X247119Y418075D01*
X247211Y418119D01*
X247304Y418159D01*
X247398Y418196D01*
X247494Y418228D01*
X247591Y418257D01*
X247689Y418283D01*
X247788Y418304D01*
X247888Y418322D01*
X247988Y418335D01*
X248089Y418345D01*
X248190Y418351D01*
X248291Y418353D01*
X247769Y422529D02*
X250902Y422529D01*
X247769Y422529D02*
X247679Y422527D01*
X247590Y422521D01*
X247500Y422512D01*
X247411Y422498D01*
X247323Y422481D01*
X247236Y422460D01*
X247149Y422435D01*
X247064Y422406D01*
X246980Y422374D01*
X246898Y422339D01*
X246817Y422299D01*
X246738Y422257D01*
X246661Y422211D01*
X246586Y422161D01*
X246513Y422109D01*
X246442Y422053D01*
X246374Y421995D01*
X246309Y421933D01*
X246246Y421869D01*
X246186Y421802D01*
X246129Y421733D01*
X246075Y421661D01*
X246024Y421587D01*
X245976Y421511D01*
X245932Y421433D01*
X245891Y421353D01*
X245853Y421271D01*
X245819Y421188D01*
X245789Y421103D01*
X245762Y421017D01*
X245739Y420931D01*
X245720Y420843D01*
X245705Y420754D01*
X245693Y420665D01*
X245685Y420576D01*
X245681Y420486D01*
X245681Y420396D01*
X245685Y420306D01*
X245693Y420217D01*
X245705Y420128D01*
X245720Y420039D01*
X245739Y419951D01*
X245762Y419865D01*
X245789Y419779D01*
X245819Y419694D01*
X245853Y419611D01*
X245891Y419529D01*
X245932Y419449D01*
X245976Y419371D01*
X246024Y419295D01*
X246075Y419221D01*
X246129Y419149D01*
X246186Y419080D01*
X246246Y419013D01*
X246309Y418949D01*
X246374Y418887D01*
X246442Y418829D01*
X246513Y418773D01*
X246586Y418721D01*
X246661Y418671D01*
X246738Y418625D01*
X246817Y418583D01*
X246898Y418543D01*
X246980Y418508D01*
X247064Y418476D01*
X247149Y418447D01*
X247236Y418422D01*
X247323Y418401D01*
X247411Y418384D01*
X247500Y418370D01*
X247590Y418361D01*
X247679Y418355D01*
X247769Y418353D01*
X247769Y418352D02*
X249857Y418352D01*
D12*
X1085225Y350900D02*
X1085225Y271400D01*
X1078865Y271400D01*
X1078865Y350900D02*
X1085225Y350900D01*
X1035225Y350900D02*
X1035225Y328930D01*
X1035225Y293370D02*
X1035225Y271400D01*
X1035225Y350900D02*
X1040765Y350900D01*
X1040765Y271400D02*
X1035225Y271400D01*
D13*
X1063910Y358704D02*
X1063910Y367792D01*
X1063910Y358704D02*
X1063912Y358605D01*
X1063918Y358505D01*
X1063927Y358406D01*
X1063940Y358308D01*
X1063957Y358210D01*
X1063978Y358112D01*
X1064003Y358016D01*
X1064031Y357921D01*
X1064063Y357827D01*
X1064098Y357734D01*
X1064137Y357642D01*
X1064180Y357552D01*
X1064225Y357464D01*
X1064275Y357377D01*
X1064327Y357293D01*
X1064383Y357210D01*
X1064441Y357130D01*
X1064503Y357052D01*
X1064568Y356977D01*
X1064636Y356904D01*
X1064706Y356834D01*
X1064779Y356766D01*
X1064854Y356701D01*
X1064932Y356639D01*
X1065012Y356581D01*
X1065095Y356525D01*
X1065179Y356473D01*
X1065266Y356423D01*
X1065354Y356378D01*
X1065444Y356335D01*
X1065536Y356296D01*
X1065629Y356261D01*
X1065723Y356229D01*
X1065818Y356201D01*
X1065914Y356176D01*
X1066012Y356155D01*
X1066110Y356138D01*
X1066208Y356125D01*
X1066307Y356116D01*
X1066407Y356110D01*
X1066506Y356108D01*
X1067805Y356108D01*
X1055066Y367792D02*
X1054959Y367790D01*
X1054853Y367784D01*
X1054747Y367774D01*
X1054641Y367761D01*
X1054535Y367743D01*
X1054431Y367722D01*
X1054327Y367697D01*
X1054224Y367668D01*
X1054123Y367636D01*
X1054023Y367599D01*
X1053924Y367559D01*
X1053826Y367516D01*
X1053730Y367469D01*
X1053636Y367418D01*
X1053544Y367364D01*
X1053454Y367307D01*
X1053366Y367247D01*
X1053281Y367183D01*
X1053198Y367116D01*
X1053117Y367046D01*
X1053039Y366974D01*
X1052963Y366898D01*
X1052891Y366820D01*
X1052821Y366739D01*
X1052754Y366656D01*
X1052690Y366571D01*
X1052630Y366483D01*
X1052573Y366393D01*
X1052519Y366301D01*
X1052468Y366207D01*
X1052421Y366111D01*
X1052378Y366013D01*
X1052338Y365914D01*
X1052301Y365814D01*
X1052269Y365713D01*
X1052240Y365610D01*
X1052215Y365506D01*
X1052194Y365402D01*
X1052176Y365296D01*
X1052163Y365190D01*
X1052153Y365084D01*
X1052147Y364978D01*
X1052145Y364871D01*
X1055066Y367792D02*
X1055187Y367790D01*
X1055308Y367784D01*
X1055428Y367774D01*
X1055549Y367761D01*
X1055668Y367743D01*
X1055788Y367722D01*
X1055906Y367697D01*
X1056023Y367668D01*
X1056140Y367635D01*
X1056255Y367599D01*
X1056369Y367558D01*
X1056482Y367515D01*
X1056594Y367467D01*
X1056703Y367416D01*
X1056811Y367361D01*
X1056918Y367303D01*
X1057022Y367242D01*
X1057124Y367177D01*
X1057224Y367109D01*
X1057322Y367038D01*
X1057418Y366964D01*
X1057511Y366887D01*
X1057601Y366806D01*
X1057689Y366723D01*
X1057774Y366637D01*
X1057857Y366548D01*
X1057936Y366457D01*
X1058013Y366363D01*
X1058086Y366267D01*
X1058156Y366169D01*
X1058223Y366068D01*
X1058287Y365965D01*
X1058348Y365860D01*
X1058405Y365753D01*
X1058458Y365645D01*
X1058508Y365535D01*
X1058554Y365423D01*
X1058597Y365310D01*
X1058636Y365195D01*
X1053120Y362599D02*
X1053041Y362677D01*
X1052965Y362757D01*
X1052892Y362840D01*
X1052822Y362926D01*
X1052755Y363013D01*
X1052691Y363104D01*
X1052631Y363196D01*
X1052573Y363290D01*
X1052519Y363387D01*
X1052469Y363485D01*
X1052422Y363585D01*
X1052378Y363686D01*
X1052338Y363789D01*
X1052302Y363894D01*
X1052270Y363999D01*
X1052241Y364106D01*
X1052216Y364213D01*
X1052194Y364322D01*
X1052177Y364431D01*
X1052163Y364540D01*
X1052154Y364650D01*
X1052148Y364761D01*
X1052146Y364871D01*
X1053119Y362599D02*
X1058637Y356108D01*
X1052145Y356108D01*
X274273Y346982D02*
X274273Y337894D01*
X274274Y337894D02*
X274276Y337795D01*
X274282Y337695D01*
X274291Y337596D01*
X274304Y337498D01*
X274321Y337400D01*
X274342Y337302D01*
X274367Y337206D01*
X274395Y337111D01*
X274427Y337017D01*
X274462Y336924D01*
X274501Y336832D01*
X274544Y336742D01*
X274589Y336654D01*
X274639Y336567D01*
X274691Y336483D01*
X274747Y336400D01*
X274805Y336320D01*
X274867Y336242D01*
X274932Y336167D01*
X275000Y336094D01*
X275070Y336024D01*
X275143Y335956D01*
X275218Y335891D01*
X275296Y335829D01*
X275376Y335771D01*
X275459Y335715D01*
X275543Y335663D01*
X275630Y335613D01*
X275718Y335568D01*
X275808Y335525D01*
X275900Y335486D01*
X275993Y335451D01*
X276087Y335419D01*
X276182Y335391D01*
X276278Y335366D01*
X276376Y335345D01*
X276474Y335328D01*
X276572Y335315D01*
X276671Y335306D01*
X276771Y335300D01*
X276870Y335298D01*
X278168Y335298D01*
X268506Y335298D02*
X268506Y346982D01*
X264612Y340491D01*
X260717Y346982D01*
X260717Y335298D01*
X254734Y335298D02*
X254734Y346982D01*
X251488Y346982D01*
X251375Y346980D01*
X251262Y346974D01*
X251149Y346964D01*
X251036Y346950D01*
X250924Y346933D01*
X250813Y346911D01*
X250703Y346886D01*
X250593Y346856D01*
X250485Y346823D01*
X250378Y346786D01*
X250272Y346746D01*
X250168Y346701D01*
X250065Y346653D01*
X249964Y346602D01*
X249865Y346547D01*
X249768Y346489D01*
X249673Y346427D01*
X249580Y346362D01*
X249490Y346294D01*
X249402Y346223D01*
X249316Y346148D01*
X249233Y346071D01*
X249153Y345991D01*
X249076Y345908D01*
X249001Y345822D01*
X248930Y345734D01*
X248862Y345644D01*
X248797Y345551D01*
X248735Y345456D01*
X248677Y345359D01*
X248622Y345260D01*
X248571Y345159D01*
X248523Y345056D01*
X248478Y344952D01*
X248438Y344846D01*
X248401Y344739D01*
X248368Y344631D01*
X248338Y344521D01*
X248313Y344411D01*
X248291Y344300D01*
X248274Y344188D01*
X248260Y344075D01*
X248250Y343962D01*
X248244Y343849D01*
X248242Y343736D01*
X248244Y343623D01*
X248250Y343510D01*
X248260Y343397D01*
X248274Y343284D01*
X248291Y343172D01*
X248313Y343061D01*
X248338Y342951D01*
X248368Y342841D01*
X248401Y342733D01*
X248438Y342626D01*
X248478Y342520D01*
X248523Y342416D01*
X248571Y342313D01*
X248622Y342212D01*
X248677Y342113D01*
X248735Y342016D01*
X248797Y341921D01*
X248862Y341828D01*
X248930Y341738D01*
X249001Y341650D01*
X249076Y341564D01*
X249153Y341481D01*
X249233Y341401D01*
X249316Y341324D01*
X249402Y341249D01*
X249490Y341178D01*
X249580Y341110D01*
X249673Y341045D01*
X249768Y340983D01*
X249865Y340925D01*
X249964Y340870D01*
X250065Y340819D01*
X250168Y340771D01*
X250272Y340726D01*
X250378Y340686D01*
X250485Y340649D01*
X250593Y340616D01*
X250703Y340586D01*
X250813Y340561D01*
X250924Y340539D01*
X251036Y340522D01*
X251149Y340508D01*
X251262Y340498D01*
X251375Y340492D01*
X251488Y340490D01*
X251488Y340491D02*
X254734Y340491D01*
X243854Y344386D02*
X240609Y346982D01*
X240609Y335298D01*
X243854Y335298D02*
X237363Y335298D01*
X128223Y337894D02*
X128223Y346982D01*
X128224Y337894D02*
X128226Y337795D01*
X128232Y337695D01*
X128241Y337596D01*
X128254Y337498D01*
X128271Y337400D01*
X128292Y337302D01*
X128317Y337206D01*
X128345Y337111D01*
X128377Y337017D01*
X128412Y336924D01*
X128451Y336832D01*
X128494Y336742D01*
X128539Y336654D01*
X128589Y336567D01*
X128641Y336483D01*
X128697Y336400D01*
X128755Y336320D01*
X128817Y336242D01*
X128882Y336167D01*
X128950Y336094D01*
X129020Y336024D01*
X129093Y335956D01*
X129168Y335891D01*
X129246Y335829D01*
X129326Y335771D01*
X129409Y335715D01*
X129493Y335663D01*
X129580Y335613D01*
X129668Y335568D01*
X129758Y335525D01*
X129850Y335486D01*
X129943Y335451D01*
X130037Y335419D01*
X130132Y335391D01*
X130228Y335366D01*
X130326Y335345D01*
X130424Y335328D01*
X130522Y335315D01*
X130621Y335306D01*
X130721Y335300D01*
X130820Y335298D01*
X132118Y335298D01*
X122456Y335298D02*
X122456Y346982D01*
X118562Y340491D01*
X114667Y346982D01*
X114667Y335298D01*
X108684Y335298D02*
X108684Y346982D01*
X105438Y346982D01*
X105325Y346980D01*
X105212Y346974D01*
X105099Y346964D01*
X104986Y346950D01*
X104874Y346933D01*
X104763Y346911D01*
X104653Y346886D01*
X104543Y346856D01*
X104435Y346823D01*
X104328Y346786D01*
X104222Y346746D01*
X104118Y346701D01*
X104015Y346653D01*
X103914Y346602D01*
X103815Y346547D01*
X103718Y346489D01*
X103623Y346427D01*
X103530Y346362D01*
X103440Y346294D01*
X103352Y346223D01*
X103266Y346148D01*
X103183Y346071D01*
X103103Y345991D01*
X103026Y345908D01*
X102951Y345822D01*
X102880Y345734D01*
X102812Y345644D01*
X102747Y345551D01*
X102685Y345456D01*
X102627Y345359D01*
X102572Y345260D01*
X102521Y345159D01*
X102473Y345056D01*
X102428Y344952D01*
X102388Y344846D01*
X102351Y344739D01*
X102318Y344631D01*
X102288Y344521D01*
X102263Y344411D01*
X102241Y344300D01*
X102224Y344188D01*
X102210Y344075D01*
X102200Y343962D01*
X102194Y343849D01*
X102192Y343736D01*
X102194Y343623D01*
X102200Y343510D01*
X102210Y343397D01*
X102224Y343284D01*
X102241Y343172D01*
X102263Y343061D01*
X102288Y342951D01*
X102318Y342841D01*
X102351Y342733D01*
X102388Y342626D01*
X102428Y342520D01*
X102473Y342416D01*
X102521Y342313D01*
X102572Y342212D01*
X102627Y342113D01*
X102685Y342016D01*
X102747Y341921D01*
X102812Y341828D01*
X102880Y341738D01*
X102951Y341650D01*
X103026Y341564D01*
X103103Y341481D01*
X103183Y341401D01*
X103266Y341324D01*
X103352Y341249D01*
X103440Y341178D01*
X103530Y341110D01*
X103623Y341045D01*
X103718Y340983D01*
X103815Y340925D01*
X103914Y340870D01*
X104015Y340819D01*
X104118Y340771D01*
X104222Y340726D01*
X104328Y340686D01*
X104435Y340649D01*
X104543Y340616D01*
X104653Y340586D01*
X104763Y340561D01*
X104874Y340539D01*
X104986Y340522D01*
X105099Y340508D01*
X105212Y340498D01*
X105325Y340492D01*
X105438Y340490D01*
X105438Y340491D02*
X108684Y340491D01*
X94234Y346982D02*
X94127Y346980D01*
X94021Y346974D01*
X93915Y346964D01*
X93809Y346951D01*
X93703Y346933D01*
X93599Y346912D01*
X93495Y346887D01*
X93392Y346858D01*
X93291Y346826D01*
X93191Y346789D01*
X93092Y346749D01*
X92994Y346706D01*
X92898Y346659D01*
X92804Y346608D01*
X92712Y346554D01*
X92622Y346497D01*
X92534Y346437D01*
X92449Y346373D01*
X92366Y346306D01*
X92285Y346236D01*
X92207Y346164D01*
X92131Y346088D01*
X92059Y346010D01*
X91989Y345929D01*
X91922Y345846D01*
X91858Y345761D01*
X91798Y345673D01*
X91741Y345583D01*
X91687Y345491D01*
X91636Y345397D01*
X91589Y345301D01*
X91546Y345203D01*
X91506Y345104D01*
X91469Y345004D01*
X91437Y344903D01*
X91408Y344800D01*
X91383Y344696D01*
X91362Y344592D01*
X91344Y344486D01*
X91331Y344380D01*
X91321Y344274D01*
X91315Y344168D01*
X91313Y344061D01*
X94234Y346982D02*
X94355Y346980D01*
X94476Y346974D01*
X94596Y346964D01*
X94717Y346951D01*
X94836Y346933D01*
X94956Y346912D01*
X95074Y346887D01*
X95191Y346858D01*
X95308Y346825D01*
X95423Y346789D01*
X95537Y346748D01*
X95650Y346705D01*
X95762Y346657D01*
X95871Y346606D01*
X95979Y346551D01*
X96086Y346493D01*
X96190Y346432D01*
X96292Y346367D01*
X96392Y346299D01*
X96490Y346228D01*
X96586Y346154D01*
X96679Y346077D01*
X96769Y345996D01*
X96857Y345913D01*
X96942Y345827D01*
X97025Y345738D01*
X97104Y345647D01*
X97181Y345553D01*
X97254Y345457D01*
X97324Y345359D01*
X97391Y345258D01*
X97455Y345155D01*
X97516Y345050D01*
X97573Y344943D01*
X97626Y344835D01*
X97676Y344725D01*
X97722Y344613D01*
X97765Y344500D01*
X97804Y344385D01*
X92287Y341789D02*
X92208Y341867D01*
X92132Y341947D01*
X92059Y342030D01*
X91989Y342116D01*
X91922Y342203D01*
X91858Y342294D01*
X91798Y342386D01*
X91740Y342480D01*
X91686Y342577D01*
X91636Y342675D01*
X91589Y342775D01*
X91545Y342876D01*
X91505Y342979D01*
X91469Y343084D01*
X91437Y343189D01*
X91408Y343296D01*
X91383Y343403D01*
X91361Y343512D01*
X91344Y343621D01*
X91330Y343730D01*
X91321Y343840D01*
X91315Y343951D01*
X91313Y344061D01*
X92287Y341789D02*
X97804Y335298D01*
X91313Y335298D01*
X306023Y483944D02*
X306023Y493032D01*
X306024Y483944D02*
X306026Y483845D01*
X306032Y483745D01*
X306041Y483646D01*
X306054Y483548D01*
X306071Y483450D01*
X306092Y483352D01*
X306117Y483256D01*
X306145Y483161D01*
X306177Y483067D01*
X306212Y482974D01*
X306251Y482882D01*
X306294Y482792D01*
X306339Y482704D01*
X306389Y482617D01*
X306441Y482533D01*
X306497Y482450D01*
X306555Y482370D01*
X306617Y482292D01*
X306682Y482217D01*
X306750Y482144D01*
X306820Y482074D01*
X306893Y482006D01*
X306968Y481941D01*
X307046Y481879D01*
X307126Y481821D01*
X307209Y481765D01*
X307293Y481713D01*
X307380Y481663D01*
X307468Y481618D01*
X307558Y481575D01*
X307650Y481536D01*
X307743Y481501D01*
X307837Y481469D01*
X307932Y481441D01*
X308028Y481416D01*
X308126Y481395D01*
X308224Y481378D01*
X308322Y481365D01*
X308421Y481356D01*
X308521Y481350D01*
X308620Y481348D01*
X309918Y481348D01*
X300256Y481348D02*
X300256Y493032D01*
X296362Y486541D01*
X292467Y493032D01*
X292467Y481348D01*
X286484Y481348D02*
X286484Y493032D01*
X283238Y493032D01*
X283125Y493030D01*
X283012Y493024D01*
X282899Y493014D01*
X282786Y493000D01*
X282674Y492983D01*
X282563Y492961D01*
X282453Y492936D01*
X282343Y492906D01*
X282235Y492873D01*
X282128Y492836D01*
X282022Y492796D01*
X281918Y492751D01*
X281815Y492703D01*
X281714Y492652D01*
X281615Y492597D01*
X281518Y492539D01*
X281423Y492477D01*
X281330Y492412D01*
X281240Y492344D01*
X281152Y492273D01*
X281066Y492198D01*
X280983Y492121D01*
X280903Y492041D01*
X280826Y491958D01*
X280751Y491872D01*
X280680Y491784D01*
X280612Y491694D01*
X280547Y491601D01*
X280485Y491506D01*
X280427Y491409D01*
X280372Y491310D01*
X280321Y491209D01*
X280273Y491106D01*
X280228Y491002D01*
X280188Y490896D01*
X280151Y490789D01*
X280118Y490681D01*
X280088Y490571D01*
X280063Y490461D01*
X280041Y490350D01*
X280024Y490238D01*
X280010Y490125D01*
X280000Y490012D01*
X279994Y489899D01*
X279992Y489786D01*
X279994Y489673D01*
X280000Y489560D01*
X280010Y489447D01*
X280024Y489334D01*
X280041Y489222D01*
X280063Y489111D01*
X280088Y489001D01*
X280118Y488891D01*
X280151Y488783D01*
X280188Y488676D01*
X280228Y488570D01*
X280273Y488466D01*
X280321Y488363D01*
X280372Y488262D01*
X280427Y488163D01*
X280485Y488066D01*
X280547Y487971D01*
X280612Y487878D01*
X280680Y487788D01*
X280751Y487700D01*
X280826Y487614D01*
X280903Y487531D01*
X280983Y487451D01*
X281066Y487374D01*
X281152Y487299D01*
X281240Y487228D01*
X281330Y487160D01*
X281423Y487095D01*
X281518Y487033D01*
X281615Y486975D01*
X281714Y486920D01*
X281815Y486869D01*
X281918Y486821D01*
X282022Y486776D01*
X282128Y486736D01*
X282235Y486699D01*
X282343Y486666D01*
X282453Y486636D01*
X282563Y486611D01*
X282674Y486589D01*
X282786Y486572D01*
X282899Y486558D01*
X283012Y486548D01*
X283125Y486542D01*
X283238Y486540D01*
X283238Y486541D02*
X286484Y486541D01*
X275604Y481348D02*
X272359Y481348D01*
X272246Y481350D01*
X272133Y481356D01*
X272020Y481366D01*
X271907Y481380D01*
X271795Y481397D01*
X271684Y481419D01*
X271574Y481444D01*
X271464Y481474D01*
X271356Y481507D01*
X271249Y481544D01*
X271143Y481584D01*
X271039Y481629D01*
X270936Y481677D01*
X270835Y481728D01*
X270736Y481783D01*
X270639Y481841D01*
X270544Y481903D01*
X270451Y481968D01*
X270361Y482036D01*
X270273Y482107D01*
X270187Y482182D01*
X270104Y482259D01*
X270024Y482339D01*
X269947Y482422D01*
X269872Y482508D01*
X269801Y482596D01*
X269733Y482686D01*
X269668Y482779D01*
X269606Y482874D01*
X269548Y482971D01*
X269493Y483070D01*
X269442Y483171D01*
X269394Y483274D01*
X269349Y483378D01*
X269309Y483484D01*
X269272Y483591D01*
X269239Y483699D01*
X269209Y483809D01*
X269184Y483919D01*
X269162Y484030D01*
X269145Y484142D01*
X269131Y484255D01*
X269121Y484368D01*
X269115Y484481D01*
X269113Y484594D01*
X269115Y484707D01*
X269121Y484820D01*
X269131Y484933D01*
X269145Y485046D01*
X269162Y485158D01*
X269184Y485269D01*
X269209Y485379D01*
X269239Y485489D01*
X269272Y485597D01*
X269309Y485704D01*
X269349Y485810D01*
X269394Y485914D01*
X269442Y486017D01*
X269493Y486118D01*
X269548Y486217D01*
X269606Y486314D01*
X269668Y486409D01*
X269733Y486502D01*
X269801Y486592D01*
X269872Y486680D01*
X269947Y486766D01*
X270024Y486849D01*
X270104Y486929D01*
X270187Y487006D01*
X270273Y487081D01*
X270361Y487152D01*
X270451Y487220D01*
X270544Y487285D01*
X270639Y487347D01*
X270736Y487405D01*
X270835Y487460D01*
X270936Y487511D01*
X271039Y487559D01*
X271143Y487604D01*
X271249Y487644D01*
X271356Y487681D01*
X271464Y487714D01*
X271574Y487744D01*
X271684Y487769D01*
X271795Y487791D01*
X271907Y487808D01*
X272020Y487822D01*
X272133Y487832D01*
X272246Y487838D01*
X272359Y487840D01*
X271709Y493032D02*
X275604Y493032D01*
X271709Y493032D02*
X271608Y493030D01*
X271508Y493024D01*
X271408Y493014D01*
X271308Y493001D01*
X271209Y492983D01*
X271110Y492962D01*
X271013Y492937D01*
X270916Y492908D01*
X270821Y492875D01*
X270727Y492839D01*
X270635Y492799D01*
X270544Y492756D01*
X270455Y492709D01*
X270368Y492659D01*
X270282Y492605D01*
X270199Y492548D01*
X270119Y492488D01*
X270040Y492425D01*
X269964Y492358D01*
X269891Y492289D01*
X269821Y492217D01*
X269753Y492143D01*
X269688Y492066D01*
X269627Y491986D01*
X269568Y491904D01*
X269513Y491820D01*
X269461Y491734D01*
X269412Y491646D01*
X269367Y491556D01*
X269325Y491464D01*
X269287Y491371D01*
X269253Y491276D01*
X269222Y491181D01*
X269195Y491084D01*
X269172Y490986D01*
X269152Y490887D01*
X269137Y490787D01*
X269125Y490687D01*
X269117Y490587D01*
X269113Y490486D01*
X269113Y490386D01*
X269117Y490285D01*
X269125Y490185D01*
X269137Y490085D01*
X269152Y489985D01*
X269172Y489886D01*
X269195Y489788D01*
X269222Y489691D01*
X269253Y489596D01*
X269287Y489501D01*
X269325Y489408D01*
X269367Y489316D01*
X269412Y489226D01*
X269461Y489138D01*
X269513Y489052D01*
X269568Y488968D01*
X269627Y488886D01*
X269688Y488806D01*
X269753Y488729D01*
X269821Y488655D01*
X269891Y488583D01*
X269964Y488514D01*
X270040Y488447D01*
X270119Y488384D01*
X270199Y488324D01*
X270282Y488267D01*
X270368Y488213D01*
X270455Y488163D01*
X270544Y488116D01*
X270635Y488073D01*
X270727Y488033D01*
X270821Y487997D01*
X270916Y487964D01*
X271013Y487935D01*
X271110Y487910D01*
X271209Y487889D01*
X271308Y487871D01*
X271408Y487858D01*
X271508Y487848D01*
X271608Y487842D01*
X271709Y487840D01*
X271709Y487839D02*
X274306Y487839D01*
D11*
X140631Y493179D02*
X140631Y500489D01*
X140632Y493179D02*
X140634Y493090D01*
X140640Y493002D01*
X140649Y492914D01*
X140662Y492826D01*
X140679Y492739D01*
X140699Y492653D01*
X140724Y492568D01*
X140751Y492483D01*
X140783Y492400D01*
X140817Y492319D01*
X140856Y492239D01*
X140897Y492161D01*
X140942Y492084D01*
X140990Y492010D01*
X141041Y491937D01*
X141095Y491867D01*
X141153Y491800D01*
X141213Y491734D01*
X141275Y491672D01*
X141341Y491612D01*
X141408Y491554D01*
X141478Y491500D01*
X141551Y491449D01*
X141625Y491401D01*
X141702Y491356D01*
X141780Y491315D01*
X141860Y491276D01*
X141941Y491242D01*
X142024Y491210D01*
X142109Y491183D01*
X142194Y491158D01*
X142280Y491138D01*
X142367Y491121D01*
X142455Y491108D01*
X142543Y491099D01*
X142631Y491093D01*
X142720Y491091D01*
X143764Y491091D01*
X136047Y491091D02*
X136047Y500489D01*
X132915Y495268D01*
X129782Y500489D01*
X129782Y491091D01*
X125031Y491091D02*
X125031Y500489D01*
X122420Y500489D01*
X122319Y500487D01*
X122218Y500481D01*
X122117Y500471D01*
X122017Y500458D01*
X121917Y500440D01*
X121818Y500419D01*
X121720Y500393D01*
X121623Y500364D01*
X121527Y500332D01*
X121433Y500295D01*
X121340Y500255D01*
X121248Y500211D01*
X121159Y500164D01*
X121071Y500113D01*
X120985Y500059D01*
X120902Y500002D01*
X120820Y499942D01*
X120742Y499878D01*
X120665Y499812D01*
X120592Y499742D01*
X120521Y499670D01*
X120453Y499595D01*
X120388Y499517D01*
X120326Y499437D01*
X120267Y499355D01*
X120211Y499270D01*
X120159Y499184D01*
X120110Y499095D01*
X120064Y499004D01*
X120023Y498912D01*
X119984Y498818D01*
X119950Y498723D01*
X119919Y498627D01*
X119892Y498529D01*
X119868Y498431D01*
X119849Y498331D01*
X119833Y498231D01*
X119821Y498131D01*
X119813Y498030D01*
X119809Y497929D01*
X119809Y497827D01*
X119813Y497726D01*
X119821Y497625D01*
X119833Y497525D01*
X119849Y497425D01*
X119868Y497325D01*
X119892Y497227D01*
X119919Y497129D01*
X119950Y497033D01*
X119984Y496938D01*
X120023Y496844D01*
X120064Y496752D01*
X120110Y496661D01*
X120159Y496573D01*
X120211Y496486D01*
X120267Y496401D01*
X120326Y496319D01*
X120388Y496239D01*
X120453Y496161D01*
X120521Y496086D01*
X120592Y496014D01*
X120665Y495944D01*
X120742Y495878D01*
X120820Y495814D01*
X120902Y495754D01*
X120985Y495697D01*
X121071Y495643D01*
X121159Y495592D01*
X121248Y495545D01*
X121340Y495501D01*
X121433Y495461D01*
X121527Y495424D01*
X121623Y495392D01*
X121720Y495363D01*
X121818Y495337D01*
X121917Y495316D01*
X122017Y495298D01*
X122117Y495285D01*
X122218Y495275D01*
X122319Y495269D01*
X122420Y495267D01*
X122420Y495268D02*
X125031Y495268D01*
X116323Y493179D02*
X114235Y500489D01*
X116323Y493179D02*
X111102Y493179D01*
X112668Y495268D02*
X112668Y491091D01*
D13*
X161018Y440746D02*
X161018Y435554D01*
X161018Y440746D02*
X161016Y440859D01*
X161010Y440972D01*
X161000Y441085D01*
X160986Y441198D01*
X160969Y441310D01*
X160947Y441421D01*
X160922Y441531D01*
X160892Y441641D01*
X160859Y441749D01*
X160822Y441856D01*
X160782Y441962D01*
X160737Y442066D01*
X160689Y442169D01*
X160638Y442270D01*
X160583Y442369D01*
X160525Y442466D01*
X160463Y442561D01*
X160398Y442654D01*
X160330Y442744D01*
X160259Y442832D01*
X160184Y442918D01*
X160107Y443001D01*
X160027Y443081D01*
X159944Y443158D01*
X159858Y443233D01*
X159770Y443304D01*
X159680Y443372D01*
X159587Y443437D01*
X159492Y443499D01*
X159395Y443557D01*
X159296Y443612D01*
X159195Y443663D01*
X159092Y443711D01*
X158988Y443756D01*
X158882Y443796D01*
X158775Y443833D01*
X158667Y443866D01*
X158557Y443896D01*
X158447Y443921D01*
X158336Y443943D01*
X158224Y443960D01*
X158111Y443974D01*
X157998Y443984D01*
X157885Y443990D01*
X157772Y443992D01*
X157659Y443990D01*
X157546Y443984D01*
X157433Y443974D01*
X157320Y443960D01*
X157208Y443943D01*
X157097Y443921D01*
X156987Y443896D01*
X156877Y443866D01*
X156769Y443833D01*
X156662Y443796D01*
X156556Y443756D01*
X156452Y443711D01*
X156349Y443663D01*
X156248Y443612D01*
X156149Y443557D01*
X156052Y443499D01*
X155957Y443437D01*
X155864Y443372D01*
X155774Y443304D01*
X155686Y443233D01*
X155600Y443158D01*
X155517Y443081D01*
X155437Y443001D01*
X155360Y442918D01*
X155285Y442832D01*
X155214Y442744D01*
X155146Y442654D01*
X155081Y442561D01*
X155019Y442466D01*
X154961Y442369D01*
X154906Y442270D01*
X154855Y442169D01*
X154807Y442066D01*
X154762Y441962D01*
X154722Y441856D01*
X154685Y441749D01*
X154652Y441641D01*
X154622Y441531D01*
X154597Y441421D01*
X154575Y441310D01*
X154558Y441198D01*
X154544Y441085D01*
X154534Y440972D01*
X154528Y440859D01*
X154526Y440746D01*
X154527Y440746D02*
X154527Y435554D01*
X154526Y435554D02*
X154528Y435441D01*
X154534Y435328D01*
X154544Y435215D01*
X154558Y435102D01*
X154575Y434990D01*
X154597Y434879D01*
X154622Y434769D01*
X154652Y434659D01*
X154685Y434551D01*
X154722Y434444D01*
X154762Y434338D01*
X154807Y434234D01*
X154855Y434131D01*
X154906Y434030D01*
X154961Y433931D01*
X155019Y433834D01*
X155081Y433739D01*
X155146Y433646D01*
X155214Y433556D01*
X155285Y433468D01*
X155360Y433382D01*
X155437Y433299D01*
X155517Y433219D01*
X155600Y433142D01*
X155686Y433067D01*
X155774Y432996D01*
X155864Y432928D01*
X155957Y432863D01*
X156052Y432801D01*
X156149Y432743D01*
X156248Y432688D01*
X156349Y432637D01*
X156452Y432589D01*
X156556Y432544D01*
X156662Y432504D01*
X156769Y432467D01*
X156877Y432434D01*
X156987Y432404D01*
X157097Y432379D01*
X157208Y432357D01*
X157320Y432340D01*
X157433Y432326D01*
X157546Y432316D01*
X157659Y432310D01*
X157772Y432308D01*
X157885Y432310D01*
X157998Y432316D01*
X158111Y432326D01*
X158224Y432340D01*
X158336Y432357D01*
X158447Y432379D01*
X158557Y432404D01*
X158667Y432434D01*
X158775Y432467D01*
X158882Y432504D01*
X158988Y432544D01*
X159092Y432589D01*
X159195Y432637D01*
X159296Y432688D01*
X159395Y432743D01*
X159492Y432801D01*
X159587Y432863D01*
X159680Y432928D01*
X159770Y432996D01*
X159858Y433067D01*
X159944Y433142D01*
X160027Y433219D01*
X160107Y433299D01*
X160184Y433382D01*
X160259Y433468D01*
X160330Y433556D01*
X160398Y433646D01*
X160463Y433739D01*
X160525Y433834D01*
X160583Y433931D01*
X160638Y434030D01*
X160689Y434131D01*
X160737Y434234D01*
X160782Y434338D01*
X160822Y434444D01*
X160859Y434551D01*
X160892Y434659D01*
X160922Y434769D01*
X160947Y434879D01*
X160969Y434990D01*
X160986Y435102D01*
X161000Y435215D01*
X161010Y435328D01*
X161016Y435441D01*
X161018Y435554D01*
X155825Y434904D02*
X153229Y432308D01*
X149874Y432308D02*
X146629Y432308D01*
X146516Y432310D01*
X146403Y432316D01*
X146290Y432326D01*
X146177Y432340D01*
X146065Y432357D01*
X145954Y432379D01*
X145844Y432404D01*
X145734Y432434D01*
X145626Y432467D01*
X145519Y432504D01*
X145413Y432544D01*
X145309Y432589D01*
X145206Y432637D01*
X145105Y432688D01*
X145006Y432743D01*
X144909Y432801D01*
X144814Y432863D01*
X144721Y432928D01*
X144631Y432996D01*
X144543Y433067D01*
X144457Y433142D01*
X144374Y433219D01*
X144294Y433299D01*
X144217Y433382D01*
X144142Y433468D01*
X144071Y433556D01*
X144003Y433646D01*
X143938Y433739D01*
X143876Y433834D01*
X143818Y433931D01*
X143763Y434030D01*
X143712Y434131D01*
X143664Y434234D01*
X143619Y434338D01*
X143579Y434444D01*
X143542Y434551D01*
X143509Y434659D01*
X143479Y434769D01*
X143454Y434879D01*
X143432Y434990D01*
X143415Y435102D01*
X143401Y435215D01*
X143391Y435328D01*
X143385Y435441D01*
X143383Y435554D01*
X143385Y435667D01*
X143391Y435780D01*
X143401Y435893D01*
X143415Y436006D01*
X143432Y436118D01*
X143454Y436229D01*
X143479Y436339D01*
X143509Y436449D01*
X143542Y436557D01*
X143579Y436664D01*
X143619Y436770D01*
X143664Y436874D01*
X143712Y436977D01*
X143763Y437078D01*
X143818Y437177D01*
X143876Y437274D01*
X143938Y437369D01*
X144003Y437462D01*
X144071Y437552D01*
X144142Y437640D01*
X144217Y437726D01*
X144294Y437809D01*
X144374Y437889D01*
X144457Y437966D01*
X144543Y438041D01*
X144631Y438112D01*
X144721Y438180D01*
X144814Y438245D01*
X144909Y438307D01*
X145006Y438365D01*
X145105Y438420D01*
X145206Y438471D01*
X145309Y438519D01*
X145413Y438564D01*
X145519Y438604D01*
X145626Y438641D01*
X145734Y438674D01*
X145844Y438704D01*
X145954Y438729D01*
X146065Y438751D01*
X146177Y438768D01*
X146290Y438782D01*
X146403Y438792D01*
X146516Y438798D01*
X146629Y438800D01*
X145979Y443992D02*
X149874Y443992D01*
X145979Y443992D02*
X145878Y443990D01*
X145778Y443984D01*
X145678Y443974D01*
X145578Y443961D01*
X145479Y443943D01*
X145380Y443922D01*
X145283Y443897D01*
X145186Y443868D01*
X145091Y443835D01*
X144997Y443799D01*
X144905Y443759D01*
X144814Y443716D01*
X144725Y443669D01*
X144638Y443619D01*
X144552Y443565D01*
X144469Y443508D01*
X144389Y443448D01*
X144310Y443385D01*
X144234Y443318D01*
X144161Y443249D01*
X144091Y443177D01*
X144023Y443103D01*
X143958Y443026D01*
X143897Y442946D01*
X143838Y442864D01*
X143783Y442780D01*
X143731Y442694D01*
X143682Y442606D01*
X143637Y442516D01*
X143595Y442424D01*
X143557Y442331D01*
X143523Y442236D01*
X143492Y442141D01*
X143465Y442044D01*
X143442Y441946D01*
X143422Y441847D01*
X143407Y441747D01*
X143395Y441647D01*
X143387Y441547D01*
X143383Y441446D01*
X143383Y441346D01*
X143387Y441245D01*
X143395Y441145D01*
X143407Y441045D01*
X143422Y440945D01*
X143442Y440846D01*
X143465Y440748D01*
X143492Y440651D01*
X143523Y440556D01*
X143557Y440461D01*
X143595Y440368D01*
X143637Y440276D01*
X143682Y440186D01*
X143731Y440098D01*
X143783Y440012D01*
X143838Y439928D01*
X143897Y439846D01*
X143958Y439766D01*
X144023Y439689D01*
X144091Y439615D01*
X144161Y439543D01*
X144234Y439474D01*
X144310Y439407D01*
X144389Y439344D01*
X144469Y439284D01*
X144552Y439227D01*
X144638Y439173D01*
X144725Y439123D01*
X144814Y439076D01*
X144905Y439033D01*
X144997Y438993D01*
X145091Y438957D01*
X145186Y438924D01*
X145283Y438895D01*
X145380Y438870D01*
X145479Y438849D01*
X145578Y438831D01*
X145678Y438818D01*
X145778Y438808D01*
X145878Y438802D01*
X145979Y438800D01*
X145979Y438799D02*
X148576Y438799D01*
X231267Y486283D02*
X231267Y497967D01*
X228021Y497967D01*
X227908Y497965D01*
X227795Y497959D01*
X227682Y497949D01*
X227569Y497935D01*
X227457Y497918D01*
X227346Y497896D01*
X227236Y497871D01*
X227126Y497841D01*
X227018Y497808D01*
X226911Y497771D01*
X226805Y497731D01*
X226701Y497686D01*
X226598Y497638D01*
X226497Y497587D01*
X226398Y497532D01*
X226301Y497474D01*
X226206Y497412D01*
X226113Y497347D01*
X226023Y497279D01*
X225935Y497208D01*
X225849Y497133D01*
X225766Y497056D01*
X225686Y496976D01*
X225609Y496893D01*
X225534Y496807D01*
X225463Y496719D01*
X225395Y496629D01*
X225330Y496536D01*
X225268Y496441D01*
X225210Y496344D01*
X225155Y496245D01*
X225104Y496144D01*
X225056Y496041D01*
X225011Y495937D01*
X224971Y495831D01*
X224934Y495724D01*
X224901Y495616D01*
X224871Y495506D01*
X224846Y495396D01*
X224824Y495285D01*
X224807Y495173D01*
X224793Y495060D01*
X224783Y494947D01*
X224777Y494834D01*
X224775Y494721D01*
X224777Y494608D01*
X224783Y494495D01*
X224793Y494382D01*
X224807Y494269D01*
X224824Y494157D01*
X224846Y494046D01*
X224871Y493936D01*
X224901Y493826D01*
X224934Y493718D01*
X224971Y493611D01*
X225011Y493505D01*
X225056Y493401D01*
X225104Y493298D01*
X225155Y493197D01*
X225210Y493098D01*
X225268Y493001D01*
X225330Y492906D01*
X225395Y492813D01*
X225463Y492723D01*
X225534Y492635D01*
X225609Y492549D01*
X225686Y492466D01*
X225766Y492386D01*
X225849Y492309D01*
X225935Y492234D01*
X226023Y492163D01*
X226113Y492095D01*
X226206Y492030D01*
X226301Y491968D01*
X226398Y491910D01*
X226497Y491855D01*
X226598Y491804D01*
X226701Y491756D01*
X226805Y491711D01*
X226911Y491671D01*
X227018Y491634D01*
X227126Y491601D01*
X227236Y491571D01*
X227346Y491546D01*
X227457Y491524D01*
X227569Y491507D01*
X227682Y491493D01*
X227795Y491483D01*
X227908Y491477D01*
X228021Y491475D01*
X228021Y491476D02*
X231267Y491476D01*
X227372Y491476D02*
X224776Y486283D01*
X219911Y495371D02*
X216665Y497967D01*
X216665Y486283D01*
X213420Y486283D02*
X219911Y486283D01*
X204911Y497967D02*
X204804Y497965D01*
X204698Y497959D01*
X204592Y497949D01*
X204486Y497936D01*
X204380Y497918D01*
X204276Y497897D01*
X204172Y497872D01*
X204069Y497843D01*
X203968Y497811D01*
X203868Y497774D01*
X203769Y497734D01*
X203671Y497691D01*
X203575Y497644D01*
X203481Y497593D01*
X203389Y497539D01*
X203299Y497482D01*
X203211Y497422D01*
X203126Y497358D01*
X203043Y497291D01*
X202962Y497221D01*
X202884Y497149D01*
X202808Y497073D01*
X202736Y496995D01*
X202666Y496914D01*
X202599Y496831D01*
X202535Y496746D01*
X202475Y496658D01*
X202418Y496568D01*
X202364Y496476D01*
X202313Y496382D01*
X202266Y496286D01*
X202223Y496188D01*
X202183Y496089D01*
X202146Y495989D01*
X202114Y495888D01*
X202085Y495785D01*
X202060Y495681D01*
X202039Y495577D01*
X202021Y495471D01*
X202008Y495365D01*
X201998Y495259D01*
X201992Y495153D01*
X201990Y495046D01*
X204911Y497967D02*
X205032Y497965D01*
X205153Y497959D01*
X205273Y497949D01*
X205394Y497936D01*
X205513Y497918D01*
X205633Y497897D01*
X205751Y497872D01*
X205868Y497843D01*
X205985Y497810D01*
X206100Y497774D01*
X206214Y497733D01*
X206327Y497690D01*
X206439Y497642D01*
X206548Y497591D01*
X206656Y497536D01*
X206763Y497478D01*
X206867Y497417D01*
X206969Y497352D01*
X207069Y497284D01*
X207167Y497213D01*
X207263Y497139D01*
X207356Y497062D01*
X207446Y496981D01*
X207534Y496898D01*
X207619Y496812D01*
X207702Y496723D01*
X207781Y496632D01*
X207858Y496538D01*
X207931Y496442D01*
X208001Y496344D01*
X208068Y496243D01*
X208132Y496140D01*
X208193Y496035D01*
X208250Y495928D01*
X208303Y495820D01*
X208353Y495710D01*
X208399Y495598D01*
X208442Y495485D01*
X208481Y495370D01*
X202964Y492774D02*
X202885Y492852D01*
X202809Y492932D01*
X202736Y493015D01*
X202666Y493101D01*
X202599Y493188D01*
X202535Y493279D01*
X202475Y493371D01*
X202417Y493465D01*
X202363Y493562D01*
X202313Y493660D01*
X202266Y493760D01*
X202222Y493861D01*
X202182Y493964D01*
X202146Y494069D01*
X202114Y494174D01*
X202085Y494281D01*
X202060Y494388D01*
X202038Y494497D01*
X202021Y494606D01*
X202007Y494715D01*
X201998Y494825D01*
X201992Y494936D01*
X201990Y495046D01*
X202963Y492774D02*
X208481Y486283D01*
X201990Y486283D01*
X189992Y411540D02*
X178308Y411540D01*
X189992Y411540D02*
X189992Y414785D01*
X189990Y414898D01*
X189984Y415011D01*
X189974Y415124D01*
X189960Y415237D01*
X189943Y415349D01*
X189921Y415460D01*
X189896Y415570D01*
X189866Y415680D01*
X189833Y415788D01*
X189796Y415895D01*
X189756Y416001D01*
X189711Y416105D01*
X189663Y416208D01*
X189612Y416309D01*
X189557Y416408D01*
X189499Y416505D01*
X189437Y416600D01*
X189372Y416693D01*
X189304Y416783D01*
X189233Y416871D01*
X189158Y416957D01*
X189081Y417040D01*
X189001Y417120D01*
X188918Y417197D01*
X188832Y417272D01*
X188744Y417343D01*
X188654Y417411D01*
X188561Y417476D01*
X188466Y417538D01*
X188369Y417596D01*
X188270Y417651D01*
X188169Y417702D01*
X188066Y417750D01*
X187962Y417795D01*
X187856Y417835D01*
X187749Y417872D01*
X187641Y417905D01*
X187531Y417935D01*
X187421Y417960D01*
X187310Y417982D01*
X187198Y417999D01*
X187085Y418013D01*
X186972Y418023D01*
X186859Y418029D01*
X186746Y418031D01*
X186633Y418029D01*
X186520Y418023D01*
X186407Y418013D01*
X186294Y417999D01*
X186182Y417982D01*
X186071Y417960D01*
X185961Y417935D01*
X185851Y417905D01*
X185743Y417872D01*
X185636Y417835D01*
X185530Y417795D01*
X185426Y417750D01*
X185323Y417702D01*
X185222Y417651D01*
X185123Y417596D01*
X185026Y417538D01*
X184931Y417476D01*
X184838Y417411D01*
X184748Y417343D01*
X184660Y417272D01*
X184574Y417197D01*
X184491Y417120D01*
X184411Y417040D01*
X184334Y416957D01*
X184259Y416871D01*
X184188Y416783D01*
X184120Y416693D01*
X184055Y416600D01*
X183993Y416505D01*
X183935Y416408D01*
X183880Y416309D01*
X183829Y416208D01*
X183781Y416105D01*
X183736Y416001D01*
X183696Y415895D01*
X183659Y415788D01*
X183626Y415680D01*
X183596Y415570D01*
X183571Y415460D01*
X183549Y415349D01*
X183532Y415237D01*
X183518Y415124D01*
X183508Y415011D01*
X183502Y414898D01*
X183500Y414785D01*
X183501Y414785D02*
X183501Y411540D01*
X183501Y415434D02*
X178308Y418031D01*
X187396Y422896D02*
X189992Y426141D01*
X178308Y426141D01*
X178308Y422896D02*
X178308Y429387D01*
X181554Y434325D02*
X181667Y434327D01*
X181780Y434333D01*
X181893Y434343D01*
X182006Y434357D01*
X182118Y434374D01*
X182229Y434396D01*
X182339Y434421D01*
X182449Y434451D01*
X182557Y434484D01*
X182664Y434521D01*
X182770Y434561D01*
X182874Y434606D01*
X182977Y434654D01*
X183078Y434705D01*
X183177Y434760D01*
X183274Y434818D01*
X183369Y434880D01*
X183462Y434945D01*
X183552Y435013D01*
X183640Y435084D01*
X183726Y435159D01*
X183809Y435236D01*
X183889Y435316D01*
X183966Y435399D01*
X184041Y435485D01*
X184112Y435573D01*
X184180Y435663D01*
X184245Y435756D01*
X184307Y435851D01*
X184365Y435948D01*
X184420Y436047D01*
X184471Y436148D01*
X184519Y436251D01*
X184564Y436355D01*
X184604Y436461D01*
X184641Y436568D01*
X184674Y436676D01*
X184704Y436786D01*
X184729Y436896D01*
X184751Y437007D01*
X184768Y437119D01*
X184782Y437232D01*
X184792Y437345D01*
X184798Y437458D01*
X184800Y437571D01*
X184798Y437684D01*
X184792Y437797D01*
X184782Y437910D01*
X184768Y438023D01*
X184751Y438135D01*
X184729Y438246D01*
X184704Y438356D01*
X184674Y438466D01*
X184641Y438574D01*
X184604Y438681D01*
X184564Y438787D01*
X184519Y438891D01*
X184471Y438994D01*
X184420Y439095D01*
X184365Y439194D01*
X184307Y439291D01*
X184245Y439386D01*
X184180Y439479D01*
X184112Y439569D01*
X184041Y439657D01*
X183966Y439743D01*
X183889Y439826D01*
X183809Y439906D01*
X183726Y439983D01*
X183640Y440058D01*
X183552Y440129D01*
X183462Y440197D01*
X183369Y440262D01*
X183274Y440324D01*
X183177Y440382D01*
X183078Y440437D01*
X182977Y440488D01*
X182874Y440536D01*
X182770Y440581D01*
X182664Y440621D01*
X182557Y440658D01*
X182449Y440691D01*
X182339Y440721D01*
X182229Y440746D01*
X182118Y440768D01*
X182006Y440785D01*
X181893Y440799D01*
X181780Y440809D01*
X181667Y440815D01*
X181554Y440817D01*
X181441Y440815D01*
X181328Y440809D01*
X181215Y440799D01*
X181102Y440785D01*
X180990Y440768D01*
X180879Y440746D01*
X180769Y440721D01*
X180659Y440691D01*
X180551Y440658D01*
X180444Y440621D01*
X180338Y440581D01*
X180234Y440536D01*
X180131Y440488D01*
X180030Y440437D01*
X179931Y440382D01*
X179834Y440324D01*
X179739Y440262D01*
X179646Y440197D01*
X179556Y440129D01*
X179468Y440058D01*
X179382Y439983D01*
X179299Y439906D01*
X179219Y439826D01*
X179142Y439743D01*
X179067Y439657D01*
X178996Y439569D01*
X178928Y439479D01*
X178863Y439386D01*
X178801Y439291D01*
X178743Y439194D01*
X178688Y439095D01*
X178637Y438994D01*
X178589Y438891D01*
X178544Y438787D01*
X178504Y438681D01*
X178467Y438574D01*
X178434Y438466D01*
X178404Y438356D01*
X178379Y438246D01*
X178357Y438135D01*
X178340Y438023D01*
X178326Y437910D01*
X178316Y437797D01*
X178310Y437684D01*
X178308Y437571D01*
X178310Y437458D01*
X178316Y437345D01*
X178326Y437232D01*
X178340Y437119D01*
X178357Y437007D01*
X178379Y436896D01*
X178404Y436786D01*
X178434Y436676D01*
X178467Y436568D01*
X178504Y436461D01*
X178544Y436355D01*
X178589Y436251D01*
X178637Y436148D01*
X178688Y436047D01*
X178743Y435948D01*
X178801Y435851D01*
X178863Y435756D01*
X178928Y435663D01*
X178996Y435573D01*
X179067Y435485D01*
X179142Y435399D01*
X179219Y435316D01*
X179299Y435236D01*
X179382Y435159D01*
X179468Y435084D01*
X179556Y435013D01*
X179646Y434945D01*
X179739Y434880D01*
X179834Y434818D01*
X179931Y434760D01*
X180030Y434705D01*
X180131Y434654D01*
X180234Y434606D01*
X180338Y434561D01*
X180444Y434521D01*
X180551Y434484D01*
X180659Y434451D01*
X180769Y434421D01*
X180879Y434396D01*
X180990Y434374D01*
X181102Y434357D01*
X181215Y434343D01*
X181328Y434333D01*
X181441Y434327D01*
X181554Y434325D01*
X187396Y434975D02*
X187497Y434977D01*
X187597Y434983D01*
X187697Y434993D01*
X187797Y435006D01*
X187896Y435024D01*
X187995Y435045D01*
X188092Y435070D01*
X188189Y435099D01*
X188284Y435132D01*
X188378Y435168D01*
X188470Y435208D01*
X188561Y435251D01*
X188650Y435298D01*
X188737Y435348D01*
X188823Y435402D01*
X188906Y435459D01*
X188986Y435519D01*
X189065Y435582D01*
X189141Y435649D01*
X189214Y435718D01*
X189284Y435790D01*
X189352Y435864D01*
X189417Y435941D01*
X189478Y436021D01*
X189537Y436103D01*
X189592Y436187D01*
X189644Y436273D01*
X189693Y436361D01*
X189738Y436451D01*
X189780Y436543D01*
X189818Y436636D01*
X189852Y436731D01*
X189883Y436826D01*
X189910Y436923D01*
X189933Y437021D01*
X189953Y437120D01*
X189968Y437220D01*
X189980Y437320D01*
X189988Y437420D01*
X189992Y437521D01*
X189992Y437621D01*
X189988Y437722D01*
X189980Y437822D01*
X189968Y437922D01*
X189953Y438022D01*
X189933Y438121D01*
X189910Y438219D01*
X189883Y438316D01*
X189852Y438411D01*
X189818Y438506D01*
X189780Y438599D01*
X189738Y438691D01*
X189693Y438781D01*
X189644Y438869D01*
X189592Y438955D01*
X189537Y439039D01*
X189478Y439121D01*
X189417Y439201D01*
X189352Y439278D01*
X189284Y439352D01*
X189214Y439424D01*
X189141Y439493D01*
X189065Y439560D01*
X188986Y439623D01*
X188906Y439683D01*
X188823Y439740D01*
X188737Y439794D01*
X188650Y439844D01*
X188561Y439891D01*
X188470Y439934D01*
X188378Y439974D01*
X188284Y440010D01*
X188189Y440043D01*
X188092Y440072D01*
X187995Y440097D01*
X187896Y440118D01*
X187797Y440136D01*
X187697Y440149D01*
X187597Y440159D01*
X187497Y440165D01*
X187396Y440167D01*
X187295Y440165D01*
X187195Y440159D01*
X187095Y440149D01*
X186995Y440136D01*
X186896Y440118D01*
X186797Y440097D01*
X186700Y440072D01*
X186603Y440043D01*
X186508Y440010D01*
X186414Y439974D01*
X186322Y439934D01*
X186231Y439891D01*
X186142Y439844D01*
X186055Y439794D01*
X185969Y439740D01*
X185886Y439683D01*
X185806Y439623D01*
X185727Y439560D01*
X185651Y439493D01*
X185578Y439424D01*
X185508Y439352D01*
X185440Y439278D01*
X185375Y439201D01*
X185314Y439121D01*
X185255Y439039D01*
X185200Y438955D01*
X185148Y438869D01*
X185099Y438781D01*
X185054Y438691D01*
X185012Y438599D01*
X184974Y438506D01*
X184940Y438411D01*
X184909Y438316D01*
X184882Y438219D01*
X184859Y438121D01*
X184839Y438022D01*
X184824Y437922D01*
X184812Y437822D01*
X184804Y437722D01*
X184800Y437621D01*
X184800Y437521D01*
X184804Y437420D01*
X184812Y437320D01*
X184824Y437220D01*
X184839Y437120D01*
X184859Y437021D01*
X184882Y436923D01*
X184909Y436826D01*
X184940Y436731D01*
X184974Y436636D01*
X185012Y436543D01*
X185054Y436451D01*
X185099Y436361D01*
X185148Y436273D01*
X185200Y436187D01*
X185255Y436103D01*
X185314Y436021D01*
X185375Y435941D01*
X185440Y435864D01*
X185508Y435790D01*
X185578Y435718D01*
X185651Y435649D01*
X185727Y435582D01*
X185806Y435519D01*
X185886Y435459D01*
X185969Y435402D01*
X186055Y435348D01*
X186142Y435298D01*
X186231Y435251D01*
X186322Y435208D01*
X186414Y435168D01*
X186508Y435132D01*
X186603Y435099D01*
X186700Y435070D01*
X186797Y435045D01*
X186896Y435024D01*
X186995Y435006D01*
X187095Y434993D01*
X187195Y434983D01*
X187295Y434977D01*
X187396Y434975D01*
X37193Y412171D02*
X37193Y406979D01*
X37193Y412171D02*
X37191Y412284D01*
X37185Y412397D01*
X37175Y412510D01*
X37161Y412623D01*
X37144Y412735D01*
X37122Y412846D01*
X37097Y412956D01*
X37067Y413066D01*
X37034Y413174D01*
X36997Y413281D01*
X36957Y413387D01*
X36912Y413491D01*
X36864Y413594D01*
X36813Y413695D01*
X36758Y413794D01*
X36700Y413891D01*
X36638Y413986D01*
X36573Y414079D01*
X36505Y414169D01*
X36434Y414257D01*
X36359Y414343D01*
X36282Y414426D01*
X36202Y414506D01*
X36119Y414583D01*
X36033Y414658D01*
X35945Y414729D01*
X35855Y414797D01*
X35762Y414862D01*
X35667Y414924D01*
X35570Y414982D01*
X35471Y415037D01*
X35370Y415088D01*
X35267Y415136D01*
X35163Y415181D01*
X35057Y415221D01*
X34950Y415258D01*
X34842Y415291D01*
X34732Y415321D01*
X34622Y415346D01*
X34511Y415368D01*
X34399Y415385D01*
X34286Y415399D01*
X34173Y415409D01*
X34060Y415415D01*
X33947Y415417D01*
X33834Y415415D01*
X33721Y415409D01*
X33608Y415399D01*
X33495Y415385D01*
X33383Y415368D01*
X33272Y415346D01*
X33162Y415321D01*
X33052Y415291D01*
X32944Y415258D01*
X32837Y415221D01*
X32731Y415181D01*
X32627Y415136D01*
X32524Y415088D01*
X32423Y415037D01*
X32324Y414982D01*
X32227Y414924D01*
X32132Y414862D01*
X32039Y414797D01*
X31949Y414729D01*
X31861Y414658D01*
X31775Y414583D01*
X31692Y414506D01*
X31612Y414426D01*
X31535Y414343D01*
X31460Y414257D01*
X31389Y414169D01*
X31321Y414079D01*
X31256Y413986D01*
X31194Y413891D01*
X31136Y413794D01*
X31081Y413695D01*
X31030Y413594D01*
X30982Y413491D01*
X30937Y413387D01*
X30897Y413281D01*
X30860Y413174D01*
X30827Y413066D01*
X30797Y412956D01*
X30772Y412846D01*
X30750Y412735D01*
X30733Y412623D01*
X30719Y412510D01*
X30709Y412397D01*
X30703Y412284D01*
X30701Y412171D01*
X30702Y412171D02*
X30702Y406979D01*
X30701Y406979D02*
X30703Y406866D01*
X30709Y406753D01*
X30719Y406640D01*
X30733Y406527D01*
X30750Y406415D01*
X30772Y406304D01*
X30797Y406194D01*
X30827Y406084D01*
X30860Y405976D01*
X30897Y405869D01*
X30937Y405763D01*
X30982Y405659D01*
X31030Y405556D01*
X31081Y405455D01*
X31136Y405356D01*
X31194Y405259D01*
X31256Y405164D01*
X31321Y405071D01*
X31389Y404981D01*
X31460Y404893D01*
X31535Y404807D01*
X31612Y404724D01*
X31692Y404644D01*
X31775Y404567D01*
X31861Y404492D01*
X31949Y404421D01*
X32039Y404353D01*
X32132Y404288D01*
X32227Y404226D01*
X32324Y404168D01*
X32423Y404113D01*
X32524Y404062D01*
X32627Y404014D01*
X32731Y403969D01*
X32837Y403929D01*
X32944Y403892D01*
X33052Y403859D01*
X33162Y403829D01*
X33272Y403804D01*
X33383Y403782D01*
X33495Y403765D01*
X33608Y403751D01*
X33721Y403741D01*
X33834Y403735D01*
X33947Y403733D01*
X34060Y403735D01*
X34173Y403741D01*
X34286Y403751D01*
X34399Y403765D01*
X34511Y403782D01*
X34622Y403804D01*
X34732Y403829D01*
X34842Y403859D01*
X34950Y403892D01*
X35057Y403929D01*
X35163Y403969D01*
X35267Y404014D01*
X35370Y404062D01*
X35471Y404113D01*
X35570Y404168D01*
X35667Y404226D01*
X35762Y404288D01*
X35855Y404353D01*
X35945Y404421D01*
X36033Y404492D01*
X36119Y404567D01*
X36202Y404644D01*
X36282Y404724D01*
X36359Y404807D01*
X36434Y404893D01*
X36505Y404981D01*
X36573Y405071D01*
X36638Y405164D01*
X36700Y405259D01*
X36758Y405356D01*
X36813Y405455D01*
X36864Y405556D01*
X36912Y405659D01*
X36957Y405763D01*
X36997Y405869D01*
X37034Y405976D01*
X37067Y406084D01*
X37097Y406194D01*
X37122Y406304D01*
X37144Y406415D01*
X37161Y406527D01*
X37175Y406640D01*
X37185Y406753D01*
X37191Y406866D01*
X37193Y406979D01*
X32000Y406329D02*
X29404Y403733D01*
X26049Y406329D02*
X23453Y415417D01*
X26049Y406329D02*
X19558Y406329D01*
X21505Y408926D02*
X21505Y403733D01*
X85217Y486283D02*
X85217Y497967D01*
X81971Y497967D01*
X81858Y497965D01*
X81745Y497959D01*
X81632Y497949D01*
X81519Y497935D01*
X81407Y497918D01*
X81296Y497896D01*
X81186Y497871D01*
X81076Y497841D01*
X80968Y497808D01*
X80861Y497771D01*
X80755Y497731D01*
X80651Y497686D01*
X80548Y497638D01*
X80447Y497587D01*
X80348Y497532D01*
X80251Y497474D01*
X80156Y497412D01*
X80063Y497347D01*
X79973Y497279D01*
X79885Y497208D01*
X79799Y497133D01*
X79716Y497056D01*
X79636Y496976D01*
X79559Y496893D01*
X79484Y496807D01*
X79413Y496719D01*
X79345Y496629D01*
X79280Y496536D01*
X79218Y496441D01*
X79160Y496344D01*
X79105Y496245D01*
X79054Y496144D01*
X79006Y496041D01*
X78961Y495937D01*
X78921Y495831D01*
X78884Y495724D01*
X78851Y495616D01*
X78821Y495506D01*
X78796Y495396D01*
X78774Y495285D01*
X78757Y495173D01*
X78743Y495060D01*
X78733Y494947D01*
X78727Y494834D01*
X78725Y494721D01*
X78727Y494608D01*
X78733Y494495D01*
X78743Y494382D01*
X78757Y494269D01*
X78774Y494157D01*
X78796Y494046D01*
X78821Y493936D01*
X78851Y493826D01*
X78884Y493718D01*
X78921Y493611D01*
X78961Y493505D01*
X79006Y493401D01*
X79054Y493298D01*
X79105Y493197D01*
X79160Y493098D01*
X79218Y493001D01*
X79280Y492906D01*
X79345Y492813D01*
X79413Y492723D01*
X79484Y492635D01*
X79559Y492549D01*
X79636Y492466D01*
X79716Y492386D01*
X79799Y492309D01*
X79885Y492234D01*
X79973Y492163D01*
X80063Y492095D01*
X80156Y492030D01*
X80251Y491968D01*
X80348Y491910D01*
X80447Y491855D01*
X80548Y491804D01*
X80651Y491756D01*
X80755Y491711D01*
X80861Y491671D01*
X80968Y491634D01*
X81076Y491601D01*
X81186Y491571D01*
X81296Y491546D01*
X81407Y491524D01*
X81519Y491507D01*
X81632Y491493D01*
X81745Y491483D01*
X81858Y491477D01*
X81971Y491475D01*
X81971Y491476D02*
X85217Y491476D01*
X81322Y491476D02*
X78726Y486283D01*
X67370Y495046D02*
X67372Y495153D01*
X67378Y495259D01*
X67388Y495365D01*
X67401Y495471D01*
X67419Y495577D01*
X67440Y495681D01*
X67465Y495785D01*
X67494Y495888D01*
X67526Y495989D01*
X67563Y496089D01*
X67603Y496188D01*
X67646Y496286D01*
X67693Y496382D01*
X67744Y496476D01*
X67798Y496568D01*
X67855Y496658D01*
X67915Y496746D01*
X67979Y496831D01*
X68046Y496914D01*
X68116Y496995D01*
X68188Y497073D01*
X68264Y497149D01*
X68342Y497221D01*
X68423Y497291D01*
X68506Y497358D01*
X68591Y497422D01*
X68679Y497482D01*
X68769Y497539D01*
X68861Y497593D01*
X68955Y497644D01*
X69051Y497691D01*
X69149Y497734D01*
X69248Y497774D01*
X69348Y497811D01*
X69449Y497843D01*
X69552Y497872D01*
X69656Y497897D01*
X69760Y497918D01*
X69866Y497936D01*
X69972Y497949D01*
X70078Y497959D01*
X70184Y497965D01*
X70291Y497967D01*
X70412Y497965D01*
X70533Y497959D01*
X70653Y497949D01*
X70774Y497936D01*
X70893Y497918D01*
X71013Y497897D01*
X71131Y497872D01*
X71248Y497843D01*
X71365Y497810D01*
X71480Y497774D01*
X71594Y497733D01*
X71707Y497690D01*
X71819Y497642D01*
X71928Y497591D01*
X72036Y497536D01*
X72143Y497478D01*
X72247Y497417D01*
X72349Y497352D01*
X72449Y497284D01*
X72547Y497213D01*
X72643Y497139D01*
X72736Y497062D01*
X72826Y496981D01*
X72914Y496898D01*
X72999Y496812D01*
X73082Y496723D01*
X73161Y496632D01*
X73238Y496538D01*
X73311Y496442D01*
X73381Y496344D01*
X73448Y496243D01*
X73512Y496140D01*
X73573Y496035D01*
X73630Y495928D01*
X73683Y495820D01*
X73733Y495710D01*
X73779Y495598D01*
X73822Y495485D01*
X73861Y495370D01*
X68344Y492774D02*
X68265Y492852D01*
X68189Y492932D01*
X68116Y493015D01*
X68046Y493101D01*
X67979Y493188D01*
X67915Y493279D01*
X67855Y493371D01*
X67797Y493465D01*
X67743Y493562D01*
X67693Y493660D01*
X67646Y493760D01*
X67602Y493861D01*
X67562Y493964D01*
X67526Y494069D01*
X67494Y494174D01*
X67465Y494281D01*
X67440Y494388D01*
X67418Y494497D01*
X67401Y494606D01*
X67387Y494715D01*
X67378Y494825D01*
X67372Y494936D01*
X67370Y495046D01*
X68343Y492774D02*
X73861Y486283D01*
X67370Y486283D01*
X62431Y495371D02*
X59185Y497967D01*
X59185Y486283D01*
X55940Y486283D02*
X62431Y486283D01*
X40767Y486283D02*
X40767Y497967D01*
X37521Y497967D01*
X37408Y497965D01*
X37295Y497959D01*
X37182Y497949D01*
X37069Y497935D01*
X36957Y497918D01*
X36846Y497896D01*
X36736Y497871D01*
X36626Y497841D01*
X36518Y497808D01*
X36411Y497771D01*
X36305Y497731D01*
X36201Y497686D01*
X36098Y497638D01*
X35997Y497587D01*
X35898Y497532D01*
X35801Y497474D01*
X35706Y497412D01*
X35613Y497347D01*
X35523Y497279D01*
X35435Y497208D01*
X35349Y497133D01*
X35266Y497056D01*
X35186Y496976D01*
X35109Y496893D01*
X35034Y496807D01*
X34963Y496719D01*
X34895Y496629D01*
X34830Y496536D01*
X34768Y496441D01*
X34710Y496344D01*
X34655Y496245D01*
X34604Y496144D01*
X34556Y496041D01*
X34511Y495937D01*
X34471Y495831D01*
X34434Y495724D01*
X34401Y495616D01*
X34371Y495506D01*
X34346Y495396D01*
X34324Y495285D01*
X34307Y495173D01*
X34293Y495060D01*
X34283Y494947D01*
X34277Y494834D01*
X34275Y494721D01*
X34277Y494608D01*
X34283Y494495D01*
X34293Y494382D01*
X34307Y494269D01*
X34324Y494157D01*
X34346Y494046D01*
X34371Y493936D01*
X34401Y493826D01*
X34434Y493718D01*
X34471Y493611D01*
X34511Y493505D01*
X34556Y493401D01*
X34604Y493298D01*
X34655Y493197D01*
X34710Y493098D01*
X34768Y493001D01*
X34830Y492906D01*
X34895Y492813D01*
X34963Y492723D01*
X35034Y492635D01*
X35109Y492549D01*
X35186Y492466D01*
X35266Y492386D01*
X35349Y492309D01*
X35435Y492234D01*
X35523Y492163D01*
X35613Y492095D01*
X35706Y492030D01*
X35801Y491968D01*
X35898Y491910D01*
X35997Y491855D01*
X36098Y491804D01*
X36201Y491756D01*
X36305Y491711D01*
X36411Y491671D01*
X36518Y491634D01*
X36626Y491601D01*
X36736Y491571D01*
X36846Y491546D01*
X36957Y491524D01*
X37069Y491507D01*
X37182Y491493D01*
X37295Y491483D01*
X37408Y491477D01*
X37521Y491475D01*
X37521Y491476D02*
X40767Y491476D01*
X36872Y491476D02*
X34276Y486283D01*
X22920Y495046D02*
X22922Y495153D01*
X22928Y495259D01*
X22938Y495365D01*
X22951Y495471D01*
X22969Y495577D01*
X22990Y495681D01*
X23015Y495785D01*
X23044Y495888D01*
X23076Y495989D01*
X23113Y496089D01*
X23153Y496188D01*
X23196Y496286D01*
X23243Y496382D01*
X23294Y496476D01*
X23348Y496568D01*
X23405Y496658D01*
X23465Y496746D01*
X23529Y496831D01*
X23596Y496914D01*
X23666Y496995D01*
X23738Y497073D01*
X23814Y497149D01*
X23892Y497221D01*
X23973Y497291D01*
X24056Y497358D01*
X24141Y497422D01*
X24229Y497482D01*
X24319Y497539D01*
X24411Y497593D01*
X24505Y497644D01*
X24601Y497691D01*
X24699Y497734D01*
X24798Y497774D01*
X24898Y497811D01*
X24999Y497843D01*
X25102Y497872D01*
X25206Y497897D01*
X25310Y497918D01*
X25416Y497936D01*
X25522Y497949D01*
X25628Y497959D01*
X25734Y497965D01*
X25841Y497967D01*
X25962Y497965D01*
X26083Y497959D01*
X26203Y497949D01*
X26324Y497936D01*
X26443Y497918D01*
X26563Y497897D01*
X26681Y497872D01*
X26798Y497843D01*
X26915Y497810D01*
X27030Y497774D01*
X27144Y497733D01*
X27257Y497690D01*
X27369Y497642D01*
X27478Y497591D01*
X27586Y497536D01*
X27693Y497478D01*
X27797Y497417D01*
X27899Y497352D01*
X27999Y497284D01*
X28097Y497213D01*
X28193Y497139D01*
X28286Y497062D01*
X28376Y496981D01*
X28464Y496898D01*
X28549Y496812D01*
X28632Y496723D01*
X28711Y496632D01*
X28788Y496538D01*
X28861Y496442D01*
X28931Y496344D01*
X28998Y496243D01*
X29062Y496140D01*
X29123Y496035D01*
X29180Y495928D01*
X29233Y495820D01*
X29283Y495710D01*
X29329Y495598D01*
X29372Y495485D01*
X29411Y495370D01*
X23894Y492774D02*
X23815Y492852D01*
X23739Y492932D01*
X23666Y493015D01*
X23596Y493101D01*
X23529Y493188D01*
X23465Y493279D01*
X23405Y493371D01*
X23347Y493465D01*
X23293Y493562D01*
X23243Y493660D01*
X23196Y493760D01*
X23152Y493861D01*
X23112Y493964D01*
X23076Y494069D01*
X23044Y494174D01*
X23015Y494281D01*
X22990Y494388D01*
X22968Y494497D01*
X22951Y494606D01*
X22937Y494715D01*
X22928Y494825D01*
X22922Y494936D01*
X22920Y495046D01*
X23893Y492774D02*
X29411Y486283D01*
X22920Y486283D01*
X17981Y486283D02*
X14735Y486283D01*
X14622Y486285D01*
X14509Y486291D01*
X14396Y486301D01*
X14283Y486315D01*
X14171Y486332D01*
X14060Y486354D01*
X13950Y486379D01*
X13840Y486409D01*
X13732Y486442D01*
X13625Y486479D01*
X13519Y486519D01*
X13415Y486564D01*
X13312Y486612D01*
X13211Y486663D01*
X13112Y486718D01*
X13015Y486776D01*
X12920Y486838D01*
X12827Y486903D01*
X12737Y486971D01*
X12649Y487042D01*
X12563Y487117D01*
X12480Y487194D01*
X12400Y487274D01*
X12323Y487357D01*
X12248Y487443D01*
X12177Y487531D01*
X12109Y487621D01*
X12044Y487714D01*
X11982Y487809D01*
X11924Y487906D01*
X11869Y488005D01*
X11818Y488106D01*
X11770Y488209D01*
X11725Y488313D01*
X11685Y488419D01*
X11648Y488526D01*
X11615Y488634D01*
X11585Y488744D01*
X11560Y488854D01*
X11538Y488965D01*
X11521Y489077D01*
X11507Y489190D01*
X11497Y489303D01*
X11491Y489416D01*
X11489Y489529D01*
X11491Y489642D01*
X11497Y489755D01*
X11507Y489868D01*
X11521Y489981D01*
X11538Y490093D01*
X11560Y490204D01*
X11585Y490314D01*
X11615Y490424D01*
X11648Y490532D01*
X11685Y490639D01*
X11725Y490745D01*
X11770Y490849D01*
X11818Y490952D01*
X11869Y491053D01*
X11924Y491152D01*
X11982Y491249D01*
X12044Y491344D01*
X12109Y491437D01*
X12177Y491527D01*
X12248Y491615D01*
X12323Y491701D01*
X12400Y491784D01*
X12480Y491864D01*
X12563Y491941D01*
X12649Y492016D01*
X12737Y492087D01*
X12827Y492155D01*
X12920Y492220D01*
X13015Y492282D01*
X13112Y492340D01*
X13211Y492395D01*
X13312Y492446D01*
X13415Y492494D01*
X13519Y492539D01*
X13625Y492579D01*
X13732Y492616D01*
X13840Y492649D01*
X13950Y492679D01*
X14060Y492704D01*
X14171Y492726D01*
X14283Y492743D01*
X14396Y492757D01*
X14509Y492767D01*
X14622Y492773D01*
X14735Y492775D01*
X14086Y497967D02*
X17981Y497967D01*
X14086Y497967D02*
X13985Y497965D01*
X13885Y497959D01*
X13785Y497949D01*
X13685Y497936D01*
X13586Y497918D01*
X13487Y497897D01*
X13390Y497872D01*
X13293Y497843D01*
X13198Y497810D01*
X13104Y497774D01*
X13012Y497734D01*
X12921Y497691D01*
X12832Y497644D01*
X12745Y497594D01*
X12659Y497540D01*
X12576Y497483D01*
X12496Y497423D01*
X12417Y497360D01*
X12341Y497293D01*
X12268Y497224D01*
X12198Y497152D01*
X12130Y497078D01*
X12065Y497001D01*
X12004Y496921D01*
X11945Y496839D01*
X11890Y496755D01*
X11838Y496669D01*
X11789Y496581D01*
X11744Y496491D01*
X11702Y496399D01*
X11664Y496306D01*
X11630Y496211D01*
X11599Y496116D01*
X11572Y496019D01*
X11549Y495921D01*
X11529Y495822D01*
X11514Y495722D01*
X11502Y495622D01*
X11494Y495522D01*
X11490Y495421D01*
X11490Y495321D01*
X11494Y495220D01*
X11502Y495120D01*
X11514Y495020D01*
X11529Y494920D01*
X11549Y494821D01*
X11572Y494723D01*
X11599Y494626D01*
X11630Y494531D01*
X11664Y494436D01*
X11702Y494343D01*
X11744Y494251D01*
X11789Y494161D01*
X11838Y494073D01*
X11890Y493987D01*
X11945Y493903D01*
X12004Y493821D01*
X12065Y493741D01*
X12130Y493664D01*
X12198Y493590D01*
X12268Y493518D01*
X12341Y493449D01*
X12417Y493382D01*
X12496Y493319D01*
X12576Y493259D01*
X12659Y493202D01*
X12745Y493148D01*
X12832Y493098D01*
X12921Y493051D01*
X13012Y493008D01*
X13104Y492968D01*
X13198Y492932D01*
X13293Y492899D01*
X13390Y492870D01*
X13487Y492845D01*
X13586Y492824D01*
X13685Y492806D01*
X13785Y492793D01*
X13885Y492783D01*
X13985Y492777D01*
X14086Y492775D01*
X14086Y492774D02*
X16682Y492774D01*
M02*
