G04 EAGLE Gerber RS-274X export*
G75*
%MOMM*%
%FSLAX34Y34*%
%LPD*%
%AMOC8*
5,1,8,0,0,1.08239X$1,22.5*%
G01*
%ADD10C,4.191000*%
%ADD11R,1.253200X1.283200*%
%ADD12R,1.503200X1.803200*%
%ADD13R,1.128200X0.943200*%
%ADD14R,0.943200X1.128200*%
%ADD15R,1.803200X1.503200*%
%ADD16R,2.353200X2.003200*%
%ADD17R,1.603200X1.803200*%
%ADD18R,1.603200X1.203200*%
%ADD19P,1.869504X8X22.500000*%
%ADD20R,2.403200X0.803200*%
%ADD21R,2.203200X0.603200*%
%ADD22R,0.753200X1.253200*%
%ADD23R,0.503200X1.053200*%
%ADD24R,2.703200X1.953200*%
%ADD25R,1.003200X0.503200*%
%ADD26R,0.503200X1.003200*%
%ADD27R,1.753200X1.753200*%
%ADD28R,1.053200X0.503200*%
%ADD29R,2.903200X2.903200*%
%ADD30R,2.053200X0.853200*%
%ADD31R,0.603200X2.203200*%
%ADD32C,1.524000*%
%ADD33R,0.603200X1.603200*%
%ADD34R,2.503200X2.103200*%
%ADD35R,2.053200X2.103200*%
%ADD36R,1.253200X1.203200*%
%ADD37R,2.403200X1.253200*%
%ADD38R,1.853200X1.853200*%
%ADD39C,1.853200*%
%ADD40R,1.343200X3.253200*%
%ADD41P,1.649562X8X22.500000*%
%ADD42R,1.703200X1.703200*%
%ADD43R,1.203200X1.603200*%
%ADD44R,1.703200X1.503200*%
%ADD45R,1.503200X1.703200*%
%ADD46R,1.803400X1.371600*%
%ADD47R,1.828800X0.152400*%
%ADD48C,1.473200*%
%ADD49C,1.191166*%
%ADD50C,1.778200*%
%ADD51C,2.153200*%
%ADD52C,0.959600*%
%ADD53C,1.059600*%
%ADD54C,0.909600*%
%ADD55C,0.859600*%


D10*
X1038225Y450850D03*
X50800Y50800D03*
D11*
X257950Y104775D03*
X275450Y104775D03*
D12*
X867250Y469900D03*
X847250Y469900D03*
D13*
X841025Y428625D03*
X829025Y428625D03*
X949675Y365125D03*
X961675Y365125D03*
X949675Y355600D03*
X961675Y355600D03*
X965550Y390525D03*
X977550Y390525D03*
D14*
X996950Y390875D03*
X996950Y402875D03*
D11*
X457975Y355600D03*
X475475Y355600D03*
D15*
X517525Y186850D03*
X517525Y206850D03*
D11*
X612000Y304800D03*
X594500Y304800D03*
X207150Y92075D03*
X224650Y92075D03*
X756425Y457200D03*
X773925Y457200D03*
X594500Y482600D03*
X612000Y482600D03*
D16*
X769475Y349250D03*
X798975Y349250D03*
D12*
X743425Y101600D03*
X723425Y101600D03*
D11*
X878700Y101600D03*
X861200Y101600D03*
X1035825Y133350D03*
X1053325Y133350D03*
X637400Y107950D03*
X619900Y107950D03*
D15*
X517525Y66200D03*
X517525Y86200D03*
X536575Y66200D03*
X536575Y86200D03*
D11*
X480200Y288925D03*
X497700Y288925D03*
D17*
X800100Y156450D03*
X800100Y186450D03*
X723900Y150100D03*
X723900Y180100D03*
D11*
X742175Y79375D03*
X724675Y79375D03*
X637400Y228600D03*
X619900Y228600D03*
D15*
X536575Y186850D03*
X536575Y206850D03*
D12*
X867250Y447675D03*
X847250Y447675D03*
D18*
X544400Y473075D03*
X522400Y463575D03*
X522400Y482575D03*
D19*
X95250Y38100D03*
X120650Y38100D03*
X146050Y38100D03*
X171450Y38100D03*
X196850Y38100D03*
X95250Y63500D03*
X120650Y63500D03*
X146050Y63500D03*
X171450Y63500D03*
X196850Y63500D03*
D20*
X357225Y276225D03*
X449225Y250825D03*
X357225Y288925D03*
X357225Y263525D03*
X357225Y250825D03*
X449225Y263525D03*
X449225Y238125D03*
X449225Y225425D03*
X357225Y225425D03*
X449225Y200025D03*
X357225Y238125D03*
X357225Y212725D03*
X449225Y212725D03*
X357225Y200025D03*
X449225Y276225D03*
X449225Y288925D03*
D21*
X606425Y361250D03*
X606425Y349250D03*
X606425Y337250D03*
D22*
X460400Y133550D03*
X469900Y133550D03*
X479400Y133550D03*
X479400Y158550D03*
X469900Y158550D03*
X460400Y158550D03*
D20*
X377225Y342900D03*
X429225Y342900D03*
X377225Y355600D03*
X377225Y330200D03*
X377225Y317500D03*
X429225Y355600D03*
X429225Y330200D03*
X429225Y317500D03*
D23*
X567850Y70725D03*
X572850Y70725D03*
X577850Y70725D03*
X582850Y70725D03*
X587850Y70725D03*
X587850Y100725D03*
X582850Y100725D03*
X577850Y100725D03*
X572850Y100725D03*
X567850Y100725D03*
D24*
X577850Y85725D03*
D25*
X777000Y144900D03*
X777000Y149900D03*
X777000Y154900D03*
X777000Y159900D03*
D26*
X769500Y167400D03*
X764500Y167400D03*
X759500Y167400D03*
X754500Y167400D03*
D25*
X747000Y159900D03*
X747000Y154900D03*
X747000Y149900D03*
X747000Y144900D03*
D26*
X754500Y137400D03*
X759500Y137400D03*
X764500Y137400D03*
X769500Y137400D03*
D27*
X762000Y152400D03*
D23*
X567850Y191375D03*
X572850Y191375D03*
X577850Y191375D03*
X582850Y191375D03*
X587850Y191375D03*
X587850Y221375D03*
X582850Y221375D03*
X577850Y221375D03*
X572850Y221375D03*
X567850Y221375D03*
D24*
X577850Y206375D03*
D28*
X850450Y397350D03*
X850450Y392350D03*
X850450Y387350D03*
X850450Y382350D03*
X850450Y377350D03*
D23*
X859950Y367850D03*
X864950Y367850D03*
X869950Y367850D03*
X874950Y367850D03*
X879950Y367850D03*
D28*
X889450Y377350D03*
X889450Y382350D03*
X889450Y387350D03*
X889450Y392350D03*
X889450Y397350D03*
D23*
X879950Y406850D03*
X874950Y406850D03*
X869950Y406850D03*
X864950Y406850D03*
X859950Y406850D03*
D29*
X869950Y387350D03*
D30*
X639050Y457200D03*
X639050Y444500D03*
X639050Y431800D03*
X639050Y419100D03*
X639050Y406400D03*
X639050Y393700D03*
X639050Y381000D03*
X639050Y368300D03*
X639050Y355600D03*
X639050Y342900D03*
X639050Y330200D03*
X639050Y317500D03*
X639050Y304800D03*
X639050Y292100D03*
X732550Y292100D03*
X732550Y304800D03*
X732550Y317500D03*
X732550Y330200D03*
X732550Y342900D03*
X732550Y355600D03*
X732550Y368300D03*
X732550Y381000D03*
X732550Y393700D03*
X732550Y406400D03*
X732550Y419100D03*
X732550Y431800D03*
X732550Y444500D03*
X732550Y457200D03*
X996075Y63500D03*
X996075Y76200D03*
X996075Y88900D03*
X996075Y101600D03*
X996075Y114300D03*
X996075Y127000D03*
X996075Y139700D03*
X996075Y152400D03*
X996075Y165100D03*
X996075Y177800D03*
X902575Y177800D03*
X902575Y165100D03*
X902575Y152400D03*
X902575Y139700D03*
X902575Y127000D03*
X902575Y114300D03*
X902575Y101600D03*
X902575Y88900D03*
X902575Y76200D03*
X902575Y63500D03*
D21*
X1038225Y70550D03*
X1038225Y82550D03*
X1038225Y94550D03*
D31*
X865888Y336550D03*
X877888Y336550D03*
X889888Y336550D03*
D32*
X365125Y453771D02*
X365125Y466979D01*
X390525Y466979D02*
X390525Y453771D01*
X415925Y453771D02*
X415925Y466979D01*
X441325Y466979D02*
X441325Y453771D01*
X466725Y453771D02*
X466725Y466979D01*
X492125Y466979D02*
X492125Y453771D01*
D33*
X825100Y50000D03*
X831600Y50000D03*
X838100Y50000D03*
X844600Y50000D03*
X851100Y50000D03*
D34*
X875600Y21500D03*
X800600Y21500D03*
D35*
X849350Y21500D03*
X826850Y21500D03*
D36*
X1016625Y390525D03*
D37*
X1031875Y405275D03*
X1031875Y375775D03*
D38*
X231775Y377825D03*
D39*
X256775Y377825D03*
D38*
X203200Y447675D03*
D39*
X228200Y447675D03*
X253200Y447675D03*
X278200Y447675D03*
D38*
X82550Y377825D03*
D39*
X107550Y377825D03*
D38*
X53975Y447675D03*
D39*
X78975Y447675D03*
X103975Y447675D03*
X128975Y447675D03*
D40*
X588650Y149225D03*
X567050Y149225D03*
D13*
X933800Y390525D03*
X945800Y390525D03*
D14*
X914400Y390175D03*
X914400Y378175D03*
X933450Y377475D03*
X933450Y365475D03*
D40*
X588650Y28575D03*
X567050Y28575D03*
D41*
X323850Y31750D03*
X349250Y31750D03*
X676275Y31750D03*
X701675Y31750D03*
D42*
X226975Y304800D03*
X261975Y304800D03*
X941425Y22225D03*
X906425Y22225D03*
X734975Y22225D03*
X769975Y22225D03*
X77750Y304800D03*
X112750Y304800D03*
X1063625Y214350D03*
X1063625Y179350D03*
D41*
X247650Y31750D03*
X273050Y31750D03*
D43*
X304800Y363650D03*
X295300Y385650D03*
X314300Y385650D03*
X155575Y363650D03*
X146075Y385650D03*
X165075Y385650D03*
D44*
X1025525Y187350D03*
X1025525Y206350D03*
D45*
X971575Y209550D03*
X990575Y209550D03*
D44*
X892175Y425475D03*
X892175Y444475D03*
X809625Y82575D03*
X809625Y101575D03*
D45*
X711225Y120650D03*
X730225Y120650D03*
D44*
X787400Y82575D03*
X787400Y101575D03*
D45*
X165125Y92075D03*
X184125Y92075D03*
X631850Y31750D03*
X650850Y31750D03*
D44*
X765175Y82575D03*
X765175Y101575D03*
D45*
X1054075Y111125D03*
X1035075Y111125D03*
D44*
X669925Y212750D03*
X669925Y231750D03*
D45*
X714350Y212725D03*
X695350Y212725D03*
X679425Y266700D03*
X660425Y266700D03*
D44*
X323850Y82525D03*
X323850Y63525D03*
X828675Y352400D03*
X828675Y333400D03*
X336550Y365150D03*
X336550Y384150D03*
D45*
X314300Y409575D03*
X295300Y409575D03*
X253975Y330200D03*
X234975Y330200D03*
X593750Y463550D03*
X612750Y463550D03*
D44*
X568325Y463575D03*
X568325Y482575D03*
D45*
X984225Y22225D03*
X965225Y22225D03*
D44*
X184150Y365150D03*
X184150Y384150D03*
D45*
X761975Y44450D03*
X742975Y44450D03*
X1041425Y234950D03*
X1060425Y234950D03*
X523900Y301625D03*
X542900Y301625D03*
X523900Y327025D03*
X542900Y327025D03*
D44*
X247650Y82525D03*
X247650Y63525D03*
D45*
X165075Y409575D03*
X146075Y409575D03*
X104750Y330200D03*
X85750Y330200D03*
D44*
X638175Y206350D03*
X638175Y187350D03*
X638175Y85700D03*
X638175Y66700D03*
D46*
X222250Y58420D03*
X222250Y43180D03*
D47*
X222250Y50800D03*
D43*
X704850Y255475D03*
X714350Y233475D03*
X695350Y233475D03*
D48*
X1006475Y276225D03*
X704850Y63500D03*
X742950Y234950D03*
X530225Y146050D03*
X704850Y92075D03*
X879475Y152400D03*
X1006475Y222250D03*
X771525Y419100D03*
X339725Y409575D03*
X847725Y133350D03*
X784225Y44450D03*
X828675Y152400D03*
X1016000Y111125D03*
X584200Y323850D03*
X565150Y339725D03*
X758825Y431800D03*
X771525Y393700D03*
X771525Y368300D03*
X758825Y406400D03*
X758825Y381000D03*
X758825Y330200D03*
X682625Y152400D03*
X771525Y317500D03*
X758825Y304800D03*
X295275Y269875D03*
X28575Y95250D03*
X53975Y95250D03*
X190500Y409575D03*
X415925Y146050D03*
X530225Y25400D03*
X793750Y215900D03*
X777875Y228600D03*
X1025525Y155575D03*
X206375Y107950D03*
D49*
X92135Y126590D02*
X92135Y131710D01*
X92135Y126590D02*
X92015Y126590D01*
X92015Y131710D01*
X92135Y131710D01*
X107135Y131710D02*
X107135Y126590D01*
X107015Y126590D01*
X107015Y131710D01*
X107135Y131710D01*
X122135Y131710D02*
X122135Y126590D01*
X122015Y126590D01*
X122015Y131710D01*
X122135Y131710D01*
X137135Y131710D02*
X137135Y126590D01*
X137015Y126590D01*
X137015Y131710D01*
X137135Y131710D01*
X152135Y131710D02*
X152135Y126590D01*
X152015Y126590D01*
X152015Y131710D01*
X152135Y131710D01*
X167135Y131710D02*
X167135Y126590D01*
X167015Y126590D01*
X167015Y131710D01*
X167135Y131710D01*
X182135Y131710D02*
X182135Y126590D01*
X182015Y126590D01*
X182015Y131710D01*
X182135Y131710D01*
X197135Y131710D02*
X197135Y126590D01*
X197015Y126590D01*
X197015Y131710D01*
X197135Y131710D01*
X212135Y131710D02*
X212135Y126590D01*
X212015Y126590D01*
X212015Y131710D01*
X212135Y131710D01*
X227135Y131710D02*
X227135Y126590D01*
X227015Y126590D01*
X227015Y131710D01*
X227135Y131710D01*
X242135Y131710D02*
X242135Y126590D01*
X242015Y126590D01*
X242015Y131710D01*
X242135Y131710D01*
X257135Y131710D02*
X257135Y126590D01*
X257015Y126590D01*
X257015Y131710D01*
X257135Y131710D01*
X272135Y131710D02*
X272135Y126590D01*
X272015Y126590D01*
X272015Y131710D01*
X272135Y131710D01*
X290215Y144610D02*
X295335Y144610D01*
X295335Y144490D01*
X290215Y144490D01*
X290215Y144610D01*
X290215Y159610D02*
X295335Y159610D01*
X295335Y159490D01*
X290215Y159490D01*
X290215Y159610D01*
X290215Y174610D02*
X295335Y174610D01*
X295335Y174490D01*
X290215Y174490D01*
X290215Y174610D01*
X290215Y189610D02*
X295335Y189610D01*
X295335Y189490D01*
X290215Y189490D01*
X290215Y189610D01*
X290215Y204610D02*
X295335Y204610D01*
X295335Y204490D01*
X290215Y204490D01*
X290215Y204610D01*
X290215Y219610D02*
X295335Y219610D01*
X295335Y219490D01*
X290215Y219490D01*
X290215Y219610D01*
X290215Y234610D02*
X295335Y234610D01*
X295335Y234490D01*
X290215Y234490D01*
X290215Y234610D01*
X290215Y249610D02*
X295335Y249610D01*
X295335Y249490D01*
X290215Y249490D01*
X290215Y249610D01*
X272015Y261990D02*
X272015Y267110D01*
X272135Y267110D01*
X272135Y261990D01*
X272015Y261990D01*
X257015Y261990D02*
X257015Y267110D01*
X257135Y267110D01*
X257135Y261990D01*
X257015Y261990D01*
X242015Y261990D02*
X242015Y267110D01*
X242135Y267110D01*
X242135Y261990D01*
X242015Y261990D01*
X227015Y261990D02*
X227015Y267110D01*
X227135Y267110D01*
X227135Y261990D01*
X227015Y261990D01*
X212015Y261990D02*
X212015Y267110D01*
X212135Y267110D01*
X212135Y261990D01*
X212015Y261990D01*
X197015Y261990D02*
X197015Y267110D01*
X197135Y267110D01*
X197135Y261990D01*
X197015Y261990D01*
X182015Y261990D02*
X182015Y267110D01*
X182135Y267110D01*
X182135Y261990D01*
X182015Y261990D01*
X167015Y261990D02*
X167015Y267110D01*
X167135Y267110D01*
X167135Y261990D01*
X167015Y261990D01*
X152015Y261990D02*
X152015Y267110D01*
X152135Y267110D01*
X152135Y261990D01*
X152015Y261990D01*
X137015Y261990D02*
X137015Y267110D01*
X137135Y267110D01*
X137135Y261990D01*
X137015Y261990D01*
X122015Y261990D02*
X122015Y267110D01*
X122135Y267110D01*
X122135Y261990D01*
X122015Y261990D01*
X107015Y261990D02*
X107015Y267110D01*
X107135Y267110D01*
X107135Y261990D01*
X107015Y261990D01*
X92015Y261990D02*
X92015Y267110D01*
X92135Y267110D01*
X92135Y261990D01*
X92015Y261990D01*
D15*
X615950Y186850D03*
X615950Y206850D03*
X615950Y66200D03*
X615950Y86200D03*
D50*
X462000Y71075D03*
X417000Y71075D03*
D51*
X474500Y96075D03*
X404500Y96075D03*
D44*
X758825Y219050D03*
X758825Y200050D03*
D48*
X666750Y476250D03*
D44*
X317500Y444525D03*
X317500Y463525D03*
X339725Y444525D03*
X339725Y463525D03*
D52*
X762000Y152400D03*
D53*
X869950Y387350D03*
X847725Y66675D03*
X860425Y66675D03*
X873125Y66675D03*
X885825Y66675D03*
X800100Y22225D03*
X876300Y22225D03*
X606425Y107950D03*
X571500Y85725D03*
X584200Y85725D03*
X571500Y206375D03*
X584200Y206375D03*
D52*
X908050Y422275D03*
X933450Y422275D03*
X962025Y422275D03*
X987425Y422275D03*
D54*
X1009650Y428625D03*
X1063625Y422275D03*
X1063625Y409575D03*
X1063625Y396875D03*
X1063625Y384175D03*
X1063625Y371475D03*
X1063625Y358775D03*
X1038225Y349250D03*
X1025525Y349250D03*
D52*
X1031875Y374650D03*
X1031875Y406400D03*
D54*
X1012825Y349250D03*
X952500Y209550D03*
X1003300Y22225D03*
X1025525Y38100D03*
X1047750Y38100D03*
X1063625Y53975D03*
X1063625Y92075D03*
X847725Y101600D03*
X796925Y127000D03*
X869950Y114300D03*
X825500Y136525D03*
X762000Y44450D03*
X720725Y63500D03*
X714375Y19050D03*
D52*
X723900Y196850D03*
X727075Y234950D03*
X628650Y482600D03*
X679450Y485775D03*
X711200Y485775D03*
X739775Y485775D03*
X288925Y104775D03*
X323850Y104775D03*
X355600Y104775D03*
X901700Y349250D03*
X917575Y352425D03*
X974725Y358775D03*
X996950Y358775D03*
X876300Y317500D03*
X892175Y463550D03*
X828675Y447675D03*
X828675Y469900D03*
X790575Y457200D03*
X492125Y355600D03*
X581025Y349250D03*
X711200Y342900D03*
X390525Y307975D03*
X273050Y247650D03*
X273050Y146050D03*
X850900Y419100D03*
X603250Y222250D03*
X146050Y384175D03*
X498475Y482600D03*
X901700Y403225D03*
X869950Y428625D03*
X854075Y346075D03*
X615950Y31750D03*
X520700Y136525D03*
X558800Y234950D03*
X558800Y190500D03*
X542900Y285775D03*
X612775Y288925D03*
X758825Y260350D03*
X828675Y292100D03*
X828675Y333400D03*
X479425Y276225D03*
X460375Y342900D03*
X365125Y95250D03*
X660400Y444500D03*
X387350Y400276D03*
X111125Y466725D03*
X262400Y481475D03*
X117475Y416151D03*
X66675Y358775D03*
X222250Y69850D03*
X930275Y206375D03*
X593750Y463550D03*
X371475Y381000D03*
X254000Y203200D03*
X358775Y393700D03*
X254000Y215900D03*
X692150Y431800D03*
X910999Y222250D03*
X692150Y444500D03*
X917575Y206375D03*
D54*
X825500Y371475D03*
X825500Y406400D03*
D55*
X803275Y431800D03*
D54*
X803275Y387350D03*
D52*
X711200Y317500D03*
X488950Y317500D03*
X701675Y307975D03*
X476250Y307975D03*
X685800Y390525D03*
X365125Y403225D03*
X676275Y422275D03*
X660400Y403225D03*
X317500Y428625D03*
X669699Y412750D03*
X733425Y219075D03*
X971550Y165100D03*
X1054075Y111125D03*
X993775Y50800D03*
X1016000Y133350D03*
X769975Y22225D03*
X244475Y250825D03*
X244475Y95250D03*
X666750Y247424D03*
X777875Y228600D03*
X679450Y250825D03*
X793750Y228826D03*
X336550Y339725D03*
X184150Y339725D03*
X1063625Y330200D03*
X1012825Y330200D03*
X1038225Y330200D03*
X1025525Y330200D03*
X1050925Y330200D03*
X746125Y180975D03*
X488950Y146050D03*
X593725Y111125D03*
X593725Y231775D03*
X349250Y301625D03*
X273835Y400835D03*
X295275Y438150D03*
X273835Y429410D03*
X933450Y352425D03*
M02*
